<svg width="320" height="120" viewBox="0 0 320 120" fill="none" xmlns="http://www.w3.org/2000/svg">
<path fill-rule="evenodd" clip-rule="evenodd" d="M115.088 36.5467L46.7044 104.927H44.8684L0 60.0623V120H59.9409C93.0435 120 119.879 93.1648 119.879 60.0623C119.879 51.7153 118.171 43.7657 115.088 36.5467Z" fill="white"/>
<path fill-rule="evenodd" clip-rule="evenodd" d="M46.7036 76.6273L103.953 19.3779C93.0043 7.53838 77.3389 0.123871 59.9402 0.123871H0.201102H0.00244141V60.0616H28.3051L44.8708 76.6273H46.7036Z" fill="white"/>
<path fill-rule="evenodd" clip-rule="evenodd" d="M163.876 48.8986C163.876 40.0871 160.271 34.8802 150.258 34.8802H141.447L141.046 35.2808V62.5164L141.447 62.917H150.258C160.271 62.917 163.876 57.7101 163.876 48.8986ZM158.269 48.8986C158.269 55.307 156.266 58.1107 150.659 58.1107H147.054L146.654 57.7101V40.0871L147.054 39.6865H150.659C156.266 39.6865 158.269 42.4902 158.269 48.8986ZM186.306 62.5164V58.5112L185.905 58.1107H172.688L172.287 57.7101V51.3017L172.688 50.9012H185.104L185.505 50.5007V46.4954L185.104 46.0949H172.688L172.287 45.6944V40.0871L172.688 39.6865H185.905L186.306 39.286V35.2808L185.905 34.8802H167.08L166.68 35.2808V62.5164L167.08 62.917H185.905L186.306 62.5164ZM212.183 54.9065C212.183 49.2991 207.777 46.896 202.17 46.0949C196.559 45.2939 194.957 44.4928 194.957 42.0897C194.957 40.4876 196.162 39.286 199.766 39.286C204.172 39.286 205.374 40.4876 205.374 42.8907L205.774 43.2912H210.581L210.981 42.8907C210.981 38.0844 207.777 34.4797 200.167 34.4797C192.554 34.4797 189.35 38.0844 189.35 42.0897C189.35 47.697 193.755 49.6996 199.366 50.5007C204.973 51.3017 206.575 52.1028 206.575 54.9065C206.575 57.3096 204.573 58.5112 200.965 58.5112C196.162 58.5112 194.556 56.9091 194.556 54.1054L194.159 53.7049H189.35L188.949 54.1054C188.949 59.3122 192.554 63.3175 200.564 63.3175C208.978 63.3175 212.183 59.3122 212.183 54.9065ZM221.395 62.5164V35.2808L220.994 34.8802H216.188L215.787 35.2808V62.5164L216.188 62.917H220.994L221.395 62.5164ZM250.473 62.5164V48.0975L250.072 47.697H237.656L237.255 48.0975V52.1028L237.656 52.5033H244.465L244.865 52.9038C244.865 56.108 242.863 58.5112 238.457 58.5112C233.25 58.5112 230.447 54.5059 230.447 48.8986C230.447 43.2912 233.25 39.286 238.457 39.286C242.863 39.286 244.064 41.2886 244.865 42.8907L245.266 43.2912H250.072L250.473 42.8907C249.672 38.8855 246.468 34.4797 238.457 34.4797C230.046 34.4797 224.839 40.4876 224.839 48.8986C224.839 57.3096 230.046 63.3175 238.057 63.3175C242.462 63.3175 244.465 61.3149 245.266 60.5138H245.667L246.067 62.5164L246.468 62.917H250.072L250.473 62.5164ZM254.238 35.2808V62.5164L254.638 62.917H259.445L259.845 62.5164V44.0923H260.246L271.063 62.5164L271.864 62.917H277.471L277.872 62.5164V35.2808L277.471 34.8802H272.665L272.265 35.2808V53.7049H271.864L261.047 35.2808L260.246 34.8802H254.638L254.238 35.2808Z" fill="white"/>
<path fill-rule="evenodd" clip-rule="evenodd" d="M164.68 28.0399V13.621L164.279 13.2205H151.863L151.462 13.621V17.6263L151.863 18.0268H158.672L159.072 18.4273C159.072 21.6315 157.07 24.0347 152.664 24.0347C147.457 24.0347 144.654 20.0294 144.654 14.4221C144.654 8.81475 147.457 4.8063 152.664 4.8063C157.07 4.8063 158.271 6.80892 159.072 8.41422L159.473 8.81475H164.279L164.68 8.41422C163.879 4.40577 160.674 0 152.664 0C144.253 0 139.043 6.00787 139.043 14.4221C139.043 22.8331 144.253 28.841 152.263 28.841C156.669 28.841 158.672 26.8384 159.473 26.0373H159.873L160.274 28.0399L160.674 28.4405H164.279L164.68 28.0399ZM189.432 14.4221C189.432 20.0294 186.628 24.0347 181.422 24.0347C176.215 24.0347 173.411 20.0294 173.411 14.4221C173.411 8.81475 176.215 4.8063 181.422 4.8063C186.628 4.8063 189.432 8.81475 189.432 14.4221ZM195.043 14.4221C195.043 6.00787 189.833 0 181.422 0C173.011 0 167.804 6.00787 167.804 14.4221C167.804 22.8331 173.011 28.841 181.422 28.841C189.833 28.841 195.043 22.8331 195.043 14.4221ZM219.475 14.4221C219.475 20.0294 216.671 24.0347 211.464 24.0347C206.257 24.0347 203.454 20.0294 203.454 14.4221C203.454 8.81475 206.257 4.8063 211.464 4.8063C216.671 4.8063 219.475 8.81475 219.475 14.4221ZM225.082 14.4221C225.082 6.00787 219.875 0 211.464 0C203.053 0 197.846 6.00787 197.846 14.4221C197.846 22.8331 203.053 28.841 211.464 28.841C219.875 28.841 225.082 22.8331 225.082 14.4221ZM251.36 14.4221C251.36 5.60734 247.752 0.400525 237.739 0.400525H228.927L228.527 0.801049V28.0399L228.927 28.4405H237.739C247.752 28.4405 251.36 23.2336 251.36 14.4221ZM245.749 14.4221C245.749 20.8305 243.746 23.6342 238.139 23.6342H234.534L234.134 23.2336V5.60734L234.534 5.20682H238.139C243.746 5.20682 245.749 8.0137 245.749 14.4221Z" fill="white"/>
<path fill-rule="evenodd" clip-rule="evenodd" d="M164.435 96.142V92.1431L155.236 68.9447L154.835 68.5442H149.635L149.237 68.9447L140.038 92.1431V96.142L140.439 96.5425H144.037L144.437 96.142L146.437 90.9416L147.238 90.541H157.235L158.036 90.9416L160.035 96.142L160.436 96.5425H164.034L164.435 96.142ZM156.037 85.3438L155.636 85.7443H148.837L148.436 85.3438L152.035 75.7441H152.435L156.037 85.3438ZM178.38 68.5442L177.982 68.9447L172.782 87.3432H172.381L168.382 68.9447L167.982 68.5442H163.983L163.583 68.9447V72.9436L169.581 96.142L169.981 96.5425H175.182L175.579 96.142L180.779 76.9424H181.18L186.38 96.142L186.781 96.5425H191.978L192.379 96.142L198.38 72.9436V68.9447L197.98 68.5442H193.978L193.58 68.9447L189.578 87.3432H189.181L183.98 68.9447L183.58 68.5442H178.38ZM222.136 96.142V92.1431L212.937 68.9447L212.536 68.5442H207.336L206.939 68.9447L197.739 92.1431V96.142L198.137 96.5425H201.738L202.139 96.142L204.138 90.9416L204.939 90.541H214.936L215.737 90.9416L217.737 96.142L218.137 96.5425H221.735L222.136 96.142ZM213.738 85.3438L213.337 85.7443H206.538L206.137 85.3438L209.736 75.7441H210.136L213.738 85.3438ZM248.132 76.9424C248.132 71.3447 244.133 68.5442 238.535 68.5442H225.334L224.933 68.9447V96.142L225.334 96.5425H230.134L230.534 96.142V85.7443L230.935 85.3438H234.934L235.731 85.7443L243.732 96.142L244.533 96.5425H246.933L247.331 96.142V92.1431L242.133 85.3438V84.9433C245.331 84.1422 248.132 81.3418 248.132 76.9424ZM242.534 76.9424C242.534 79.7429 240.932 80.5439 238.535 80.5439H230.935L230.534 80.1434V73.7446L230.935 73.3441H238.535C240.932 73.3441 242.534 74.1452 242.534 76.9424ZM274.05 82.5434C274.05 73.7446 270.449 68.5442 260.452 68.5442H251.65L251.253 68.9447V96.142L251.65 96.5425H260.452C270.449 96.5425 274.05 91.3421 274.05 82.5434ZM268.449 82.5434C268.449 88.9421 266.45 91.7426 260.849 91.7426H257.251L256.85 91.3421V73.7446L257.251 73.3441H260.849C266.45 73.3441 268.449 76.1446 268.449 82.5434Z" fill="white"/>
<path fill-rule="evenodd" clip-rule="evenodd" d="M282.03 66.0026C285.164 66.0026 287.67 68.5115 287.67 71.642C287.67 74.7725 285.164 77.2814 282.03 77.2814C278.9 77.2814 276.391 74.7725 276.391 71.642C276.391 68.5115 278.9 66.0026 282.03 66.0026ZM282.03 76.4963C284.693 76.4963 286.888 74.3047 286.888 71.642C286.888 68.9793 284.693 66.7876 282.03 66.7876C279.367 66.7876 277.173 68.9793 277.173 71.642C277.173 74.3047 279.367 76.4963 282.03 76.4963ZM284.85 73.9907V74.6187L284.693 74.7725H284.536L284.225 74.6187L282.658 72.427L282.344 72.2668H280.777L280.62 72.427V74.6187L280.463 74.7725H279.838L279.681 74.6187V68.6653L279.838 68.5115H282.972C284.068 68.5115 285.007 69.1363 285.007 70.3891C285.007 71.328 284.379 71.956 283.597 72.1098V72.2668L284.85 73.9907ZM282.972 69.2933H280.777L280.62 69.4503V71.328L280.777 71.485H282.972C283.754 71.485 284.068 71.0172 284.068 70.3891C284.068 69.7611 283.754 69.2933 282.972 69.2933Z" fill="white"/>
<path fill-rule="evenodd" clip-rule="evenodd" d="M152.592 102.058L152.848 102.314L156.177 114.096H156.433L158.994 102.314L159.25 102.058H161.813L162.066 102.314V104.874L158.228 119.729L157.971 119.985H154.639L154.386 119.729L151.054 107.438H150.797L147.468 119.729L147.212 119.985H143.883L143.626 119.729L139.784 104.874V102.314L140.041 102.058H142.601L142.86 102.314L145.421 114.096H145.677L149.006 102.314L149.262 102.058H152.592Z" fill="white"/>
<path fill-rule="evenodd" clip-rule="evenodd" d="M167.99 119.988H164.917L164.66 119.732V102.317L164.917 102.061H167.99L168.246 102.317V119.732L167.99 119.988Z" fill="white"/>
<path fill-rule="evenodd" clip-rule="evenodd" d="M172.164 102.058H175.75L176.262 102.314L183.177 114.096H183.433V102.314L183.69 102.058H186.763L187.019 102.314V119.729L186.763 119.985H183.177L182.664 119.729L175.75 107.947H175.493V119.729L175.237 119.985H172.164L171.908 119.729V102.314L172.164 102.058Z" fill="white"/>
<path fill-rule="evenodd" clip-rule="evenodd" d="M190.977 102.058H194.562L195.075 102.314L201.99 114.096H202.246V102.314L202.502 102.058H205.575L205.832 102.314V119.729L205.575 119.985H201.99L201.477 119.729L194.562 107.947H194.306V119.729L194.05 119.985H190.977L190.721 119.729V102.314L190.977 102.058Z" fill="white"/>
<path fill-rule="evenodd" clip-rule="evenodd" d="M221.827 119.988H209.789L209.532 119.732V102.317L209.789 102.061H221.827L222.083 102.317V104.877L221.827 105.134H213.374L213.118 105.39V108.975L213.374 109.232H221.314L221.571 109.488V112.048L221.314 112.305H213.374L213.118 112.561V116.659L213.374 116.915H221.827L222.083 117.172V119.732L221.827 119.988Z" fill="white"/>
<path fill-rule="evenodd" clip-rule="evenodd" d="M233.987 105.134H229.12L228.864 105.39V109.488L229.12 109.744H233.987C235.525 109.744 236.547 109.232 236.547 107.437C236.547 105.646 235.525 105.134 233.987 105.134ZM236.291 112.561V112.817L239.623 117.172V119.732L239.367 119.988H237.829L237.316 119.732L232.193 113.074L231.683 112.817H229.12L228.864 113.074V119.732L228.607 119.988H225.534L225.278 119.732V102.317L225.534 102.061H233.987C237.573 102.061 240.133 103.852 240.133 107.437C240.133 110.257 238.342 112.048 236.291 112.561Z" fill="white"/>
</svg>
