<svg width="176" height="128" viewBox="0 0 176 128" fill="none" xmlns="http://www.w3.org/2000/svg">
<rect width="176" height="128" fill="black"/>
<path d="M33.6265 63.8594L50.3768 47.35L67.127 63.8594L50.3768 80.3688L33.6265 63.8594ZM50.3768 46L32.2283 63.8875L50.3482 81.7469L68.4967 63.8594L50.3768 46Z" fill="white"/>
<path d="M45.9824 53.4531L50.3768 49.1219L65.3579 63.8875L60.9634 68.2188L45.9824 53.4531ZM55.6844 73.4219L60.0788 69.0906L50.4054 59.5563L45.9824 63.8594L55.6844 73.4219ZM50.3768 78.625L54.7713 74.2938L50.3768 69.9625L45.9824 74.2938L50.3768 78.625ZM44.2132 63.8594L49.4922 58.6563L45.0978 54.325L35.3958 63.8875L45.0692 73.4219L49.4637 69.0906L44.2132 63.8594Z" fill="white"/>
<path d="M79.4828 67.9375H79.9964L81.8227 72.1562H81.1378L80.7098 71.1156H78.6838L78.2558 72.1562H77.5709L79.4828 67.9375ZM80.5101 70.6094L79.7111 68.6687L78.9121 70.6094H80.5101Z" fill="white"/>
<path d="M84.7332 72.1562H84.1911V71.7344C84.134 71.875 83.9913 72.0156 83.8487 72.1C83.6774 72.1844 83.4777 72.2406 83.2494 72.2406C83.1067 72.2406 82.9641 72.2125 82.8499 72.1844C82.7358 72.1562 82.6216 72.0719 82.5075 71.9875C82.4219 71.9031 82.3363 71.7906 82.2792 71.65C82.2221 71.5094 82.1936 71.3406 82.1936 71.1719V69.3437H82.7358V71.0031C82.7358 71.1437 82.7643 71.2562 82.7928 71.3406C82.8214 71.425 82.8785 71.5094 82.9355 71.5656C82.9926 71.6219 83.0782 71.6781 83.1353 71.6781C83.2209 71.7062 83.3065 71.7062 83.3921 71.7062C83.5062 71.7062 83.6204 71.6781 83.706 71.65C83.7916 71.6219 83.8772 71.5656 83.9628 71.4812C84.0484 71.3969 84.0769 71.3125 84.134 71.2C84.1625 71.0875 84.1911 70.9469 84.1911 70.7781V69.3437H84.7332V72.1562V72.1562Z" fill="white"/>
<path d="M87.0731 70.0469C87.0161 69.9625 86.9305 69.9063 86.8449 69.85C86.7593 69.7938 86.6451 69.7656 86.5024 69.7656C86.3598 69.7656 86.2742 69.7938 86.16 69.85C86.0744 69.9063 86.0173 69.9906 86.0173 70.075C86.0173 70.1594 86.0459 70.2156 86.1029 70.2719C86.16 70.3281 86.2171 70.3563 86.3027 70.3844C86.3883 70.4125 86.4454 70.4406 86.531 70.4688C86.6166 70.4969 86.6737 70.4969 86.7593 70.4969C86.8734 70.525 86.9875 70.5531 87.1017 70.6094C87.2158 70.6375 87.3014 70.6938 87.3585 70.7781C87.4441 70.8344 87.5012 70.9188 87.5297 71.0031C87.5583 71.0875 87.5868 71.2 87.5868 71.3406C87.5868 71.5094 87.5582 71.6219 87.4726 71.7344C87.4156 71.8469 87.33 71.9313 87.2158 72.0156C87.1017 72.1 86.9875 72.1281 86.8449 72.1844C86.7022 72.2125 86.5595 72.2406 86.4168 72.2406C86.1886 72.2406 85.9603 72.2125 85.7891 72.1281C85.6178 72.0438 85.4466 71.9313 85.304 71.7344L85.7035 71.3969C85.7891 71.4813 85.9032 71.5656 85.9888 71.6219C86.103 71.6781 86.2171 71.7344 86.3883 71.7344C86.4454 71.7344 86.531 71.7344 86.588 71.7063C86.6451 71.7063 86.7307 71.6781 86.7878 71.65C86.8449 71.6219 86.8734 71.5938 86.9305 71.5375C86.959 71.4813 86.9875 71.425 86.9875 71.3688C86.9875 71.2844 86.959 71.2281 86.9019 71.1719C86.8449 71.1156 86.7878 71.0875 86.7307 71.0594C86.6737 71.0313 86.588 71.0031 86.5024 70.975C86.4168 70.9469 86.3598 70.9469 86.3027 70.9188C86.1885 70.8906 86.0744 70.8625 85.9603 70.8344C85.8461 70.8063 85.7605 70.75 85.6749 70.6938C85.5893 70.6375 85.5322 70.5531 85.4752 70.4688C85.4181 70.3844 85.3896 70.2719 85.3896 70.1313C85.3896 69.9906 85.4181 69.85 85.4752 69.7375C85.5322 69.625 85.6178 69.5406 85.732 69.4563C85.8461 69.3719 85.9603 69.3438 86.0744 69.2875C86.2171 69.2594 86.3312 69.2313 86.4739 69.2313C86.6737 69.2313 86.8449 69.2594 87.0161 69.3438C87.1873 69.4281 87.33 69.5406 87.4441 69.7094L87.0731 70.0469Z" fill="white"/>
<path d="M89.8696 69.7937H89.0991V71.0594C89.0991 71.1437 89.0991 71.2281 89.0991 71.2843C89.0991 71.3687 89.1277 71.425 89.1562 71.4812C89.1847 71.5375 89.2133 71.5937 89.2704 71.6219C89.3274 71.65 89.413 71.6781 89.4986 71.6781C89.5557 71.6781 89.6413 71.6781 89.6984 71.65C89.7555 71.65 89.8411 71.6219 89.8981 71.5937V72.0719C89.8411 72.1 89.7555 72.1281 89.6413 72.1562C89.5272 72.1844 89.4701 72.1844 89.413 72.1844C89.2133 72.1844 89.0421 72.1562 88.9279 72.1C88.8138 72.0437 88.7282 71.9594 88.6711 71.875C88.614 71.7906 88.5855 71.6781 88.5855 71.5656C88.5855 71.4531 88.557 71.3406 88.557 71.2281V69.7656H87.9292V69.3437H88.557V68.5562H89.0991V69.3437H89.8696V69.7937V69.7937Z" fill="white"/>
<path d="M90.4974 69.3437H91.0396V69.7656C91.0681 69.6812 91.1252 69.625 91.1823 69.5687C91.2394 69.5125 91.2964 69.4562 91.382 69.4C91.4676 69.3437 91.5247 69.3156 91.6389 69.2875C91.7245 69.2593 91.8101 69.2594 91.8957 69.2594C91.9813 69.2594 92.0669 69.2593 92.124 69.2875L92.0954 69.8781C92.0384 69.8781 92.0098 69.85 91.9527 69.85C91.8957 69.85 91.8671 69.85 91.8101 69.85C91.5533 69.85 91.3535 69.9344 91.2108 70.075C91.0681 70.2156 91.0111 70.4406 91.0111 70.75V72.1562H90.4974V69.3437Z" fill="white"/>
<path d="M92.6947 69.6812C92.8374 69.5406 93.0371 69.4281 93.2368 69.3719C93.4366 69.3156 93.6363 69.2594 93.8361 69.2594C94.0358 69.2594 94.2356 69.2875 94.3783 69.3437C94.5209 69.4 94.6636 69.4562 94.7492 69.5406C94.8348 69.625 94.9204 69.7375 94.9775 69.85C95.0346 69.9625 95.0346 70.075 95.0346 70.2156V71.65C95.0346 71.7625 95.0346 71.8469 95.0346 71.9312C95.0346 72.0156 95.0346 72.1 95.0631 72.1562H94.578C94.578 72.0156 94.5495 71.875 94.5495 71.7344C94.4353 71.9031 94.2927 72.0437 94.1214 72.1281C93.9502 72.2125 93.779 72.2406 93.5507 72.2406C93.4081 72.2406 93.2939 72.2125 93.1798 72.1844C93.0656 72.1562 92.9515 72.1 92.8659 72.0156C92.7803 71.9312 92.6947 71.8469 92.6376 71.7625C92.5805 71.65 92.552 71.5375 92.552 71.3968C92.552 71.2281 92.5805 71.0594 92.6661 70.9469C92.7517 70.8344 92.8659 70.7219 93.0086 70.6375C93.1512 70.5531 93.3225 70.4969 93.5222 70.4687C93.7219 70.4406 93.9217 70.4125 94.1214 70.4125H94.5209V70.3C94.5209 70.2156 94.4924 70.1594 94.4924 70.075C94.4639 69.9906 94.4353 69.9343 94.3783 69.8781C94.3212 69.8218 94.2641 69.7656 94.1785 69.7375C94.0929 69.7093 94.0073 69.6812 93.8646 69.6812C93.7505 69.6812 93.6649 69.6812 93.5793 69.7093C93.4937 69.7375 93.4366 69.7656 93.3795 69.7937C93.3225 69.8219 93.2654 69.85 93.2083 69.9062C93.1512 69.9344 93.0942 69.9906 93.0656 70.0187L92.6947 69.6812ZM94.2356 70.8062C94.0929 70.8062 93.9788 70.8062 93.8361 70.8343C93.6934 70.8625 93.5793 70.8625 93.4651 70.9187C93.351 70.9469 93.2654 71.0031 93.1798 71.0875C93.1227 71.1719 93.0656 71.2562 93.0656 71.3687C93.0656 71.5375 93.1227 71.65 93.2368 71.7062C93.351 71.7906 93.4937 71.8187 93.6934 71.8187C93.8361 71.8187 93.9788 71.7906 94.0644 71.7344C94.1785 71.6781 94.2641 71.6218 94.3212 71.5375C94.3783 71.4531 94.4353 71.3687 94.4639 71.2843C94.4924 71.2 94.4924 71.0875 94.4924 71.0031V70.8343H94.2356V70.8062Z" fill="white"/>
<path d="M96.4042 67.6562H95.8621V72.1562H96.4042V67.6562Z" fill="white"/>
<path d="M97.1461 68.3312C97.1461 68.2187 97.1747 68.1344 97.2603 68.05C97.3459 67.9656 97.4315 67.9375 97.5456 67.9375C97.6598 67.9375 97.7454 67.9656 97.831 68.05C97.9166 68.1344 97.9451 68.2187 97.9451 68.3312C97.9451 68.4437 97.9166 68.5281 97.831 68.6125C97.7454 68.6969 97.6598 68.725 97.5456 68.725C97.4315 68.725 97.3459 68.6969 97.2603 68.6125C97.1747 68.5281 97.1461 68.4437 97.1461 68.3312ZM97.2603 69.3437H97.8024V72.1562H97.2603V69.3437Z" fill="white"/>
<path d="M98.63 69.6812C98.7727 69.5406 98.9724 69.4281 99.1721 69.3719C99.3719 69.3156 99.5716 69.2594 99.7714 69.2594C99.9711 69.2594 100.171 69.2875 100.314 69.3437C100.456 69.4 100.599 69.4562 100.685 69.5406C100.77 69.625 100.856 69.7375 100.913 69.85C100.97 69.9625 100.97 70.075 100.97 70.2156V71.65C100.97 71.7625 100.97 71.8469 100.97 71.9312C100.97 72.0156 100.97 72.1 100.998 72.1562H100.513C100.513 72.0156 100.485 71.875 100.485 71.7344C100.371 71.9031 100.228 72.0437 100.057 72.1281C99.8855 72.2125 99.7143 72.2406 99.486 72.2406C99.3434 72.2406 99.2292 72.2125 99.1151 72.1844C99.0009 72.1562 98.8868 72.1 98.8012 72.0156C98.7156 71.9312 98.63 71.8469 98.5729 71.7625C98.5158 71.65 98.4873 71.5375 98.4873 71.3968C98.4873 71.2281 98.5158 71.0594 98.6014 70.9469C98.687 70.8344 98.8012 70.7219 98.9439 70.6375C99.0865 70.5531 99.2578 70.4969 99.4575 70.4687C99.6572 70.4406 99.857 70.4125 100.057 70.4125H100.456V70.3C100.456 70.2156 100.428 70.1594 100.428 70.075C100.399 69.9906 100.371 69.9343 100.314 69.8781C100.256 69.8218 100.199 69.7656 100.114 69.7375C100.028 69.7093 99.9426 69.6812 99.7999 69.6812C99.6858 69.6812 99.6002 69.6812 99.5146 69.7093C99.429 69.7375 99.3719 69.7656 99.3148 69.7937C99.2578 69.8219 99.2007 69.85 99.1436 69.9062C99.0865 69.9344 99.0295 69.9906 99.0009 70.0187L98.63 69.6812ZM100.171 70.8062C100.028 70.8062 99.9141 70.8062 99.7714 70.8343C99.6287 70.8625 99.5146 70.8625 99.4004 70.9187C99.2863 70.9469 99.2007 71.0031 99.1151 71.0875C99.058 71.1719 99.0009 71.2562 99.0009 71.3687C99.0009 71.5375 99.058 71.65 99.1721 71.7062C99.2863 71.7906 99.429 71.8187 99.6287 71.8187C99.7714 71.8187 99.9141 71.7906 99.9997 71.7344C100.114 71.6781 100.199 71.6218 100.256 71.5375C100.314 71.4531 100.371 71.3687 100.399 71.2843C100.428 71.2 100.428 71.0875 100.428 71.0031V70.8343H100.171V70.8062Z" fill="white"/>
<path d="M101.769 69.3437H102.311V69.7656C102.368 69.625 102.511 69.4844 102.654 69.4C102.825 69.3156 103.024 69.2594 103.253 69.2594C103.395 69.2594 103.51 69.2875 103.652 69.3156C103.766 69.3437 103.881 69.4281 103.995 69.5125C104.08 69.5969 104.166 69.7093 104.223 69.85C104.28 69.9906 104.309 70.1594 104.309 70.3281V72.1281H103.766V70.4687C103.766 70.3281 103.738 70.2156 103.709 70.1312C103.681 70.0468 103.624 69.9625 103.567 69.9062C103.51 69.85 103.424 69.7937 103.367 69.7937C103.281 69.7656 103.196 69.7656 103.11 69.7656C102.996 69.7656 102.882 69.7937 102.796 69.8219C102.711 69.85 102.625 69.9062 102.539 69.9906C102.454 70.075 102.397 70.1593 102.368 70.2718C102.34 70.3843 102.311 70.525 102.311 70.6937V72.1562H101.769V69.3437V69.3437Z" fill="white"/>
<path d="M107.076 71.2844C107.191 71.4531 107.305 71.5656 107.476 71.6219C107.647 71.7062 107.818 71.7344 107.99 71.7344C108.075 71.7344 108.189 71.7062 108.275 71.6781C108.361 71.65 108.475 71.5937 108.56 71.5375C108.646 71.4812 108.703 71.3969 108.76 71.3125C108.817 71.2281 108.846 71.1156 108.846 71.0031C108.846 70.8344 108.789 70.7219 108.703 70.6375C108.589 70.5531 108.475 70.4687 108.304 70.4125C108.161 70.3562 107.99 70.3 107.79 70.2437C107.619 70.1875 107.447 70.1031 107.276 70.0187C107.134 69.9344 106.991 69.7937 106.877 69.625C106.763 69.4562 106.706 69.2594 106.706 68.9781C106.706 68.8656 106.734 68.725 106.791 68.5844C106.848 68.4437 106.934 68.3312 107.048 68.1906C107.162 68.0781 107.305 67.9656 107.505 67.9094C107.676 67.825 107.904 67.7969 108.161 67.7969C108.389 67.7969 108.617 67.825 108.817 67.8812C109.017 67.9375 109.217 68.0781 109.388 68.275L108.931 68.6969C108.846 68.5844 108.76 68.5 108.617 68.4156C108.475 68.3594 108.332 68.3031 108.161 68.3031C107.99 68.3031 107.875 68.3312 107.761 68.3594C107.647 68.3875 107.562 68.4437 107.505 68.5281C107.447 68.5844 107.39 68.6687 107.362 68.7531C107.333 68.8375 107.333 68.8937 107.333 68.95C107.333 69.1187 107.39 69.2594 107.505 69.3719C107.619 69.4562 107.733 69.5406 107.904 69.5969C108.047 69.6531 108.218 69.7094 108.418 69.7656C108.589 69.8219 108.76 69.8781 108.931 69.9625C109.074 70.0469 109.217 70.1594 109.331 70.3C109.445 70.4406 109.473 70.6375 109.473 70.8906C109.473 71.0875 109.445 71.2844 109.359 71.425C109.274 71.5937 109.188 71.7344 109.045 71.8469C108.903 71.9594 108.76 72.0437 108.589 72.1C108.418 72.1562 108.218 72.1844 108.018 72.1844C107.733 72.1844 107.476 72.1281 107.248 72.0437C107.019 71.9594 106.82 71.7906 106.677 71.5937L107.076 71.2844Z" fill="white"/>
<path d="M110.558 70.9469C110.558 71.0594 110.586 71.1718 110.643 71.2843C110.7 71.3968 110.758 71.4812 110.843 71.5375C110.929 71.6218 111.043 71.6781 111.157 71.7062C111.271 71.7343 111.385 71.7625 111.528 71.7625C111.699 71.7625 111.842 71.7344 111.956 71.65C112.07 71.5656 112.184 71.4812 112.298 71.3406L112.698 71.65C112.384 72.0437 111.985 72.2406 111.442 72.2406C111.214 72.2406 111.014 72.2125 110.843 72.1281C110.672 72.0437 110.501 71.9593 110.387 71.8187C110.272 71.6781 110.158 71.5375 110.101 71.3406C110.044 71.1719 109.987 70.975 109.987 70.75C109.987 70.5531 110.016 70.3562 110.101 70.1593C110.187 69.9906 110.272 69.8219 110.415 69.6812C110.558 69.5406 110.7 69.4562 110.872 69.3719C111.043 69.2875 111.243 69.2594 111.471 69.2594C111.728 69.2594 111.927 69.3156 112.127 69.4C112.298 69.4844 112.441 69.5968 112.555 69.7375C112.669 69.8781 112.755 70.0469 112.812 70.2156C112.869 70.3844 112.898 70.5812 112.898 70.75V70.9469H110.558V70.9469ZM112.27 70.525C112.27 70.4125 112.241 70.3 112.213 70.1875C112.184 70.075 112.127 69.9906 112.07 69.9344C112.013 69.85 111.927 69.7937 111.813 69.7656C111.699 69.7375 111.585 69.7093 111.442 69.7093C111.3 69.7093 111.186 69.7375 111.071 69.7937C110.957 69.85 110.872 69.9062 110.786 69.9906C110.7 70.075 110.643 70.1594 110.615 70.2437C110.586 70.3281 110.558 70.4406 110.558 70.525H112.27Z" fill="white"/>
<path d="M115.551 70.075C115.437 69.9625 115.352 69.9062 115.238 69.85C115.123 69.7937 115.009 69.7656 114.838 69.7656C114.695 69.7656 114.553 69.7937 114.439 69.85C114.324 69.9062 114.239 69.9906 114.153 70.075C114.068 70.1594 114.011 70.2719 113.982 70.3844C113.953 70.4969 113.925 70.6375 113.925 70.75C113.925 70.8906 113.953 71.0031 113.982 71.1156C114.039 71.2281 114.096 71.3406 114.182 71.425C114.267 71.5094 114.353 71.5937 114.467 71.6219C114.581 71.6781 114.695 71.7062 114.838 71.7062C114.981 71.7062 115.123 71.6781 115.238 71.6219C115.352 71.5656 115.437 71.4812 115.551 71.3969L115.951 71.7906C115.808 71.9594 115.637 72.0437 115.466 72.1281C115.266 72.1844 115.095 72.2406 114.867 72.2406C114.638 72.2406 114.439 72.2125 114.267 72.1281C114.096 72.0437 113.925 71.9594 113.782 71.8187C113.64 71.6781 113.554 71.5375 113.468 71.3687C113.383 71.2 113.354 71.0031 113.354 70.7781C113.354 70.5531 113.383 70.3562 113.468 70.1875C113.554 70.0187 113.64 69.85 113.782 69.7094C113.925 69.5687 114.068 69.4844 114.239 69.4C114.41 69.3156 114.638 69.2875 114.838 69.2875C115.038 69.2875 115.238 69.3156 115.437 69.4C115.637 69.4844 115.808 69.5969 115.922 69.7375L115.551 70.075Z" fill="white"/>
<path d="M119.004 72.1562H118.462V71.7344C118.405 71.875 118.262 72.0156 118.12 72.1C117.948 72.1844 117.749 72.2406 117.549 72.2406C117.406 72.2406 117.264 72.2125 117.149 72.1844C117.035 72.1562 116.921 72.0719 116.807 71.9875C116.721 71.9031 116.636 71.7906 116.579 71.65C116.522 71.5094 116.493 71.3406 116.493 71.1719V69.3437H117.035V71.0031C117.035 71.1437 117.064 71.2562 117.092 71.3406C117.121 71.425 117.178 71.5094 117.235 71.5656C117.292 71.6219 117.378 71.6781 117.435 71.6781C117.52 71.7062 117.606 71.7062 117.692 71.7062C117.806 71.7062 117.92 71.6781 118.006 71.65C118.091 71.6219 118.177 71.5656 118.262 71.4812C118.348 71.3969 118.405 71.3125 118.434 71.2C118.462 71.0875 118.491 70.9469 118.491 70.7781V69.3437H119.033V72.1562H119.004Z" fill="white"/>
<path d="M119.832 69.3437H120.374V69.7656C120.402 69.6812 120.46 69.625 120.517 69.5687C120.574 69.5125 120.631 69.4562 120.716 69.4C120.802 69.3437 120.859 69.3156 120.973 69.2875C121.059 69.2593 121.144 69.2594 121.23 69.2594C121.316 69.2594 121.401 69.2593 121.458 69.2875L121.43 69.8781C121.373 69.8781 121.344 69.85 121.287 69.85C121.23 69.85 121.201 69.85 121.144 69.85C120.888 69.85 120.688 69.9344 120.545 70.075C120.402 70.2156 120.345 70.4406 120.345 70.75V72.1562H119.803V69.3437H119.832Z" fill="white"/>
<path d="M121.915 68.3312C121.915 68.2187 121.943 68.1344 122.029 68.05C122.115 67.9656 122.2 67.9375 122.314 67.9375C122.428 67.9375 122.514 67.9656 122.6 68.05C122.685 68.1344 122.714 68.2187 122.714 68.3312C122.714 68.4437 122.685 68.5281 122.6 68.6125C122.514 68.6969 122.428 68.725 122.314 68.725C122.2 68.725 122.115 68.6969 122.029 68.6125C121.943 68.5281 121.915 68.4437 121.915 68.3312ZM122.029 69.3437H122.571V72.1562H122.029V69.3437Z" fill="white"/>
<path d="M125.025 69.7937H124.255V71.0594C124.255 71.1437 124.255 71.2281 124.255 71.2843C124.255 71.3687 124.283 71.425 124.312 71.4812C124.34 71.5375 124.369 71.5937 124.426 71.6219C124.483 71.65 124.569 71.6781 124.654 71.6781C124.711 71.6781 124.797 71.6781 124.854 71.65C124.911 71.65 124.997 71.6219 125.054 71.5937V72.0719C124.997 72.1 124.911 72.1281 124.797 72.1562C124.683 72.1844 124.626 72.1844 124.569 72.1844C124.369 72.1844 124.198 72.1562 124.084 72.1C123.969 72.0437 123.884 71.9594 123.827 71.875C123.77 71.7906 123.741 71.6781 123.741 71.5656C123.741 71.4531 123.713 71.3406 123.713 71.2281V69.7656H123.085V69.3437H123.713V68.5562H124.255V69.3437H125.025V69.7937V69.7937Z" fill="white"/>
<path d="M125.539 68.3312C125.539 68.2187 125.567 68.1344 125.653 68.05C125.739 67.9656 125.824 67.9375 125.938 67.9375C126.052 67.9375 126.138 67.9656 126.224 68.05C126.309 68.1344 126.338 68.2187 126.338 68.3312C126.338 68.4437 126.309 68.5281 126.224 68.6125C126.138 68.6969 126.052 68.725 125.938 68.725C125.824 68.725 125.739 68.6969 125.653 68.6125C125.567 68.5281 125.539 68.4437 125.539 68.3312ZM125.653 69.3437H126.195V72.1562H125.653V69.3437Z" fill="white"/>
<path d="M127.451 70.9469C127.451 71.0594 127.479 71.1718 127.536 71.2843C127.593 71.3968 127.65 71.4812 127.765 71.5375C127.85 71.6218 127.964 71.6781 128.079 71.7062C128.193 71.7343 128.307 71.7625 128.449 71.7625C128.621 71.7625 128.763 71.7344 128.878 71.65C128.992 71.5656 129.106 71.4812 129.22 71.3406L129.619 71.65C129.306 72.0437 128.906 72.2406 128.364 72.2406C128.136 72.2406 127.936 72.2125 127.765 72.1281C127.593 72.0437 127.422 71.9593 127.308 71.8187C127.194 71.6781 127.08 71.5375 127.023 71.3406C126.966 71.1719 126.909 70.975 126.909 70.75C126.909 70.5531 126.937 70.3562 127.023 70.1593C127.108 69.9906 127.194 69.8219 127.337 69.6812C127.479 69.5406 127.622 69.4562 127.793 69.3719C127.964 69.2875 128.164 69.2594 128.392 69.2594C128.649 69.2594 128.849 69.3156 129.049 69.4C129.248 69.4844 129.363 69.5968 129.477 69.7375C129.591 69.8781 129.677 70.0469 129.734 70.2156C129.791 70.3844 129.819 70.5812 129.819 70.75V70.9469H127.451V70.9469ZM129.163 70.525C129.163 70.4125 129.134 70.3 129.106 70.1875C129.077 70.075 129.02 69.9906 128.963 69.9344C128.906 69.85 128.82 69.7937 128.706 69.7656C128.592 69.7375 128.478 69.7093 128.335 69.7093C128.193 69.7093 128.079 69.7375 127.964 69.7937C127.85 69.85 127.765 69.9062 127.679 69.9906C127.593 70.075 127.536 70.1594 127.508 70.2437C127.479 70.3281 127.451 70.4406 127.451 70.525H129.163Z" fill="white"/>
<path d="M131.931 70.0469C131.874 69.9625 131.788 69.9063 131.703 69.85C131.617 69.7938 131.503 69.7656 131.36 69.7656C131.217 69.7656 131.132 69.7938 131.018 69.85C130.932 69.9063 130.875 69.9906 130.875 70.075C130.875 70.1594 130.904 70.2156 130.961 70.2719C131.018 70.3281 131.075 70.3563 131.16 70.3844C131.246 70.4125 131.303 70.4406 131.389 70.4688C131.474 70.4969 131.56 70.4969 131.617 70.4969C131.731 70.525 131.845 70.5531 131.959 70.6094C132.073 70.6375 132.159 70.6938 132.216 70.7781C132.302 70.8344 132.359 70.9188 132.387 71.0031C132.416 71.0875 132.444 71.2 132.444 71.3406C132.444 71.5094 132.416 71.6219 132.33 71.7344C132.273 71.8469 132.188 71.9313 132.074 72.0156C131.959 72.1 131.845 72.1281 131.703 72.1844C131.56 72.2125 131.417 72.2406 131.275 72.2406C131.046 72.2406 130.818 72.2125 130.647 72.1281C130.476 72.0438 130.304 71.9313 130.162 71.7344L130.561 71.3969C130.647 71.4813 130.761 71.5656 130.846 71.6219C130.961 71.6781 131.075 71.7344 131.246 71.7344C131.303 71.7344 131.389 71.7344 131.446 71.7063C131.503 71.7063 131.588 71.6781 131.645 71.65C131.703 71.6219 131.731 71.5938 131.788 71.5375C131.817 71.4813 131.845 71.425 131.845 71.3688C131.845 71.2844 131.817 71.2281 131.76 71.1719C131.703 71.1156 131.645 71.0875 131.588 71.0594C131.531 71.0313 131.446 71.0031 131.36 70.975C131.275 70.9469 131.217 70.9469 131.16 70.9188C131.046 70.8906 130.932 70.8625 130.818 70.8344C130.704 70.8063 130.618 70.75 130.533 70.6938C130.447 70.6375 130.39 70.5531 130.333 70.4688C130.276 70.3844 130.247 70.2719 130.247 70.1313C130.247 69.9906 130.276 69.85 130.333 69.7375C130.39 69.625 130.476 69.5406 130.59 69.4563C130.704 69.3719 130.818 69.3438 130.932 69.2875C131.075 69.2594 131.189 69.2313 131.332 69.2313C131.531 69.2313 131.703 69.2594 131.874 69.3438C132.045 69.4281 132.188 69.5406 132.302 69.7094L131.931 70.0469Z" fill="white"/>
<path d="M138.637 72.1562H137.866L137.352 71.5937C137.181 71.8187 136.982 71.9593 136.782 72.1C136.582 72.2125 136.325 72.2687 136.04 72.2687C135.812 72.2687 135.583 72.2406 135.412 72.1562C135.241 72.1 135.098 71.9875 134.984 71.875C134.87 71.7625 134.784 71.6219 134.727 71.4812C134.67 71.3406 134.642 71.2 134.642 71.0312C134.642 70.8906 134.67 70.75 134.727 70.6375C134.784 70.525 134.841 70.4125 134.927 70.3C135.013 70.1875 135.127 70.1031 135.241 70.0187C135.355 69.9343 135.469 69.8781 135.612 69.8219C135.469 69.6812 135.355 69.5406 135.269 69.3719C135.184 69.2312 135.127 69.0344 135.127 68.8375C135.127 68.6687 135.155 68.5281 135.212 68.4156C135.269 68.3031 135.355 68.1906 135.469 68.1062C135.583 68.0219 135.697 67.9656 135.84 67.9093C135.983 67.8531 136.125 67.8531 136.268 67.8531C136.411 67.8531 136.553 67.8812 136.696 67.9093C136.839 67.9375 136.953 68.0219 137.039 68.0781C137.153 68.1625 137.21 68.2469 137.267 68.3875C137.324 68.5 137.352 68.6406 137.352 68.8094C137.352 68.95 137.324 69.0625 137.267 69.175C137.21 69.2875 137.153 69.3719 137.067 69.4844C136.982 69.5687 136.896 69.6531 136.782 69.7093C136.668 69.7656 136.582 69.85 136.468 69.9062L137.324 70.7781L137.866 69.9062H138.522L137.695 71.1719L138.637 72.1562ZM135.954 70.1593C135.869 70.2156 135.783 70.2719 135.697 70.3281C135.612 70.3844 135.526 70.4406 135.469 70.525C135.412 70.5812 135.355 70.6656 135.298 70.75C135.269 70.8344 135.241 70.9187 135.241 71.0312C135.241 71.1437 135.269 71.2281 135.298 71.3125C135.355 71.3969 135.412 71.4812 135.469 71.5375C135.555 71.5937 135.64 71.65 135.726 71.7062C135.812 71.7343 135.926 71.7625 136.011 71.7625C136.125 71.7625 136.211 71.7343 136.297 71.7062C136.382 71.6781 136.468 71.6219 136.553 71.5937C136.639 71.5375 136.696 71.4812 136.782 71.425C136.839 71.3687 136.896 71.2844 136.953 71.2281L135.954 70.1593ZM136.753 68.8375C136.753 68.6969 136.696 68.5844 136.611 68.5C136.525 68.4156 136.382 68.3875 136.24 68.3875C136.097 68.3875 135.954 68.4156 135.84 68.5281C135.726 68.6125 135.669 68.725 135.669 68.8937C135.669 68.9781 135.669 69.0344 135.697 69.0906C135.726 69.1469 135.754 69.2031 135.812 69.2875C135.84 69.3437 135.897 69.4 135.954 69.4562C136.011 69.5125 136.04 69.5687 136.097 69.5968C136.183 69.5687 136.24 69.5125 136.325 69.4562C136.411 69.4 136.468 69.3437 136.553 69.2875C136.639 69.2312 136.668 69.175 136.725 69.0906C136.753 69.0062 136.753 68.9219 136.753 68.8375Z" fill="white"/>
<path d="M78.7123 74.4344H78.1416V78.6531H78.7123V74.4344Z" fill="white"/>
<path d="M79.6541 75.8125H80.1962V76.2344C80.2533 76.0937 80.396 75.9531 80.5387 75.8687C80.7099 75.7844 80.9096 75.7281 81.1094 75.7281C81.252 75.7281 81.3662 75.7562 81.5089 75.7843C81.623 75.8125 81.7371 75.8969 81.8513 75.9812C81.9369 76.0656 82.0225 76.1781 82.0796 76.3187C82.1366 76.4593 82.1652 76.6281 82.1652 76.7969V78.5969H81.6515V76.9375C81.6515 76.7969 81.623 76.6843 81.5945 76.6C81.5659 76.5156 81.5089 76.4312 81.4518 76.375C81.3947 76.3187 81.3091 76.2625 81.252 76.2625C81.1664 76.2344 81.0808 76.2344 80.9952 76.2344C80.8811 76.2344 80.7669 76.2625 80.6813 76.2906C80.5957 76.3187 80.5101 76.375 80.4245 76.4593C80.3389 76.5437 80.2818 76.6281 80.2533 76.7406C80.2248 76.8531 80.1962 76.9937 80.1962 77.1625V78.625H79.6541V75.8125Z" fill="white"/>
<path d="M82.5646 75.8125H83.1923L84.0484 77.9781L84.8474 75.8125H85.4466L84.3052 78.625H83.7345L82.5646 75.8125Z" fill="white"/>
<path d="M86.2458 77.4156C86.2458 77.5281 86.2743 77.6406 86.3314 77.7531C86.3884 77.8656 86.4455 77.95 86.5311 78.0063C86.6167 78.0906 86.7309 78.1469 86.845 78.175C86.9591 78.2031 87.0733 78.2313 87.216 78.2313C87.3872 78.2313 87.5298 78.2031 87.644 78.1188C87.7581 78.0344 87.8723 77.95 87.9864 77.8094L88.3859 78.1188C88.072 78.5125 87.6725 78.6813 87.1304 78.6813C86.9021 78.6813 86.7023 78.6531 86.5311 78.5688C86.3599 78.4844 86.1887 78.4 86.0745 78.2594C85.9604 78.1188 85.8463 77.9781 85.7892 77.7813C85.7321 77.6125 85.675 77.4156 85.675 77.1906C85.675 76.9938 85.7036 76.7969 85.7892 76.6C85.8748 76.4313 85.9604 76.2625 86.1031 76.1219C86.2458 75.9813 86.3884 75.8969 86.5596 75.8125C86.7309 75.7281 86.9306 75.7 87.1589 75.7C87.4157 75.7 87.6154 75.7563 87.8152 75.8406C87.9864 75.925 88.1291 76.0375 88.2432 76.1781C88.3574 76.3188 88.443 76.4875 88.5 76.6563C88.5571 76.825 88.5856 77.0219 88.5856 77.1906V77.3875H86.2458V77.4156ZM87.9579 76.9938C87.9579 76.8813 87.9293 76.7688 87.9008 76.6563C87.8723 76.5438 87.8152 76.4594 87.7581 76.4031C87.7011 76.3188 87.6154 76.2625 87.5013 76.2344C87.3872 76.2063 87.273 76.1781 87.1304 76.1781C86.9877 76.1781 86.8735 76.2063 86.7594 76.2625C86.6452 76.3188 86.5596 76.375 86.474 76.4594C86.3884 76.5438 86.3314 76.6281 86.3028 76.7125C86.2743 76.7969 86.2458 76.9094 86.2458 76.9938H87.9579Z" fill="white"/>
<path d="M90.6972 76.5156C90.6401 76.4313 90.5545 76.375 90.4689 76.3188C90.3833 76.2625 90.2692 76.2344 90.1265 76.2344C90.0123 76.2344 89.8982 76.2625 89.784 76.3188C89.6984 76.375 89.6414 76.4594 89.6414 76.5438C89.6414 76.6281 89.6699 76.6844 89.727 76.7406C89.784 76.7969 89.8411 76.825 89.9267 76.8531C90.0123 76.8813 90.0694 76.9094 90.155 76.9375C90.2406 76.9656 90.3262 76.9656 90.3833 76.9656C90.4974 76.9938 90.6116 77.0219 90.7257 77.0781C90.8399 77.1063 90.9255 77.1625 90.9825 77.2469C91.0681 77.3031 91.1252 77.3875 91.1537 77.4719C91.1823 77.5563 91.2108 77.6688 91.2108 77.8094C91.2108 77.9781 91.1823 78.0906 91.0967 78.2031C91.0396 78.3156 90.954 78.4 90.8399 78.4844C90.7257 78.5688 90.6116 78.5969 90.4689 78.6531C90.3262 78.6813 90.1835 78.7094 90.0409 78.7094C89.8126 78.7094 89.5843 78.6813 89.4131 78.5969C89.2419 78.5125 89.0707 78.4 88.928 78.2031L89.3275 77.8656C89.4131 77.95 89.5272 78.0344 89.6128 78.0906C89.727 78.1469 89.8411 78.2031 90.0123 78.2031C90.0694 78.2031 90.155 78.2031 90.2121 78.175C90.2691 78.1469 90.3548 78.1469 90.4118 78.1188C90.4689 78.0906 90.4974 78.0625 90.5545 78.0063C90.583 77.95 90.6116 77.9219 90.6116 77.8375C90.6116 77.7531 90.583 77.6969 90.526 77.6406C90.4689 77.5844 90.4118 77.5563 90.3548 77.5281C90.2977 77.5 90.2121 77.4719 90.1265 77.4438C90.0409 77.4156 89.9838 77.4156 89.9267 77.3875C89.8126 77.3594 89.6984 77.3313 89.5843 77.3031C89.4701 77.275 89.3845 77.2188 89.2989 77.1625C89.2133 77.1063 89.1563 77.0219 89.0992 76.9375C89.0421 76.8531 89.0136 76.7406 89.0136 76.6C89.0136 76.4594 89.0421 76.3188 89.0992 76.2063C89.1563 76.0938 89.2419 76.0094 89.356 75.925C89.4702 75.8406 89.5843 75.8125 89.6984 75.7563C89.8411 75.7281 89.9553 75.7 90.0979 75.7C90.2977 75.7 90.4689 75.7281 90.6401 75.8125C90.8113 75.8969 90.954 76.0094 91.0681 76.1781L90.6972 76.5156Z" fill="white"/>
<path d="M93.4936 76.2625H92.7232V77.5281C92.7232 77.6125 92.7232 77.6969 92.7232 77.7531C92.7232 77.8375 92.7517 77.8937 92.7802 77.95C92.8088 78.0062 92.8373 78.0625 92.8944 78.0906C92.9514 78.1187 93.0371 78.1468 93.1227 78.1468C93.1797 78.1468 93.2653 78.1469 93.3224 78.1187C93.3795 78.1187 93.4651 78.0906 93.5222 78.0625V78.5406C93.4651 78.5687 93.3795 78.5969 93.2653 78.625C93.1512 78.6531 93.0941 78.6531 93.0371 78.6531C92.8373 78.6531 92.6661 78.625 92.552 78.5687C92.4378 78.5125 92.3522 78.4281 92.2951 78.3437C92.2381 78.2594 92.2095 78.1469 92.2095 78.0344C92.2095 77.9219 92.181 77.8094 92.181 77.6969V76.2344H91.5532V75.8125H92.181V75.025H92.7232V75.8125H93.4936V76.2625V76.2625Z" fill="white"/>
<path d="M94.1215 75.8125H94.6351V76.2625C94.6351 76.2344 94.6636 76.1781 94.7207 76.1219C94.7778 76.0656 94.8348 76.0094 94.9204 75.9531C95.0061 75.8969 95.0917 75.8687 95.2058 75.8125C95.3199 75.7844 95.4341 75.7562 95.5482 75.7562C95.748 75.7562 95.9477 75.8125 96.0904 75.8969C96.2331 75.9812 96.3472 76.1219 96.4328 76.2906C96.5184 76.1219 96.6611 75.9812 96.8323 75.8969C97.0035 75.8125 97.1747 75.7562 97.346 75.7562C97.5742 75.7562 97.7455 75.7844 97.8881 75.8687C98.0308 75.9531 98.145 76.0375 98.2306 76.15C98.3162 76.2625 98.3732 76.4031 98.4018 76.5437C98.4303 76.6844 98.4588 76.8531 98.4588 76.9937V78.625H97.9167V77.05C97.9167 76.9375 97.9167 76.8531 97.8881 76.7406C97.8596 76.6281 97.8311 76.5437 97.8025 76.4875C97.7455 76.4031 97.6884 76.3469 97.6028 76.3187C97.5172 76.2625 97.403 76.2625 97.2889 76.2625C97.0321 76.2625 96.8323 76.3469 96.7182 76.4875C96.604 76.6562 96.547 76.8531 96.547 77.1062V78.6531H96.0048V77.1906C96.0048 77.05 96.0048 76.9375 95.9763 76.825C95.9477 76.7125 95.9477 76.6281 95.8907 76.5437C95.8621 76.4594 95.7765 76.4031 95.7194 76.3469C95.6338 76.2906 95.5482 76.2906 95.4056 76.2906C95.3199 76.2906 95.2058 76.3187 95.1202 76.3469C95.0346 76.375 94.949 76.4312 94.8919 76.5156C94.8348 76.6 94.7778 76.6844 94.7207 76.7969C94.6922 76.9094 94.6636 77.05 94.6636 77.2187V78.6812H94.1215V75.8125V75.8125Z" fill="white"/>
<path d="M99.6573 77.4156C99.6573 77.5281 99.6858 77.6406 99.7429 77.7531C99.8 77.8656 99.857 77.95 99.9712 78.0063C100.057 78.0906 100.171 78.1469 100.285 78.175C100.399 78.2031 100.513 78.2313 100.656 78.2313C100.827 78.2313 100.97 78.2031 101.084 78.1188C101.198 78.0344 101.312 77.95 101.426 77.8094L101.826 78.1188C101.512 78.5125 101.113 78.6813 100.57 78.6813C100.342 78.6813 100.142 78.6531 99.9712 78.5688C99.8 78.4844 99.6287 78.4 99.5146 78.2594C99.4005 78.1188 99.2863 77.9781 99.2293 77.7813C99.1722 77.6125 99.1151 77.4156 99.1151 77.1906C99.1151 76.9938 99.1436 76.7969 99.2293 76.6C99.3149 76.4313 99.4005 76.2625 99.5431 76.1219C99.6858 75.9813 99.8285 75.8969 99.9997 75.8125C100.171 75.7281 100.371 75.7 100.599 75.7C100.856 75.7 101.056 75.7563 101.255 75.8406C101.426 75.925 101.569 76.0375 101.683 76.1781C101.797 76.3188 101.883 76.4875 101.94 76.6563C101.997 76.825 102.026 77.0219 102.026 77.1906V77.3875H99.6573V77.4156ZM101.369 76.9938C101.369 76.8813 101.341 76.7688 101.312 76.6563C101.284 76.5438 101.227 76.4594 101.17 76.4031C101.113 76.3188 101.027 76.2625 100.913 76.2344C100.799 76.2063 100.685 76.1781 100.542 76.1781C100.399 76.1781 100.285 76.2063 100.171 76.2625C100.057 76.3188 99.9712 76.375 99.8856 76.4594C99.8 76.5438 99.7429 76.6281 99.7143 76.7125C99.6858 76.7969 99.6573 76.9094 99.6573 76.9938H101.369Z" fill="white"/>
<path d="M102.625 75.8125H103.167V76.2344C103.224 76.0937 103.367 75.9531 103.51 75.8687C103.681 75.7844 103.881 75.7281 104.109 75.7281C104.252 75.7281 104.366 75.7562 104.508 75.7843C104.622 75.8125 104.737 75.8969 104.851 75.9812C104.936 76.0656 105.022 76.1781 105.079 76.3187C105.136 76.4593 105.165 76.6281 105.165 76.7969V78.5969H104.622V76.9375C104.622 76.7969 104.594 76.6843 104.565 76.6C104.537 76.5156 104.48 76.4312 104.423 76.375C104.366 76.3187 104.28 76.2625 104.223 76.2625C104.137 76.2344 104.052 76.2344 103.966 76.2344C103.852 76.2344 103.738 76.2625 103.652 76.2906C103.567 76.3187 103.481 76.375 103.395 76.4593C103.31 76.5437 103.253 76.6281 103.224 76.7406C103.196 76.8531 103.167 76.9937 103.167 77.1625V78.625H102.625V75.8125V75.8125Z" fill="white"/>
<path d="M107.533 76.2625H106.763V77.5281C106.763 77.6125 106.763 77.6969 106.763 77.7531C106.763 77.8375 106.791 77.8937 106.82 77.95C106.848 78.0062 106.877 78.0625 106.934 78.0906C106.991 78.1187 107.076 78.1468 107.162 78.1468C107.219 78.1468 107.305 78.1469 107.362 78.1187C107.419 78.1187 107.505 78.0906 107.562 78.0625V78.5406C107.505 78.5687 107.419 78.5969 107.305 78.625C107.191 78.6531 107.134 78.6531 107.076 78.6531C106.877 78.6531 106.706 78.625 106.591 78.5687C106.477 78.5125 106.392 78.4281 106.335 78.3437C106.277 78.2594 106.249 78.1469 106.249 78.0344C106.249 77.9219 106.22 77.8094 106.22 77.6969V76.2344H105.593V75.8125H106.22V75.025H106.763V75.8125H107.533V76.2625V76.2625Z" fill="white"/>
<path d="M109.787 76.5156C109.73 76.4313 109.645 76.375 109.559 76.3188C109.473 76.2625 109.359 76.2344 109.217 76.2344C109.074 76.2344 108.988 76.2625 108.874 76.3188C108.789 76.375 108.731 76.4594 108.731 76.5438C108.731 76.6281 108.76 76.6844 108.817 76.7406C108.874 76.7969 108.931 76.825 109.017 76.8531C109.102 76.8813 109.159 76.9094 109.245 76.9375C109.331 76.9656 109.388 76.9656 109.473 76.9656C109.588 76.9938 109.702 77.0219 109.816 77.0781C109.93 77.1063 110.016 77.1625 110.073 77.2469C110.158 77.3031 110.215 77.3875 110.244 77.4719C110.272 77.5563 110.301 77.6688 110.301 77.8094C110.301 77.9781 110.272 78.0906 110.187 78.2031C110.13 78.3156 110.044 78.4 109.93 78.4844C109.816 78.5688 109.702 78.5969 109.559 78.6531C109.416 78.6813 109.274 78.7094 109.131 78.7094C108.903 78.7094 108.674 78.6813 108.503 78.5969C108.332 78.5125 108.161 78.4 108.018 78.2031L108.418 77.8656C108.503 77.95 108.617 78.0344 108.703 78.0906C108.817 78.1469 108.931 78.2031 109.102 78.2031C109.159 78.2031 109.245 78.2031 109.302 78.175C109.359 78.1469 109.445 78.1469 109.502 78.1188C109.559 78.0906 109.588 78.0625 109.645 78.0063C109.673 77.95 109.702 77.9219 109.702 77.8375C109.702 77.7531 109.673 77.6969 109.616 77.6406C109.559 77.5844 109.502 77.5563 109.445 77.5281C109.388 77.5 109.302 77.4719 109.217 77.4438C109.131 77.4156 109.074 77.4156 109.017 77.3875C108.903 77.3594 108.789 77.3313 108.674 77.3031C108.56 77.275 108.475 77.2188 108.389 77.1625C108.303 77.1063 108.246 77.0219 108.189 76.9375C108.132 76.8531 108.104 76.7406 108.104 76.6C108.104 76.4594 108.132 76.3188 108.189 76.2063C108.246 76.0938 108.332 76.0094 108.446 75.925C108.56 75.8406 108.674 75.8125 108.789 75.7563C108.931 75.7281 109.045 75.7 109.188 75.7C109.388 75.7 109.559 75.7281 109.73 75.8125C109.901 75.8969 110.044 76.0094 110.158 76.1781L109.787 76.5156Z" fill="white"/>
<path d="M115.751 75.3344C115.637 75.1937 115.466 75.0531 115.295 74.9687C115.123 74.8844 114.924 74.8562 114.724 74.8562C114.496 74.8562 114.267 74.9125 114.068 74.9969C113.868 75.0812 113.697 75.2219 113.554 75.3625C113.411 75.5031 113.297 75.7 113.24 75.8969C113.155 76.0937 113.126 76.3187 113.126 76.5719C113.126 76.7969 113.155 76.9937 113.24 77.1906C113.326 77.3875 113.411 77.5562 113.554 77.725C113.697 77.8656 113.868 78.0062 114.068 78.0906C114.267 78.175 114.496 78.2312 114.724 78.2312C114.981 78.2312 115.181 78.175 115.38 78.0906C115.551 77.9781 115.723 77.8656 115.837 77.6687L116.322 78.0344C116.293 78.0906 116.236 78.1469 116.151 78.2312C116.065 78.3156 115.951 78.4 115.837 78.4844C115.694 78.5687 115.551 78.625 115.352 78.7094C115.152 78.7656 114.952 78.7937 114.695 78.7937C114.353 78.7937 114.068 78.7375 113.782 78.5969C113.497 78.4844 113.269 78.3156 113.097 78.0906C112.898 77.8937 112.755 77.6406 112.669 77.3875C112.584 77.1344 112.527 76.8531 112.527 76.6C112.527 76.2625 112.584 75.9812 112.698 75.7C112.812 75.4187 112.955 75.1937 113.155 74.9969C113.354 74.8 113.583 74.6312 113.868 74.5187C114.153 74.4062 114.439 74.35 114.781 74.35C115.066 74.35 115.352 74.4062 115.609 74.5187C115.894 74.6312 116.094 74.8 116.265 75.025L115.751 75.3344Z" fill="white"/>
<path d="M116.693 77.2187C116.693 77.0219 116.721 76.825 116.807 76.6562C116.893 76.4875 117.007 76.3187 117.121 76.1781C117.264 76.0375 117.406 75.925 117.606 75.8687C117.777 75.7844 117.977 75.7562 118.205 75.7562C118.405 75.7562 118.605 75.7844 118.804 75.8687C118.976 75.9531 119.147 76.0656 119.29 76.1781C119.432 76.3187 119.546 76.4594 119.603 76.6562C119.689 76.825 119.718 77.0219 119.718 77.2187C119.718 77.4156 119.689 77.6125 119.603 77.8094C119.518 78.0062 119.404 78.1469 119.29 78.2875C119.147 78.4281 119.004 78.5125 118.804 78.5969C118.633 78.6812 118.434 78.7094 118.205 78.7094C118.005 78.7094 117.806 78.6812 117.606 78.5969C117.435 78.5125 117.264 78.4281 117.121 78.2875C116.978 78.1469 116.864 78.0062 116.807 77.8094C116.75 77.6125 116.693 77.4156 116.693 77.2187ZM117.292 77.2187C117.292 77.3594 117.321 77.5 117.349 77.6125C117.406 77.725 117.463 77.8375 117.549 77.9219C117.635 78.0062 117.72 78.0625 117.834 78.1187C117.948 78.175 118.091 78.2031 118.234 78.2031C118.376 78.2031 118.519 78.175 118.633 78.1187C118.747 78.0625 118.862 78.0062 118.919 77.9219C119.004 77.8375 119.061 77.725 119.118 77.6125C119.175 77.5 119.175 77.3594 119.175 77.2187C119.175 77.0781 119.147 76.9375 119.118 76.825C119.061 76.7125 119.004 76.6 118.919 76.5156C118.833 76.4312 118.747 76.375 118.633 76.3187C118.519 76.2625 118.376 76.2344 118.234 76.2344C118.091 76.2344 117.948 76.2625 117.834 76.3187C117.72 76.375 117.606 76.4312 117.549 76.5156C117.463 76.6 117.406 76.7125 117.349 76.825C117.321 76.9375 117.292 77.0781 117.292 77.2187Z" fill="white"/>
<path d="M120.431 75.8125H120.945V76.2625C120.945 76.2344 121.002 76.1781 121.03 76.1219C121.087 76.0656 121.144 76.0094 121.23 75.9531C121.316 75.8969 121.401 75.8687 121.515 75.8125C121.63 75.7844 121.744 75.7562 121.858 75.7562C122.058 75.7562 122.257 75.8125 122.4 75.8969C122.543 75.9812 122.657 76.1219 122.742 76.2906C122.828 76.1219 122.971 75.9812 123.142 75.8969C123.313 75.8125 123.484 75.7562 123.656 75.7562C123.884 75.7562 124.055 75.7844 124.198 75.8687C124.34 75.9531 124.454 76.0375 124.54 76.15C124.626 76.2625 124.683 76.4031 124.711 76.5437C124.74 76.6844 124.768 76.8531 124.768 76.9937V78.625H124.226V77.05C124.226 76.9375 124.226 76.8531 124.198 76.7406C124.198 76.6281 124.169 76.5437 124.112 76.4875C124.055 76.4031 123.998 76.3469 123.912 76.3187C123.827 76.2625 123.713 76.2625 123.598 76.2625C123.342 76.2625 123.142 76.3469 123.028 76.4875C122.914 76.6562 122.857 76.8531 122.857 77.1062V78.6531H122.314V77.1906C122.314 77.05 122.314 76.9375 122.286 76.825C122.257 76.7125 122.257 76.6281 122.2 76.5437C122.172 76.4594 122.086 76.4031 122.029 76.3469C121.943 76.2906 121.858 76.2906 121.715 76.2906C121.63 76.2906 121.515 76.3187 121.43 76.3469C121.344 76.375 121.259 76.4312 121.201 76.5156C121.144 76.6 121.087 76.6844 121.03 76.7969C121.002 76.9094 120.973 77.05 120.973 77.2187V78.6812H120.431V75.8125Z" fill="white"/>
<path d="M125.567 75.8125H126.081V76.2625C126.081 76.2344 126.11 76.1781 126.167 76.1219C126.224 76.0656 126.281 76.0094 126.366 75.9531C126.452 75.8969 126.538 75.8687 126.652 75.8125C126.766 75.7844 126.88 75.7562 126.994 75.7562C127.194 75.7562 127.394 75.8125 127.536 75.8969C127.679 75.9812 127.793 76.1219 127.879 76.2906C127.964 76.1219 128.107 75.9812 128.278 75.8969C128.449 75.8125 128.621 75.7562 128.792 75.7562C129.02 75.7562 129.191 75.7844 129.334 75.8687C129.477 75.9531 129.591 76.0375 129.676 76.15C129.762 76.2625 129.819 76.4031 129.848 76.5437C129.876 76.6844 129.905 76.8531 129.905 76.9937V78.625H129.363V77.05C129.363 76.9375 129.363 76.8531 129.334 76.7406C129.334 76.6281 129.306 76.5437 129.248 76.4875C129.191 76.4031 129.134 76.3469 129.049 76.3187C128.963 76.2625 128.849 76.2625 128.735 76.2625C128.478 76.2625 128.278 76.3469 128.164 76.4875C128.05 76.6562 127.993 76.8531 127.993 77.1062V78.6531H127.451V77.1906C127.451 77.05 127.451 76.9375 127.422 76.825C127.422 76.7125 127.394 76.6281 127.337 76.5437C127.308 76.4594 127.222 76.4031 127.165 76.3469C127.08 76.2906 126.994 76.2906 126.851 76.2906C126.766 76.2906 126.652 76.3187 126.566 76.3469C126.481 76.375 126.395 76.4312 126.338 76.5156C126.281 76.6 126.224 76.6844 126.167 76.7969C126.138 76.9094 126.11 77.05 126.11 77.2187V78.6812H125.567V75.8125Z" fill="white"/>
<path d="M130.59 74.8C130.59 74.6875 130.618 74.6031 130.704 74.5187C130.789 74.4344 130.875 74.4062 130.989 74.4062C131.103 74.4062 131.189 74.4344 131.274 74.5187C131.36 74.6031 131.389 74.6875 131.389 74.8C131.389 74.9125 131.36 74.9969 131.274 75.0812C131.189 75.1656 131.103 75.1937 130.989 75.1937C130.875 75.1937 130.789 75.1656 130.704 75.0812C130.647 74.9969 130.59 74.9125 130.59 74.8ZM130.732 75.8125H131.274V78.625H130.732V75.8125Z" fill="white"/>
<path d="M133.643 76.5156C133.586 76.4313 133.5 76.375 133.415 76.3188C133.329 76.2625 133.215 76.2344 133.072 76.2344C132.958 76.2344 132.844 76.2625 132.73 76.3188C132.644 76.375 132.587 76.4594 132.587 76.5438C132.587 76.6281 132.616 76.6844 132.673 76.7406C132.73 76.7969 132.787 76.825 132.872 76.8531C132.958 76.8813 133.015 76.9094 133.101 76.9375C133.186 76.9656 133.272 76.9656 133.329 76.9656C133.443 76.9938 133.557 77.0219 133.671 77.0781C133.786 77.1063 133.871 77.1625 133.928 77.2469C134.014 77.3031 134.071 77.3875 134.099 77.4719C134.128 77.5563 134.156 77.6688 134.156 77.8094C134.156 77.9781 134.128 78.0906 134.042 78.2031C133.985 78.3156 133.9 78.4 133.786 78.4844C133.671 78.5688 133.557 78.5969 133.415 78.6531C133.272 78.6813 133.129 78.7094 132.987 78.7094C132.758 78.7094 132.53 78.6813 132.359 78.5969C132.188 78.5125 132.016 78.4 131.874 78.2031L132.273 77.8656C132.359 77.95 132.473 78.0344 132.559 78.0906C132.673 78.1469 132.787 78.2031 132.958 78.2031C133.015 78.2031 133.101 78.2031 133.158 78.175C133.215 78.1469 133.3 78.1469 133.357 78.1188C133.415 78.0906 133.443 78.0625 133.5 78.0063C133.529 77.95 133.557 77.9219 133.557 77.8375C133.557 77.7531 133.529 77.6969 133.472 77.6406C133.415 77.5844 133.357 77.5563 133.3 77.5281C133.243 77.5 133.158 77.4719 133.072 77.4438C132.987 77.4156 132.929 77.4156 132.872 77.3875C132.758 77.3594 132.644 77.3313 132.53 77.3031C132.416 77.275 132.33 77.2188 132.245 77.1625C132.159 77.1063 132.102 77.0219 132.045 76.9375C131.988 76.8531 131.959 76.7406 131.959 76.6C131.959 76.4594 131.988 76.3188 132.045 76.2063C132.102 76.0938 132.188 76.0094 132.302 75.925C132.416 75.8406 132.53 75.8125 132.644 75.7563C132.787 75.7281 132.901 75.7 133.044 75.7C133.243 75.7 133.415 75.7281 133.586 75.8125C133.757 75.8969 133.9 76.0094 134.014 76.1781L133.643 76.5156Z" fill="white"/>
<path d="M136.354 76.5156C136.297 76.4313 136.211 76.375 136.125 76.3188C136.04 76.2625 135.926 76.2344 135.783 76.2344C135.64 76.2344 135.555 76.2625 135.441 76.3188C135.355 76.375 135.298 76.4594 135.298 76.5438C135.298 76.6281 135.326 76.6844 135.383 76.7406C135.441 76.7969 135.498 76.825 135.583 76.8531C135.669 76.8813 135.726 76.9094 135.811 76.9375C135.897 76.9656 135.983 76.9656 136.04 76.9656C136.154 76.9938 136.268 77.0219 136.382 77.0781C136.496 77.1063 136.582 77.1625 136.639 77.2469C136.725 77.3031 136.782 77.3875 136.81 77.4719C136.839 77.5563 136.867 77.6688 136.867 77.8094C136.867 77.9781 136.839 78.0906 136.753 78.2031C136.696 78.3156 136.611 78.4 136.496 78.4844C136.382 78.5688 136.268 78.5969 136.125 78.6531C135.983 78.6813 135.84 78.7094 135.697 78.7094C135.469 78.7094 135.241 78.6813 135.07 78.5969C134.898 78.5125 134.727 78.4 134.584 78.2031L134.984 77.8656C135.07 77.95 135.184 78.0344 135.269 78.0906C135.383 78.1469 135.498 78.2031 135.669 78.2031C135.726 78.2031 135.812 78.2031 135.869 78.175C135.926 78.1469 136.011 78.1469 136.068 78.1188C136.125 78.0906 136.154 78.0625 136.211 78.0063C136.24 77.95 136.268 77.9219 136.268 77.8375C136.268 77.7531 136.24 77.6969 136.182 77.6406C136.125 77.5844 136.068 77.5563 136.011 77.5281C135.954 77.5 135.869 77.4719 135.783 77.4438C135.697 77.4156 135.64 77.4156 135.583 77.3875C135.469 77.3594 135.355 77.3313 135.241 77.3031C135.127 77.275 135.041 77.2188 134.955 77.1625C134.87 77.1063 134.813 77.0219 134.756 76.9375C134.699 76.8531 134.67 76.7406 134.67 76.6C134.67 76.4594 134.699 76.3188 134.756 76.2063C134.813 76.0938 134.898 76.0094 135.013 75.925C135.127 75.8406 135.241 75.8125 135.355 75.7563C135.498 75.7281 135.612 75.7 135.754 75.7C135.954 75.7 136.125 75.7281 136.297 75.8125C136.468 75.8969 136.61 76.0094 136.725 76.1781L136.354 76.5156Z" fill="white"/>
<path d="M137.381 74.8C137.381 74.6875 137.41 74.6031 137.495 74.5187C137.581 74.4344 137.666 74.4062 137.781 74.4062C137.895 74.4062 137.98 74.4344 138.066 74.5187C138.152 74.6031 138.18 74.6875 138.18 74.8C138.18 74.9125 138.152 74.9969 138.066 75.0812C137.98 75.1656 137.895 75.1937 137.781 75.1937C137.666 75.1937 137.581 75.1656 137.495 75.0812C137.438 74.9969 137.381 74.9125 137.381 74.8ZM137.524 75.8125H138.066V78.625H137.524V75.8125Z" fill="white"/>
<path d="M138.751 77.2187C138.751 77.0219 138.779 76.825 138.865 76.6562C138.95 76.4875 139.065 76.3187 139.179 76.1781C139.321 76.0375 139.464 75.925 139.664 75.8687C139.835 75.7844 140.035 75.7562 140.263 75.7562C140.463 75.7562 140.663 75.7844 140.862 75.8687C141.034 75.9531 141.205 76.0656 141.347 76.1781C141.49 76.3187 141.604 76.4594 141.661 76.6562C141.747 76.825 141.775 77.0219 141.775 77.2187C141.775 77.4156 141.747 77.6125 141.661 77.8094C141.576 77.9781 141.462 78.1469 141.347 78.2875C141.205 78.4281 141.062 78.5125 140.862 78.5969C140.691 78.6812 140.491 78.7094 140.263 78.7094C140.063 78.7094 139.864 78.6812 139.664 78.5969C139.493 78.5125 139.321 78.4281 139.179 78.2875C139.036 78.1469 138.922 78.0062 138.865 77.8094C138.779 77.6125 138.751 77.4156 138.751 77.2187ZM139.321 77.2187C139.321 77.3594 139.35 77.5 139.379 77.6125C139.436 77.725 139.493 77.8375 139.578 77.9219C139.664 78.0062 139.749 78.0625 139.864 78.1187C139.978 78.175 140.12 78.2031 140.263 78.2031C140.406 78.2031 140.548 78.175 140.663 78.1187C140.777 78.0625 140.891 78.0062 140.948 77.9219C141.034 77.8375 141.091 77.725 141.148 77.6125C141.205 77.5 141.205 77.3594 141.205 77.2187C141.205 77.0781 141.176 76.9375 141.148 76.825C141.091 76.7125 141.034 76.6 140.948 76.5156C140.862 76.4312 140.777 76.375 140.663 76.3187C140.548 76.2625 140.406 76.2344 140.263 76.2344C140.12 76.2344 139.978 76.2625 139.864 76.3187C139.749 76.375 139.635 76.4312 139.578 76.5156C139.493 76.6 139.436 76.7125 139.379 76.825C139.35 76.9375 139.321 77.0781 139.321 77.2187Z" fill="white"/>
<path d="M142.46 75.8125H143.002V76.2344C143.06 76.0937 143.202 75.9531 143.345 75.8687C143.516 75.7844 143.716 75.7281 143.916 75.7281C144.058 75.7281 144.172 75.7562 144.315 75.7843C144.429 75.8125 144.543 75.8969 144.658 75.9812C144.743 76.0656 144.829 76.1781 144.886 76.3187C144.943 76.4593 144.971 76.6281 144.971 76.7969V78.5969H144.429V76.9375C144.429 76.7969 144.401 76.6843 144.372 76.6C144.344 76.5156 144.287 76.4312 144.229 76.375C144.172 76.3187 144.087 76.2625 144.03 76.2625C143.944 76.2344 143.859 76.2344 143.773 76.2344C143.659 76.2344 143.545 76.2625 143.459 76.2906C143.373 76.3187 143.288 76.375 143.202 76.4593C143.117 76.5437 143.06 76.6281 143.031 76.7406C143.002 76.8531 142.974 76.9937 142.974 77.1625V78.625H142.432V75.8125H142.46Z" fill="white"/>
<path d="M84.0485 49.0938H86.7879L93.2939 63.8594H89.5843L88.3002 60.7375H82.479L81.2235 63.8594H77.5995L84.0485 49.0938ZM85.3326 53.3969L83.5063 57.9813H87.1588L85.3326 53.3969Z" fill="white"/>
<path d="M102.225 52.7219C101.969 52.3844 101.598 52.1312 101.141 51.9906C100.685 51.8219 100.257 51.7375 99.8285 51.7375C99.6002 51.7375 99.3434 51.7656 99.0866 51.8219C98.8298 51.8781 98.6015 51.9625 98.3732 52.075C98.1449 52.1875 97.9737 52.3562 97.831 52.5531C97.6884 52.75 97.6313 52.975 97.6313 53.2562C97.6313 53.7062 97.8025 54.0437 98.1449 54.2687C98.4874 54.4937 98.9154 54.7187 99.429 54.8594C99.9427 55.0281 100.485 55.1969 101.084 55.3656C101.683 55.5344 102.225 55.7594 102.739 56.0687C103.253 56.3781 103.681 56.7719 104.023 57.3062C104.366 57.8125 104.537 58.5156 104.537 59.3594C104.537 60.175 104.394 60.9062 104.08 61.4969C103.766 62.1156 103.338 62.6219 102.825 63.0156C102.283 63.4094 101.683 63.7187 100.998 63.9156C100.314 64.1125 99.5717 64.1969 98.8012 64.1969C97.831 64.1969 96.9179 64.0562 96.0904 63.7469C95.2629 63.4656 94.4924 62.9875 93.7505 62.3406L96.0904 59.8094C96.4328 60.2594 96.8608 60.5969 97.3745 60.85C97.8881 61.1031 98.4303 61.2156 98.9725 61.2156C99.2293 61.2156 99.5146 61.1875 99.8 61.1312C100.085 61.075 100.314 60.9625 100.542 60.85C100.77 60.7375 100.941 60.5687 101.084 60.3719C101.227 60.175 101.284 59.95 101.284 59.6969C101.284 59.2469 101.113 58.9094 100.77 58.6562C100.428 58.4031 99.9997 58.1781 99.4576 58.0094C98.9439 57.8406 98.3732 57.6437 97.774 57.475C97.1747 57.3062 96.604 57.0531 96.0904 56.7437C95.5768 56.4344 95.1487 56.0406 94.7778 55.5344C94.4353 55.0281 94.2641 54.3812 94.2641 53.5656C94.2641 52.7781 94.4353 52.075 94.7492 51.4844C95.0631 50.8937 95.4911 50.3875 96.0048 49.9937C96.547 49.6 97.1462 49.2906 97.831 49.0937C98.5159 48.8969 99.2293 48.7844 99.9712 48.7844C100.827 48.7844 101.626 48.8969 102.425 49.15C103.224 49.375 103.938 49.7687 104.565 50.3312L102.225 52.7219Z" fill="white"/>
<path d="M109.901 49.0938H106.591V63.8594H109.901V49.0938Z" fill="white"/>
<path d="M122.457 52.9469C122.143 52.5531 121.744 52.2719 121.259 52.0469C120.774 51.85 120.231 51.7375 119.632 51.7375C119.004 51.7375 118.434 51.85 117.92 52.1031C117.378 52.3281 116.921 52.6656 116.55 53.0875C116.151 53.5094 115.865 54.0156 115.637 54.6062C115.409 55.1969 115.323 55.8156 115.323 56.4906C115.323 57.1937 115.437 57.8125 115.637 58.4031C115.865 58.9937 116.151 59.4719 116.55 59.8937C116.921 60.3156 117.378 60.6531 117.891 60.8781C118.405 61.1031 118.947 61.2437 119.547 61.2437C120.231 61.2437 120.831 61.1031 121.344 60.8219C121.858 60.5406 122.286 60.1469 122.628 59.6687L125.368 61.6937C124.74 62.5656 123.941 63.2125 122.971 63.6344C122.001 64.0562 121.002 64.2531 119.975 64.2531C118.805 64.2531 117.72 64.0844 116.75 63.7187C115.751 63.3531 114.924 62.8469 114.182 62.1719C113.468 61.4969 112.898 60.6812 112.498 59.725C112.099 58.7687 111.899 57.7 111.899 56.5187C111.899 55.3375 112.099 54.2687 112.498 53.3125C112.898 52.3562 113.468 51.5406 114.182 50.8656C114.895 50.1906 115.751 49.6844 116.75 49.3187C117.749 48.9531 118.805 48.7844 119.975 48.7844C120.403 48.7844 120.831 48.8125 121.287 48.8969C121.744 48.9812 122.2 49.0937 122.628 49.2625C123.085 49.4312 123.513 49.6562 123.912 49.9375C124.312 50.2187 124.683 50.5562 125.025 50.95L122.457 52.9469Z" fill="white"/>
</svg>
