<svg width="176" height="128" viewBox="0 0 176 128" fill="none" xmlns="http://www.w3.org/2000/svg">
<rect width="176" height="128" fill="black"/>
<rect width="50.7848" height="55.4026" transform="translate(63 36)" fill="black"/>
<path d="M76.2128 78.8315L68.0087 69.1132H64.5276V84.322H67.9228V74.6228L76.0992 84.322H79.5997V69.1132H76.2128V78.8315ZM108.738 69.1132L106.519 78.8506L104.128 69.1132H100.884L98.4844 78.7359L96.3035 69.1132H92.7651L96.682 84.322H100.173L102.478 74.6994L104.821 84.322H108.245V84.1881L112.209 69.1132H108.738Z" fill="white"/>
<path d="M64.1672 88.991C64.1626 88.67 64.2217 88.3514 64.3408 88.0538C64.46 87.7561 64.6372 87.4856 64.8616 87.2582C65.086 87.0308 65.3538 86.8511 65.6483 86.7298C65.9429 86.6085 66.2587 86.5479 66.5772 86.5518C67.2374 86.521 67.8838 86.7508 68.3787 87.1927L67.857 87.7762C67.5015 87.4448 67.0334 87.2635 66.5486 87.2693C66.3409 87.2779 66.1359 87.3277 65.9475 87.4161C65.7582 87.5045 65.5883 87.6295 65.447 87.784C65.3067 87.9386 65.1968 88.1198 65.1257 88.317C65.0546 88.5143 65.0223 88.7238 65.0306 88.9336C65.0103 89.1546 65.0371 89.3774 65.1091 89.5873C65.1802 89.7972 65.2947 89.9894 65.4452 90.1513C65.5966 90.3131 65.7794 90.4409 65.9826 90.5261C66.1857 90.6113 66.4046 90.6521 66.6243 90.6458C67.0251 90.65 67.4166 90.5261 67.7434 90.2918V89.4119H66.5486V88.7327H68.5782V90.6458C68.0528 91.1109 67.3806 91.3721 66.6816 91.3823C66.3612 91.397 66.0408 91.3447 65.7416 91.2287C65.4424 91.1126 65.17 90.9354 64.9419 90.7081C64.7139 90.4807 64.5347 90.2084 64.4165 89.9079C64.2984 89.6074 64.242 89.2854 64.2531 88.9623" fill="white"/>
<path d="M69.0336 88.9912C69.0299 88.6674 69.0909 88.3461 69.2127 88.0464C69.3346 87.7469 69.5156 87.4752 69.7437 87.2475C69.9718 87.0199 70.2432 86.8409 70.5424 86.7214C70.8406 86.6019 71.1601 86.5444 71.4805 86.5521C71.8009 86.5417 72.1195 86.5969 72.4168 86.7143C72.7151 86.8318 72.9865 87.009 73.2137 87.2353C73.4418 87.4616 73.6218 87.7322 73.7428 88.0308C73.8647 88.3294 73.9238 88.6496 73.9182 88.9721C73.921 89.2951 73.8591 89.6154 73.7372 89.914C73.6144 90.2124 73.4335 90.483 73.2054 90.7096C72.9773 90.9363 72.7058 91.1143 72.4085 91.2332C72.1103 91.3521 71.7917 91.4094 71.4713 91.4017C71.1518 91.4107 70.8342 91.3546 70.5369 91.2367C70.2395 91.1188 69.969 90.9415 69.7409 90.7154C69.5138 90.4894 69.3337 90.2193 69.2118 89.9214C69.0909 89.6235 69.0299 89.3038 69.0336 88.9817V88.9912ZM73.0558 88.9817C73.0641 88.7655 73.0299 88.5496 72.9552 88.3469C72.8794 88.1442 72.764 87.9589 72.6163 87.8019C72.4685 87.645 72.2913 87.5195 72.0946 87.4329C71.8979 87.3464 71.6864 87.3005 71.4713 87.2981C71.258 87.298 71.0466 87.3414 70.8508 87.4259C70.655 87.5105 70.4778 87.6343 70.33 87.7899C70.1832 87.9456 70.0687 88.1298 69.9939 88.3314C69.92 88.533 69.8868 88.7477 69.897 88.9625C69.8877 89.1788 69.9219 89.3947 69.9976 89.5973C70.0733 89.7999 70.1878 89.9852 70.3356 90.1423C70.4833 90.2993 70.6606 90.4248 70.8573 90.5113C71.0539 90.5979 71.2663 90.6437 71.4805 90.646C71.6938 90.6463 71.9053 90.6028 72.102 90.5183C72.2977 90.4337 72.475 90.3099 72.6218 90.1542C72.7696 89.9986 72.8841 89.8144 72.9579 89.6129C73.0327 89.4113 73.066 89.1965 73.0558 88.9817Z" fill="white"/>
<path d="M73.8606 86.6175H74.771L76.1755 90.2427L77.5698 86.6175H78.4608L76.5162 91.3619H75.8052L73.8606 86.6175Z" fill="white"/>
<path d="M79.0106 86.6175H82.4825V87.3636H79.8361V88.5879H82.1787V89.3244H79.8361V90.5871H82.5111V91.3331H79.0106V86.6175Z" fill="white"/>
<path d="M83.3074 86.6179H85.385C85.879 86.5943 86.3619 86.7659 86.7321 87.0962C86.8605 87.2307 86.9611 87.3896 87.0276 87.5637C87.0941 87.7377 87.1264 87.9235 87.1209 88.11C87.132 88.4414 87.0267 88.7663 86.8236 89.027C86.6213 89.2878 86.3333 89.4678 86.011 89.5353L87.2723 91.324H86.324L85.1578 89.6883H84.1236V91.3336H83.3074V86.6179ZM85.3277 88.9519C85.9159 88.9519 86.2769 88.6458 86.2769 88.1675C86.2769 87.6605 85.9159 87.3831 85.3277 87.3831H84.1236V88.9614L85.3277 88.9519Z" fill="white"/>
<path d="M87.8511 86.6175H88.6008L91.105 89.8792V86.6175H91.9111V91.3331H91.2278L88.6479 87.9758V91.3331H87.8511V86.6175Z" fill="white"/>
<path d="M92.7462 86.6175H93.6188L95.0417 88.8461L96.4646 86.6175H97.3372V91.3331H96.5219V87.9566L95.0417 90.1758H95.0131L93.5523 87.9662V91.3331H92.7462V86.6175Z" fill="white"/>
<path d="M98.125 86.6175H101.587V87.3636H98.9403V88.5879H101.283V89.3244H98.9403V90.5871H101.615V91.3331H98.125V86.6175Z" fill="white"/>
<path d="M102.422 86.6175H103.181L105.685 89.8792V86.6175H106.491V91.3331H105.808L103.228 87.9758V91.3331H102.422V86.6175Z" fill="white"/>
<path d="M108.625 87.3922H107.144V86.6175H110.929V87.3922H109.45V91.3331H108.625V87.3922Z" fill="white"/>
<path d="M80.5383 82.2092L82.53 79.7987C83.7738 80.9743 85.3989 81.6542 87.1025 81.7117C88.4867 81.7117 89.3122 81.1665 89.3122 80.2578V80.21C89.3122 79.3491 88.7905 78.9091 86.23 78.2969C83.1376 77.503 81.1459 76.6421 81.1459 73.5717V73.4282C81.1459 70.6256 83.3842 68.7699 86.5144 68.7699C88.5809 68.737 90.5947 69.4341 92.2051 70.7404L90.4599 73.2942C89.3103 72.3951 87.9188 71.8651 86.4664 71.7734C85.1764 71.7734 84.5033 72.3664 84.5033 73.1221V73.1699C84.5033 74.1838 85.1579 74.5091 87.8043 75.1978C90.9151 76.0108 92.6705 77.1108 92.6705 79.8369C92.6705 82.9074 90.3463 84.6195 87.0361 84.6195C84.651 84.6445 82.3389 83.787 80.5383 82.2092Z" fill="white"/>
<path d="M98.1435 44.7336C98.6495 47.2819 98.9127 49.8731 98.9302 52.4719C98.969 54.8566 98.6495 57.2334 97.9819 59.5215C97.4547 61.2456 96.4113 62.7626 94.9939 63.8641C97.7261 63.7781 100.164 62.0659 101.9 59.0337C104.147 55.0546 104.631 50.0615 104.745 46.4075C104.82 42.2466 104.518 41.271 104.394 40.8692C104.271 40.4675 104.109 40.3049 103.749 40.3049C103.057 40.3049 100.126 41.644 97.3845 43.6145C97.5849 43.733 97.7566 43.8947 97.8877 44.0883C98.0198 44.2817 98.1066 44.5021 98.1435 44.7336Z" fill="white"/>
<path d="M90.6885 64.3796C92.1271 64.2378 93.4919 63.6686 94.6101 62.7439C95.7283 61.8193 96.5482 60.5809 96.9674 59.1857C97.6055 57.0123 97.9249 54.7566 97.9166 52.49C97.9619 50.0658 97.7421 47.6439 97.262 45.2682C97.262 45.01 97.1096 44.5986 96.7874 44.5317C96.4651 44.4647 96.1807 44.809 95.9813 44.9716C95.7818 45.1342 91.02 49.3334 88.9526 54.5369C88.164 56.2588 87.7808 58.1412 87.8335 60.0369C87.7199 61.1701 87.9517 62.3112 88.4974 63.3083C88.7448 63.6575 89.0745 63.9385 89.4577 64.1257C89.8399 64.3129 90.2638 64.4002 90.6885 64.3796Z" fill="white"/>
<path d="M97.8772 41.8641C97.3463 39.3867 96.8338 37.6936 96.8246 37.6841C96.7101 37.378 96.5494 37.1484 96.3213 37.1101C96.1976 37.0905 96.0702 37.1 95.9501 37.1382C95.8292 37.1763 95.7202 37.2421 95.6288 37.3302C95.2973 37.5788 92.9261 39.4632 92.1477 40.1137C92.9141 41.6579 93.5669 43.2563 94.1025 44.8962C95.3066 43.8192 96.5669 42.8071 97.8772 41.8641Z" fill="white"/>
<path d="M111.603 48.1165C111.639 47.8557 111.599 47.59 111.488 47.3513C111.337 47.1313 111.137 47.026 110.663 46.9687C109.003 46.9657 107.344 47.052 105.693 47.227C105.663 48.8479 105.523 50.465 105.276 52.067C106.448 52.5074 107.597 53.0086 108.719 53.5687C111.071 50.5748 111.555 48.6617 111.603 48.1165Z" fill="white"/>
<path d="M113.784 58.4967C113.784 58.095 113.585 57.7793 112.94 57.3489C110.485 55.6591 107.847 54.2567 105.077 53.1688C104.672 55.3963 103.917 57.5438 102.839 59.5298C101.911 61.2416 100.565 62.6868 98.9299 63.7289C103.53 63.4133 107.401 62.6959 110.189 61.3376C113.376 59.7881 113.804 59.0133 113.784 58.4967Z" fill="white"/>
<path d="M103.616 64.4769C102.731 64.5421 101.85 64.6635 100.979 64.8403C100.069 65.0047 99.1436 65.072 98.2193 65.0412H96.4169C95.8389 65.0412 95.1842 65.0412 94.5203 65.0412C92.9247 64.9944 91.3292 65.1617 89.7779 65.5386C89.692 65.5386 89.5877 65.5386 89.6071 65.6821C89.6256 65.8255 89.7299 65.7586 89.8536 65.7682C89.9764 65.7777 91.1242 65.6821 91.6837 65.6821C93.2895 65.6969 94.8841 65.9318 96.4271 66.3803C97.7669 66.7799 99.1556 66.9924 100.553 67.0116C102.298 67.0116 103.816 66.7821 104.347 66.1508C104.465 66.0244 104.552 65.8723 104.601 65.7063C104.651 65.5403 104.661 65.3651 104.631 65.1942C104.622 64.6777 104.3 64.4673 103.616 64.4769Z" fill="white"/>
<path d="M74.8859 58.9865C76.6117 62.0187 79.0595 63.7691 81.7816 63.8169C80.3689 62.7299 79.3217 61.2302 78.7843 59.5222C78.1121 57.2351 77.7917 54.8575 77.8351 52.4725C77.8564 49.8734 78.1232 47.2822 78.632 44.7343C78.6736 44.4981 78.7659 44.2741 78.9035 44.0788C79.042 43.8836 79.2211 43.7218 79.4289 43.6055C76.6597 41.5299 73.7381 40.3151 73.0641 40.2959C72.7132 40.2959 72.5424 40.449 72.4288 40.8603C72.3152 41.2716 71.993 42.2376 72.0779 46.3986C72.1444 50.0143 72.6283 55.0074 74.8859 58.9865Z" fill="white"/>
<path d="M80.8414 44.9517C80.6521 44.7891 80.3483 44.4448 80.0446 44.5118C79.7417 44.5787 79.618 44.9901 79.5616 45.2483C79.0916 47.6254 78.8756 50.0465 78.9162 52.4701C78.894 54.7335 79.1941 56.9884 79.8082 59.1658C80.2274 60.5677 81.0547 61.8104 82.1831 62.733C83.3114 63.6555 84.6872 64.2155 86.1342 64.3406C86.5072 64.3377 86.8756 64.2697 87.2256 64.1397C87.3955 64.0671 87.5571 63.9774 87.7094 63.8719C87.5598 63.6641 87.4297 63.4432 87.3198 63.2119C86.9126 62.2787 86.715 61.266 86.7417 60.2467C86.7353 58.2277 87.1286 56.2277 87.8987 54.364C85.8211 49.1797 81.0316 45.1143 80.8414 44.9517Z" fill="white"/>
<path d="M88.3918 52.8253C89.6541 50.3109 91.3134 48.0204 93.3051 46.0436C92.2146 42.6138 90.6938 39.3383 88.7806 36.2965C88.6578 36.1148 88.5627 36 88.3826 36C88.2025 36 88.1167 36.1148 87.9939 36.2965C86.0843 39.3405 84.5645 42.6154 83.4694 46.0436C85.4638 48.0199 87.1268 50.3104 88.3918 52.8253Z" fill="white"/>
<path d="M84.6361 40.1522C83.8586 39.5017 81.4874 37.6173 81.1457 37.3687C81.0571 37.28 80.949 37.2139 80.8309 37.1757C80.7117 37.1375 80.5862 37.1281 80.4624 37.1486C80.226 37.1486 80.0645 37.4164 79.9509 37.7225C79.9509 37.7225 79.4384 39.4252 78.9075 41.9026C80.2251 42.8506 81.492 43.8692 82.7016 44.9539C83.2344 43.3095 83.8807 41.705 84.6361 40.1522Z" fill="white"/>
<path d="M68.0556 53.5687C69.1812 53.0103 70.3336 52.5091 71.5081 52.067C71.2523 50.4659 71.1102 48.8484 71.0815 47.227C69.4333 47.0522 67.7777 46.966 66.1212 46.9687C65.6373 47.026 65.4471 47.1313 65.2957 47.3512C65.1812 47.5886 65.1415 47.8557 65.1821 48.1165C65.2292 48.6617 65.7315 50.5748 68.0556 53.5687Z" fill="white"/>
<path d="M73.9462 59.5298C72.864 57.5457 72.1078 55.3974 71.708 53.1688C68.9351 54.2573 66.2943 55.6596 63.8353 57.3489C63.1991 57.7793 63.0191 58.095 63.0006 58.4967C62.9812 58.8985 63.3986 59.7881 66.5861 61.3663C69.3645 62.7246 73.2251 63.4419 77.8447 63.7576C76.2066 62.71 74.8631 61.2537 73.9462 59.5298Z" fill="white"/>
<path d="M86.9603 65.4801C85.4081 65.1032 83.8134 64.9359 82.2169 64.9826C81.5632 64.9826 80.8993 64.9826 80.3203 64.9826H78.5271C77.6139 65.0231 76.6989 64.9686 75.7958 64.82C74.9288 64.6433 74.0506 64.522 73.1688 64.4566C72.4763 64.4566 72.1531 64.6574 72.0303 65.107C71.9971 65.277 72.0054 65.4525 72.0534 65.6188C72.1005 65.7852 72.1873 65.9376 72.3055 66.0635C72.8743 66.6949 74.3923 66.9244 76.1467 66.9244C77.5438 66.9037 78.9325 66.6913 80.2732 66.2931C81.8153 65.8443 83.4108 65.6094 85.0156 65.5948C85.5844 65.5948 86.723 65.6809 86.8458 65.6809C86.9695 65.6809 87.0923 65.6809 87.1025 65.5948C87.1117 65.5088 87.0452 65.5088 86.9603 65.4801Z" fill="white"/>
</svg>
