<svg width="176" height="128" viewBox="0 0 176 128" fill="none" xmlns="http://www.w3.org/2000/svg">
<rect width="176" height="128" fill="black"/>
<path fill-rule="evenodd" clip-rule="evenodd" d="M52.2383 44.7211C48.4252 44.7206 44.6975 45.8508 41.5268 47.9689C38.356 50.0869 35.8846 53.0977 34.425 56.6204C32.9654 60.1431 32.5832 64.0196 33.3268 67.7595C34.0704 71.4994 35.9063 74.9348 38.6024 77.6313C41.2985 80.3277 44.7336 82.1642 48.4734 82.9083C52.2132 83.6524 56.0897 83.2707 59.6126 81.8116C63.1355 80.3525 66.1467 77.8815 68.2652 74.7111C70.3837 71.5406 71.5144 67.8131 71.5144 64C71.5144 58.8874 69.4837 53.9842 65.8687 50.3687C62.2538 46.7533 57.3509 44.7219 52.2383 44.7211ZM64.1942 68.2823C64.0947 68.1279 63.9611 67.9984 63.8035 67.9041C63.6459 67.8097 63.4687 67.753 63.2856 67.7382C63.2856 67.7382 62.7415 67.711 61.8384 67.711H61.3487C60.5326 67.711 59.2296 67.7654 57.5729 67.9205C57.5304 69.7746 57.366 71.6239 57.0805 73.4563C58.4162 73.965 59.8008 74.5717 61.1855 75.2599C63.9058 71.8323 64.3166 69.5473 64.3791 68.9379C64.378 68.7066 64.3141 68.48 64.1942 68.2823ZM47.3227 64.8414C47.5077 64.8414 47.6111 65.0998 47.6682 65.3066C47.6682 65.3066 47.7172 65.5432 47.8042 65.9812C48.2915 68.603 48.5428 71.2633 48.555 73.93C48.5866 76.3516 48.2911 78.7664 47.6763 81.1089C44.1885 80.1759 41.0694 78.1987 38.7374 75.4425C39.9806 72.5753 41.8685 70.127 43.3619 68.4649C44.1846 67.5592 45.0526 66.6957 45.9626 65.8778C46.1256 65.7386 46.2694 65.6186 46.3939 65.5147L46.394 65.5146C46.5541 65.3811 46.6823 65.2741 46.7786 65.1869C46.95 65.0318 47.0507 64.9557 47.0507 64.9557C47.1267 64.8892 47.2221 64.8492 47.3227 64.8414ZM40.5763 60.0255C40.5777 60.0193 40.5777 60.0128 40.5763 60.0065C40.5308 59.9114 40.4852 59.8183 40.4404 59.7265L40.4403 59.7263L40.4402 59.7262C40.394 59.6317 40.3484 59.5385 40.3043 59.4461L40.2444 59.3237C40.1411 59.1197 40.0404 58.9211 39.9398 58.7307L39.9153 58.6844C39.2678 57.4412 38.7102 56.481 38.3565 55.8906C38.1552 55.5805 38.0546 55.4146 38.0546 55.4146C37.8669 55.1426 37.7091 55.1072 37.6628 55.1072C37.5296 55.1072 37.3908 55.216 37.2548 55.42C37.2548 55.42 37.1405 55.5887 36.9583 55.8906C36.8755 56.0305 36.7928 56.1691 36.7104 56.3071L36.7101 56.3075L36.7095 56.3085L36.7094 56.3087C36.5214 56.6236 36.3353 56.9352 36.1558 57.2508L36.0062 57.5228L35.99 57.5514C35.9701 57.5864 35.9492 57.6232 35.93 57.6616L35.9028 57.7105C35.7205 58.0424 35.5192 58.4178 35.3043 58.834C34.5112 61.4384 34.3288 64.1905 34.7713 66.8767C35.2139 69.563 36.2694 72.1112 37.856 74.3235C39.0829 71.7446 40.9136 69.1767 43.3129 66.6821C42.5505 64.4046 41.6362 62.1808 40.5763 60.0255ZM56.0983 61.9399L56.0984 61.9408L56.0985 61.9415C56.1097 62.059 56.1215 62.1823 56.1338 62.3056C56.2671 63.7637 56.3324 65.2354 56.3324 66.7153C56.3324 70.8909 55.7856 76.8212 53.1904 81.3859L53.0027 81.6988C52.747 81.7178 52.5049 81.7178 52.2329 81.7178C51.1177 81.7124 50.0056 81.6012 48.9114 81.3859C49.543 78.9517 49.8467 76.4441 49.8145 73.9295C49.8017 70.9609 49.4983 68.0007 48.9087 65.0912C48.9027 65.0716 48.8981 65.0516 48.8951 65.0314C48.8453 64.7609 48.7367 64.5047 48.5768 64.2809C48.417 64.0571 48.2099 63.8713 47.9701 63.7365C48.1334 63.6304 48.2993 63.5243 48.4652 63.4318C49.6323 62.6919 50.8591 61.9928 52.1159 61.3372C52.4206 61.1821 52.728 61.0271 53.0354 60.8775L53.2149 60.7959C53.5188 60.6527 53.7819 60.5353 54.0114 60.4328C54.1701 60.3619 54.3128 60.2982 54.4418 60.2382C54.7573 60.0913 54.9314 60.0287 54.9314 60.0287C55.0373 59.9831 55.1508 59.9582 55.266 59.9553C55.3584 59.9451 55.4519 59.9542 55.5407 59.982C55.6294 60.0098 55.7113 60.0557 55.7814 60.1168C55.8515 60.1779 55.9081 60.2529 55.9477 60.337C55.9872 60.4211 56.009 60.5125 56.0114 60.6054V60.6626V60.6816V60.7496V60.7659C56.0133 60.7826 56.0167 60.8011 56.0204 60.8212C56.0276 60.8602 56.0359 60.9052 56.0359 60.9536C56.0347 60.9745 56.0347 60.9954 56.0359 61.0162V61.125V61.2257C56.0359 61.2371 56.035 61.2463 56.0341 61.2557L56.0341 61.2558C56.0323 61.2753 56.0304 61.2959 56.0359 61.3399C56.0383 61.3593 56.0414 61.3794 56.0447 61.4C56.0523 61.4488 56.0604 61.5004 56.0604 61.5521C56.0722 61.6662 56.0849 61.7988 56.0983 61.9398L56.0983 61.9399ZM56.852 74.7323C56.4123 77.1084 55.624 79.4065 54.5125 81.5522C57.716 81.141 60.7445 79.8564 63.2665 77.8389C62.5021 77.3901 61.6017 76.8923 60.5897 76.3836C59.3737 75.7678 58.1261 75.2167 56.852 74.7323ZM44.0721 64.9689C43.5253 63.4754 42.8969 61.9656 42.2086 60.4831L42.2141 60.4776C42.1974 60.4413 42.1807 60.4049 42.164 60.3685C42.0745 60.173 41.9844 59.9761 41.8904 59.7812C43.022 58.8454 43.9442 58.1545 44.5263 57.7383C45.5764 56.9847 46.2646 56.5631 46.2646 56.5631C46.3494 56.496 46.4511 56.4537 46.5584 56.4407C46.5991 56.4366 46.6401 56.4366 46.6808 56.4407C46.8301 56.4451 46.9736 56.4987 47.0892 56.5932C47.2048 56.6876 47.286 56.8176 47.3201 56.963L47.3364 57.0065C47.3403 57.0211 47.3466 57.036 47.3531 57.0514C47.3649 57.0791 47.3772 57.1083 47.3772 57.1398L47.4262 57.2677V57.2949C47.6493 57.9641 47.9893 59.1882 48.3457 60.7823C48.3729 60.9074 48.4028 61.0462 48.43 61.1795C48.4313 61.1839 48.4313 61.1886 48.43 61.1931C48.4549 61.2972 48.4779 61.4108 48.5006 61.5228C48.5052 61.5454 48.5098 61.5679 48.5143 61.5902C48.513 61.5947 48.513 61.5994 48.5143 61.6038L48.5715 61.8759C47.0097 62.8138 45.5071 63.8467 44.0721 64.9689Z" fill="white"/>
<path d="M77.9534 60.3849L79.6889 58.3229C80.8913 59.3103 82.1508 59.9414 83.6769 59.9414C84.8793 59.9414 85.6029 59.4654 85.6029 58.6847V58.6466C85.6029 57.9039 85.1459 57.5204 82.9125 56.9518C80.2248 56.2636 78.4866 55.5237 78.4866 52.8713V52.8333C78.4866 50.4149 80.4289 48.8154 83.1628 48.8154C84.9639 48.786 86.7188 49.3864 88.1246 50.5128L86.5958 52.719C85.4125 51.9029 84.2482 51.4078 83.122 51.4078C81.9958 51.4078 81.4055 51.922 81.4055 52.5667V52.6048C81.4055 53.4834 81.9767 53.7663 84.2863 54.3594C87.0066 55.0612 88.5218 56.0324 88.5218 58.3555V58.3936C88.5218 61.0432 86.5006 62.5285 83.6252 62.5285C81.5355 62.5346 79.5166 61.7716 77.9534 60.3849V60.3849Z" fill="white"/>
<path d="M89.4712 57.281V57.2347C89.4712 54.3186 91.5522 51.922 94.5283 51.922C97.9423 51.922 99.5064 54.5661 99.5064 57.4605C99.5064 57.689 99.4901 57.9583 99.4711 58.2222H92.3547C92.6268 59.5389 93.5571 60.2244 94.852 60.2244C95.8286 60.2244 96.5304 59.9197 97.3356 59.1771L98.9923 60.6406C98.0402 61.8212 96.6664 62.5448 94.8139 62.5448C91.7427 62.5557 89.4712 60.4039 89.4712 57.281ZM96.6855 56.4186C96.5141 55.1211 95.7497 54.2424 94.5283 54.2424C93.3068 54.2424 92.5451 55.0993 92.3139 56.4186H96.6855Z" fill="white"/>
<path d="M100.864 52.1176H103.764V54.1741C104.36 52.765 105.309 51.851 107.028 51.9299V54.9549H106.876C104.947 54.9549 103.764 56.1192 103.764 58.5566V62.3269H100.864V52.1176Z" fill="white"/>
<path d="M108.04 52.1175H111.109L113.402 58.9564L115.709 52.1175H118.726L114.7 62.403H112.066L108.04 52.1175Z" fill="white"/>
<path d="M119.819 48.4233H122.874V50.994H119.819V48.4233ZM119.895 52.1175H122.795V62.3268H119.895V52.1175Z" fill="white"/>
<path d="M123.845 57.2806V57.2343C123.837 56.5305 123.97 55.8322 124.237 55.1809C124.504 54.5297 124.9 53.939 125.4 53.4439C125.901 52.9489 126.496 52.5597 127.15 52.2995C127.804 52.0394 128.503 51.9136 129.207 51.9297C131.136 51.9297 132.338 52.5744 133.288 53.6435L131.511 55.5477C130.861 54.8649 130.211 54.427 129.183 54.427C127.733 54.427 126.702 55.7001 126.702 57.2071V57.2343C126.702 58.7958 127.714 60.0526 129.297 60.0526C130.271 60.0526 130.929 59.6337 131.645 58.9645L133.339 60.6891C132.349 61.7773 131.204 62.5553 129.161 62.5553C128.463 62.5684 127.769 62.4413 127.121 62.1814C126.473 61.9215 125.883 61.5341 125.387 61.0422C124.892 60.5503 124.5 59.9639 124.235 59.3178C123.97 58.6716 123.838 57.9789 123.845 57.2806V57.2806Z" fill="white"/>
<path d="M133.962 57.281V57.2347C133.962 54.3186 136.046 51.922 139.019 51.922C142.436 51.922 144 54.5661 144 57.4605C144 57.689 143.981 57.9583 143.962 58.2222H136.843C137.128 59.5389 138.045 60.2244 139.343 60.2244C140.319 60.2244 141.021 59.9197 141.826 59.1771L143.483 60.6406C142.531 61.8212 141.154 62.5448 139.305 62.5448C136.233 62.5557 133.962 60.4039 133.962 57.281ZM141.173 56.4186C141.005 55.1211 140.24 54.2424 139.019 54.2424C137.798 54.2424 137.033 55.0993 136.807 56.4186H141.173Z" fill="white"/>
<path d="M78.3696 65.3302H81.0655L87.2923 73.5156V65.3302H90.1785V78.6216H87.6922L81.2559 70.1723V78.6216H78.3696V65.3302Z" fill="white"/>
<path d="M92.0774 76.6849L93.8048 74.6148C95.0017 75.605 96.2531 76.2306 97.7737 76.2306C98.9707 76.2306 99.6916 75.7546 99.6916 74.9766V74.9385C99.6916 74.1986 99.2373 73.8177 97.0148 73.2492C94.338 72.5664 92.6106 71.8237 92.6106 69.185V69.1469C92.6106 66.7367 94.5474 65.1426 97.2623 65.1426C99.0539 65.113 100.799 65.7106 102.197 66.8319L100.679 69.0354C99.5011 68.2193 98.345 67.7242 97.2242 67.7242C96.1035 67.7242 95.5268 68.2356 95.5268 68.8831V68.932C95.5268 69.8052 96.0953 70.0882 98.394 70.6785C101.079 71.3803 102.6 72.3379 102.6 74.6447V74.6828C102.6 77.3215 100.587 78.8013 97.7193 78.8013C95.6425 78.8132 93.634 78.0598 92.0774 76.6849Z" fill="white"/>
<path d="M103.26 65.33H106.408L109.161 74.3315L112.153 65.2919H114.661L117.64 74.3315L120.393 65.33H123.451L118.889 78.7249H116.345L113.353 70.0198L110.361 78.7249H107.817L103.26 65.33Z" fill="white"/>
</svg>
