<svg width="176" height="128" viewBox="0 0 176 128" fill="none" xmlns="http://www.w3.org/2000/svg">
<rect width="176" height="128" fill="black"/>
<path d="M90.1689 64.1631C91.8807 64.7716 92.6556 64.87 95.0708 64.6543C93.8351 65.278 94.3298 66.2418 92.3496 66.0096C90.4996 65.7927 91.0799 65.128 90.1689 64.1631Z" fill="white"/>
<path d="M75.9991 44.9425C75.9991 44.9425 75.8209 43.6962 72.6648 39.7452C77.2478 41.376 78.317 42.0889 81.064 44.4208C78.6734 44.4079 75.9991 44.9425 75.9991 44.9425Z" fill="white"/>
<path d="M104.274 45.0492C104.274 45.0492 105.38 40.2294 109.252 35.8036C104.716 37.7943 102.393 41.6867 101.397 44.4536C102.949 44.8804 104.274 45.0492 104.274 45.0492Z" fill="white"/>
<path d="M89.8453 52.8059C89.9848 52.8903 90.1829 52.9525 90.231 53.1342L90.2087 53.167C90.4608 54.1284 90.666 55.1965 90.5593 56.2622C90.5358 56.2809 90.4878 56.2985 90.469 56.2739C89.0293 54.4531 87.6177 53.2245 86.0373 52.4413C86.0009 52.4249 86.0877 52.3569 86.1264 52.351L86.8075 52.2267C87.8557 52.1998 88.9249 52.392 89.8453 52.8059Z" fill="white"/>
<path d="M94.8985 52.8059C94.7602 52.8903 94.5609 52.9525 94.514 53.1342L94.5386 53.167C94.283 54.1284 94.079 55.1965 94.1857 56.2622C94.2091 56.2809 94.2572 56.2985 94.276 56.2739C95.7157 54.4531 97.1284 53.2245 98.7077 52.4413C98.7417 52.4249 98.6573 52.3569 98.6162 52.351L97.9362 52.2267C96.8881 52.1998 95.8189 52.392 94.8985 52.8059Z" fill="white"/>
<path d="M82.5401 49.1046C82.5401 49.1046 87.5627 57.2247 88.34 63.4479C78.3757 61.9285 73.1807 63.3365 68.3445 68.5491C67.3726 63.6883 67.8685 59.8721 68.4512 57.5389C70.9789 59.0947 73.3999 61.354 73.3999 61.354C73.3999 61.354 70.905 56.0265 68.5708 53.4976C69.402 50.7659 71.3037 48.3871 71.3037 48.3871C71.3037 48.3871 76.0472 50.6756 78.6723 55.8741C78.0896 50.8187 76.4951 46.1173 76.4951 46.1173C76.4951 46.1173 78.4941 47.6156 82.5401 49.1046Z" fill="white"/>
<path d="M68.6763 69.9196C68.6763 69.9196 71.4232 66.3344 76.9078 65.8033C86.3867 64.8853 97.9667 76.0666 108.747 62.0516C108.163 68.8562 101.407 75.8767 89.7844 72.6326C83.5495 70.8916 81.0417 68.1282 76.1996 68.1C71.6249 68.0766 68.6763 69.9196 68.6763 69.9196Z" fill="white"/>
<path d="M103.831 47.1936C102.793 47.4527 100.401 49.284 100.401 49.284C100.401 49.284 99.5154 51.3849 98.2984 56.254C97.2292 60.5309 96.4871 64.4585 96.4871 64.4585C96.4871 64.4585 104.163 64.1115 107.593 60.681C106.045 58.1357 107.704 52.7145 109.364 50.6111C106.045 51.8293 103.279 56.4767 103.279 56.4767C103.279 56.4767 102.061 50.9558 103.831 47.1936Z" fill="white"/>
<path d="M84.4196 42.4934C84.4196 42.4934 86.8828 39.771 91.6158 39.5764C96.6748 39.3677 97.8378 40.5495 97.8378 40.5495C97.8378 40.5495 95.9573 36.7239 94.0767 36.4648C91.95 36.1717 90.0026 36.9244 88.5676 37.7615C87.0129 38.6689 85.5861 39.642 84.4196 42.4934Z" fill="white"/>
<path d="M84.4359 32.5114C84.4359 32.5114 87.5943 32.318 90.577 33.2899C85.9752 34.1974 82.2974 38.1683 80.935 41.9751C80.8717 38.8811 80.2222 35.1036 84.4359 32.5114Z" fill="white"/>
<path d="M65.3196 76.3339H62.3487V83.6685H61.242V76.3339H58.2699V75.3514H65.3196V76.3339Z" fill="white"/>
<path d="M69.8874 83.6685H68.8428V83.0037C68.749 83.0682 68.6247 83.1562 68.4653 83.2699C68.307 83.3836 68.1534 83.4739 68.0034 83.5407C67.8287 83.6251 67.6282 83.6966 67.3996 83.7553C67.1733 83.8139 66.9071 83.842 66.6011 83.842C66.0384 83.842 65.5624 83.6556 65.1708 83.2816C64.7804 82.91 64.5846 82.434 64.5846 81.8571C64.5846 81.3846 64.6854 81.0024 64.8894 80.7093C65.0934 80.4186 65.3818 80.1876 65.7582 80.0211C66.1392 79.85 66.5941 79.7386 67.1276 79.68C67.661 79.6202 68.2308 79.5733 68.8416 79.5451V79.381C68.8416 79.1453 68.7994 78.9484 68.7162 78.7901C68.6329 78.6342 68.5134 78.5099 68.3562 78.4231C68.2062 78.3352 68.028 78.2789 67.8193 78.2484C67.6106 78.2203 67.3925 78.2039 67.1662 78.2039C66.8907 78.2039 66.5824 78.2402 66.2436 78.3141C65.9036 78.3868 65.5554 78.4923 65.1931 78.6318H65.138V77.5649C65.3431 77.5086 65.6386 77.4453 66.0267 77.3785C66.4136 77.3117 66.7946 77.2789 67.1709 77.2789C67.6106 77.2789 67.9928 77.3152 68.3187 77.3867C68.6435 77.4594 68.926 77.5837 69.164 77.7595C69.3997 77.9295 69.5791 78.1523 69.701 78.4243C69.8241 78.694 69.8851 79.0328 69.8851 79.4338V83.6685H69.8874ZM68.844 82.1326V80.3963C68.5239 80.4151 68.1464 80.4397 67.7126 80.4795C67.2776 80.5147 66.9353 80.5698 66.682 80.6402C66.3807 80.7257 66.1357 80.8606 65.9505 81.04C65.764 81.2217 65.6714 81.4702 65.6714 81.788C65.6714 82.1455 65.7793 82.414 65.995 82.5946C66.2107 82.774 66.5402 82.8654 66.9834 82.8654C67.3515 82.8654 67.6891 82.7927 67.9951 82.6485C68.3 82.5055 68.5825 82.3343 68.844 82.1326Z" fill="white"/>
<path d="M76.1657 81.87C76.1657 82.4375 75.93 82.9064 75.4587 83.2722C74.9874 83.6357 74.3438 83.8186 73.5289 83.8186C73.067 83.8186 72.6438 83.7635 72.2569 83.6521C71.8723 83.5442 71.5487 83.4235 71.2885 83.2922V82.1139H71.3436C71.6753 82.3624 72.0447 82.5629 72.4491 82.7083C72.856 82.8572 73.2452 82.9299 73.6169 82.9299C74.0788 82.9299 74.4399 82.856 74.7002 82.706C74.9616 82.5582 75.0918 82.3226 75.0918 82.0025C75.0918 81.7563 75.0202 81.5699 74.8784 81.4409C74.7365 81.3167 74.4657 81.2088 74.0636 81.1197C73.9147 81.0857 73.72 81.047 73.4785 81.0013C73.2393 80.9579 73.0189 80.9087 72.822 80.8559C72.2756 80.7117 71.8864 80.4983 71.6578 80.2181C71.428 79.9356 71.3142 79.5897 71.3142 79.1793C71.3142 78.9226 71.367 78.6811 71.4737 78.4536C71.5792 78.2285 71.741 78.0257 71.9567 77.8428C72.1642 77.6704 72.4304 77.5298 72.7528 77.4289C73.0752 77.3258 73.4351 77.2742 73.8338 77.2742C74.2066 77.2742 74.5829 77.3199 74.9651 77.4113C75.3462 77.504 75.6639 77.613 75.9171 77.7443V78.8663H75.8609C75.5924 78.6682 75.2653 78.5017 74.8831 78.3657C74.4997 78.2297 74.1233 78.1629 73.7552 78.1629C73.3707 78.1629 73.0471 78.2355 72.7821 78.3821C72.5171 78.5287 72.3858 78.7479 72.3858 79.0387C72.3858 79.2966 72.4667 79.4912 72.6262 79.6213C72.7821 79.7503 73.0365 79.857 73.3859 79.9391C73.5793 79.9836 73.7962 80.027 74.0366 80.0727C74.2769 80.1161 74.4762 80.1571 74.6369 80.1947C75.1258 80.3072 75.5009 80.4995 75.7647 80.7691C76.0332 81.0493 76.1657 81.4163 76.1657 81.87Z" fill="white"/>
<path d="M86.5801 83.6685H85.5297V80.1161C85.5297 79.8476 85.5191 79.5885 85.4933 79.3388C85.4687 79.0902 85.4183 78.8909 85.3397 78.742C85.2541 78.5802 85.131 78.4595 84.9716 78.3762C84.811 78.2965 84.58 78.2531 84.2787 78.2531C83.9856 78.2531 83.6913 78.3282 83.397 78.4759C83.1028 78.6236 82.8085 78.81 82.5142 79.0375C82.5259 79.1219 82.5353 79.2239 82.5412 79.3353C82.5482 79.4502 82.5517 79.5627 82.5517 79.6741V83.6685H81.5024V80.1161C81.5024 79.8406 81.4907 79.578 81.4661 79.3294C81.4414 79.0832 81.3899 78.8862 81.3113 78.735C81.2257 78.5744 81.1038 78.456 80.9432 78.3739C80.7826 78.2953 80.5516 78.252 80.2491 78.252C79.963 78.252 79.6758 78.3246 79.3874 78.4677C79.0978 78.6072 78.8106 78.7889 78.5233 79.0082V83.6685H77.474V77.4289H78.5233V78.1206C78.8516 77.8498 79.1799 77.6376 79.5046 77.4852C79.8294 77.3304 80.1776 77.2554 80.5469 77.2554C80.9713 77.2554 81.3312 77.3445 81.6267 77.5239C81.9233 77.7056 82.1426 77.9495 82.2879 78.2672C82.7123 77.9096 83.1004 77.6529 83.451 77.4957C83.8003 77.3351 84.1755 77.2566 84.5741 77.2566C85.2588 77.2566 85.7641 77.4641 86.0901 77.8791C86.4172 78.2942 86.579 78.8745 86.579 79.6202V83.6685H86.5801Z" fill="white"/>
<path d="M93.1446 83.6685H92.0964V83.0037C92.0062 83.0682 91.8795 83.1562 91.7213 83.2699C91.563 83.3836 91.4094 83.4739 91.2605 83.5407C91.0858 83.6251 90.8842 83.6966 90.6555 83.7553C90.4269 83.8139 90.1608 83.842 89.856 83.842C89.2944 83.842 88.8172 83.6556 88.428 83.2816C88.0364 82.91 87.8406 82.434 87.8406 81.8571C87.8406 81.3846 87.9426 81.0024 88.1442 80.7093C88.3471 80.4186 88.6355 80.1876 89.013 80.0211C89.3929 79.85 89.8489 79.7386 90.3812 79.68C90.9135 79.6202 91.4844 79.5733 92.0953 79.5451V79.381C92.0953 79.1453 92.0554 78.9484 91.971 78.7901C91.8866 78.6342 91.7658 78.5099 91.6111 78.4231C91.4622 78.3352 91.284 78.2789 91.0753 78.2484C90.8654 78.2203 90.6485 78.2039 90.4211 78.2039C90.1467 78.2039 89.8372 78.2402 89.4972 78.3141C89.1595 78.3868 88.8102 78.4923 88.4467 78.6318H88.3916V77.5649C88.5968 77.5086 88.8922 77.4453 89.2815 77.3785C89.6684 77.3117 90.0482 77.2789 90.4246 77.2789C90.8654 77.2789 91.2488 77.3152 91.5735 77.3867C91.8983 77.4594 92.182 77.5837 92.4189 77.7595C92.6545 77.9295 92.8339 78.1523 92.9546 78.4243C93.0778 78.694 93.1422 79.0328 93.1422 79.4338V83.6685H93.1446ZM92.0964 82.1326V80.3963C91.7775 80.4139 91.4 80.4385 90.9651 80.4795C90.5324 80.5147 90.1889 80.5698 89.9357 80.6402C89.6332 80.7257 89.3893 80.8606 89.2041 81.04C89.0177 81.2217 88.9251 81.4702 88.9251 81.788C88.9251 82.1455 89.0317 82.414 89.2475 82.5946C89.4644 82.774 89.7938 82.8654 90.237 82.8654C90.6051 82.8654 90.9451 82.7927 91.2488 82.6485C91.5524 82.5055 91.8362 82.3343 92.0964 82.1326Z" fill="white"/>
<path d="M100.068 83.6685H99.0171V80.1161C99.0171 79.83 98.9995 79.5604 98.9679 79.3083C98.9339 79.0574 98.8729 78.8605 98.7838 78.7186C98.6912 78.565 98.5563 78.4466 98.3828 78.3704C98.2058 78.2942 97.9795 78.2531 97.7005 78.2531C97.4121 78.2531 97.1143 78.3258 96.7977 78.4689C96.487 78.6084 96.1869 78.7901 95.8997 79.0093V83.6697H94.8503V77.4301H95.8997V78.1218C96.2268 77.851 96.5656 77.6388 96.9173 77.4864C97.2655 77.3316 97.6254 77.2566 97.9936 77.2566C98.6689 77.2566 99.1824 77.4594 99.5353 77.8651C99.8894 78.2719 100.065 78.8581 100.065 79.6214V83.6685H100.068Z" fill="white"/>
<path d="M102.878 76.3843H101.694V75.2928H102.878V76.3843ZM102.811 83.6685H101.761V77.4289H102.811V83.6685Z" fill="white"/>
<path d="M109.406 83.6685H108.36V83.0037C108.268 83.0682 108.142 83.1562 107.984 83.2699C107.823 83.3836 107.672 83.4739 107.522 83.5407C107.348 83.6251 107.148 83.6966 106.918 83.7553C106.692 83.8139 106.426 83.842 106.12 83.842C105.557 83.842 105.081 83.6556 104.691 83.2816C104.298 82.91 104.102 82.434 104.102 81.8571C104.102 81.3846 104.204 81.0024 104.408 80.7093C104.612 80.4186 104.899 80.1876 105.276 80.0211C105.654 79.85 106.112 79.7386 106.644 79.68C107.177 79.6202 107.748 79.5733 108.359 79.5451V79.381C108.359 79.1453 108.318 78.9484 108.234 78.7901C108.15 78.6342 108.03 78.5099 107.874 78.4231C107.725 78.3352 107.545 78.2789 107.338 78.2484C107.128 78.2203 106.91 78.2039 106.684 78.2039C106.408 78.2039 106.1 78.2402 105.762 78.3141C105.423 78.3868 105.074 78.4923 104.712 78.6318H104.655V77.5649C104.861 77.5086 105.157 77.4453 105.545 77.3785C105.932 77.3117 106.313 77.2789 106.69 77.2789C107.129 77.2789 107.511 77.3152 107.837 77.3867C108.162 77.4594 108.446 77.5837 108.684 77.7595C108.918 77.9295 109.098 78.1523 109.22 78.4243C109.343 78.694 109.405 79.0328 109.405 79.4338V83.6685H109.406ZM108.36 82.1326V80.3963C108.04 80.4151 107.663 80.4397 107.229 80.4795C106.795 80.5147 106.452 80.5698 106.198 80.6402C105.896 80.7257 105.652 80.8606 105.467 81.04C105.281 81.2217 105.188 81.4702 105.188 81.788C105.188 82.1455 105.296 82.414 105.511 82.5946C105.727 82.7751 106.056 82.8654 106.5 82.8654C106.869 82.8654 107.208 82.7927 107.511 82.6485C107.817 82.5055 108.1 82.3343 108.36 82.1326Z" fill="white"/>
<path d="M116.332 83.6685H115.281V80.1161C115.281 79.83 115.265 79.5604 115.233 79.3083C115.198 79.0574 115.137 78.8605 115.048 78.7186C114.954 78.565 114.82 78.4466 114.646 78.3704C114.47 78.2942 114.243 78.2531 113.964 78.2531C113.676 78.2531 113.378 78.3258 113.063 78.4689C112.75 78.6084 112.452 78.7901 112.165 79.0093V83.6697H111.114V77.4301H112.165V78.1218C112.491 77.851 112.829 77.6388 113.181 77.4864C113.531 77.3316 113.889 77.2566 114.259 77.2566C114.932 77.2566 115.447 77.4594 115.799 77.8651C116.154 78.2719 116.33 78.8581 116.33 79.6214V83.6685H116.332Z" fill="white"/>
<path d="M61.412 94.7185C60.9559 94.9272 60.46 95.1078 59.923 95.2637C59.3837 95.4173 58.8632 95.4947 58.3602 95.4947C57.713 95.4947 57.1174 95.4056 56.5781 95.2262C56.0388 95.0468 55.5781 94.7795 55.1994 94.4231C54.816 94.0585 54.5182 93.6094 54.3119 93.0678C54.1032 92.5238 54 91.8918 54 91.1661C54 89.8366 54.3881 88.7873 55.1642 88.017C55.9403 87.2491 57.0061 86.8657 58.3614 86.8657C58.835 86.8657 59.3181 86.922 59.8105 87.0345C60.3041 87.1482 60.8363 87.3429 61.4061 87.6125V88.9268H61.3053C61.1904 88.8365 61.0228 88.7205 60.8023 88.5751C60.5831 88.4285 60.3662 88.3089 60.1552 88.2093C59.8972 88.0944 59.6065 87.9994 59.2794 87.9232C58.9534 87.847 58.5853 87.8083 58.1703 87.8083C57.2406 87.8083 56.5031 88.1061 55.9614 88.704C55.4198 89.302 55.149 90.1121 55.149 91.1309C55.149 92.2072 55.4315 93.0455 55.9978 93.6434C56.5641 94.2402 57.3343 94.5403 58.311 94.5403C58.6674 94.5403 59.025 94.5063 59.3802 94.4336C59.7366 94.3633 60.0485 94.2707 60.3158 94.1604V92.1216H58.0882V91.1497H61.412V94.7185Z" fill="white"/>
<path d="M68.4476 92.2154C68.4476 93.2331 68.1885 94.035 67.6656 94.6247C67.1439 95.2121 66.4451 95.5052 65.5717 95.5052C64.6889 95.5052 63.9866 95.2121 63.4684 94.6247C62.9478 94.035 62.6887 93.2331 62.6887 92.2154C62.6887 91.1978 62.9478 90.3958 63.4684 89.8049C63.9866 89.214 64.6889 88.9198 65.5717 88.9198C66.4451 88.9198 67.1439 89.214 67.6656 89.8049C68.1885 90.397 68.4476 91.1978 68.4476 92.2154ZM67.3643 92.2154C67.3643 91.4076 67.206 90.8062 66.8895 90.4134C66.5729 90.0218 66.1333 89.8249 65.5717 89.8249C65.0019 89.8249 64.5587 90.0218 64.2445 90.4134C63.9303 90.8062 63.7732 91.4076 63.7732 92.2154C63.7732 92.9962 63.9315 93.5895 64.2469 93.994C64.5634 94.4008 65.0054 94.6013 65.5717 94.6013C66.1298 94.6013 66.5682 94.402 66.886 94.001C67.206 93.6 67.3643 93.0056 67.3643 92.2154Z" fill="white"/>
<path d="M75.0179 89.0933L72.4925 95.334H71.4373L68.9283 89.0933H70.0679L72.0012 94.0596L73.917 89.0933H75.0179Z" fill="white"/>
<path d="M81.1483 92.3221H76.5524C76.5524 92.7055 76.6111 93.0384 76.726 93.3233C76.8409 93.6071 76.9991 93.8427 77.1996 94.0268C77.3942 94.2038 77.624 94.3386 77.8902 94.4289C78.1563 94.5157 78.4506 94.5626 78.7695 94.5626C79.1927 94.5626 79.6207 94.4782 80.0498 94.3082C80.4812 94.137 80.7872 93.9717 80.9701 93.8075H81.0264V94.953C80.6723 95.1007 80.3112 95.2262 79.9419 95.3258C79.5738 95.4267 79.1857 95.4782 78.7812 95.4782C77.746 95.4782 76.937 95.198 76.3578 94.6364C75.7751 94.0749 75.4844 93.2811 75.4844 92.2482C75.4844 91.2282 75.7634 90.4181 76.3203 89.819C76.876 89.2187 77.61 88.9198 78.5186 88.9198C79.3604 88.9198 80.0099 89.1648 80.466 89.6572C80.922 90.1473 81.1495 90.8484 81.1495 91.7511V92.3221H81.1483ZM80.1283 91.5178C80.1248 90.968 79.9853 90.5389 79.7121 90.2399C79.4389 89.9362 79.0227 89.7873 78.4635 89.7873C77.9007 89.7873 77.454 89.9515 77.1199 90.2844C76.7869 90.6139 76.5958 91.0278 76.5524 91.5178H80.1283V91.5178Z" fill="white"/>
<path d="M86.4641 90.2399H86.409C86.2531 90.2 86.0995 90.1742 85.953 90.1578C85.8064 90.1402 85.6306 90.132 85.4301 90.132C85.1053 90.132 84.7946 90.2047 84.4921 90.3489C84.192 90.4931 83.9012 90.6772 83.621 90.9058V95.3352H82.5706V89.0956H83.621V90.0171C84.0372 89.6806 84.4054 89.445 84.7255 89.3066C85.0432 89.166 85.3679 89.0956 85.6997 89.0956C85.8826 89.0956 86.0151 89.1003 86.096 89.1097C86.1792 89.1202 86.3012 89.1366 86.4653 89.1624V90.2399H86.4641Z" fill="white"/>
<path d="M92.6147 95.334H91.5642V91.7804C91.5642 91.4944 91.549 91.2247 91.515 90.975C91.4833 90.7217 91.42 90.5248 91.3309 90.3841C91.2371 90.227 91.1023 90.1121 90.9288 90.0359C90.7553 89.9585 90.5266 89.9198 90.2464 89.9198C89.9604 89.9198 89.6602 89.9913 89.3484 90.1308C89.0342 90.2727 88.7352 90.4533 88.4479 90.6748V95.334H87.3975V89.0944H88.4479V89.7885C88.775 89.5165 89.1139 89.3031 89.4644 89.1495C89.815 88.9971 90.1737 88.9221 90.5442 88.9221C91.2184 88.9221 91.7319 89.1249 92.0848 89.5317C92.4377 89.9362 92.6147 90.5213 92.6147 91.2845V95.334Z" fill="white"/>
<path d="M103.427 95.334H102.376V91.7804C102.376 91.5131 102.364 91.254 102.341 91.0043C102.315 90.7534 102.265 90.5553 102.186 90.4064C102.102 90.2469 101.977 90.1262 101.818 90.0441C101.657 89.962 101.428 89.921 101.125 89.921C100.832 89.921 100.537 89.9937 100.243 90.1414C99.9491 90.2891 99.6537 90.4755 99.3594 90.703C99.3723 90.7886 99.3817 90.8871 99.3875 91.0008C99.3946 91.1168 99.3981 91.2282 99.3981 91.3396V95.334H98.3476V91.7804C98.3476 91.5061 98.3359 91.2446 98.3124 90.9949C98.2878 90.7487 98.2374 90.5494 98.1577 90.4005C98.0721 90.2411 97.9502 90.1215 97.7907 90.0406C97.6313 89.9597 97.3979 89.9198 97.0978 89.9198C96.8106 89.9198 96.5245 89.9913 96.2349 90.1308C95.9453 90.2727 95.6581 90.4533 95.372 90.6748V95.334H94.3215V89.0944H95.372V89.7885C95.6979 89.5165 96.0274 89.3031 96.3522 89.1495C96.6769 88.9971 97.0251 88.9221 97.3944 88.9221C97.8188 88.9221 98.18 89.01 98.4754 89.1906C98.772 89.3688 98.9913 89.6162 99.1366 89.9339C99.5611 89.5763 99.9491 89.3184 100.3 89.1613C100.648 89.0018 101.024 88.9233 101.422 88.9233C102.106 88.9233 102.613 89.1308 102.938 89.5446C103.264 89.9597 103.428 90.54 103.428 91.2845V95.334H103.427Z" fill="white"/>
<path d="M110.425 92.3221H105.827C105.827 92.7055 105.885 93.0384 106 93.3233C106.115 93.6071 106.273 93.8427 106.475 94.0268C106.668 94.2038 106.897 94.3386 107.163 94.4289C107.431 94.5157 107.724 94.5626 108.044 94.5626C108.469 94.5626 108.896 94.4782 109.327 94.3082C109.755 94.137 110.064 93.9717 110.245 93.8075H110.301V94.953C109.947 95.1007 109.585 95.2262 109.216 95.3258C108.849 95.4267 108.461 95.4782 108.055 95.4782C107.019 95.4782 106.214 95.198 105.631 94.6364C105.051 94.0749 104.76 93.2811 104.76 92.2482C104.76 91.2282 105.038 90.4181 105.596 89.819C106.154 89.2199 106.884 88.9198 107.794 88.9198C108.635 88.9198 109.284 89.1648 109.74 89.6572C110.197 90.1473 110.425 90.8484 110.425 91.7511V92.3221V92.3221ZM109.404 91.5178C109.399 90.968 109.261 90.5389 108.986 90.2399C108.713 89.9362 108.296 89.7873 107.739 89.7873C107.177 89.7873 106.729 89.9515 106.395 90.2844C106.062 90.6139 105.875 91.0278 105.829 91.5178H109.404V91.5178Z" fill="white"/>
<path d="M117.062 95.334H116.011V91.7804C116.011 91.4944 115.995 91.2247 115.963 90.975C115.928 90.7217 115.867 90.5248 115.778 90.3841C115.684 90.227 115.552 90.1121 115.376 90.0359C115.2 89.9585 114.974 89.9198 114.694 89.9198C114.406 89.9198 114.109 89.9913 113.794 90.1308C113.48 90.2727 113.184 90.4533 112.895 90.6748V95.334H111.845V89.0944H112.895V89.7885C113.222 89.5165 113.561 89.3031 113.912 89.1495C114.261 88.9971 114.62 88.9221 114.989 88.9221C115.662 88.9221 116.178 89.1249 116.53 89.5317C116.885 89.9362 117.061 90.5213 117.061 91.2845V95.334H117.062Z" fill="white"/>
<path d="M122 95.2778C121.802 95.3305 121.586 95.3727 121.354 95.4055C121.122 95.4384 120.913 95.4548 120.732 95.4548C120.095 95.4548 119.61 95.2836 119.28 94.9424C118.948 94.5978 118.782 94.0491 118.782 93.2929V89.9749H118.073V89.0933H118.781V87.2995H119.831V89.0933H122V89.9749H119.831V92.8192C119.831 93.1463 119.839 93.4031 119.855 93.586C119.869 93.7712 119.923 93.9447 120.012 94.1042C120.093 94.2519 120.206 94.3621 120.349 94.4301C120.492 94.4981 120.712 94.5321 121.006 94.5321C121.177 94.5321 121.355 94.5075 121.542 94.4571C121.728 94.4078 121.862 94.3656 121.946 94.3328H122V95.2778Z" fill="white"/>
</svg>
