<svg width="319" height="120" viewBox="0 0 319 120" fill="none" xmlns="http://www.w3.org/2000/svg">
<path fill-rule="evenodd" clip-rule="evenodd" d="M147.672 112.076H143.58L143.325 112.331V116.422L143.58 116.678H147.672C149.462 116.678 150.228 115.909 150.228 114.377C150.228 112.842 149.462 112.076 147.672 112.076ZM147.672 104.918H143.58L143.325 105.173V108.754L143.58 109.009H147.672C149.207 109.009 149.717 107.985 149.717 106.964C149.717 105.684 149.207 104.918 147.672 104.918ZM148.693 119.744H140.003L139.748 119.489V102.107L140.003 101.851H148.182C150.738 101.851 153.295 103.131 153.295 106.453C153.295 108.243 152.529 109.775 150.738 110.286V110.541C152.784 111.055 153.805 112.587 153.805 114.887C153.805 118.468 151.249 119.744 148.693 119.744Z" fill="white"/>
<path fill-rule="evenodd" clip-rule="evenodd" d="M168.58 119.744H156.568L156.31 119.489V102.107L156.568 101.851H168.58L168.836 102.107V104.663L168.58 104.918H160.146L159.89 105.173V108.754L160.146 109.009H168.07L168.325 109.264V111.821L168.07 112.076H160.146L159.89 112.331V116.422L160.146 116.678H168.58L168.836 116.933V119.489L168.58 119.744Z" fill="white"/>
<path fill-rule="evenodd" clip-rule="evenodd" d="M178.472 120C173.36 120 171.059 117.444 171.059 114.122L171.314 113.866H174.381L174.639 114.122C174.639 115.909 175.661 116.933 178.727 116.933C181.028 116.933 182.305 116.167 182.305 114.632C182.305 112.842 181.284 112.331 177.706 111.821C174.126 111.31 171.314 110.031 171.314 106.453C171.314 103.897 173.36 101.596 178.217 101.596C183.074 101.596 185.12 103.897 185.12 106.964L184.861 107.219H181.794L181.539 106.964C181.539 105.429 180.773 104.663 177.962 104.663C175.661 104.663 174.895 105.429 174.895 106.453C174.895 107.988 175.916 108.499 179.493 109.009C183.074 109.52 185.885 111.055 185.885 114.632C185.885 117.444 183.84 120 178.472 120Z" fill="white"/>
<path fill-rule="evenodd" clip-rule="evenodd" d="M201.503 104.923H196.39L196.135 105.178V119.494L195.88 119.749H192.813L192.554 119.494V105.178L192.302 104.923H187.19L186.931 104.668V102.112L187.19 101.856H201.503L201.758 102.112V104.668L201.503 104.923Z" fill="white"/>
<path fill-rule="evenodd" clip-rule="evenodd" d="M211.292 119.744H208.226L207.97 119.489V102.107L208.226 101.851H211.292L211.548 102.107V119.489L211.292 119.744Z" fill="white"/>
<path fill-rule="evenodd" clip-rule="evenodd" d="M215.459 101.856H219.036L219.55 102.112L226.449 113.868H226.705V102.112L226.96 101.856H230.027L230.285 102.112V119.494L230.027 119.749H226.449L225.939 119.494L219.036 107.734H218.781V119.494L218.525 119.749H215.459L215.203 119.494V102.112L215.459 101.856Z" fill="white"/>
<path fill-rule="evenodd" clip-rule="evenodd" d="M249.224 114.377L249.479 114.122H252.546L252.802 114.377C252.291 117.954 249.479 120 245.391 120C239.768 120 236.698 116.167 236.698 110.796C236.698 105.429 239.768 101.596 245.391 101.596C249.479 101.596 252.291 103.642 252.802 106.964L252.546 107.219H249.479L249.224 106.964C248.714 105.429 247.434 104.663 245.391 104.663C241.811 104.663 240.279 107.219 240.279 110.796C240.279 114.377 241.811 116.933 245.391 116.933C247.434 116.933 248.714 116.167 249.224 114.377Z" fill="white"/>
<path fill-rule="evenodd" clip-rule="evenodd" d="M267.092 119.744H255.591L255.335 119.489V102.107L255.591 101.851H258.657L258.913 102.107V116.422L259.168 116.678H267.092L267.347 116.933V119.489L267.092 119.744Z" fill="white"/>
<path fill-rule="evenodd" clip-rule="evenodd" d="M276.371 106.453H276.115L273.814 112.587L274.07 112.842H278.416L278.671 112.587L276.371 106.453ZM283.784 119.744H281.483L281.228 119.489L279.948 116.167L279.437 115.909H273.048L272.538 116.167L271.258 119.489L271.003 119.744H268.702L268.447 119.489V116.933L274.325 102.107L274.58 101.851H277.905L278.161 102.107L284.039 116.933V119.489L283.784 119.744Z" fill="white"/>
<path fill-rule="evenodd" clip-rule="evenodd" d="M292.474 120C287.362 120 285.061 117.444 285.061 114.122L285.316 113.866H288.383L288.641 114.122C288.641 115.909 289.663 116.933 292.729 116.933C295.03 116.933 296.307 116.167 296.307 114.632C296.307 112.842 295.286 112.331 291.708 111.821C288.128 111.31 285.316 110.031 285.316 106.453C285.316 103.897 287.362 101.596 292.219 101.596C297.076 101.596 299.121 103.897 299.121 106.964L298.866 107.219H295.796L295.541 106.964C295.541 105.429 294.775 104.663 291.963 104.663C289.663 104.663 288.897 105.429 288.897 106.453C288.897 107.988 289.918 108.499 293.495 109.009C297.076 109.52 299.887 111.055 299.887 114.632C299.887 117.444 297.842 120 292.474 120Z" fill="white"/>
<path fill-rule="evenodd" clip-rule="evenodd" d="M309.114 120C304.001 120 301.7 117.444 301.7 114.122L301.956 113.866H305.023L305.281 114.122C305.281 115.909 306.302 116.933 309.369 116.933C311.67 116.933 312.946 116.167 312.946 114.632C312.946 112.842 311.925 112.331 308.348 111.821C304.767 111.31 301.956 110.031 301.956 106.453C301.956 103.897 304.001 101.596 308.858 101.596C313.715 101.596 315.761 103.897 315.761 106.964L315.506 107.219H312.436L312.18 106.964C312.18 105.429 311.415 104.663 308.603 104.663C306.302 104.663 305.536 105.429 305.536 106.453C305.536 107.988 306.558 108.499 310.135 109.009C313.715 109.52 316.527 111.055 316.527 114.632C316.527 117.444 314.481 120 309.114 120Z" fill="white"/>
<path fill-rule="evenodd" clip-rule="evenodd" d="M114.858 36.473L46.6133 104.718H44.7789L0 59.9419V119.759H59.8197C92.8578 119.759 119.639 92.9769 119.639 59.9419C119.639 51.6083 117.934 43.6782 114.858 36.473Z" fill="white"/>
<path fill-rule="evenodd" clip-rule="evenodd" d="M46.6101 76.4714L103.744 19.3371C92.8169 7.52069 77.1835 0.120056 59.8197 0.120056H0.201721H0V59.9398H28.2472L44.7789 76.4714H46.6101Z" fill="white"/>
<path fill-rule="evenodd" clip-rule="evenodd" d="M163.548 48.7988C163.548 40.005 159.952 34.8075 149.957 34.8075H141.163L140.763 35.2078V62.3897L141.163 62.79H149.957C159.952 62.79 163.548 57.5925 163.548 48.7988ZM157.954 48.7988C157.954 55.1939 155.952 57.9928 150.358 57.9928H146.758L146.358 57.5925V40.005L146.758 39.6047H150.358C155.952 39.6047 157.954 42.4036 157.954 48.7988ZM185.933 62.3897V58.3931L185.536 57.9928H172.342L171.942 57.5925V51.1973L172.342 50.7971H184.735L185.135 50.3968V46.4002L184.735 45.9999H172.342L171.942 45.5996V40.005L172.342 39.6047H185.536L185.933 39.2044V35.2078L185.536 34.8075H166.747L166.347 35.2078V62.3897L166.747 62.79H185.536L185.933 62.3897ZM211.756 54.7936C211.756 49.199 207.359 46.8005 201.765 45.9999C196.167 45.2024 194.569 44.4019 194.569 42.0033C194.569 40.4053 195.767 39.2044 199.366 39.2044C203.763 39.2044 204.961 40.4053 204.961 42.8039L205.361 43.201H210.158L210.559 42.8039C210.559 38.0067 207.359 34.4072 199.763 34.4072C192.171 34.4072 188.971 38.0067 188.971 42.0033C188.971 47.601 193.368 49.5993 198.966 50.3968C204.561 51.1973 206.162 51.9979 206.162 54.7936C206.162 57.1922 204.163 58.3931 200.564 58.3931C195.767 58.3931 194.169 56.7951 194.169 53.9962L193.769 53.5959H188.971L188.571 53.9962C188.571 59.1937 192.171 63.1903 200.164 63.1903C208.56 63.1903 211.756 59.1937 211.756 54.7936ZM220.95 62.3897V35.2078L220.55 34.8075H215.756L215.356 35.2078V62.3897L215.756 62.79H220.55L220.95 62.3897ZM249.973 62.3897V47.9982L249.573 47.601H237.18L236.782 47.9982V51.9979L237.18 52.3951H243.975L244.375 52.7953C244.375 55.9945 242.377 58.3931 237.98 58.3931C232.783 58.3931 229.984 54.3965 229.984 48.7988C229.984 43.201 232.783 39.2044 237.98 39.2044C242.377 39.2044 243.578 41.2027 244.375 42.8039L244.776 43.201H249.573L249.973 42.8039C249.172 38.8041 245.973 34.4072 237.98 34.4072C229.583 34.4072 224.389 40.4053 224.389 48.7988C224.389 57.1922 229.583 63.1903 237.58 63.1903C241.977 63.1903 243.975 61.192 244.776 60.3914H245.176L245.576 62.3897L245.973 62.79H249.573L249.973 62.3897ZM253.73 35.2078V62.3897L254.13 62.79H258.928L259.328 62.3897V44.0016H259.725L270.52 62.3897L271.318 62.79H276.915L277.316 62.3897V35.2078L276.915 34.8075H272.118L271.718 35.2078V53.5959H271.318L260.526 35.2078L259.725 34.8075H254.13L253.73 35.2078Z" fill="white"/>
<path fill-rule="evenodd" clip-rule="evenodd" d="M164.35 27.9825V13.5909L163.95 13.1907H151.557L151.159 13.5909V17.5875L151.557 17.9878H158.355L158.752 18.3881C158.752 21.5873 156.754 23.9859 152.357 23.9859C147.16 23.9859 144.364 19.9861 144.364 14.3915C144.364 8.79377 147.16 4.79718 152.357 4.79718C156.754 4.79718 157.955 6.79547 158.752 8.39663L159.153 8.79377H163.95L164.35 8.39663C163.55 4.39689 160.354 0 152.357 0C143.964 0 138.766 5.99489 138.766 14.3915C138.766 22.785 143.964 28.7831 151.957 28.7831C156.354 28.7831 158.355 26.7816 159.153 25.9842H159.553L159.953 27.9825L160.354 28.3828H163.95L164.35 27.9825ZM189.055 14.3915C189.055 19.9861 186.256 23.9859 181.058 23.9859C175.864 23.9859 173.065 19.9861 173.065 14.3915C173.065 8.79377 175.864 4.79718 181.058 4.79718C186.256 4.79718 189.055 8.79377 189.055 14.3915ZM194.652 14.3915C194.652 5.99489 189.455 0 181.058 0C172.665 0 167.467 5.99489 167.467 14.3915C167.467 22.785 172.665 28.7831 181.058 28.7831C189.455 28.7831 194.652 22.785 194.652 14.3915ZM219.035 14.3915C219.035 19.9861 216.237 23.9859 211.042 23.9859C205.845 23.9859 203.046 19.9861 203.046 14.3915C203.046 8.79377 205.845 4.79718 211.042 4.79718C216.237 4.79718 219.035 8.79377 219.035 14.3915ZM224.63 14.3915C224.63 5.99489 219.436 0 211.042 0C202.646 0 197.448 5.99489 197.448 14.3915C197.448 22.785 202.646 28.7831 211.042 28.7831C219.436 28.7831 224.63 22.785 224.63 14.3915ZM250.857 14.3915C250.857 5.5946 247.257 0.40029 237.263 0.40029H228.469L228.069 0.80058V27.9825L228.469 28.3828H237.263C247.257 28.3828 250.857 23.1853 250.857 14.3915ZM245.259 14.3915C245.259 20.7867 243.261 23.5856 237.663 23.5856H234.067L233.666 23.1853V5.5946L234.067 5.19747H237.663C243.261 5.19747 245.259 7.99634 245.259 14.3915Z" fill="white"/>
<path fill-rule="evenodd" clip-rule="evenodd" d="M164.106 95.9455V91.9553L154.925 68.8046L154.528 68.4043H149.336L148.939 68.8046L139.758 91.9553V95.9455L140.158 96.3458H143.748L144.148 95.9455L146.144 90.7575L146.944 90.3572H156.923L157.72 90.7575L159.716 95.9455L160.116 96.3458H163.706L164.106 95.9455ZM155.722 85.1692L155.325 85.5664H148.539L148.139 85.1692L151.732 75.5875H152.132L155.722 85.1692ZM178.025 68.4043L177.625 68.8046L172.437 87.1644H172.036L168.046 68.8046L167.646 68.4043H163.655L163.255 68.8046V72.7949L169.244 95.9455L169.641 96.3458H174.832L175.229 95.9455L180.417 76.7852H180.817L186.005 95.9455L186.406 96.3458H191.594L191.994 95.9455L197.983 72.7949V68.8046L197.582 68.4043H193.592L193.192 68.8046L189.202 87.1644H188.801L183.613 68.8046L183.213 68.4043H178.025ZM221.691 95.9455V91.9553L212.51 68.8046L212.113 68.4043H206.921L206.524 68.8046L197.343 91.9553V95.9455L197.743 96.3458H201.333L201.733 95.9455L203.729 90.7575L204.529 90.3572H214.505L215.305 90.7575L217.301 95.9455L217.701 96.3458H221.291L221.691 95.9455ZM213.31 85.1692L212.91 85.5664H206.124L205.724 85.1692L209.317 75.5875H209.717L213.31 85.1692ZM247.634 76.7852C247.634 71.1969 243.644 68.4043 238.056 68.4043H224.884L224.484 68.8046V95.9455L224.884 96.3458H229.675L230.072 95.9455V85.5664L230.472 85.1692H234.463L235.263 85.5664L243.244 95.9455L244.044 96.3458H246.437L246.837 95.9455V91.9553L241.649 85.1692V84.7689C244.842 83.9715 247.634 81.1758 247.634 76.7852ZM242.049 76.7852C242.049 79.5809 240.451 80.3784 238.056 80.3784H230.472L230.072 79.9781V73.5923L230.472 73.192H238.056C240.451 73.192 242.049 73.9926 242.049 76.7852ZM273.502 82.3735C273.502 73.5923 269.909 68.4043 259.93 68.4043H251.149L250.748 68.8046V95.9455L251.149 96.3458H259.93C269.909 96.3458 273.502 91.1547 273.502 82.3735ZM267.914 82.3735C267.914 88.7624 265.915 91.555 260.33 91.555H256.737L256.337 91.1547V73.5923L256.737 73.192H260.33C265.915 73.192 267.914 75.9878 267.914 82.3735Z" fill="white"/>
<path fill-rule="evenodd" clip-rule="evenodd" d="M281.466 65.8684C284.593 65.8684 287.095 68.371 287.095 71.4977C287.095 74.6212 284.593 77.1238 281.466 77.1238C278.339 77.1238 275.84 74.6212 275.84 71.4977C275.84 68.371 278.339 65.8684 281.466 65.8684ZM281.466 76.3421C284.123 76.3421 286.314 74.1547 286.314 71.4977C286.314 68.8375 284.123 66.6501 281.466 66.6501C278.809 66.6501 276.618 68.8375 276.618 71.4977C276.618 74.1547 278.809 76.3421 281.466 76.3421ZM284.281 73.8427V74.4668L284.123 74.6212H283.969L283.657 74.4668L282.093 72.2794L281.778 72.1218H280.215L280.06 72.2794V74.4668L279.903 74.6212H279.279L279.121 74.4668V68.5255L279.279 68.371H282.405C283.499 68.371 284.438 68.9951 284.438 70.2464C284.438 71.1825 283.811 71.8097 283.029 71.9642V72.1218L284.281 73.8427ZM282.405 69.1495H280.215L280.06 69.3071V71.1825L280.215 71.3401H282.405C283.187 71.3401 283.499 70.8705 283.499 70.2464C283.499 69.6192 283.187 69.1495 282.405 69.1495Z" fill="white"/>
</svg>
