<svg width="320" height="120" viewBox="0 0 320 120" fill="none" xmlns="http://www.w3.org/2000/svg">
<path fill-rule="evenodd" clip-rule="evenodd" d="M114.854 36.4697L46.6111 104.713H44.777L0 59.9357V119.754H59.818C92.8541 119.754 119.636 92.9718 119.636 59.9357C119.636 51.6051 117.931 43.674 114.854 36.4697Z" fill="white"/>
<path fill-rule="evenodd" clip-rule="evenodd" d="M46.6086 76.47L103.74 19.3356C92.8138 7.52235 77.1814 0.119818 59.8186 0.119818H0.198808H0.000610352V59.9378H28.2454L44.7776 76.47H46.6086Z" fill="white"/>
<path fill-rule="evenodd" clip-rule="evenodd" d="M163.543 48.7976C163.543 40.0046 159.947 34.8074 149.952 34.8074H141.159L140.76 35.2069V62.3883L141.159 62.7879H149.952C159.947 62.7879 163.543 57.5907 163.543 48.7976ZM157.946 48.7976C157.946 55.1934 155.949 57.9902 150.352 57.9902H146.756L146.353 57.5907V40.0046L146.756 39.605H150.352C155.949 39.605 157.946 42.4018 157.946 48.7976ZM185.93 62.3883V58.3929L185.527 57.9902H172.336L171.936 57.5907V51.1949L172.336 50.7953H184.728L185.128 50.3958V46.4004L184.728 46.0008H172.336L171.936 45.6013V40.0046L172.336 39.605H185.527L185.93 39.2055V35.2069L185.527 34.8074H166.739L166.34 35.2069V62.3883L166.739 62.7879H185.527L185.93 62.3883ZM211.752 54.7939C211.752 49.1972 207.354 46.7999 201.757 46.0008C196.161 45.2017 194.563 44.3995 194.563 42.0023C194.563 40.4041 195.761 39.2055 199.36 39.2055C203.755 39.2055 204.954 40.4041 204.954 42.8013L205.353 43.2009H210.151L210.55 42.8013C210.55 38.0037 207.354 34.4078 199.76 34.4078C192.162 34.4078 188.966 38.0037 188.966 42.0023C188.966 47.599 193.364 49.5967 198.957 50.3958C204.554 51.1949 206.156 51.9971 206.156 54.7939C206.156 57.1911 204.155 58.3929 200.559 58.3929C195.761 58.3929 194.163 56.7916 194.163 53.9948L193.763 53.5953H188.966L188.566 53.9948C188.566 59.192 192.162 63.1874 200.159 63.1874C208.553 63.1874 211.752 59.192 211.752 54.7939ZM220.945 62.3883V35.2069L220.545 34.8074H215.748L215.348 35.2069V62.3883L215.748 62.7879H220.545L220.945 62.3883ZM249.964 62.3883V47.9985L249.564 47.599H237.172L236.772 47.9985V51.9971L237.172 52.3966H243.967L244.367 52.7962C244.367 55.9925 242.369 58.3929 237.971 58.3929C232.777 58.3929 229.977 54.3943 229.977 48.7976C229.977 43.2009 232.777 39.2055 237.971 39.2055C242.369 39.2055 243.568 41.2032 244.367 42.8013L244.766 43.2009H249.564L249.964 42.8013C249.164 38.8028 245.968 34.4078 237.971 34.4078C229.577 34.4078 224.38 40.4041 224.38 48.7976C224.38 57.1911 229.577 63.1874 237.571 63.1874C241.97 63.1874 243.967 61.1897 244.766 60.3906H245.169L245.569 62.3883L245.968 62.7879H249.564L249.964 62.3883ZM253.72 35.2069V62.3883L254.123 62.7879H258.917L259.32 62.3883V44H259.716L270.51 62.3883L271.309 62.7879H276.906L277.305 62.3883V35.2069L276.906 34.8074H272.108L271.709 35.2069V53.5953H271.309L260.518 35.2069L259.716 34.8074H254.123L253.72 35.2069Z" fill="white"/>
<path fill-rule="evenodd" clip-rule="evenodd" d="M164.345 27.9805V13.5907L163.945 13.1912H151.553L151.154 13.5907V17.5861L151.553 17.9857H158.348L158.748 18.3852C158.748 21.5847 156.75 23.9819 152.352 23.9819C147.155 23.9819 144.358 19.9865 144.358 14.3898C144.358 8.79306 147.155 4.7945 152.352 4.7945C156.75 4.7945 157.949 6.79536 158.748 8.39352L159.148 8.79307H163.945L164.345 8.39352C163.546 4.39496 160.346 0 152.352 0C143.959 0 138.761 5.99627 138.761 14.3898C138.761 22.7833 143.959 28.7796 151.953 28.7796C156.351 28.7796 158.348 26.7819 159.148 25.9828H159.547L159.947 27.9805L160.346 28.38H163.945L164.345 27.9805ZM189.047 14.3898C189.047 19.9865 186.25 23.9819 181.053 23.9819C175.856 23.9819 173.059 19.9865 173.059 14.3898C173.059 8.79306 175.856 4.7945 181.053 4.7945C186.25 4.7945 189.047 8.79306 189.047 14.3898ZM194.644 14.3898C194.644 5.99627 189.447 0 181.053 0C172.66 0 167.462 5.99627 167.462 14.3898C167.462 22.7833 172.66 28.7796 181.053 28.7796C189.447 28.7796 194.644 22.7833 194.644 14.3898ZM219.028 14.3898C219.028 19.9865 216.229 23.9819 211.034 23.9819C205.837 23.9819 203.037 19.9865 203.037 14.3898C203.037 8.79306 205.837 4.7945 211.034 4.7945C216.229 4.7945 219.028 8.79306 219.028 14.3898ZM224.625 14.3898C224.625 5.99627 219.428 0 211.034 0C202.638 0 197.444 5.99627 197.444 14.3898C197.444 22.7833 202.638 28.7796 211.034 28.7796C219.428 28.7796 224.625 22.7833 224.625 14.3898ZM250.847 14.3898C250.847 5.59358 247.248 0.399542 237.256 0.399542H228.46L228.061 0.799083V27.9805L228.46 28.38H237.256C247.248 28.38 250.847 23.1829 250.847 14.3898ZM245.25 14.3898C245.25 20.7856 243.253 23.5824 237.656 23.5824H234.057L233.657 23.1829V5.59358L234.057 5.19404H237.656C243.253 5.19404 245.25 7.99398 245.25 14.3898Z" fill="white"/>
<path fill-rule="evenodd" clip-rule="evenodd" d="M164.101 95.9413V91.9491L154.921 68.8008L154.521 68.4013H149.333L148.934 68.8008L139.754 91.9491V95.9413L140.153 96.3409H143.746L144.142 95.9413L146.14 90.7536L146.936 90.354H156.915L157.714 90.7536L159.709 95.9413L160.108 96.3409H163.701L164.101 95.9413ZM155.72 85.1631L155.32 85.5627H148.534L148.135 85.1631L151.727 75.5867H152.127L155.72 85.1631ZM178.018 68.4013L177.619 68.8008L172.431 87.1608H172.032L168.039 68.8008L167.64 68.4013H163.648L163.251 68.8008V72.7899L169.238 95.9413L169.634 96.3409H174.825L175.225 95.9413L180.413 76.7822H180.812L186 95.9413L186.399 96.3409H191.59L191.99 95.9413L197.977 72.7899V68.8008L197.577 68.4013H193.585L193.185 68.8008L189.193 87.1608H188.793L183.606 68.8008L183.206 68.4013H178.018ZM221.685 95.9413V91.9491L212.505 68.8008L212.105 68.4013H206.914L206.518 68.8008L197.335 91.9491V95.9413L197.734 96.3409H201.327L201.727 95.9413L203.721 90.7536L204.52 90.354H214.499L215.299 90.7536L217.293 95.9413L217.693 96.3409H221.285L221.685 95.9413ZM213.301 85.1631L212.901 85.5627H206.118L205.719 85.1631L209.312 75.5867H209.708L213.301 85.1631ZM247.627 76.7822C247.627 71.1949 243.635 68.4013 238.047 68.4013H224.875L224.479 68.8008V95.9413L224.875 96.3409H229.666L230.066 95.9413V85.5627L230.465 85.1631H234.458L235.254 85.5627L243.238 95.9413L244.034 96.3409H246.431L246.831 95.9413V91.9491L241.64 85.1631V84.7636C244.833 83.9677 247.627 81.174 247.627 76.7822ZM242.04 76.7822C242.04 79.5758 240.444 80.3749 238.047 80.3749H230.465L230.066 79.9754V73.589L230.465 73.1895H238.047C240.444 73.1895 242.04 73.9886 242.04 76.7822ZM273.493 82.3695C273.493 73.589 269.9 68.4013 259.921 68.4013H251.141L250.741 68.8008V95.9413L251.141 96.3409H259.921C269.9 96.3409 273.493 91.15 273.493 82.3695ZM267.903 82.3695C267.903 88.7559 265.908 91.5495 260.321 91.5495H256.728L256.329 91.15V73.589L256.728 73.1895H260.321C265.908 73.1895 267.903 75.9863 267.903 82.3695Z" fill="white"/>
<path fill-rule="evenodd" clip-rule="evenodd" d="M281.457 65.8651C284.584 65.8651 287.085 68.3662 287.085 71.4933C287.085 74.6173 284.584 77.1215 281.457 77.1215C278.33 77.1215 275.829 74.6173 275.829 71.4933C275.829 68.3662 278.33 65.8651 281.457 65.8651ZM281.457 76.3381C284.115 76.3381 286.305 74.1517 286.305 71.4933C286.305 68.8349 284.115 66.6485 281.457 66.6485C278.798 66.6485 276.612 68.8349 276.612 71.4933C276.612 74.1517 278.798 76.3381 281.457 76.3381ZM284.272 73.8371V74.4631L284.115 74.6173H283.958L283.646 74.4631L282.083 72.2735L281.771 72.1162H280.208L280.051 72.2735V74.4631L279.893 74.6173H279.27L279.113 74.4631V68.5235L279.27 68.3662H282.394C283.489 68.3662 284.427 68.9922 284.427 70.2412C284.427 71.1819 283.804 71.8048 283.02 71.9589V72.1162L284.272 73.8371ZM282.394 69.1464H280.208L280.051 69.3037V71.1819L280.208 71.3392H282.394C283.178 71.3392 283.489 70.8673 283.489 70.2412C283.489 69.6183 283.178 69.1464 282.394 69.1464Z" fill="white"/>
<path fill-rule="evenodd" clip-rule="evenodd" d="M155.604 119.74H153.304L153.049 119.485L152.791 118.208H152.537C152.027 118.718 150.747 119.995 147.937 119.995C142.825 119.995 139.5 116.163 139.5 110.793C139.5 105.426 142.825 101.591 148.192 101.591C153.304 101.591 155.349 104.403 155.859 106.961L155.604 107.216H152.537L152.282 106.961C151.769 105.939 151.005 104.658 148.192 104.658C144.87 104.658 143.08 107.216 143.08 110.793C143.08 114.373 144.87 116.928 148.192 116.928C151.005 116.928 152.282 115.396 152.282 113.351L152.027 113.096H147.679L147.424 112.838V110.283L147.679 110.028H155.604L155.859 110.283V119.485L155.604 119.74Z" fill="white"/>
<path fill-rule="evenodd" clip-rule="evenodd" d="M166.871 104.663C163.548 104.663 161.758 107.221 161.758 110.798C161.758 114.375 163.548 116.933 166.871 116.933C170.193 116.933 171.983 114.375 171.983 110.798C171.983 107.221 170.193 104.663 166.871 104.663ZM166.871 120C161.504 120 158.181 116.165 158.181 110.798C158.181 105.431 161.504 101.596 166.871 101.596C172.238 101.596 175.56 105.431 175.56 110.798C175.56 116.165 172.238 120 166.871 120Z" fill="white"/>
<path fill-rule="evenodd" clip-rule="evenodd" d="M190.059 119.742H178.558L178.303 119.487V102.105L178.558 101.851H181.625L181.88 102.105V116.42L182.135 116.674H190.059L190.314 116.929V119.487L190.059 119.742Z" fill="white"/>
<path fill-rule="evenodd" clip-rule="evenodd" d="M198.301 104.918H196.002L195.747 105.173V116.42L196.002 116.674H198.301C201.882 116.674 203.159 114.888 203.159 110.798C203.159 106.708 201.882 104.918 198.301 104.918ZM198.047 119.742H192.422L192.167 119.487V102.105L192.422 101.851H198.047C204.436 101.851 206.736 105.173 206.736 110.798C206.736 116.42 204.436 119.742 198.047 119.742Z" fill="white"/>
<path fill-rule="evenodd" clip-rule="evenodd" d="M228.207 101.851L228.461 102.105L231.787 113.862H232.042L234.596 102.105L234.854 101.851H237.409L237.664 102.105V104.663L233.832 119.487L233.574 119.742H230.252L229.997 119.487L226.675 107.218H226.417L223.094 119.487L222.84 119.742H219.517L219.259 119.487L215.428 104.663V102.105L215.682 101.851H218.237L218.495 102.105L221.05 113.862H221.304L224.63 102.105L224.885 101.851H228.207Z" fill="white"/>
<path fill-rule="evenodd" clip-rule="evenodd" d="M243.574 119.742H240.507L240.252 119.487V102.105L240.507 101.851H243.574L243.829 102.105V119.487L243.574 119.742Z" fill="white"/>
<path fill-rule="evenodd" clip-rule="evenodd" d="M247.741 101.851H251.318L251.831 102.105L258.733 113.862H258.988V102.105L259.243 101.851H262.31L262.565 102.105V119.487L262.31 119.742H258.733L258.22 119.487L251.318 107.73H251.063V119.487L250.808 119.742H247.741L247.486 119.487V102.105L247.741 101.851Z" fill="white"/>
<path fill-rule="evenodd" clip-rule="evenodd" d="M266.514 101.851H270.094L270.604 102.105L277.506 113.862H277.761V102.105L278.016 101.851H281.083L281.338 102.105V119.487L281.083 119.742H277.506L276.993 119.487L270.094 107.73H269.836V119.487L269.581 119.742H266.514L266.259 119.487V102.105L266.514 101.851Z" fill="white"/>
<path fill-rule="evenodd" clip-rule="evenodd" d="M297.302 119.742H285.291L285.033 119.487V102.105L285.291 101.851H297.302L297.557 102.105V104.66L297.302 104.918H288.868L288.613 105.173V108.75L288.868 109.008H296.792L297.047 109.263V111.817L296.792 112.075H288.868L288.613 112.33V116.42L288.868 116.674H297.302L297.557 116.929V119.487L297.302 119.742Z" fill="white"/>
<path fill-rule="evenodd" clip-rule="evenodd" d="M309.438 104.918H304.58L304.325 105.173V109.263L304.58 109.517H309.438C310.97 109.517 311.992 109.008 311.992 107.218C311.992 105.428 310.97 104.918 309.438 104.918ZM311.737 112.33V112.585L315.059 116.929V119.487L314.805 119.742H313.272L312.76 119.487L307.647 112.843L307.138 112.585H304.58L304.325 112.843V119.487L304.07 119.742H301.003L300.745 119.487V102.105L301.003 101.851H309.438C313.014 101.851 315.572 103.641 315.572 107.218C315.572 110.03 313.782 111.82 311.737 112.33Z" fill="white"/>
</svg>
