<svg width="176" height="128" viewBox="0 0 176 128" fill="none" xmlns="http://www.w3.org/2000/svg">
<rect width="176" height="128" fill="black"/>
<g clip-path="url(#clip0)">
<path d="M44.9376 53.1672C44.4627 52.8287 43.7803 52.4849 43.2344 53.0307C42.8959 53.3692 41.804 54.7338 41.5966 55.1432C41.2581 55.6891 41.6621 56.3005 42.006 56.5734C43.7093 58.0036 48.8191 61.6172 54.9498 69.1775C55.2228 69.5159 56.0417 69.7889 56.2437 68.9755C56.3092 68.7026 56.6531 67.0704 56.7896 66.1152C56.9916 64.8215 56.4511 64.1391 56.1782 63.8007C55.6322 63.2494 49.5015 56.7099 44.9376 53.1672" fill="white"/>
<path d="M39.2821 46.2183C37.6443 47.0371 34.1723 49.2861 33.9648 49.4225C33.1459 49.8975 32.4635 50.6508 33.7628 51.3986C36.0775 52.6923 38.5997 54.3954 39.2821 54.6683C40.5104 55.2797 40.8489 54.7338 41.7333 53.5766C42.7542 52.2829 43.7095 51.1912 44.6649 49.8975C44.9378 49.559 45.8222 48.6692 45.0033 48.0579C44.5939 47.7849 42.1427 46.4912 41.3238 46.2183C40.8489 46.0818 40.101 45.8089 39.2821 46.2183" fill="white"/>
<path d="M29.6082 77.8295C27.43 76.5358 27.703 74.2159 28.3799 73.3316C28.9913 72.5128 39.08 58.7514 39.282 58.413C40.0299 57.3213 40.8488 57.5942 41.3237 57.9381C42.552 58.7569 46.0951 61.8192 47.1814 63.0474C47.9294 63.8662 47.1815 64.9525 46.843 65.9787C46.2315 67.8128 40.9852 77.2181 38.6705 80.7608C38.6705 80.7608 37.5132 82.8024 35.7389 81.6451C35.0565 81.2357 29.8102 77.966 29.6082 77.8295" fill="white"/>
<path d="M24.564 49.8975C23.2702 50.5798 21.4304 51.6006 20.4751 52.4194C19.5197 53.0308 20.1366 53.8496 21.1575 54.259C24.7005 55.7547 32.3325 60.1161 33.8993 61.066C34.5107 61.4754 35.2641 61.8138 36.0775 61.0005C36.416 60.662 38.1902 58.413 38.5996 57.8672C39.2821 56.9829 38.8726 56.2296 38.4632 55.8911C35.2641 53.5767 30.1488 50.9183 26.8787 49.6246C26.2673 49.4171 25.4484 49.4171 24.564 49.8975" fill="white"/>
<path d="M81.0505 71.2901C81.0505 71.6285 80.8486 71.765 80.3681 71.765H77.7805C77.0981 71.765 76.7596 71.492 76.5521 70.8807L75.1873 67.065H66.8074L65.4426 70.8807C65.2406 71.492 64.8967 71.765 64.2143 71.765H61.9651C61.4902 71.765 61.2827 71.6285 61.2827 71.2901C61.2827 71.1536 61.3482 71.0171 61.4192 70.8807L68.5053 52.3484C68.7073 51.8026 69.0512 51.4641 69.6626 51.4641H72.6597C73.2056 51.4641 73.5441 51.8026 73.8171 52.4194L80.9141 70.9462C80.9796 71.0171 81.0505 71.2191 81.0505 71.2901V71.2901ZM71.1038 55.3453H70.9674L67.8993 63.8608H74.101L71.1038 55.3453ZM85.1395 64.7451V58.0691C85.1395 57.4578 84.8665 57.1848 84.2551 57.1848H82.1424C81.5965 57.1848 81.3235 57.4578 81.3235 58.0691V65.7659C81.3235 69.0356 82.4809 72.0324 86.7063 72.0324C88.748 72.0324 90.2493 71.3501 91.4067 69.5815H91.5432V70.8097C91.5432 71.4211 91.8161 71.694 92.362 71.694H94.4038C94.9497 71.694 95.2227 71.4211 95.2227 70.8097V58.1401C95.2227 57.5287 94.9497 57.2558 94.4038 57.2558H92.2911C91.7451 57.2558 91.4722 57.5287 91.4722 58.1401V63.7953C91.4722 66.8631 90.1784 68.9046 87.8582 68.9046C85.8219 68.9046 85.1395 67.4035 85.1395 64.7451V64.7451ZM106.463 58.4785C106.6 58.0036 106.463 57.7962 105.917 57.5942C104.825 57.1193 103.466 56.9119 102.374 56.9119C99.2407 56.9119 96.7895 58.2766 96.7895 61.2024C96.7895 63.4514 98.0833 64.6796 100.196 65.5639C102.511 66.4482 103.466 66.9286 103.466 67.8784C103.466 69.0356 102.309 69.3795 101.151 69.3795C99.1751 69.3795 98.2907 68.4243 97.7448 68.4243C97.3354 68.4243 97.1334 68.6262 97.0624 69.1066L96.9259 70.4713C96.8604 70.8807 96.9915 71.2191 97.4719 71.492C98.4272 71.9669 99.9231 72.2399 101.288 72.2399C104.285 72.2399 107.282 71.0117 107.282 67.6764C107.282 65.6349 106.327 64.3357 103.876 63.3149C101.899 62.4961 100.605 62.0212 100.605 61.0004C100.605 60.2526 101.424 59.7722 102.582 59.7722C104.219 59.7722 105.033 60.4546 105.579 60.4546C105.917 60.4546 106.125 60.3181 106.19 59.9087L106.463 58.4785ZM123.157 70.7442C123.157 75.9245 120.362 78.239 114.98 78.239C113.478 78.239 111.71 77.9005 110.552 77.4202C109.733 77.0817 109.597 76.8743 109.733 76.192L109.935 74.8273C110.001 74.4179 110.208 74.2159 110.618 74.2159C111.3 74.2159 112.392 75.2367 115.045 75.2367C117.977 75.2367 119.473 73.7355 119.473 70.6732V69.6525H119.407C118.386 71.2901 116.748 71.8305 114.843 71.8305C110.618 71.8305 108.439 68.4242 108.439 64.3357C108.439 60.6565 110.552 56.9119 114.778 56.9119C116.819 56.9119 118.392 57.5942 119.478 59.0244H119.614V58.2056C119.614 57.5942 119.887 57.3213 120.499 57.3213H122.475C123.021 57.3213 123.294 57.5942 123.294 58.2056V70.7442H123.157ZM119.341 64.4776C119.341 61.6828 117.84 59.9142 115.727 59.9142C113.413 59.9142 112.25 62.0922 112.25 64.4121C112.25 66.7976 113.407 68.9101 115.657 68.9101C118.048 68.8337 119.341 66.9286 119.341 64.4776V64.4776ZM125.816 71.765H127.929C128.54 71.765 128.813 71.492 128.813 70.8807V65.2255C128.813 62.4306 129.769 60.1816 132.154 60.1816C132.902 60.1816 133.312 60.3181 133.656 60.3181C134.131 60.3181 134.403 60.1161 134.403 59.5703V57.8672C134.403 57.3213 134.201 57.1193 133.929 57.0484C133.656 56.9829 133.181 56.9119 132.635 56.9119C130.931 56.9119 129.84 57.6597 128.89 59.2973H128.753V58.2056C128.753 57.5942 128.48 57.3213 127.869 57.3213H125.827C125.281 57.3213 125.008 57.5942 125.008 58.2056V70.9462C124.997 71.492 125.27 71.765 125.816 71.765V71.765ZM137.466 49.963C138.694 49.963 139.644 50.9838 139.644 52.141C139.644 53.3692 138.689 54.319 137.466 54.319C136.309 54.319 135.288 53.2982 135.288 52.141C135.288 50.9838 136.243 49.963 137.466 49.963ZM135.561 58.1401C135.561 57.5287 135.834 57.2558 136.38 57.2558H138.492C139.038 57.2558 139.311 57.5287 139.311 58.1401V70.8807C139.311 71.492 139.038 71.765 138.492 71.765H136.38C135.834 71.765 135.561 71.492 135.561 70.8807V58.1401ZM152.255 69.8599C151.234 71.4265 149.596 72.1744 147.62 72.1744C143.258 72.1744 141.146 68.4952 141.146 64.3412C141.146 60.662 143.324 56.9174 147.413 56.9174C149.526 56.9174 151.027 57.5997 152.113 59.0299H152.179V50.8473C152.179 50.2359 152.452 49.892 153.063 49.892H155.176C155.722 49.892 155.995 50.2305 155.995 50.8473V70.8752C155.995 71.4866 155.722 71.7595 155.176 71.7595H153.2C152.588 71.7595 152.315 71.4866 152.315 70.8752V69.8544H152.255V69.8599ZM152.184 64.5431C152.184 61.7483 150.754 59.9087 148.57 59.9087C146.255 59.9087 145.093 62.0867 145.093 64.4067C145.093 66.7921 146.25 69.0411 148.499 69.0411C150.825 69.0411 152.184 67.065 152.184 64.5431V64.5431Z" fill="white"/>
</g>
<defs>
<clipPath id="clip0">
<rect width="136" height="36" fill="white" transform="translate(20 46)"/>
</clipPath>
</defs>
</svg>
