<svg width="176" height="128" viewBox="0 0 176 128" fill="none" xmlns="http://www.w3.org/2000/svg">
<rect width="176" height="128" fill="black"/>
<path d="M19.0074 66.9093V59.7922H17V57.8465L19.0074 57.5819V55.1546L23.3386 54.5572V57.5835H26.211V59.8017H23.3386V66.5512C23.3386 67.8188 23.6984 68.4684 24.9685 68.4684C25.4203 68.4684 26.0367 68.4208 26.3514 68.3575V70.0037C25.6575 70.4061 24.1729 70.7484 22.8012 70.7484C20.2194 70.7484 19.0091 69.6313 19.0091 66.9093H19.0074ZM47.8847 58.7116C48.9722 58.7116 49.5597 58.9017 49.5597 62.6758L45.9288 62.8849C45.9773 59.4626 46.5033 58.7116 47.8847 58.7116ZM45.9644 64.4202H53.7714C53.7714 59.0237 51.8834 57.3031 47.9573 57.3031C44.057 57.3031 41.4976 59.7684 41.4976 64.0019C41.4976 68.3749 43.8181 70.7943 48.3171 70.7943C50.7344 70.7943 52.687 69.7327 53.2938 68.9247V67.673C52.3852 67.9424 51.451 68.1166 49.7759 68.1166C47.4118 68.1166 46.1935 66.9125 45.9644 64.4091V64.4202ZM26.7258 69.3065L28.1136 68.6791V54.6887L26.6532 54.0233V52.8556L32.0526 52H32.4189V58.9999H32.5641C33.7422 57.9542 35.3236 57.3014 37.0825 57.3014C39.2933 57.3014 40.3906 58.382 40.3906 60.7396V68.6775L41.7945 69.3065V70.4901H34.6458V69.3065L36.0497 68.6775V61.7014C36.0497 60.3958 35.4688 59.9078 34.2908 59.9078C33.6454 59.9078 33.0322 60.0235 32.4996 60.2342V68.6791L33.9035 69.3097V70.4932H26.737V69.305L26.7258 69.3065Z" fill="white"/>
<path d="M121.76 57.9832V59.1204L123.227 59.7676V68.2424L121.829 68.8587V70.0144H129.003V68.8742L127.605 68.2578V57.1635H127.237L121.76 57.994V57.9832ZM136.635 67.5752V64.1961L135.617 64.2885C134.603 64.381 133.772 65.0204 133.772 66.2176C133.772 67.5967 134.57 68.0513 135.41 68.0513C135.897 68.0513 136.392 67.8232 136.634 67.5736L136.635 67.5752ZM133.546 58.8477L132.622 61.3994H130.358V58.1173C131.581 57.7567 133.071 57.1681 135.38 57.1681C138.892 57.1681 141.002 58.1543 141.002 60.9587V68.2316L142.397 68.8479V69.791C141.968 70.0098 140.999 70.2887 139.94 70.2887C138.569 70.2887 137.339 69.8726 137.136 68.5167H137.007C136.423 69.6261 134.865 70.3041 133.227 70.3041C130.891 70.3041 129.415 68.8711 129.415 66.7909C129.415 64.233 131.183 63.817 134.07 63.2469L136.585 62.8308V61.199C136.585 59.5934 136.066 58.7953 134.395 58.7953C134.168 58.7953 133.762 58.823 133.503 58.8477H133.546ZM142.754 68.8434L144.148 68.2424V59.7676L142.681 59.1204V57.9955L148.11 57.1789H148.478V58.843H148.624C149.808 57.8261 151.398 57.1943 153.166 57.1943C155.388 57.1943 156.491 58.2421 156.491 60.538V68.2578L157.903 68.8742V70.0298H150.717V68.8895L152.128 68.2855V61.4456C152.128 60.1759 151.544 59.7013 150.36 59.7013C149.711 59.7013 149.094 59.8138 148.559 60.0188V68.2316L149.955 68.8449V69.9959H142.785V68.8403L142.754 68.8434ZM115.665 54.6364L114.202 54.0047V52.8644L119.675 52.0324H120.043V67.8572L121.437 68.5814V69.66L116.247 70.2301H115.89V68.9358H115.744C115.193 69.5984 114.073 70.2918 112.435 70.2918C110.034 70.2918 107.163 68.8434 107.163 64.0512C107.163 59.0126 110.099 57.1943 113.586 57.1943C114.317 57.1943 115.176 57.3484 115.711 57.7182V54.6364H115.665ZM115.665 67.7955V59.3346C115.324 59.088 114.967 58.8831 114.172 58.8831C112.803 58.8831 111.755 60.0542 111.755 63.5828C111.755 66.6738 112.583 68.0205 114.315 68.0205C114.988 68.0205 115.366 67.8911 115.661 67.7771L115.665 67.7955ZM61.3656 74.1593C58.9747 74.1593 58.1541 73.3581 58.1541 72.4952C58.1541 71.8943 58.3229 71.4782 58.6599 71.093H63.2881C64.3703 71.093 64.8617 71.4012 64.8617 72.0484C64.8647 73.3427 64.1068 74.1593 61.3656 74.1593ZM61.4034 58.6273C62.3602 58.6273 62.9763 59.0279 62.9763 61.5242C62.9763 64.0204 62.3587 64.2808 61.4175 64.2808C60.477 64.2808 59.8706 64.0728 59.8706 61.5273C59.8706 58.9848 60.4704 58.6304 61.4242 58.6304L61.4034 58.6273ZM64.3065 67.3025H59.6026C59.1001 67.3025 58.6777 66.9326 58.6777 66.5012C58.6777 66.1622 58.9375 65.8078 59.2619 65.5767C59.976 65.7769 60.5594 65.8386 61.4353 65.8386C64.8261 65.8386 67.1458 64.3748 67.1458 61.6474C67.1458 60.4302 66.6098 59.7368 65.7666 59.0279V58.9355L67.94 59.6597L68.2325 59.6751V57.162H67.989L64.6428 57.7937H64.4557C63.6221 57.5009 62.4604 57.1928 61.4064 57.1928C58.0161 57.1928 55.6706 58.7907 55.6706 61.5041C55.6706 63.1575 56.5466 64.3887 57.8556 65.0697V65.2007C57.0996 65.7061 55.6495 66.7447 55.6495 68.0744C55.6495 69.0452 56.3243 70.0052 57.7355 70.2933V70.4273C56.2513 70.7201 54.5886 71.1824 54.5886 72.8003C54.5886 74.4645 57.1272 75.6971 61.2654 75.6971C66.4072 75.6971 68.6326 73.8172 68.6326 70.8434C68.6326 68.3934 67.2051 67.2531 64.3021 67.2531L64.3065 67.3025ZM97.2522 57.9955V59.1358L98.7279 59.783V68.2578L97.3331 68.8742V70.0298H104.89V68.8895L103.09 68.2732V61.2915C103.836 60.9525 104.818 60.8385 105.993 60.8385C106.379 60.8385 106.837 60.8847 107.102 60.951V57.3006C106.955 57.2544 106.668 57.2328 106.453 57.2328C105.009 57.2328 103.83 58.1157 103.059 59.7907H102.929V57.1527H102.556L97.2522 57.9817V57.9955ZM91.2174 67.5952V64.2052L90.2116 64.2977C89.2058 64.3902 88.3789 65.0374 88.3789 66.2393C88.3789 67.626 89.1739 68.0729 90.0171 68.0729C90.5041 68.0729 90.9999 67.8418 91.2404 67.5952H91.2174ZM88.1191 58.8585L87.195 61.4163H84.9236V58.1173C86.1565 57.7567 87.6492 57.1681 89.9526 57.1681C93.4725 57.1681 95.5813 58.1543 95.5813 60.9587V68.2316L96.9761 68.8479V69.791C96.5545 70.0098 95.5813 70.2887 94.5265 70.2887C93.1644 70.2887 91.9315 69.8726 91.737 68.5167H91.6071C91.0229 69.6261 89.4656 70.3041 87.837 70.3041C85.5063 70.3041 84.0417 68.8711 84.0417 66.7909C84.0417 64.233 85.821 63.817 88.7063 63.2469L91.2337 62.8308V61.199C91.2337 59.5934 90.7245 58.7953 89.044 58.7953C88.825 58.7953 88.4116 58.823 88.1488 58.8477L88.1191 58.8585ZM70.0488 59.7676L68.5888 59.1204V57.9955L74.072 57.1789H74.4447V65.9758C74.4447 67.4011 75.1795 67.6553 76.2863 67.6553C77.0969 67.6553 77.4213 67.5166 77.8592 67.3579V59.766L76.3835 59.1188V57.9832L81.8497 57.1542H82.2068V67.8479L83.6669 68.5721V69.6569L78.3461 70.2116H77.9631L77.9587 68.5475H77.8124C76.9722 69.5337 75.5856 70.2579 73.8056 70.2579C71.1615 70.2579 70.031 68.4704 70.031 66.2978V59.766L70.0488 59.7676ZM125.329 52C126.627 52 127.673 52.9969 127.673 54.2281C127.673 55.4577 126.624 56.4562 125.328 56.4562C124.03 56.4562 122.975 55.4701 122.975 54.2374C122.975 53.0047 124.03 52.0185 125.328 52.0185L125.329 52ZM157.204 69.3133L160 69.3195L157.204 69.3133Z" fill="white"/>
</svg>
