<svg width="176" height="128" viewBox="0 0 176 128" fill="none" xmlns="http://www.w3.org/2000/svg">
<rect width="176" height="128" fill="black"/>
<path fill-rule="evenodd" clip-rule="evenodd" d="M95.5525 54.2216H100.905V74.4172H106.374V54.2216H111.726V49.3819H95.5525V54.2216Z" fill="white"/>
<mask id="mask0" mask-type="alpha" maskUnits="userSpaceOnUse" x="45" y="49" width="87" height="30">
<path d="M45 49V78.1644H132V49H45Z" fill="white"/>
</mask>
<g mask="url(#mask0)">
<path fill-rule="evenodd" clip-rule="evenodd" d="M85.2586 66.6823C85.2586 68.7004 84.0729 69.9583 82.2002 69.9583C80.288 69.9583 79.1417 68.7004 79.1417 66.6811V49.3814H73.6715V66.7579C73.6715 71.7102 77.112 74.798 82.1993 74.798C87.2848 74.798 90.7244 71.7115 90.7244 66.7579V49.3814H85.2604V66.6823H85.2586ZM125.881 59.556L122.746 58.3748C121.025 57.726 120.719 56.6216 120.719 55.8974C120.719 54.5256 121.713 53.4967 123.472 53.4967C125.193 53.4967 126.339 54.6395 126.339 56.431V57.1169H131.463V56.5449C131.463 51.8959 128.252 49 123.472 49C118.462 49 115.556 52.4295 115.556 56.2404C115.556 59.8989 117.469 62.0717 121.102 63.4423L124.619 64.7757C126.186 65.3861 126.798 66.2243 126.798 67.4821C126.798 69.234 125.652 70.2629 123.586 70.2629C121.522 70.2629 120.26 69.3096 120.26 67.2915V66.3765H115.098V67.2531C115.098 71.9021 118.691 74.798 123.586 74.798C128.939 74.798 131.999 71.5592 131.999 66.9486C131.999 62.3367 129.015 60.7371 125.881 59.556ZM49.7377 59.6996L47.3628 57.3324L44.9867 59.6996L47.3616 62.0668L49.739 59.6996H49.7377ZM55.0571 60.2641L56.8661 62.0668L59.2411 59.6996L56.8213 57.2878C56.5899 57.0569 56.3145 56.8739 56.0123 56.7489C55.7091 56.624 55.3844 56.5597 55.0571 56.5597C54.7288 56.5597 54.405 56.624 54.1019 56.7489C53.7996 56.8739 53.5243 57.0569 53.2929 57.2878L44.9867 65.5644L47.3616 67.9316L55.058 60.2641H55.0571ZM54.4911 70.3L52.1152 67.9316L50.3059 69.7355L48.4968 67.9316L46.1181 70.3L48.5391 72.7131C48.7707 72.944 49.0456 73.1273 49.3484 73.2523C49.6511 73.3773 49.9757 73.4417 50.3035 73.4417C50.6312 73.4417 50.9557 73.3773 51.2585 73.2523C51.5609 73.1273 51.8363 72.944 52.0677 72.7131L54.4902 70.2988L54.4911 70.3ZM55.0571 74.4699L53.248 72.6672L50.8717 75.0357L53.2929 77.4475C53.5243 77.6783 53.7996 77.8614 54.1019 77.9863C54.405 78.1113 54.7288 78.1756 55.0571 78.1756C55.3844 78.1756 55.7091 78.1113 56.0123 77.9863C56.3145 77.8614 56.5899 77.6783 56.8213 77.4475L59.242 75.0357L56.867 72.6672L55.0571 74.4699Z" fill="white"/>
<path fill-rule="evenodd" clip-rule="evenodd" d="M59.8089 69.7368L57.9998 67.9329L55.6248 70.3001L58.0464 72.7144C58.2778 72.9454 58.5523 73.1286 58.8555 73.2536C59.1577 73.3787 59.4824 73.443 59.8107 73.443C60.138 73.443 60.4627 73.3787 60.7659 73.2536C61.0681 73.1286 61.3435 72.9454 61.5749 72.7144L63.9947 70.3014L61.6197 67.9329L59.8089 69.7368ZM60.3757 65.5645L62.7534 67.9329L65.1284 65.5657L62.7525 63.1973L60.3775 65.5645H60.3757ZM55.0579 65.0024L53.2489 63.1985L50.8741 65.5657L53.2937 67.9775C53.5251 68.2083 53.8005 68.3914 54.1036 68.5164C54.4059 68.6413 54.7306 68.7056 55.0579 68.7056C55.3862 68.7056 55.71 68.6413 56.0132 68.5164C56.3154 68.3914 56.5908 68.2083 56.8222 67.9775L65.1284 59.7009L62.7525 57.3325L55.0579 65.0011V65.0024ZM58.2267 44.5517L55.0597 41.3921L51.8901 44.5492L55.0597 47.7088L58.2276 44.5517" fill="white"/>
<path fill-rule="evenodd" clip-rule="evenodd" d="M51.1053 51.7394H53.3772V56.2213C53.8857 55.9222 54.466 55.7643 55.0571 55.7643C55.6481 55.7643 56.2284 55.9222 56.7379 56.2213V51.7394H59.0106L60.4995 53.2226L63.6674 50.0655L60.4995 46.9084L59.0106 48.3916H51.1053L49.6169 46.9084L46.4487 50.0655L49.6169 53.2226L51.1053 51.7394Z" fill="white"/>
</g>
</svg>
