<svg width="176" height="128" viewBox="0 0 176 128" fill="none" xmlns="http://www.w3.org/2000/svg">
<rect width="176" height="128" fill="black"/>
<g clip-path="url(#clip0)">
<path d="M65.7328 57.489L59.6101 73.4693H55.6823L49.5596 57.489H53.2563L57.6462 69.6364L61.9783 57.489H65.7328Z" fill="white"/>
<path d="M121.184 57.489V73.4693H117.776V71.4054C116.736 73.0565 115.061 73.8821 112.924 73.8821C109.401 73.8821 106.917 71.4644 106.917 67.2777V57.489H110.325V66.9828C110.325 69.4005 111.711 70.6978 113.848 70.6978C116.101 70.6978 117.834 69.3415 117.834 66.0983V57.489H121.184Z" fill="white"/>
<path d="M130.946 57.1941V60.968C128.693 60.7911 126.094 61.8526 126.094 65.4496V73.4693H122.686V57.4889H126.094V60.2015C127.076 58.0196 128.982 57.1941 130.946 57.1941Z" fill="white"/>
<path d="M105.357 60.7912V57.489H101.487V53.0074L98.0793 56.4865V68.516C98.0793 72.6438 100.159 74.118 105.357 73.5283V70.403C102.816 70.5209 101.487 70.5799 101.487 68.516V60.8501L105.357 60.7912Z" fill="white"/>
<path d="M151.509 61.9116C151.509 60.7322 152.549 60.2015 153.819 60.2015C155.032 60.2015 156.072 60.7322 156.65 61.7936L158.96 59.4349C157.747 57.9607 155.957 57.0762 153.819 57.0762C150.643 57.0762 148.101 58.9632 148.101 61.9705C148.101 67.6904 156.534 66.0983 156.534 68.9288C156.534 70.2261 155.379 70.6978 153.877 70.6978C152.549 70.6978 151.509 70.1671 150.874 69.2826L148.505 71.7003C149.718 73.0565 151.567 73.8821 153.877 73.8821C157.285 73.8821 160 72.172 160 68.9288C159.942 63.032 151.509 64.801 151.509 61.9116Z" fill="white"/>
<path d="M96.5199 63.6806V73.4693H93.1119V64.0344C93.1119 61.6167 91.7256 60.3194 89.5885 60.3194C87.3357 60.3194 85.6029 61.6757 85.6029 64.9189V73.4693H82.1949V57.489H85.6029V59.5528C86.6426 57.9017 88.3177 57.0762 90.4549 57.0762C93.9783 57.0762 96.5199 59.4939 96.5199 63.6806Z" fill="white"/>
<path d="M143.711 68.7519C142.96 69.8723 141.574 70.7568 139.668 70.7568C137.184 70.7568 135.162 69.4595 134.643 66.9828H147.119C147.177 66.5111 147.235 66.0393 147.235 65.5676C147.235 60.9681 144.058 57.1352 139.379 57.1352C134.469 57.1352 131.119 60.7912 131.119 65.5676C131.119 70.344 134.469 74 139.668 74C142.383 74 144.578 72.9386 146.022 71.1696L143.711 68.7519ZM139.321 60.2015C141.343 60.2015 143.307 61.3809 143.827 64.1524H134.643C135.105 61.7347 136.78 60.2015 139.321 60.2015Z" fill="white"/>
<path d="M77.1118 68.7519C76.3609 69.8723 74.9746 70.7568 73.0685 70.7568C70.5848 70.7568 68.5631 69.4595 68.0432 66.9828H80.5198C80.5775 66.5111 80.6353 66.0393 80.6353 65.5676C80.6353 60.9681 77.4584 57.1352 72.7797 57.1352C67.87 57.1352 64.5198 60.7912 64.5198 65.5676C64.5198 70.344 67.87 74 73.0685 74C75.7833 74 77.9783 72.9386 79.4223 71.1696L77.1118 68.7519ZM72.7797 60.2015C74.8014 60.2015 76.7653 61.3809 77.2851 64.1524H68.101C68.5053 61.7347 70.2382 60.2015 72.7797 60.2015Z" fill="white"/>
<path d="M22.8736 66.5111L29.7473 73.5872V69.2825L25.0108 64.3882L22.8736 62.2654L20.7942 64.3882L16 69.2825V73.5872L22.8736 66.5111Z" fill="white"/>
<path d="M23.4512 61.6757L25.5306 63.7985L29.7472 59.4938V55.1892L23.4512 61.6757Z" fill="white"/>
<path d="M16 55.1892V59.4938L20.2166 63.7985L22.3538 61.6757L16 55.1892Z" fill="white"/>
<path d="M42.917 73.8821C46.787 73.8821 51.0036 71.5233 51.0036 66.3342C51.0036 62.6192 48.5776 58.8452 43.2058 58.8452H39.7401V53.4791H46.2094L49.6174 50H36.3322V62.5012H43.0325C45.6896 62.5012 47.3646 64.0344 47.3646 66.3931C47.3646 68.7518 45.6318 70.344 42.9748 70.344C41.1264 70.344 39.7979 69.7543 38.9314 68.516L36.3322 71.1695C37.7762 72.8796 40.1444 73.8821 42.917 73.8821Z" fill="white"/>
<path d="M34.7148 50.1769L31.3069 53.656V73.4103H34.7148V50.1769Z" fill="white"/>
</g>
<defs>
<clipPath id="clip0">
<rect width="144" height="24" fill="white" transform="translate(16 50)"/>
</clipPath>
</defs>
</svg>
