<svg width="176" height="128" fill="none" xmlns="http://www.w3.org/2000/svg"><path fill="#000" d="M0 0h176v128H0z"/><path d="M58.384 91.52c.309-6.747 1.574-13.808 3.688-20.582.351-1.124.667-2.167.703-2.317.036-.15-.332.38-.817 1.177-2.532 4.162-6.046 8.71-8.727 11.295l-.777.75.08-1.909c.193-4.52 1.293-10.338 2.867-15.16.335-1.025.59-1.883.568-1.906-.023-.022-.216.281-.43.675-.623 1.15-2.672 4.154-3.767 5.522-1.182 1.477-3.334 3.85-3.492 3.85-.206 0 .146-4.007.558-6.338.287-1.628 1.084-4.856 1.492-6.047.14-.41.237-.764.214-.787-.023-.023-.466.616-.984 1.42-1.102 1.706-2.707 3.737-3.794 4.8l-.766.75.084-1.09c.625-8.176 4.17-16.475 9.37-21.945l1.038-1.09-.081 1.483c-.096 1.74-.482 4.128-.959 5.931-.186.705-.315 1.306-.285 1.336.03.03.282-.363.56-.873.826-1.51 2.729-4.324 3.977-5.88 1.361-1.698 3.302-3.838 3.481-3.838.176 0-.003 2.686-.328 4.928-.359 2.478-1.113 5.756-1.704 7.408-.2.56.187-.037 1.225-1.888 2.466-4.397 6.175-9.352 9.249-12.356l1.046-1.023-.091 1.773c-.216 4.192-1.193 9.781-2.392 13.685-.147.48-.247.893-.221.919.026.026.374-.551.774-1.282 3.344-6.107 8.021-12.505 12.527-17.136L83.997 34l.005.977c.014 2.653-.59 8.01-1.365 12.108C80.205 59.954 74.153 73.8 66.429 84.16c-2.18 2.924-4.961 6.166-7.018 8.178l-1.114 1.09.087-1.908zm28.621-17.527c-2.461-.484-4.342-1.755-5.245-3.543-.356-.704-.735-2.183-.74-2.885l-.002-.375h3.391l.077.375c.39 1.907 1.112 2.81 2.774 3.469 1.087.43 3.282.428 4.376-.006.94-.372 1.822-1.271 1.958-1.994.15-.808-.008-1.66-.408-2.187-.584-.767-1.734-1.25-4.544-1.906-2.94-.687-3.818-.993-4.836-1.68-1.206-.816-1.772-1.74-1.984-3.236-.522-3.702 2.62-6.602 7.157-6.602 4.272 0 7.097 2.14 7.603 5.759l.091.648h-1.718c-1.26 0-1.73-.046-1.764-.17-.373-1.374-.542-1.752-.99-2.214-.73-.755-1.516-1.054-2.97-1.13-1.48-.078-2.547.183-3.237.79-.617.544-.811 1.066-.736 1.979.114 1.372 1.1 2.057 3.926 2.726 4.002.947 5.463 1.516 6.51 2.535 1.108 1.079 1.667 2.963 1.374 4.634-.578 3.308-3.477 5.19-7.927 5.146-.843-.008-1.805-.068-2.136-.133zm34.432-.076c-2.092-.445-3.974-1.741-4.807-3.31-.422-.794-.824-2.27-.829-3.042l-.002-.375h3.374l.146.686c.389 1.82 1.59 2.976 3.517 3.386 2.087.444 4.154-.128 5.137-1.422.71-.933.559-2.571-.31-3.36-.45-.407-1.758-.93-3.197-1.277-3.494-.842-4.176-1.042-5.084-1.488-1.675-.823-2.516-1.929-2.785-3.66-.334-2.158.724-4.339 2.659-5.476 1.281-.753 2.328-1.046 4.015-1.12 4.306-.192 7.244 1.713 7.961 5.163.117.562.152 1.028.084 1.097-.066.066-.844.102-1.73.081l-1.611-.038-.159-.63c-.497-1.955-1.815-2.846-4.21-2.846-2.244 0-3.596.942-3.596 2.506 0 1.625.991 2.35 4.239 3.098 3.769.869 5.193 1.436 6.241 2.488 2.026 2.033 1.868 5.806-.328 7.8-.872.792-2.272 1.46-3.659 1.747-1.305.27-3.779.266-5.066-.008zm-22.963-.345c-.037-.1-.052-4.566-.033-9.926l.035-9.746 5.706.004c5.608.003 5.722.008 6.582.317 2.248.806 3.067 2.033 3.061 4.587-.003 1.355-.037 1.565-.364 2.193a4.343 4.343 0 01-1.769 1.776l-.435.225.832.395c1.779.843 2.618 2.158 2.728 4.278.094 1.8-.25 2.895-1.251 3.98-.789.855-1.686 1.381-2.998 1.758-.696.2-1.635.242-6.42.287-4.552.042-5.618.018-5.674-.128zm10.896-2.846c2.147-.808 2.803-3.57 1.213-5.107-.85-.822-1.205-.882-5.16-.882h-3.482v6.133h3.523c2.142 0 3.674-.056 3.906-.144zm-.399-8.789c1.038-.435 1.529-1.242 1.529-2.515 0-1-.229-1.598-.793-2.075-.762-.643-1.208-.712-4.574-.717l-3.124-.003-.037 2.76-.037 2.76h3.268c2.633 0 3.365-.04 3.768-.21z" fill="#fff"/></svg>