<svg width="140" height="48" fill="none" xmlns="http://www.w3.org/2000/svg"><path fill-rule="evenodd" clip-rule="evenodd" d="M45.86 14.455L19.164 41.152h-.718L.928 23.635v23.402H24.33c12.924 0 23.401-10.478 23.401-23.402 0-3.26-.667-6.362-1.87-9.18z" fill="#fff"/><path fill-rule="evenodd" clip-rule="evenodd" d="M19.162 30.103L41.512 7.75C37.239 3.129 31.123.233 24.33.233H.928v23.402h11.05l6.467 6.468h.717zm45.747-10.826c0-3.44-1.407-5.473-5.317-5.473h-3.44l-.157.157v10.633l.157.157h3.44c3.91 0 5.317-2.034 5.317-5.474zm-2.19 0c0 2.503-.782 3.597-2.971 3.597h-1.407l-.157-.156v-6.88l.157-.157h1.407c2.19 0 2.971 1.094 2.971 3.597zm10.948 5.317v-1.563l-.158-.157h-5.16l-.157-.156v-2.503l.157-.156h4.848l.156-.156V18.34l-.156-.157h-4.848l-.157-.156v-2.19l.157-.156h5.16l.158-.156V13.96l-.158-.157h-7.35l-.156.157v10.633l.156.157h7.35l.158-.157zm10.102-2.97c0-2.19-1.72-3.128-3.91-3.44-2.19-.313-2.815-.627-2.815-1.565 0-.625.469-1.094 1.877-1.094 1.72 0 2.188.469 2.188 1.407l.157.156h1.876l.157-.156c0-1.877-1.25-3.284-4.222-3.284-2.972 0-4.223 1.407-4.223 2.971 0 2.19 1.721 2.971 3.91 3.284 2.189.312 2.815.626 2.815 1.72 0 .938-.782 1.408-2.19 1.408-1.876 0-2.501-.626-2.501-1.72l-.157-.157h-1.877l-.156.157c0 2.033 1.407 3.596 4.536 3.596 3.283 0 4.535-1.563 4.535-3.284zm3.596 2.97V13.961l-.156-.157h-1.877l-.156.157v10.633l.156.157h1.877l.156-.157zm11.353 0v-5.63l-.157-.155h-4.848l-.156.156v1.564l.156.157h2.659l.156.156c0 1.25-.781 2.19-2.502 2.19-2.032 0-3.127-1.565-3.127-3.755 0-2.189 1.095-3.752 3.127-3.752 1.72 0 2.19.781 2.502 1.407l.157.156h1.876l.157-.156c-.313-1.565-1.563-3.284-4.692-3.284-3.284 0-5.317 2.346-5.317 5.63 0 3.283 2.033 5.629 5.16 5.629 1.721 0 2.503-.782 2.816-1.094h.157l.156.781.157.157h1.406l.157-.157zm1.469-10.633v10.633l.158.157h1.876l.157-.157v-7.193h.155l4.223 7.193.313.157h2.189l.156-.157V13.961l-.156-.157h-1.877l-.156.157v7.193h-.156l-4.222-7.193-.314-.157h-2.188l-.158.157zm-34.965-2.828v-5.63l-.156-.155h-4.848l-.156.156v1.563l.156.156h2.658l.157.157c0 1.251-.782 2.19-2.502 2.19-2.034 0-3.128-1.564-3.128-3.753 0-2.19 1.094-3.754 3.128-3.754 1.72 0 2.19.782 2.502 1.408l.156.156h1.877l.156-.156C64.91 1.906 63.658.187 60.531.187c-3.284 0-5.317 2.346-5.317 5.63 0 3.283 2.033 5.63 5.16 5.63 1.72 0 2.502-.782 2.815-1.095h.156l.157.781.156.157h1.408l.156-.156zm9.664-5.316c0 2.19-1.094 3.752-3.127 3.752-2.033 0-3.127-1.563-3.127-3.752 0-2.19 1.094-3.754 3.127-3.754 2.033 0 3.127 1.564 3.127 3.754zm2.19 0c0-3.284-2.033-5.63-5.317-5.63-3.284 0-5.317 2.346-5.317 5.63 0 3.283 2.033 5.63 5.317 5.63 3.284 0 5.317-2.347 5.317-5.63zm9.54 0c0 2.19-1.096 3.752-3.128 3.752-2.033 0-3.129-1.563-3.129-3.752 0-2.19 1.096-3.754 3.13-3.754 2.031 0 3.126 1.564 3.126 3.754zm2.189 0c0-3.284-2.033-5.63-5.317-5.63-3.285 0-5.317 2.346-5.317 5.63 0 3.283 2.032 5.63 5.317 5.63 3.284 0 5.317-2.347 5.317-5.63zm10.258 0c0-3.442-1.407-5.474-5.317-5.474h-3.44L90.148.5v10.633l.156.157h3.441c3.91 0 5.318-2.033 5.318-5.473zm-2.19 0c0 2.502-.78 3.596-2.97 3.596h-1.408l-.156-.156V2.375l.156-.156h1.408c2.19 0 2.97 1.095 2.97 3.598zM65.127 37.721V36.16l-3.592-9.056-.156-.157h-2.03l-.156.157-3.591 9.056v1.561l.156.157h1.406l.155-.157.781-2.03.312-.155h3.904l.312.156.78 2.03.157.156h1.405l.157-.157zm-3.279-4.216l-.156.156h-2.655l-.156-.156 1.405-3.747h.156l1.406 3.747zm8.724-6.558l-.157.157-2.03 7.182h-.156l-1.561-7.182-.157-.157H64.95l-.156.157v1.56l2.343 9.057.155.157h2.03l.157-.157 2.03-7.495h.156l2.03 7.495.155.157h2.031l.156-.157 2.343-9.057v-1.56l-.157-.157h-1.561l-.157.157-1.562 7.182h-.156l-2.03-7.182-.156-.157h-2.03zm17.083 10.774V36.16l-3.592-9.056-.156-.157h-2.03l-.156.157-3.592 9.056v1.561l.156.157h1.405l.157-.157.78-2.03.313-.155h3.904l.312.156.78 2.03.157.156h1.405l.157-.157zm-3.28-4.216l-.157.156h-2.653l-.156-.156 1.405-3.747h.155l1.406 3.747zm13.429-3.279c0-2.186-1.562-3.279-3.748-3.279h-5.153l-.155.157V37.72l.155.157h1.874l.156-.157v-4.06l.157-.156h1.562l.311.156 3.124 4.06.311.157h.938l.156-.157v-1.56l-2.03-2.655v-.157c1.249-.31 2.342-1.404 2.342-3.122zm-2.186 0c0 1.093-.624 1.406-1.562 1.406H91.09l-.157-.157v-2.498l.157-.157h2.966c.938 0 1.562.313 1.562 1.406zm12.305 2.186c0-3.435-1.406-5.465-5.31-5.465h-3.435l-.156.157V37.72l.156.157h3.435c3.904 0 5.31-2.031 5.31-5.466zm-2.187 0c0 2.498-.78 3.591-2.966 3.591h-1.406l-.156-.156v-6.87l.156-.157h1.406c2.186 0 2.966 1.095 2.966 3.592zm5.303-6.457c1.223 0 2.201.978 2.201 2.201a2.193 2.193 0 01-2.201 2.202 2.193 2.193 0 01-2.202-2.202c0-1.223.978-2.201 2.202-2.201zm0 4.097c1.04 0 1.896-.856 1.896-1.896s-.856-1.895-1.896-1.895-1.896.855-1.896 1.895.856 1.896 1.896 1.896zm1.101-.979v.245l-.061.06h-.062l-.122-.06-.612-.856-.121-.062h-.612l-.062.062v.856l-.061.06h-.244l-.061-.06v-2.323l.061-.062h1.222c.429 0 .795.245.795.734a.662.662 0 01-.55.672v.061l.49.673zm-.735-1.835h-.855l-.062.062v.735l.062.061h.855c.307 0 .429-.184.429-.43 0-.243-.122-.428-.429-.428zM61.803 47.032h-.9l-.1-.1-.1-.5h-.1c-.2.2-.7.7-1.8.7-2 0-3.3-1.5-3.3-3.6s1.3-3.6 3.4-3.6c2 0 2.8 1.1 3 2.1l-.1.1h-1.2l-.1-.1c-.2-.4-.5-.9-1.6-.9-1.3 0-2 1-2 2.4s.7 2.4 2 2.4c1.1 0 1.6-.6 1.6-1.4l-.1-.1h-1.7l-.1-.1v-1l.1-.1h3.1l.1.1v3.6l-.1.1zm4.407-5.9c-1.3 0-2 1-2 2.4s.7 2.4 2 2.4 2-1 2-2.4-.7-2.4-2-2.4zm0 6c-2.1 0-3.399-1.5-3.399-3.6s1.3-3.6 3.4-3.6c2.1 0 3.399 1.5 3.399 3.6s-1.3 3.6-3.4 3.6zm9.072-.1h-4.5l-.1-.1v-6.8l.1-.1h1.2l.1.1v5.6l.1.1h3.1l.1.1v1l-.1.1zm3.225-5.8h-.9l-.1.1v4.4l.1.1h.9c1.4 0 1.9-.7 1.9-2.3 0-1.6-.5-2.3-1.9-2.3zm-.1 5.8h-2.2l-.1-.1v-6.8l.1-.1h2.2c2.5 0 3.4 1.3 3.4 3.5s-.9 3.5-3.4 3.5zm11.799-7l.1.1 1.3 4.6h.1l1-4.6.1-.1h1l.1.1v1l-1.5 5.8-.1.1h-1.3l-.1-.1-1.3-4.8h-.1l-1.3 4.8-.1.1h-1.3l-.1-.1-1.5-5.8v-1l.1-.1h1l.1.1 1 4.6h.1l1.3-4.6.1-.1h1.3zm6.012 7h-1.2l-.1-.1v-6.8l.1-.1h1.2l.1.1v6.8l-.1.1zm1.63-7h1.4l.2.1 2.701 4.6h.099v-4.6l.1-.1h1.2l.1.1v6.8l-.1.1h-1.399l-.201-.1-2.7-4.6h-.1v4.6l-.1.1h-1.2l-.1-.1v-6.8l.1-.1zm7.345 0h1.4l.2.1 2.7 4.6h.1v-4.6l.099-.1h1.2l.1.1v6.8l-.1.1h-1.399l-.201-.1-2.699-4.6h-.101v4.6l-.099.1h-1.2l-.1-.1v-6.8l.1-.1zm12.044 7h-4.699l-.1-.1v-6.8l.1-.1h4.699l.1.1v1l-.1.1h-3.299l-.1.1v1.4l.1.1h3.1l.1.1v1l-.1.1h-3.1l-.1.1v1.6l.1.1h3.299l.1.1v1l-.1.1zm4.748-5.8h-1.9l-.1.1v1.6l.1.1h1.9c.599 0 .999-.2.999-.9s-.4-.9-.999-.9zm.9 2.9v.1l1.299 1.7v1l-.099.1h-.6l-.2-.1-2-2.6-.2-.1h-1l-.1.1v2.6l-.1.1h-1.2l-.101-.1v-6.8l.101-.1h3.3c1.399 0 2.4.7 2.4 2.1 0 1.1-.7 1.8-1.5 2z" fill="#fff"/></svg>