<svg width="176" height="128" fill="none" xmlns="http://www.w3.org/2000/svg"><path fill="#000" d="M0 0h176v128H0z"/><path fill-rule="evenodd" clip-rule="evenodd" d="M68.85 57.378l-.001-.029a.541.541 0 00-.275-.413c-.106-.052-.317-.029-.526.029.051.061.093.123.119.17l.029.051.043.09a.68.68 0 00.152.256h.421a.337.337 0 00.038-.154zm-.741-.057l-.028-.062-.035-.06a.726.726 0 00-.19-.24l-.039-.027c-.121-.063-.692-.133-1.07-.012.068.07.124.148.16.207l.03.054.042.09a.67.67 0 00.154.257h1.082a.904.904 0 01-.106-.207zm-1.259 0l-.027-.064v.002l-.036-.064c-.045-.078-.107-.188-.229-.263-.122-.063-.692-.133-1.069-.012.07.071.125.148.16.209l.028.052.043.091c.027.074.07.175.154.256h1.083a.861.861 0 01-.107-.207zm-1.259 0l-.028-.062-.037-.062a.667.667 0 00-.227-.265c-.122-.063-.693-.133-1.071-.012a.973.973 0 01.16.209l.03.052.042.091a.703.703 0 00.154.256h1.084a.805.805 0 01-.107-.207zm-1.259.001l-.028-.063-.036-.061c-.045-.08-.106-.19-.228-.266-.125-.064-.705-.134-1.083-.008.065.064.117.13.15.184l.03.046.046.089a.564.564 0 00.227.285h1.028a.902.902 0 01-.106-.206zm-1.277-.024l-.03-.06-.034-.055a.696.696 0 00-.206-.23l-.038-.025c-.148-.066-.39-.02-.54.106-.049.04-.06.106-.063.154v.015c0 .11.047.233.117.327h.94a.835.835 0 01-.146-.232zm3.979-6.871c-.209.08-.483-.019-.486-.113-.007-.163.246-.247.367-.103 0 0 .148-.302-.23-.303 0 0 .165-.224.014-.401-.224.05-.23.329-.23.329-.31-.21-.363.102-.363.102.181-.041.319.183.247.303-.024.038-.072.115-.347.09a.88.88 0 01-.299-.08l-.126-.25.394.163v-.524l-.394.156.178-.35h-.14c.087-.19.2-.374.219-.425.021-.057.093-.1.209-.057.114.043.95.305 1.318.886.05.079-.122.496-.331.577zm-1.805-.177a.943.943 0 01-.301.08c-.276.026-.324-.051-.348-.09-.07-.12.065-.343.248-.302 0 0-.055-.312-.364-.102 0 0-.007-.279-.23-.329-.15.177.015.4.015.4-.38.002-.23.304-.23.304.121-.144.373-.06.366.103-.004.094-.276.192-.487.113-.208-.08-.38-.498-.331-.577.371-.58 1.205-.843 1.319-.886.116-.044.189 0 .21.057.02.05.132.235.219.425h-.141l.19.357-.407-.163v.524l.407-.172-.135.258zm2.698-.587a3.498 3.498 0 00-2.298-1.265l-.092-.205.238.113v-.36l-.238.108.108-.239h-.359l.117.243-.247-.111v.359l.247-.117-.092.2c-.618.026-1.553.37-2.304 1.274-.038.043-.074.158-.017.222.058.066.095.08.151.14.059.056.232.424.268.524.035.1.043.247.043.247 0-.001-.023.184.05.258.057.057.173.05.194.088.023.036.015.085.175.05.159-.038.802-.285 1.595-.282.794.002 1.437.244 1.597.282.16.035.152-.014.173-.05.02-.039.136-.031.193-.088.075-.074.051-.258.051-.258 0-.001.008-.146.044-.247.037-.1.21-.468.268-.525.057-.06.094-.073.149-.139.058-.064.021-.179-.014-.222z" fill="#fff"/><path fill-rule="evenodd" clip-rule="evenodd" d="M66.437 55.352h1.077v-1.598h-1.077v1.598zm-1.493 0h1.08v-1.598h-1.08v1.598zm-1.493 0h1.08v-1.598h-1.08v1.598zm0-2.069h1.08v-1.607h-1.08v1.607zm2.023-1.607h.55v1.607h-1.08v-1.607h.53zm.963 1.607h1.077v-1.607h-1.077v1.607zm-.93-2.081h-3.494v.348s.345-.004.644.16c.243.132.349.401.38.498v3.96h-.207l.411.714.414-.715h-.204v-.344h1.08v.344h-.21l.416.715.412-.715h-.205v-.344h1.08v.344h-.206l.41.715.414-.715h-.205v-.344h1.078v.344h-.205l.411.715.414-.715h-.205v-3.966c.033-.102.139-.363.376-.491.3-.164.646-.16.646-.16v-.348h-3.446z" fill="#fff"/><path fill-rule="evenodd" clip-rule="evenodd" d="M62.275 51.675c0-.122.1-.221.22-.221a.22.22 0 11-.22.221zm-.178 0a.398.398 0 10.796 0 .398.398 0 00-.796 0z" fill="#fff"/><path fill-rule="evenodd" clip-rule="evenodd" d="M62.288 52.236c.074.012.133.018.207.029-.012.1-.039.279-.05.379-.075-.008-.135-.018-.209-.027l.052-.38zm-.164-.11l-.087.644.558.075.1-.733-.56-.075-.01.088zm.071.937l.209.007c-.002.101-.008.264-.011.365-.074-.004-.136-.004-.21-.007.004-.099.01-.264.012-.365zm-.172-.093l-.021.63.562.018.023-.72-.564-.018v.09zm.345.875l.001.384h-.207l-.003-.382c.075 0 .135 0 .21-.002zm.087-.178l-.475.004.005.737.564-.003-.005-.74-.089.002zm-.318.956c.075.008.136.013.21.022-.012.1-.031.28-.041.38a6.604 6.604 0 01-.207-.02c.01-.101.03-.28.038-.382zm-.166-.107l-.068.646.56.06.078-.735-.56-.059-.01.088zm.051.904l.2.05c-.022.1-.064.273-.088.372-.07-.018-.13-.03-.203-.048l.09-.373zm-.154-.127l-.151.633.55.13.17-.718-.548-.132-.02.087zm-.08.897l.184.097-.179.34-.183-.097c.047-.092.13-.25.178-.34zm-.116-.161l-.304.575.5.261.343-.651-.497-.264-.042.079z" fill="#fff"/><path fill-rule="evenodd" clip-rule="evenodd" d="M61.183 57.084a.221.221 0 11.441.001.221.221 0 01-.44-.001zm-.178 0a.4.4 0 00.398.399.398.398 0 000-.797c-.22 0-.398.18-.398.398zm7.494-5.188a.222.222 0 010-.442c.12 0 .222.099.222.221s-.101.22-.222.22zm0-.618a.397.397 0 10.003.795.397.397 0 00-.003-.795z" fill="#fff"/><path fill-rule="evenodd" clip-rule="evenodd" d="M68.758 52.617c-.072.01-.133.019-.206.027-.014-.1-.039-.278-.051-.379.073-.011.132-.017.207-.029l.05.381zm.103-.58l-.562.075.101.733.558-.075-.086-.645-.01-.088zm-.049 1.391c-.075.003-.136.003-.209.007a22.24 22.24 0 01-.012-.365l.208-.007c.002.101.01.266.013.365zm.16-.548l-.563.018.022.72.563-.018-.019-.63-.004-.09zm-.136.967c-.002.102-.004.28-.004.382h-.208l.002-.384c.074.002.135.002.21.002zm-.386-.181l-.005.739.564.003.006-.737-.477-.004-.088-.001zm.45 1.339a8.691 8.691 0 01-.21.02c-.01-.1-.03-.28-.042-.38.075-.009.134-.014.21-.022.009.101.028.28.041.382zm.115-.577l-.56.06.077.734.56-.06-.066-.646-.01-.088zm.046 1.366l-.201.048-.091-.373c.073-.016.134-.031.205-.049.024.1.065.275.087.374zm.044-.588l-.55.132.173.718.548-.13-.15-.633-.021-.087zm.28 1.324l-.183.096c-.047-.09-.131-.247-.178-.339l.184-.096.177.339zm-.102-.58l-.501.264.344.651.5-.261-.303-.575-.04-.079z" fill="#fff"/><path fill-rule="evenodd" clip-rule="evenodd" d="M69.592 57.305a.219.219 0 01-.219-.221c0-.122.097-.22.22-.22a.22.22 0 01.22.22.22.22 0 01-.22.22zm0-.619a.399.399 0 000 .797.399.399 0 000-.797zM54.835 57.79l.537.246.392.16.69.285c-.055-.19-.037-.33-.037-.33s.212.13.413-.099c.2-.23.014-.599-.313-.914-.328-.313-.714-.356-1.184-.185-.313.115-.548.397-.71.717.066.04.136.08.212.12z" fill="#fff"/><path fill-rule="evenodd" clip-rule="evenodd" d="M60.452 63.245c-.17-.014-.357-.043-.413.015 0 0-.043-.4.042-.557.086-.158.072-.272.2-.286 0 0-.358-.185-.486 0-.127.186-.198.4-.198.529 0 0-.116.156-.172.156 0 0 .029.314.042.599.014.285-.042.643-.156 1.04-.115.4-.442.943-.542 1.058-.074.083-.194.191-.264.117a.49.49 0 01-.052-.296c.014-.216.092-.464.144-.83.13-.265.27-.565.363-.824.181-.508.528-1.074.345-2.33-.182-1.255-1.365-2.111-1.693-2.366-.183-.143-.498-.297-1-.511-.392-.167-.9-.371-1.547-.635a6.508 6.508 0 01-.55-.253c-.977-.511-1.135-.993-1.194-1.268-.07-.312.205-1.048 1.225-1.095 1.019-.048 1.692.617 1.926.898.234.281.43.701.684 1.02.252.318.822.438.822.438.235.403.692.768.815.852.066.046.15.144.22.228l.054.07a.262.262 0 00-.018-.027c.044.048.079.09.097.104.056.038.114-.122.114-.27a.75.75 0 00-.103-.394c-.066-.104-.207-.535-.254-.655a3.537 3.537 0 01-.097-.348l-.004-.017s.127-.482-.375-1.141c-.356-.468-.939-.64-1.169-.758-.233-.122-.88-.54-1.272-.7-.394-.16-1.096-.394-1.721-.347-.626.046-1.59.318-2.002 1.44-.38 1.03.096 1.824.306 2.31.435-.216.841-.121 1.119-.057.388.09.853.295 1.131.497.387.282.474.73.474 1.078 0 .22-.035.4-.051.47-.054.238-.23.383-.367.467.042.054.085.111.128.197a.88.88 0 01.073.218c.288-.107.722-.134 1.245-.153l.29-.013a.141.141 0 01.146.133.136.136 0 01-.13.144l-.297.011c-.436.017-1.094.04-1.293.2l-.273.218.05-.347a.529.529 0 00-.058-.287.936.936 0 00-.182-.258l-.168-.15.21-.082c.002-.002.303-.122.357-.358.02-.092.187-.9-.316-1.266-.247-.179-.682-.369-1.032-.45-.38-.089-.903-.21-1.434.462-.916 1.164-1.387 2.15-1.44 3.018a3.908 3.908 0 00-.006.21c0 .797.285 1.287.54 1.723l.18.321c.244.473 1.034 2.353 1.481 4.716l.013.067c.034.179.069.362.099.463.433-.43 2.715-2.954 2.967-4.024l.01-.045.035-.03a2.764 2.764 0 00.797-2.755.139.139 0 01-.004-.034.14.14 0 01.104-.134.139.139 0 01.168.1c.07.28.1.544.1.79 0 1.284-.81 2.082-.955 2.217-.211.778-1.257 2.112-2.082 3.066.054.262.036.405.036.552 0 .165.087.445.15.636l.037.107c.055.17-.06 1.196-.115 1.482-.058.287-.581.719-.828.898-.157.115-.113.23-.085.285 0 0 .199-.184.441-.17.244.014.484-.072.828.13.342.198.532.297.6.541.042.156.07.271.07.271s.243-.286.255-.472c0 0 .516-.328.801-.356.284-.028.627.071.655.23 0 0 .036-.309-.156-.502a3.913 3.913 0 00-.229-.199s.157-.127.257-.026c0 0-.028-.303-.17-.316-.142-.015-.77-.015-1-.015-.226 0-.67-.084-.769-.355-.1-.27-.027-1.3.099-1.412a.213.213 0 01.137-.06c.072-.006.126.031.135.06 0 0 .084-.301.2-.414.084-.085.594-.682.885-1.409.537.01 1.002-.075 1.353-.303.485-.314.942-.598 1.17-.527 0 0 .071-.385-.158-.485 0 0 .414-.613.543-.913.127-.3.329-.3.313-.143-.014.158-.142.784.657.714 0 0-.143-.129-.157-.3-.014-.171-.186-1.54-.072-1.826.114-.285.286-.726.4-.755.113-.029.186-.014.243.043 0 0-.102-.285-.272-.3zm-9.855 2.695c-.606.631-.87.888-.997 1.08 0 0-.203.153-.102.24.099.09.8.223 1.47.167-.338.418-.778 1.132-.871 1.654-.11.6.217 1.182.508 1.273a.705.705 0 00.793-.238c.29-.344.41-1.236.41-1.236s.463.011.86.002c-.38-1.979-1.04-3.733-1.374-4.446a2.484 2.484 0 01-.697 1.504zm13.609-13.484a1.51 1.51 0 00-.101.082c-.033.029-.081.044-.111.074-.029.03-.044.075-.072.11-.024.033-.029.082-.051.116-.024.041-.052.075-.07.116-.02.044-.02.09-.034.133-.003.014-.008.027-.012.04h.623v-.772a.22.22 0 01-.047.051c-.037.023-.088.025-.125.05zm-.36 1.47c.024.035.076.048.104.08.024.03.055.057.085.087.028.03.051.065.084.092.032.027.068.049.104.075.033.025.048.083.086.104.017.013.043.015.07.017v-.478h-.535c.001.007 0 .019.002.024zm1.25.722h.005c.052.264.062.396.013.547h.505c0-.155.058-.342.24-.563a.036.036 0 01.013-.004v-.725h-.776v.745zm.546-2.562c-.047-.003-.093-.02-.14-.02-.034 0-.067.015-.102.017-.038.002-.08-.03-.118-.027-.039.003-.075.036-.111.041a.41.41 0 01-.075 0v1.03h.776v-1.05c-.027-.018-.054-.038-.083-.04-.047-.007-.098.051-.147.05zm.947 2.295c.03-.019.066-.032.096-.053.04-.023.081-.041.115-.066.035-.028.09-.032.12-.062.035-.03.039-.087.07-.119.03-.03.06-.061.083-.095.026-.034.084-.047.104-.083h-.588v.478zm.668-1.373c-.014-.035-.043-.068-.06-.104-.018-.035-.067-.05-.09-.085-.022-.034-.008-.092-.034-.125-.023-.032-.064-.054-.093-.084-.03-.029-.077-.038-.11-.064-.031-.027-.068-.05-.1-.074-.036-.026-.065-.054-.102-.077-.029-.017-.052-.035-.08-.052v.784h.672c-.006-.038.01-.083-.004-.119zM52.94 74.575h.566v.148h-.389v.187h.337v.137h-.337v.334h-.177v-.806zm1.03.672c.158 0 .218-.135.218-.27 0-.14-.06-.276-.219-.276-.16 0-.219.136-.219.276 0 .135.06.27.22.27zm0-.693c.248 0 .395.184.395.423 0 .234-.147.419-.396.419-.25 0-.396-.185-.396-.419 0-.239.146-.423.396-.423zm.69.386h.195c.079 0 .12-.035.12-.115 0-.078-.041-.112-.12-.112h-.195v.226zm-.177-.365h.434c.145 0 .237.1.237.223 0 .095-.039.165-.128.2V75c.086.024.11.108.116.189.005.052.003.145.034.192H55c-.02-.052-.02-.129-.028-.194-.013-.084-.045-.123-.135-.123h-.177v.317h-.177v-.806zm1.305.149h-.24v-.15h.658v.15h-.24v.657h-.178v-.657zm.51-.149h.176v.308h.326v-.308h.178v.806H56.8v-.349h-.326v.349h-.176v-.806zm.835 0h.601v.148h-.424v.173h.39v.138h-.39v.198h.434v.149h-.61v-.806zm1.481.505l.092.082a.308.308 0 00.05-.185c0-.14-.06-.276-.22-.276-.158 0-.217.136-.217.276 0 .135.059.27.217.27.028 0 .06 0 .072-.011l-.076-.068.082-.089zm.232.37l-.113-.101a.399.399 0 01-.197.047c-.248 0-.395-.185-.395-.419 0-.239.147-.423.395-.423.25 0 .398.184.398.423a.44.44 0 01-.107.296l.1.092-.081.086zm.888-.374c0 .217-.127.323-.343.323-.216 0-.342-.105-.342-.323v-.501h.177v.5c0 .089.022.175.166.175.125 0 .167-.054.167-.174v-.501h.175v.5zm.153-.501h.602v.148h-.426v.173h.39v.138h-.39v.198h.436v.149h-.612v-.806zm.73 0h.601v.148h-.426v.173h.391v.138h-.39v.198h.435v.149h-.611v-.806zm.73 0h.176l.336.54h.002v-.54h.165v.806h-.178l-.334-.539h-.002v.539h-.165v-.806zm.825.631h.177v.174c0 .103-.08.173-.176.187v-.083c.047-.006.082-.055.08-.104h-.081v-.174zm.813-.482h-.241v-.15h.66v.15h-.24v.657h-.179v-.657zm.51-.149h.177v.308h.326v-.308h.177v.806h-.177v-.349h-.326v.349h-.177v-.806zm.835 0h.602v.148h-.426v.173h.391v.138h-.39v.198h.433v.149h-.61v-.806zm1.041 0h.178v.657h.393v.149h-.57v-.806zm.873.493h.207l-.1-.294h-.002l-.105.294zm.017-.493h.18l.3.806h-.183l-.06-.18h-.302l-.062.18h-.179l.306-.806zm1.297.805h-.175l-.136-.549h-.004l-.134.55h-.18l-.21-.806h.173l.128.547h.004l.14-.547h.164l.138.555h.002l.132-.555h.175l-.217.806zm.202-.174h.18v.174c0 .103-.08.173-.178.187v-.083c.048-.006.084-.055.082-.104h-.084v-.174zm.841-.138h.207l-.099-.294h-.004l-.104.294zm.017-.493h.181l.301.806h-.183l-.061-.18h-.3l-.065.18h-.18l.307-.806zm.552 0h.176l.335.54v-.54h.167v.806h-.177l-.333-.539h-.004v.539h-.165v-.806zm1.01.657h.16c.103 0 .2-.063.2-.242 0-.162-.058-.266-.232-.266h-.128v.508zm-.176-.657h.346c.209 0 .366.131.366.398 0 .234-.12.408-.366.408h-.346v-.806zm1.326.149h-.241v-.15h.66v.15h-.243v.657h-.176v-.657zm.51-.149h.176v.308h.327v-.308h.176v.806h-.176v-.349h-.327v.349h-.177v-.806zm.833 0h.602v.148h-.424v.173h.39v.138h-.39v.198h.434v.149h-.612v-.806zm1.222.378h.136c.083 0 .157-.017.157-.12 0-.102-.074-.12-.157-.12h-.136v.24zm-.177-.378h.361c.202 0 .279.127.279.258s-.077.26-.279.26h-.184v.288h-.177v-.806zm.752 0h.6v.148h-.425v.173h.391v.138h-.392v.198h.435v.149h-.61v-.806zm1.088.672c.159 0 .219-.135.219-.27 0-.14-.06-.276-.22-.276-.158 0-.218.136-.218.276 0 .135.06.27.219.27zm0-.693c.25 0 .397.184.397.423 0 .234-.147.419-.397.419-.249 0-.395-.185-.395-.419 0-.239.147-.423.395-.423zm.694.399h.137c.081 0 .156-.017.156-.12 0-.102-.075-.12-.156-.12h-.137v.24zm-.177-.378h.362c.2 0 .278.127.278.258s-.078.26-.278.26h-.185v.288h-.177v-.806zm.75 0h.177v.657h.392v.149h-.57v-.806zm.668 0h.604v.148h-.427v.173h.39v.138h-.39v.198h.433v.149h-.61v-.806z" fill="#fff"/><path fill-rule="evenodd" clip-rule="evenodd" d="M52.548 75.908h25.85v-1.862h-25.85v1.862zm25.986-2.136H52.272v2.413H78.67v-2.413h-.137zm1.6-6.342l-.288-.026.184.225c.354.437.761 1.126.847 1.598.102.555-.215 1.067-.424 1.133a.585.585 0 01-.662-.198c-.216-.261-.349-.937-.382-1.174l-.014-.11-.112.003c-.006 0-.462.01-.846.001.351-1.78.925-3.365 1.268-4.147.08.48.271.961.705 1.413l.374.39c.344.357.518.536.607.675l.012.015.017.015c.028.017.043.041.059.062-.139.06-.715.175-1.345.124zm-4.152-9.296l-.383.156-.856.35c.041-.124.062-.235.062-.303a.35.35 0 00-.005-.078l-.026-.18-.157.089c-.021.012-.14.066-.26-.074-.146-.169.047-.495.307-.743.284-.273.61-.32 1.056-.16.268.1.509.374.679.75a64.47 64.47 0 01-.417.193zm-4.053 5.765l.09.231s.32.729.357.82l.08.43.06.372.008.03-.008.09-.01.05a.475.475 0 01-.09-.082c-.08-.093-.403-.614-.514-1.008a3.396 3.396 0 01-.156-.918c0-.028.002-.056.004-.083l.023-.362c.05.155.104.3.156.43zm9.818 3.427v-.01c-.003-.118-.107-.21-.157-.25-.105-.156-.281-.34-.629-.698l-.374-.39c-.484-.504-.648-1.037-.685-1.65l.133-.237c.28-.48.629-1.079.57-2.08-.058-.923-.546-1.956-1.497-3.164a1.838 1.838 0 00-.478-.439c.04-.088.085-.195.085-.195.163-.352.38-.828.38-1.407 0-.255-.04-.531-.15-.825-.444-1.218-1.512-1.476-2.107-1.52-.66-.05-1.397.202-1.777.356-.272.11-.647.333-.952.514l-.329.19-.17.078c-.294.127-.738.317-1.04.717-.353.461-.414.849-.414 1.063 0 .073.006.117.01.147-.003.015-.09.326-.09.326l-.06.16a4.313 4.313 0 01-.181.472.842.842 0 00-.124.459c0 .113.03.319.147.382a.15.15 0 00.156-.008l.106-.107.003.004.054-.07.195-.203c.138-.096.57-.45.817-.845.123-.03.601-.16.847-.47l.35-.528.33-.49c.176-.211.83-.9 1.827-.853.533.023.81.244.95.425.12.156.167.326.167.446a.413.413 0 01-.005.074c-.044.192-.142.636-1.03 1.129-.141-.307-.396-.712-.82-.87-.532-.19-.962-.122-1.312.215-.427.407-.55.822-.321 1.082a.46.46 0 00.374.175.863.863 0 01-.113.34c-.558.236-.846.385-1.028.524l-.05.04c-.412.318-1.509 1.16-1.688 2.406a4.672 4.672 0 00-.054.69c0 .254.028.461.068.655-.024-.027-.061-.063-.073-.079a1.25 1.25 0 00-.208-.535c-.187-.269-.597-.064-.643-.041l-.135.13.186.103c0 .006.03.071.03.071l.067.15c.028.052.04.165.04.28 0 .024-.005.041-.005.063a2.346 2.346 0 00-.23.01l-.077.008c-.245.02-.365.344-.377.38l.084.032c.023.015.13.058.222.08.084.057.248.47.32.647l.015.041c.057.144.035.687-.061 1.622l-.016.149a.403.403 0 01-.118.218l-.206.188.276.026c.294.025.51-.034.649-.174a.65.65 0 00.159-.457c0-.052-.005-.091-.009-.13a.473.473 0 01.07.118c.103.237.368.65.486.834-.093.102-.123.252-.123.383 0 .057.005.11.012.153l.026.136.133-.041c.183-.057.715.285 1.067.513.335.217.775.323 1.343.323.302.706.788 1.286.877 1.372.065.067.137.257.168.36l.078.277.138-.243c.032-.004.091.026.091.026.082.115.003 1.033-.077 1.28.074.019.175.058.26.078.086-.323.164-1.382-.019-1.543l-.214-.091c-.022-.002-.045.009-.069.013a.957.957 0 00-.182-.331 4.803 4.803 0 01-.86-1.367l-.031-.079-.085.002c-.555.01-.975-.084-1.284-.284-.48-.31-.854-.534-1.124-.552l-.001-.003c0-.094.019-.209.093-.241l.137-.057-.081-.124c-.006-.005-.412-.608-.532-.894-.12-.277-.291-.342-.403-.314-.078.019-.148.09-.148.205v.027l.005.04c.004.039.01.093.01.154 0 .1-.016.212-.088.285-.049.05-.128.075-.22.09a.52.52 0 00.04-.156l.016-.144c.05-.468.095-.958.095-1.307 0-.194-.014-.345-.047-.43l-.016-.042c-.213-.527-.323-.752-.468-.787-.003-.003-.006-.002-.008-.002.005-.002.01-.013.015-.013l.083-.007a.855.855 0 01.244-.006l.175.13.024-.213c.004-.032.013-.123.013-.231 0-.134-.013-.296-.068-.398l-.053-.118c-.007-.019-.02-.036-.028-.054.067-.014.132-.018.156.016.115.168.177.358.177.458v.04l.024.033c.058.079.103.12.143.15-.008.12-.04.526-.04.526v.096c0 .272.054.604.163.986.118.412.458.976.567 1.103.108.122.205.184.297.185l.151-.061.081-.222-.003-.203v-.01l.007.044-.068-.407-.082-.447-.007-.022-.356-.813-.093-.24c-.176-.443-.399-.995-.246-2.03.165-1.147 1.202-1.945 1.592-2.246l.054-.04c.16-.125.441-.268.97-.495l1.164-.479.385-.156.56-.258c.964-.504 1.178-.986 1.257-1.35.035-.162.004-.449-.206-.722-.172-.222-.505-.493-1.134-.522-1.08-.05-1.778.642-2.028.942l-.348.518-.336.502c-.222.28-.747.395-.753.397l-.053.011-.028.048c-.22.382-.669.737-.775.811l-.246.25s-.013.014-.02.026c-.004-.023-.01-.045-.01-.071 0-.124.03-.243.086-.327.048-.081.12-.276.206-.522l.056-.154.113-.395-.005-.045a.481.481 0 01-.012-.125c0-.17.05-.499.365-.911.264-.346.67-.523.941-.638l.188-.086.341-.197c.279-.167.663-.394.918-.498.36-.146 1.056-.382 1.666-.338.536.04 1.495.269 1.895 1.36.319.868.006 1.546-.224 2.044l-.082.187c-.39-.148-.749-.064-1-.006a3.463 3.463 0 00-1.125.495c-.382.276-.468.72-.468 1.065 0 .22.035.399.05.468.055.24.239.384.374.465-.042.055-.09.117-.135.208a.907.907 0 00-.076.237c-.313-.122-.804-.147-1.256-.164l-.292-.012s-.09-.016-.108.104c-.016.127.095.142.095.142l.295.012c.439.016 1.1.04 1.303.203l.247.195-.048-.31c0-.001-.02-.138.06-.298.088-.17.184-.26.184-.26l.152-.134-.188-.074c-.003-.002-.31-.123-.367-.37-.018-.09-.188-.907.322-1.278.25-.182.687-.372 1.038-.455.384-.089.912-.211 1.448.469.919 1.166 1.39 2.156 1.444 3.024.004.074.006.145.006.214 0 .8-.287 1.292-.542 1.729l-.179.32c-.242.473-1.035 2.351-1.48 4.712l-.013.066c-.04.205-.075.395-.109.486-.363-.35-2.733-2.965-2.986-4.045l-.01-.041-.03-.025a2.781 2.781 0 01-.896-2.033c0-.23.028-.474.092-.739 0 0 .027-.105-.09-.13-.115-.028-.148.071-.148.071-.07.279-.1.54-.1.784 0 1.29.82 2.088.956 2.21.197.743 1.167 1.995 1.972 2.94l-.012.036c-.064.264-.06.427-.053.558l.002.094c0 .16-.106.476-.144.595l-.013.04-.022.067a.756.756 0 00-.022.23c0 .402.088 1.084.134 1.224.072.243.335.432.338.44.116.033.056-.163.148-.133-.045-.065-.15-.194-.2-.348-.055-.153-.174-.896-.174-1.203 0-.064 0-.11.008-.133l.035-.105c.08-.237.158-.5.158-.674l-.002-.102a1.833 1.833 0 01-.004-.107c0-.066.01-.149.025-.242.5.573.898.985.94 1.013.08.055.148.044.19.025.135-.057.172-.243.257-.69.292.009.626.003.792.001.042.252.17.89.42 1.19.242.29.57.388.924.276.316-.098.616-.602.616-1.153 0-.087-.006-.172-.023-.26-.084-.461-.418-1.055-.743-1.498.58.009 1.174-.093 1.303-.208a.202.202 0 00.068-.15z" fill="#fff"/><path fill-rule="evenodd" clip-rule="evenodd" d="M65.365 60.141l-.247-.1v.32l.247-.105-.08.158a.546.546 0 01-.186.05c-.169.017-.198-.032-.212-.056-.045-.073.038-.21.15-.184 0 0-.034-.192-.222-.065 0 0-.003-.22-.143-.25-.09.107.009.295.009.295-.231 0-.139.187-.139.187.074-.088.229-.036.225.062-.001.058-.17.119-.298.07-.13-.048-.235-.356-.205-.405.228-.357.738-.519.81-.544.07-.026.115 0 .128.034.013.03.08.198.134.315h-.087l.116.218zm.134-.005l.11-.214h-.084c.051-.116.12-.283.132-.314.014-.034.057-.06.13-.034.069.025.581.187.809.544.03.049-.079.357-.205.405-.127.049-.295-.012-.3-.07-.003-.098.153-.15.225-.062 0 0 .093-.187-.14-.187 0 0 .103-.136.01-.246-.138.032-.142.201-.142.201-.188-.127-.224.065-.224.065.113-.027.197.11.154.184-.016.024-.045.073-.215.056a.539.539 0 01-.182-.05l-.078-.153.242.1v-.32l-.242.096zm-1.58-.133c-.02.025-.043.097-.008.136.034.04.057.05.093.085.035.036.14.647.162.71.024.063.027.151.027.151s-.013.115.031.16c.036.036.106.03.12.052.013.023.008.054.107.032.098-.023.493-.174.979-.174.487.002.882.15.978.174.098.022.095-.01.107-.032.014-.022.084-.016.12-.052.044-.045.03-.16.03-.16s.006-.088.026-.15c.024-.064.13-.675.164-.711.036-.034.058-.045.093-.085.036-.04.014-.11-.01-.136a2.139 2.139 0 00-1.409-.775l-.057-.127.147.068v-.22l-.147.068.068-.147h-.22l.07.149-.15-.07v.22l.15-.07-.056.12c-.379.018-.953.23-1.415.784zm2.976 10.4c.277-.259.28-.424.28-.424-.098-.099-.458-.155-.458-.155.1.19-.136.337-.136.337.299.013.314.243.314.243zm-3.031-.445c.02.136.282.395.282.395.03-.214.305-.192.305-.192-.234-.189-.113-.383-.113-.383-.373.046-.474.18-.474.18zm1.65-.573c.107-.278.332-.224.332-.224-.161-.34-.32-.395-.32-.395-.123.061-.288.39-.288.39.212-.038.277.23.277.23zm-1.055 2.016c-.069.37.025.507.025.507.137.02.464-.146.464-.146-.195-.095-.09-.35-.09-.35-.251.164-.399-.01-.399-.01zm5.76-8.635a.333.333 0 00.152-.124.37.37 0 00-.01-.198c-.17-.42-.726-.425-.726-.425-.071-.114-.219-.053-.219-.053a2.078 2.078 0 00-.977-.538c-.14-.181-.318-.081-.318-.081-.385-.169-.78-.344-1.168-.52l-.036.168c-.006.029-.013.049-.02.074l.004.056a.44.44 0 01-.067.24c.357.156.717.315 1.066.473 0 0 .047.198.276.181 0 0 .434.333 1.054.365 0 0 .052.152.186.129 0 0 .376.41.803.253zm8.815 9.966c-.236-.207-.65-.414-.889-.68-.088-.1-.415-.216-.81-.335-.01-.003-.02-.01-.028-.014a6.427 6.427 0 00-.492-.15c.107.285.572.672.803.838.157.115.116.228.086.286 0 0-.199-.184-.443-.17-.242.012-.483-.072-.827.127-.34.2-.532.297-.598.542l-.072.27s-.242-.285-.257-.47c0 0-.513-.327-.798-.357-.285-.026-.628.072-.657.228 0 0-.034-.305.159-.499.084-.085.227-.199.227-.199s-.157-.129-.256-.028c0 0 .029-.3.169-.314.143-.014.772-.014 1-.014.229 0 .67-.087.77-.358a.245.245 0 00.015-.056 28.08 28.08 0 01-.27-.07 2.457 2.457 0 01-.321-.115c-.445-.207-1.243-.237-1.689-.267l-.127-.037-.007-.95-.122-.013c-.576-.06-1.363.016-1.872.38l-.027-.009h-.002c-.389-.109-.816-.182-1.45-.346a16.071 16.071 0 00-.282-.088 6.167 6.167 0 001.262-3.04l-.246.003c-.494 3.801-4.3 5.416-5.417 5.664-1.147-.256-5.114-1.938-5.47-5.919h-.239c.12 1.389.66 2.51 1.375 3.395-.555.08-1.3.245-1.574.31a2.305 2.305 0 00-.273.086l-.042.013c-.449-.473-1.342-.625-2.005-.526l-.118.016-.005 1.155c-.478.018-.935.007-1.137.023-.19.017-.503.152-.796.28.121.068.305.11.46.11l1.02.016c.22.021.322.266.343.488l.028.301a.99.99 0 01.103.382c0 .043-.002.074-.002.083l-.114.331-.258-.295c-.038-.045-.242-.115-.458-.093-.16.015-.462.175-.655.292a1.595 1.595 0 01-.272.468l-.241.28-.163-.624c-.04-.147-.147-.216-.454-.393l-.057-.034c-.207-.12-.358-.113-.534-.104l-.208.002c-.129-.01-.258.083-.3.12l-.189.172-.114-.228c-.098-.194-.042-.391.145-.527.101-.073.203-.156.3-.242l-.07.016c-.293.059-1.005.502-1.419.651-.414.147-1.036.473-1.005.68.029.206.48.956 1.013 1.103.066.017.125.032.182.045v-.448h2.873c1.562-.316 3.257-.892 3.406-1.658 0 0-.539-.288-1.147-.233v-1c-.002 0-.004 0-.006.002l.007-.873c.516-.05 1.165.055 1.546.358l.021.02c.046.053.224.277.224.418v2.795s-.031.073-.1.17h1.91v-.003h10.532l-.007-.013.052.017h.081c-.067-.098-.096-.171-.096-.171V70.91c0-.086.064-.201.126-.29.375-.346 1.07-.463 1.663-.424l.002.613h-.002v1.176c-.608-.055-1.147.233-1.147.233.15.766 1.846 1.342 3.406 1.658h2.85v.668c.075-.043.141-.086.193-.134v.002c.362-.19.662-.684.731-.908.09-.281-.209-.565-.447-.772zm-11.916-12.88l.017.05 2.746-1.366c.27-.127.43-.425.43-.425s-.331-.063-.6.066c-.116.054-1.455.658-2.95 1.333.126.102.249.211.357.343zm-5.21-1.06c-.092-.012-.146-.176-.043-.245 0 0-.19-.117-.214.131 0 0-.136-.12-.261-.033.018.151.2.17.2.17-.168.185.046.247.046.247-.016-.122.14-.19.21-.131.07.057.021.218-.066.303a.334.334 0 01-.362.066c-.202-.09-.26-.402-.128-.696.13-.296.4-.46.604-.372.106.05.188.18.192.31.008.121-.088.263-.179.25zm1.34.27c-.033-.146-.165-.06-.165-.06-.175-.24-.494-.322-.494-.322a.55.55 0 00-.189-.152c-.034-.247-.17-.46-.388-.557-.325-.145-.72.016-.943.363a.227.227 0 00-.09-.07c-.107-.049-.226-.011-.268.081-.04.094.011.209.118.256a.21.21 0 00.113.02c-.11.396.036.8.362.943.219.099.468.055.675-.086a.556.556 0 00.238.04s.274.182.57.15c0 0 .022.156.155.084 0 0 .194.251.488.172l.25.103.06-.174c.117-.14.239-.257.36-.356-.25-.118-.396-.19-.396-.19-.139-.27-.455-.245-.455-.245zm-2.18 3.672a.317.317 0 00.158-.149c.067.01.154.01.25-.01.108-.021.886-.362 1.257-.523a.014.014 0 01.004.007c.162.239.407.547.617.664.307.174.44.12.502.014.06-.104-.03-.285-.274-.407-.15-.076-.334-.24-.476-.405l-.002-.004.99-.49c-.013-.009-.027-.016-.035-.023-.02-.014-.023-.029-.03-.052a.43.43 0 01-.07-.224s0-.017.002-.033l-.018-.1-.043-.194-1.087.493c0-.002-.002-.002-.002-.002-.039-.214-.052-.459-.016-.621.06-.268-.024-.453-.143-.472-.118-.02-.249.05-.306.397-.04.237.046.62.128.898l.002.003c-.36.185-1.117.576-1.204.648a.713.713 0 00-.163.188.319.319 0 00-.216.027c-.14.066-.214.203-.167.305.049.103.202.133.342.065zm4.69 8.114a.418.418 0 01-.584-.098.42.42 0 11.685-.487.42.42 0 01-.1.585zm.962-.472c-.073-.104-.357-.004-.436.043l-.163.023-.097-.095a.139.139 0 01.01-.13c.027-.048.086-.08.154-.086.09-.007.382-.089.382-.215 0-.107-.113-.308-.297-.441-.187-.135-.408-.187-.508-.155-.122.038-.114.338-.094.428a.212.212 0 01-.038.18.15.15 0 01-.122.046l-.12-.067-.022-.158c.019-.085.032-.391-.09-.429-.101-.033-.326.013-.508.146-.187.136-.304.332-.306.436 0 .127.29.214.38.222l.143.078.025.132a.148.148 0 01-.083.1.2.2 0 01-.179-.02c-.077-.05-.359-.155-.434-.051-.064.086-.09.314-.019.529.07.221.221.393.32.425.12.041.29-.206.329-.29a.202.202 0 01.136-.123.128.128 0 01.122.035l.06.124-.074.14c-.055.05-.198.224-.198.34 0 .022.005.043.018.06.063.087.271.18.498.18h.002c.228 0 .437-.09.5-.171a.104.104 0 00.017-.062c0-.115-.136-.292-.192-.34l-.073-.15.06-.12a.137.137 0 01.125-.032.195.195 0 01.131.12c.036.087.201.338.324.298.103-.034.256-.203.327-.42.07-.218.051-.444-.01-.53zm-.113-2.66v-.548h.348c.15.2.254.398.316.549h-.664zm0-.909c.056.047.11.094.159.143h-.159v-.143zm-.217.143h-.694v-.535c.27.039.5.127.694.242v.293zm-.694.767h.693v-.549h-.693v.55zm-.22-.767h-.692v-.25c.192-.126.421-.222.693-.271v.52zm-.69.767h.69v-.549h-.69v.55zm-.22-.767h-.091c.028-.03.06-.056.092-.083v.083zm0 .767h-.6a2.47 2.47 0 01.32-.549h.28v.549zm5.315 1.243v-.97c0-.025.015-.07.099-.085l.002-.012a.2.2 0 00-.02-.08 3.62 3.62 0 01-.236-.626l-.114-2.116c0-.192.182-.447.217-.495v-.607c0-.012-.031-.034-.04-.038h-.182c-.032 0-.041.019-.041.01v.052l-.03.014-.085-.014-.027-.011s-.002-.06-.024-.064l-.208.013v.26h-.3v-.058l.007-.215-.237.003-.003.061-.027.011-.084.014-.031-.014.003-.036c-.003-.007-.012-.026-.045-.026l-.162-.002c-.028.006-.06.028-.06.04v.608l.171.275-.255.002s-.085 0-.09.014v.262h-.45v-.055l-.003-.214h-.368s-.037.006-.037-.002v.271l-.446.002v-1.033c.004-.166.146-.52.148-.514v-.642c0-.086-.085-.11-.081-.113h-.392c-.06 0-.073.04-.073.06v.208h-.138v-.279c0-.037-.033-.047-.049-.047l-.344.019v.305h-.453v-.057l-.02-.267h-.321c-.016 0-.053.008-.053.047v.279h-.135v-.207c-.001-.021-.014-.06-.076-.06l-.377-.003c-.01.004-.095.029-.095.115l-.005.621c.006.015.148.37.153.535v1.031h-.446v-.055l.004-.207-.043-.007-.37.011v.258h-.45v-.055l-.005-.221-.238-.002-.105.004s.156-.247.173-.279v-.608c0-.012-.031-.034-.043-.038h-.18c-.03 0-.04.019-.04.01v.052l-.03.014-.086-.014-.027-.011s0-.06-.025-.064l-.207.013v.26h-.3v-.058l.006-.215-.236.003-.002.06-.026.012-.085.014-.03-.014.004-.036c-.004-.007-.014-.026-.046-.026l-.164-.002c-.026.006-.059.028-.059.04v.607c.035.048.216.3.216.495v.004l-.112 2.125c-.006.015-.108.373-.235.614a.39.39 0 00-.026.09c.092.016.105.06.105.085v.971h1.68v-.287h.84c0-.097.008-.723.008-.723l.004-.014h.679v.192h-.11l.217.377.219-.377h-.109v-.192h.693v.192h-.11l.22.377.217-.377h-.108v-.192h.694v.192h-.11l.218.377.219-.377h-.11v-.192h.741a.081.081 0 01.007.027l.009.71h.837v.287h1.68zm-10.04-6.806l.242-.002v-.45c0-2.128-.01-3.661-.012-4.08h10.967c-.001.419-.01 1.952-.01 4.08v.485l.238-.008c0-2.768.013-4.65.013-4.677l.002-.122h-11.45v.122c0 .028.012 1.88.01 4.652zm6.198 9.633c.333.181.492.132.492.132.063-.12.004-.484.004-.484-.151.156-.36-.023-.36-.023.078.289-.136.375-.136.375z" fill="#fff"/><path fill-rule="evenodd" clip-rule="evenodd" d="M65.43 83.296c-10.418 0-18.864-8.446-18.864-18.865 0-10.418 8.447-18.864 18.865-18.864s18.865 8.446 18.865 18.864c0 10.419-8.447 18.865-18.865 18.865zm0-42.296C52.49 41 42 51.49 42 64.431s10.49 23.433 23.43 23.433S88.865 77.372 88.865 64.43C88.864 51.49 78.37 41 65.43 41zm35.115 20.55h2.175l-.786-3.979c-.047-.232-.093-.555-.164-.903a16.843 16.843 0 01-.114-1.69 23.653 23.653 0 01-.14 1.69c-.068.324-.115.648-.162.903l-.809 3.979zm-1.85-9.276h5.876l4.231 16.676h-4.717l-.879-4.255h-3.123l-.879 4.255h-4.718l4.209-16.677zm20.893 3.418c-.765-.255-1.319-.346-1.921-.346-2.267 0-3.261 1.64-3.261 5.388 0 3.586 1.018 5.182 3.308 5.182.741 0 1.503-.162 2.382-.579l.393 3.193c-1.41.486-2.637.716-3.885.716-4.466 0-6.986-3.1-6.986-8.558 0-5.436 2.567-8.674 6.939-8.674 1.203 0 2.382.208 3.586.648l-.555 3.03zm2.455-3.419h11.842v3.17l-3.607.3V68.95h-4.672V55.742l-3.563-.323v-3.145zm-24.037 19.47c-.424-.29-.796-.422-1.193-.422-.466 0-.879.24-1.087.654-.212.414-.306.961-.306 1.856 0 .82.084 1.266.283 1.69.205.421.603.644 1.141.644.318 0 .58-.065.897-.223v-1.88h-1.269v-.604h2.097v2.95c-.812.32-1.251.429-1.798.429-1.515 0-2.285-1.002-2.285-2.99 0-2.088.77-3.172 2.244-3.172.563 0 1.037.164 1.557.513l-.28.555zm2.141 2.917c0 1.052.33 1.6.968 1.6.629 0 .96-.556.96-1.6 0-1.036-.331-1.583-.96-1.583-.638 0-.968.547-.968 1.583zm.969-2.177c1.184 0 1.796.745 1.796 2.177 0 1.442-.612 2.187-1.797 2.187s-1.798-.745-1.798-2.187c0-1.432.613-2.177 1.799-2.177zm2.837 0l.92 3.105c.041.124.073.29.107.52.032-.23.084-.446.107-.52l.895-3.008h.804l-1.334 4.16h-1.002l-1.325-4.15.828-.107zm3.85 1.904h1.869v-.018c0-.843-.323-1.292-.908-1.292-.605 0-.947.473-.961 1.31zm.065.537c.065.83.546 1.285 1.325 1.285.282 0 .573-.058.961-.208l.149.597c-.439.148-.87.232-1.283.232-1.293 0-2.023-.82-2.023-2.227 0-1.318.663-2.12 1.775-2.12 1.076 0 1.671.745 1.671 2.077 0 .083 0 .2-.007.364h-2.568zm3.297-2.335l.786-.034v.331c.348-.273.604-.373 1.035-.373l-.09.755c-.116-.025-.175-.025-.268-.025-.262 0-.462.058-.677.215v3.282h-.786v-4.151zm2.319-.001l.771-.107v.389c.441-.282.812-.406 1.21-.406.388 0 .737.124.968.346.241.233.324.49.324 1.036v2.893h-.78v-2.72c0-.157-.006-.287-.033-.379-.058-.316-.346-.523-.736-.523-.3 0-.606.116-.944.358v3.264h-.78v-4.151zm4.183 0l.779-.091v.313c.382-.239.711-.346 1.059-.346.349 0 .672.107.886.314.058.058.1.092.167.199.432-.332.846-.496 1.276-.496.381 0 .714.132.936.363.232.248.306.48.306 1.036v2.86h-.779v-2.686a2.6 2.6 0 00-.023-.4c-.059-.313-.349-.537-.707-.537-.28 0-.529.116-.819.372v3.25h-.778v-2.668c0-.217 0-.324-.009-.407-.05-.314-.347-.547-.729-.547-.282 0-.513.09-.786.315v3.307h-.779v-4.151zm6.96 1.799h1.874v-.018c0-.843-.322-1.292-.911-1.292-.604 0-.944.473-.963 1.31zm.067.537c.067.83.547 1.285 1.327 1.285.282 0 .571-.058.961-.208l.15.597a4.07 4.07 0 01-1.286.232c-1.292 0-2.02-.82-2.02-2.227 0-1.318.663-2.12 1.773-2.12 1.076 0 1.671.745 1.671 2.077 0 .083 0 .2-.006.364h-2.57zm3.297-2.336l.769-.107v.389c.441-.282.814-.406 1.209-.406.391 0 .739.124.97.346.242.233.325.49.325 1.036v2.893h-.779v-2.72c0-.157-.01-.287-.035-.379-.059-.316-.347-.523-.737-.523-.3 0-.602.116-.943.358v3.264h-.779v-4.151zm3.783-.008h.513v-.686l.78-.125v.812h.819v.523l-.813.074v2.485c0 .158 0 .232.009.29.016.174.159.282.374.282.13 0 .255-.026.43-.083v.564a2.03 2.03 0 01-.679.114c-.324 0-.58-.089-.739-.239-.131-.141-.181-.34-.181-.696V73.16l-.513-.049v-.53z" fill="#fff"/></svg>