<svg width="320" height="120" fill="none" xmlns="http://www.w3.org/2000/svg"><path fill-rule="evenodd" clip-rule="evenodd" d="M115.088 36.547l-68.384 68.38h-1.836L0 60.062V120h59.94c33.103 0 59.939-26.835 59.939-59.938a59.736 59.736 0 00-4.791-23.515z" fill="#fff"/><path fill-rule="evenodd" clip-rule="evenodd" d="M46.704 76.627l57.249-57.25C93.004 7.539 77.339.125 59.94.125H.002v59.938h28.303l16.566 16.565h1.833zm117.172-27.728c0-8.812-3.605-14.019-13.618-14.019h-8.811l-.401.4v27.236l.401.401h8.811c10.013 0 13.618-5.207 13.618-14.018zm-5.607 0c0 6.408-2.003 9.212-7.61 9.212h-3.605l-.4-.4V40.086l.4-.4h3.605c5.607 0 7.61 2.803 7.61 9.212zm28.037 13.617v-4.005l-.401-.4h-13.217l-.401-.4V51.3l.401-.4h12.416l.401-.4v-4.006l-.401-.4h-12.416l-.401-.4v-5.608l.401-.4h13.217l.401-.401V35.28l-.401-.4H167.08l-.4.4v27.235l.4.401h18.825l.401-.4zm25.877-7.61c0-5.607-4.406-8.01-10.013-8.811-5.611-.801-7.213-1.602-7.213-4.005 0-1.602 1.205-2.804 4.809-2.804 4.406 0 5.608 1.202 5.608 3.605l.4.4h4.807l.4-.4c0-4.807-3.204-8.411-10.814-8.411-7.613 0-10.817 3.604-10.817 7.61 0 5.607 4.405 7.61 10.016 8.41 5.607.802 7.209 1.603 7.209 4.407 0 2.403-2.002 3.604-5.61 3.604-4.803 0-6.409-1.602-6.409-4.406l-.397-.4h-4.809l-.401.4c0 5.207 3.605 9.213 11.615 9.213 8.414 0 11.619-4.006 11.619-8.411zm9.212 7.61V35.281l-.401-.4h-4.806l-.401.4v27.235l.401.401h4.806l.401-.4zm29.078 0V48.097l-.401-.4h-12.416l-.401.4v4.006l.401.4h6.809l.4.4c0 3.205-2.002 5.608-6.408 5.608-5.207 0-8.01-4.005-8.01-9.612 0-5.608 2.803-9.613 8.01-9.613 4.406 0 5.607 2.003 6.408 3.605l.401.4h4.806l.401-.4c-.801-4.005-4.005-8.411-12.016-8.411-8.411 0-13.618 6.008-13.618 14.419 0 8.41 5.207 14.419 13.218 14.419 4.405 0 6.408-2.003 7.209-2.804h.401l.4 2.002.401.401h3.604l.401-.4zm3.765-27.235v27.235l.4.401h4.807l.4-.4V44.091h.401l10.817 18.424.801.401h5.607l.401-.4V35.28l-.401-.4h-4.806l-.4.4v18.424h-.401L261.047 35.28l-.801-.4h-5.608l-.4.4zM164.68 28.04V13.62l-.401-.4h-12.416l-.401.4v4.005l.401.4h6.809l.4.401c0 3.204-2.002 5.608-6.408 5.608-5.207 0-8.01-4.006-8.01-9.613 0-5.607 2.803-9.616 8.01-9.616 4.406 0 5.607 2.003 6.408 3.608l.401.4h4.806l.401-.4C163.879 4.406 160.674 0 152.664 0c-8.411 0-13.621 6.008-13.621 14.422 0 8.411 5.21 14.419 13.22 14.419 4.406 0 6.409-2.003 7.21-2.804h.4l.401 2.003.4.4h3.605l.401-.4zm24.752-13.618c0 5.607-2.804 9.613-8.01 9.613-5.207 0-8.011-4.006-8.011-9.613 0-5.607 2.804-9.616 8.011-9.616 5.206 0 8.01 4.009 8.01 9.616zm5.611 0c0-8.414-5.21-14.422-13.621-14.422-8.411 0-13.618 6.008-13.618 14.422 0 8.411 5.207 14.419 13.618 14.419 8.411 0 13.621-6.008 13.621-14.419zm24.432 0c0 5.607-2.804 9.613-8.011 9.613-5.207 0-8.01-4.006-8.01-9.613 0-5.607 2.803-9.616 8.01-9.616s8.011 4.009 8.011 9.616zm5.607 0C225.082 6.008 219.875 0 211.464 0c-8.411 0-13.618 6.008-13.618 14.422 0 8.411 5.207 14.419 13.618 14.419 8.411 0 13.618-6.008 13.618-14.419zm26.278 0c0-8.815-3.608-14.021-13.621-14.021h-8.812l-.4.4V28.04l.4.4h8.812c10.013 0 13.621-5.206 13.621-14.018zm-5.611 0c0 6.409-2.003 9.212-7.61 9.212h-3.605l-.4-.4V5.607l.4-.4h3.605c5.607 0 7.61 2.807 7.61 9.215zm-81.314 81.72v-3.999l-9.199-23.198-.401-.4h-5.2l-.398.4-9.199 23.198v3.999l.401.4h3.598l.4-.4 2-5.2.801-.401h9.997l.801.4 1.999 5.201.401.4h3.598l.401-.4zm-8.398-10.798l-.401.4h-6.799l-.401-.4 3.599-9.6h.4l3.602 9.6zm22.343-16.8l-.398.4-5.2 18.4h-.401l-3.999-18.4-.4-.4h-3.999l-.4.4v4l5.998 23.198.4.4h5.201l.397-.4 5.2-19.2h.401l5.2 19.2.401.4h5.197l.401-.4 6.001-23.198v-4l-.4-.4h-4.002l-.398.4-4.002 18.4h-.397l-5.201-18.4-.4-.4h-5.2zm43.756 27.598v-3.999l-9.199-23.198-.401-.4h-5.2l-.397.4-9.2 23.198v3.999l.398.4h3.601l.401-.4 1.999-5.2.801-.401h9.997l.801.4 2 5.201.4.4h3.598l.401-.4zm-8.398-10.798l-.401.4h-6.799l-.401-.4 3.599-9.6h.4l3.602 9.6zm34.394-8.402c0-5.597-3.999-8.398-9.597-8.398h-13.201l-.401.4v27.198l.401.4h4.8l.4-.4V85.744l.401-.4h3.999l.797.4 8.001 10.398.801.4h2.4l.398-.4v-3.999l-5.198-6.8v-.4c3.198-.8 5.999-3.601 5.999-8zm-5.598 0c0 2.8-1.602 3.602-3.999 3.602h-7.6l-.401-.4v-6.4l.401-.4h7.6c2.397 0 3.999.801 3.999 3.598zm31.516 5.601c0-8.798-3.601-13.999-13.598-13.999h-8.802l-.397.4v27.198l.397.4h8.802c9.997 0 13.598-5.2 13.598-13.999zm-5.601 0c0 6.4-1.999 9.2-7.6 9.2h-3.598l-.401-.4V73.744l.401-.4h3.598c5.601 0 7.6 2.8 7.6 9.198zm13.581-16.54a5.617 5.617 0 015.64 5.639c0 3.13-2.506 5.64-5.64 5.64a5.62 5.62 0 01-5.639-5.64 5.62 5.62 0 015.639-5.64zm0 10.493c2.663 0 4.858-2.191 4.858-4.854 0-2.663-2.195-4.854-4.858-4.854s-4.857 2.191-4.857 4.854c0 2.663 2.194 4.854 4.857 4.854zm2.82-2.505v.628l-.157.153h-.157l-.311-.153-1.567-2.192-.314-.16h-1.567l-.157.16v2.192l-.157.153h-.625l-.157-.153v-5.954l.157-.154h3.134c1.096 0 2.035.625 2.035 1.878 0 .939-.628 1.567-1.41 1.72v.158l1.253 1.724zm-1.878-4.698h-2.195l-.157.157v1.878l.157.157h2.195c.782 0 1.096-.468 1.096-1.096 0-.628-.314-1.096-1.096-1.096zm-130.38 32.765l.256.256 3.329 11.782h.256l2.561-11.782.256-.256h2.563l.253.256v2.56l-3.838 14.855-.257.256h-3.332l-.253-.256-3.332-12.291h-.257l-3.329 12.291-.256.256h-3.329l-.257-.256-3.842-14.855v-2.56l.257-.256h2.56l.259.256 2.561 11.782h.256l3.329-11.782.256-.256h3.33zm15.398 17.93h-3.073l-.257-.256v-17.415l.257-.256h3.073l.256.256v17.415l-.256.256zm4.174-17.93h3.586l.512.256 6.915 11.782h.256v-11.782l.257-.256h3.073l.256.256v17.415l-.256.256h-3.586l-.513-.256-6.914-11.782h-.257v11.782l-.256.256h-3.073l-.256-.256v-17.415l.256-.256zm18.813 0h3.585l.513.256 6.915 11.782h.256v-11.782l.256-.256h3.073l.257.256v17.415l-.257.256h-3.585l-.513-.256-6.915-11.782h-.256v11.782l-.256.256h-3.073l-.256-.256v-17.415l.256-.256zm30.85 17.93h-12.038l-.257-.256v-17.415l.257-.256h12.038l.256.256v2.56l-.256.257h-8.453l-.256.256v3.585l.256.257h7.94l.257.256v2.56l-.257.257h-7.94l-.256.256v4.098l.256.256h8.453l.256.257v2.56l-.256.256zm12.16-14.854h-4.867l-.256.256v4.098l.256.256h4.867c1.538 0 2.56-.512 2.56-2.307 0-1.791-1.022-2.303-2.56-2.303zm2.304 7.427v.256l3.332 4.355v2.56l-.256.256h-1.538l-.513-.256-5.123-6.658-.51-.257h-2.563l-.256.257v6.658l-.257.256h-3.073l-.256-.256v-17.415l.256-.256h8.453c3.586 0 6.146 1.791 6.146 5.376 0 2.82-1.791 4.611-3.842 5.124z" fill="#fff"/></svg>