<svg width="320" height="120" fill="none" xmlns="http://www.w3.org/2000/svg"><path fill-rule="evenodd" clip-rule="evenodd" d="M114.854 36.47l-68.243 68.243h-1.834L0 59.936v59.818h59.818c33.036 0 59.818-26.782 59.818-59.818a59.6 59.6 0 00-4.782-23.466z" fill="#fff"/><path fill-rule="evenodd" clip-rule="evenodd" d="M46.609 76.47l57.131-57.134C92.814 7.522 77.181.12 59.819.12H0v59.818h28.244L44.778 76.47h1.83zm116.934-27.672c0-8.793-3.596-13.99-13.591-13.99h-8.793l-.399.399v27.181l.399.4h8.793c9.995 0 13.591-5.197 13.591-13.99zm-5.597 0c0 6.395-1.997 9.192-7.594 9.192h-3.596l-.403-.4V40.006l.403-.4h3.596c5.597 0 7.594 2.797 7.594 9.193zm27.984 13.59v-3.995l-.403-.403h-13.191l-.4-.4v-6.395l.4-.4h12.392l.4-.4V46.4l-.4-.4h-12.392l-.4-.399v-5.596l.4-.4h13.191l.403-.4v-3.998l-.403-.4h-18.788l-.399.4v27.181l.399.4h18.788l.403-.4zm25.822-7.594c0-5.597-4.398-7.994-9.995-8.793-5.596-.8-7.194-1.601-7.194-3.999 0-1.598 1.198-2.797 4.797-2.797 4.395 0 5.594 1.2 5.594 3.596l.399.4h4.798l.399-.4c0-4.797-3.196-8.393-10.79-8.393-7.598 0-10.794 3.596-10.794 7.594 0 5.597 4.398 7.595 9.991 8.394 5.597.799 7.199 1.601 7.199 4.398 0 2.397-2.001 3.599-5.597 3.599-4.798 0-6.396-1.601-6.396-4.398l-.4-.4h-4.797l-.4.4c0 5.197 3.596 9.192 11.593 9.192 8.394 0 11.593-3.995 11.593-8.393zm9.193 7.594V35.207l-.4-.4h-4.797l-.4.4v27.181l.4.4h4.797l.4-.4zm29.019 0v-14.39l-.4-.399h-12.392l-.4.4v3.998l.4.4h6.795l.4.4c0 3.196-1.998 5.596-6.396 5.596-5.194 0-7.994-3.999-7.994-9.595 0-5.597 2.8-9.593 7.994-9.593 4.398 0 5.597 1.998 6.396 3.596l.399.4h4.798l.4-.4c-.8-3.998-3.996-8.393-11.993-8.393-8.394 0-13.591 5.996-13.591 14.39 0 8.393 5.197 14.39 13.191 14.39 4.399 0 6.396-1.998 7.195-2.797h.403l.4 1.997.399.4h3.596l.4-.4zm3.756-27.181v27.181l.403.4h4.794l.403-.4V44h.396l10.794 18.388.799.4h5.597l.399-.4V35.207l-.399-.4h-4.798l-.399.4v18.388h-.4l-10.791-18.388-.802-.4h-5.593l-.403.4zm-89.375-7.227V13.59l-.4-.399h-12.392l-.399.4v3.995l.399.4h6.795l.4.4c0 3.199-1.998 5.596-6.396 5.596-5.197 0-7.994-3.995-7.994-9.592s2.797-9.595 7.994-9.595c4.398 0 5.597 2 6.396 3.599l.4.4h4.797l.4-.4C163.546 4.395 160.346 0 152.352 0c-8.393 0-13.591 5.996-13.591 14.39 0 8.393 5.198 14.39 13.192 14.39 4.398 0 6.395-1.998 7.195-2.797h.399l.4 1.997.399.4h3.599l.4-.4zm24.702-13.59c0 5.596-2.797 9.592-7.994 9.592-5.197 0-7.994-3.995-7.994-9.592s2.797-9.595 7.994-9.595c5.197 0 7.994 3.998 7.994 9.595zm5.597 0c0-8.394-5.197-14.39-13.591-14.39-8.393 0-13.591 5.996-13.591 14.39 0 8.393 5.198 14.39 13.591 14.39 8.394 0 13.591-5.997 13.591-14.39zm24.384 0c0 5.596-2.799 9.592-7.994 9.592-5.197 0-7.997-3.995-7.997-9.592s2.8-9.595 7.997-9.595c5.195 0 7.994 3.998 7.994 9.595zm5.597 0c0-8.394-5.197-14.39-13.591-14.39-8.396 0-13.59 5.996-13.59 14.39 0 8.393 5.194 14.39 13.59 14.39 8.394 0 13.591-5.997 13.591-14.39zm26.222 0c0-8.796-3.599-13.99-13.591-13.99h-8.796l-.399.4v27.18l.399.4h8.796c9.992 0 13.591-5.197 13.591-13.99zm-5.597 0c0 6.396-1.997 9.192-7.594 9.192h-3.599l-.4-.4V5.595l.4-.4h3.599c5.597 0 7.594 2.8 7.594 9.196zm-81.149 81.551V91.95l-9.18-23.148-.4-.4h-5.188l-.399.4-9.18 23.148v3.992l.399.4h3.593l.396-.4 1.998-5.187.796-.4h9.979l.799.4 1.995 5.187.399.4h3.593l.4-.4zm-8.381-10.778l-.4.4h-6.786l-.399-.4 3.592-9.576h.4l3.593 9.576zm22.298-16.762l-.399.4-5.188 18.36h-.399l-3.993-18.36-.399-.4h-3.992l-.397.4v3.989l5.987 23.151.396.4h5.191l.4-.4 5.188-19.159h.399L186 95.942l.399.399h5.191l.4-.4 5.987-23.151V68.8l-.4-.399h-3.992l-.4.4-3.992 18.36h-.4l-5.187-18.36-.4-.4h-5.188zm43.667 27.54V91.95l-9.18-23.148-.4-.4h-5.191l-.396.4-9.183 23.148v3.992l.399.4h3.593l.4-.4 1.994-5.187.799-.4h9.979l.8.4 1.994 5.187.4.4h3.592l.4-.4zm-8.384-10.778l-.4.4h-6.783l-.399-.4 3.593-9.576h.396l3.593 9.576zm34.326-8.38c0-5.588-3.992-8.382-9.58-8.382h-13.172l-.396.4v27.14l.396.4h4.791l.4-.4V85.563l.399-.4h3.993l.796.4 7.984 10.378.796.4h2.397l.4-.4V91.95l-5.191-6.786v-.4c3.193-.795 5.987-3.589 5.987-7.98zm-5.587 0c0 2.793-1.596 3.592-3.993 3.592h-7.582l-.399-.4V73.59l.399-.4h7.582c2.397 0 3.993.8 3.993 3.593zm31.453 5.587c0-8.781-3.593-13.969-13.572-13.969h-8.78l-.4.4v27.14l.4.4h8.78c9.979 0 13.572-5.191 13.572-13.971zm-5.59 0c0 6.386-1.995 9.18-7.582 9.18h-3.593l-.399-.4V73.589l.399-.4h3.593c5.587 0 7.582 2.797 7.582 9.18zm13.554-16.505a5.604 5.604 0 015.628 5.628 5.606 5.606 0 01-5.628 5.629 5.606 5.606 0 01-5.628-5.629 5.604 5.604 0 015.628-5.628zm0 10.473c2.658 0 4.848-2.186 4.848-4.845 0-2.658-2.19-4.844-4.848-4.844-2.659 0-4.845 2.186-4.845 4.844 0 2.659 2.186 4.845 4.845 4.845zm2.815-2.5v.625l-.157.154h-.157l-.312-.154-1.563-2.19-.312-.157h-1.563l-.157.157v2.19l-.158.154h-.623l-.157-.154v-5.94l.157-.157h3.124c1.095 0 2.033.626 2.033 1.875 0 .94-.623 1.564-1.407 1.718v.157l1.252 1.721zm-1.878-4.692h-2.186l-.157.158v1.878l.157.157h2.186c.784 0 1.095-.472 1.095-1.098 0-.623-.311-1.095-1.095-1.095zm-126.79 50.594h-2.3l-.255-.255-.258-1.277h-.254c-.51.51-1.79 1.787-4.6 1.787-5.112 0-8.437-3.832-8.437-9.202 0-5.367 3.325-9.202 8.692-9.202 5.112 0 7.157 2.812 7.667 5.37l-.255.255h-3.067l-.255-.255c-.513-1.022-1.277-2.303-4.09-2.303-3.322 0-5.112 2.558-5.112 6.135 0 3.58 1.79 6.135 5.112 6.135 2.813 0 4.09-1.532 4.09-3.577l-.255-.255h-4.348l-.255-.258v-2.555l.255-.255h7.925l.255.255v9.202l-.255.255zm11.267-15.077c-3.323 0-5.113 2.558-5.113 6.135s1.79 6.135 5.113 6.135c3.322 0 5.112-2.558 5.112-6.135s-1.79-6.135-5.112-6.135zm0 15.337c-5.367 0-8.69-3.835-8.69-9.202s3.323-9.202 8.69-9.202c5.367 0 8.689 3.835 8.689 9.202S172.238 120 166.871 120zm23.188-.258h-11.501l-.255-.255v-17.382l.255-.254h3.067l.255.254v14.315l.255.254h7.924l.255.255v2.558l-.255.255zm8.242-14.824h-2.299l-.255.255v11.247l.255.254h2.299c3.581 0 4.858-1.786 4.858-5.876s-1.277-5.88-4.858-5.88zm-.254 14.824h-5.625l-.255-.255v-17.382l.255-.254h5.625c6.389 0 8.689 3.322 8.689 8.947 0 5.622-2.3 8.944-8.689 8.944zm30.16-17.891l.254.254 3.326 11.757h.255l2.554-11.757.258-.254h2.555l.255.254v2.558l-3.832 14.824-.258.255h-3.322l-.255-.255-3.322-12.269h-.258l-3.323 12.269-.254.255h-3.323l-.258-.255-3.831-14.824v-2.558l.254-.254h2.555l.258.254 2.555 11.757h.254l3.326-11.757.255-.254h3.322zm15.367 17.891h-3.067l-.255-.255v-17.382l.255-.254h3.067l.255.254v17.382l-.255.255zm4.167-17.891h3.577l.513.254 6.902 11.757h.255v-11.757l.255-.254h3.067l.255.254v17.382l-.255.255h-3.577l-.513-.255-6.902-11.757h-.255v11.757l-.255.255h-3.067l-.255-.255v-17.382l.255-.254zm18.773 0h3.58l.51.254 6.902 11.757h.255v-11.757l.255-.254h3.067l.255.254v17.382l-.255.255h-3.577l-.513-.255-6.899-11.757h-.258v11.757l-.255.255h-3.067l-.255-.255v-17.382l.255-.254zm30.788 17.891h-12.011l-.258-.255v-17.382l.258-.254h12.011l.255.254v2.555l-.255.258h-8.434l-.255.255v3.577l.255.258h7.924l.255.255v2.554l-.255.258h-7.924l-.255.255v4.09l.255.254h8.434l.255.255v2.558l-.255.255zm12.136-14.824h-4.858l-.255.255v4.09l.255.254h4.858c1.532 0 2.554-.509 2.554-2.299s-1.022-2.3-2.554-2.3zm2.299 7.412v.255l3.322 4.344v2.558l-.254.255h-1.533l-.512-.255-5.113-6.644-.509-.258h-2.558l-.255.258v6.644l-.255.255h-3.067l-.258-.255v-17.382l.258-.254h8.435c3.576 0 6.134 1.79 6.134 5.367 0 2.812-1.79 4.602-3.835 5.112z" fill="#fff"/></svg>