<svg width="319" height="120" fill="none" xmlns="http://www.w3.org/2000/svg"><path fill-rule="evenodd" clip-rule="evenodd" d="M147.672 112.076h-4.092l-.255.255v4.091l.255.256h4.092c1.79 0 2.556-.769 2.556-2.301 0-1.535-.766-2.301-2.556-2.301zm0-7.158h-4.092l-.255.255v3.581l.255.255h4.092c1.535 0 2.045-1.024 2.045-2.045 0-1.28-.51-2.046-2.045-2.046zm1.021 14.826h-8.69l-.255-.255v-17.382l.255-.256h8.179c2.556 0 5.113 1.28 5.113 4.602 0 1.79-.766 3.322-2.557 3.833v.255c2.046.514 3.067 2.046 3.067 4.346 0 3.581-2.556 4.857-5.112 4.857zm19.887 0h-12.012l-.258-.255v-17.382l.258-.256h12.012l.256.256v2.556l-.256.255h-8.434l-.256.255v3.581l.256.255h7.924l.255.255v2.557l-.255.255h-7.924l-.256.255v4.091l.256.256h8.434l.256.255v2.556l-.256.255zm9.892.256c-5.112 0-7.413-2.556-7.413-5.878l.255-.256h3.067l.258.256c0 1.787 1.022 2.811 4.088 2.811 2.301 0 3.578-.766 3.578-2.301 0-1.79-1.021-2.301-4.599-2.811-3.58-.511-6.392-1.79-6.392-5.368 0-2.556 2.046-4.857 6.903-4.857 4.857 0 6.903 2.301 6.903 5.368l-.259.255h-3.067l-.255-.255c0-1.535-.766-2.301-3.577-2.301-2.301 0-3.067.766-3.067 1.79 0 1.535 1.021 2.046 4.598 2.556 3.581.511 6.392 2.046 6.392 5.623 0 2.812-2.045 5.368-7.413 5.368zm23.031-15.077h-5.113l-.255.255v14.316l-.255.255h-3.067l-.259-.255v-14.316l-.252-.255h-5.112l-.259-.255v-2.556l.259-.256h14.313l.255.256v2.556l-.255.255zm9.789 14.821h-3.066l-.256-.255v-17.382l.256-.256h3.066l.256.256v17.382l-.256.255zm4.167-17.888h3.577l.514.256 6.899 11.756h.256v-11.756l.255-.256h3.067l.258.256v17.382l-.258.255h-3.578l-.51-.255-6.903-11.76h-.255v11.76l-.256.255h-3.066l-.256-.255v-17.382l.256-.256zm33.765 12.521l.255-.255h3.067l.256.255c-.511 3.577-3.323 5.623-7.411 5.623-5.623 0-8.693-3.833-8.693-9.204 0-5.367 3.07-9.2 8.693-9.2 4.088 0 6.9 2.046 7.411 5.368l-.256.255h-3.067l-.255-.255c-.51-1.535-1.79-2.301-3.833-2.301-3.58 0-5.112 2.556-5.112 6.133 0 3.581 1.532 6.137 5.112 6.137 2.043 0 3.323-.766 3.833-2.556zm17.868 5.367h-11.501l-.256-.255v-17.382l.256-.256h3.066l.256.256v14.315l.255.256h7.924l.255.255v2.556l-.255.255zm9.279-13.291h-.256l-2.301 6.134.256.255h4.346l.255-.255-2.3-6.134zm7.413 13.291h-2.301l-.255-.255-1.28-3.322-.511-.258h-6.389l-.51.258-1.28 3.322-.255.255h-2.301l-.255-.255v-2.556l5.878-14.826.255-.256h3.325l.256.256 5.878 14.826v2.556l-.255.255zm8.69.256c-5.112 0-7.413-2.556-7.413-5.878l.255-.256h3.067l.258.256c0 1.787 1.022 2.811 4.088 2.811 2.301 0 3.578-.766 3.578-2.301 0-1.79-1.021-2.301-4.599-2.811-3.58-.511-6.392-1.79-6.392-5.368 0-2.556 2.046-4.857 6.903-4.857 4.857 0 6.902 2.301 6.902 5.368l-.255.255h-3.07l-.255-.255c0-1.535-.766-2.301-3.578-2.301-2.3 0-3.066.766-3.066 1.79 0 1.535 1.021 2.046 4.598 2.556 3.581.511 6.392 2.046 6.392 5.623 0 2.812-2.045 5.368-7.413 5.368zm16.64 0c-5.113 0-7.414-2.556-7.414-5.878l.256-.256h3.067l.258.256c0 1.787 1.021 2.811 4.088 2.811 2.301 0 3.577-.766 3.577-2.301 0-1.79-1.021-2.301-4.598-2.811-3.581-.511-6.392-1.79-6.392-5.368 0-2.556 2.045-4.857 6.902-4.857s6.903 2.301 6.903 5.368l-.255.255h-3.07l-.256-.255c0-1.535-.765-2.301-3.577-2.301-2.301 0-3.067.766-3.067 1.79 0 1.535 1.022 2.046 4.599 2.556 3.58.511 6.392 2.046 6.392 5.623 0 2.812-2.046 5.368-7.413 5.368zM114.858 36.473l-68.245 68.245H44.78L0 59.942v59.817h59.82c33.038 0 59.819-26.782 59.819-59.817a59.623 59.623 0 00-4.781-23.469z" fill="#fff"/><path fill-rule="evenodd" clip-rule="evenodd" d="M46.61 76.471l57.134-57.134C92.817 7.521 77.184.12 59.82.12H0v59.82h28.247L44.78 76.47h1.831zm116.938-27.672c0-8.794-3.596-13.992-13.591-13.992h-8.794l-.4.4V62.39l.4.4h8.794c9.995 0 13.591-5.197 13.591-13.991zm-5.594 0c0 6.395-2.002 9.194-7.596 9.194h-3.6l-.4-.4V40.005l.4-.4h3.6c5.594 0 7.596 2.799 7.596 9.194zm27.979 13.59v-3.996l-.397-.4h-13.194l-.4-.4v-6.396l.4-.4h12.393l.4-.4V46.4l-.4-.4h-12.393l-.4-.4v-5.595l.4-.4h13.194l.397-.4v-3.997l-.397-.4h-18.789l-.4.4V62.39l.4.4h18.789l.397-.4zm25.823-7.595c0-5.595-4.397-7.993-9.991-8.794-5.598-.798-7.196-1.598-7.196-3.997 0-1.598 1.198-2.799 4.797-2.799 4.397 0 5.595 1.201 5.595 3.6l.4.397h4.797l.401-.397c0-4.797-3.2-8.397-10.796-8.397-7.592 0-10.792 3.6-10.792 7.596 0 5.598 4.397 7.596 9.995 8.394 5.595.8 7.196 1.6 7.196 4.397 0 2.398-1.999 3.6-5.598 3.6-4.797 0-6.395-1.599-6.395-4.398l-.4-.4h-4.798l-.4.4c0 5.198 3.6 9.194 11.593 9.194 8.396 0 11.592-3.996 11.592-8.396zm9.194 7.596V35.208l-.4-.4h-4.794l-.4.4V62.39l.4.4h4.794l.4-.4zm29.023 0V47.998l-.4-.397H237.18l-.398.397v4l.398.397h6.795l.4.4c0 3.2-1.998 5.598-6.395 5.598-5.197 0-7.996-3.996-7.996-9.594 0-5.598 2.799-9.595 7.996-9.595 4.397 0 5.598 1.999 6.395 3.6l.401.397h4.797l.4-.397c-.801-4-4-8.397-11.993-8.397-8.397 0-13.591 5.998-13.591 14.392 0 8.393 5.194 14.391 13.191 14.391 4.397 0 6.395-1.998 7.196-2.799h.4l.4 1.999.397.4h3.6l.4-.4zm3.757-27.182V62.39l.4.4h4.798l.4-.4V44.002h.397L270.52 62.39l.798.4h5.597l.401-.4V35.208l-.401-.4h-4.797l-.4.4v18.388h-.4l-10.792-18.388-.801-.4h-5.595l-.4.4zm-89.38-7.225V13.59l-.4-.4h-12.393l-.398.4v3.996l.398.4h6.798l.397.401c0 3.2-1.998 5.598-6.395 5.598-5.197 0-7.993-4-7.993-9.595 0-5.597 2.796-9.594 7.993-9.594 4.397 0 5.598 1.998 6.395 3.6l.401.397h4.797l.4-.397c-.8-4-3.996-8.397-11.993-8.397-8.393 0-13.591 5.995-13.591 14.392 0 8.393 5.198 14.391 13.191 14.391 4.397 0 6.398-2.001 7.196-2.799h.4l.4 1.998.401.4h3.596l.4-.4zm24.705-13.591c0 5.594-2.799 9.594-7.997 9.594-5.194 0-7.993-4-7.993-9.595 0-5.597 2.799-9.594 7.993-9.594 5.198 0 7.997 3.997 7.997 9.595zm5.597 0C194.652 5.995 189.455 0 181.058 0c-8.393 0-13.591 5.995-13.591 14.392 0 8.393 5.198 14.391 13.591 14.391 8.397 0 13.594-5.998 13.594-14.392zm24.383 0c0 5.594-2.798 9.594-7.993 9.594-5.197 0-7.996-4-7.996-9.595 0-5.597 2.799-9.594 7.996-9.594 5.195 0 7.993 3.997 7.993 9.595zm5.595 0C224.63 5.995 219.436 0 211.042 0c-8.396 0-13.594 5.995-13.594 14.392 0 8.393 5.198 14.391 13.594 14.391 8.394 0 13.588-5.998 13.588-14.392zm26.227 0c0-8.797-3.6-13.992-13.594-13.992h-8.794l-.4.4v27.183l.4.4h8.794c9.994 0 13.594-5.198 13.594-13.991zm-5.598 0c0 6.395-1.998 9.194-7.596 9.194h-3.596l-.401-.4V5.594l.401-.398h3.596c5.598 0 7.596 2.8 7.596 9.195zm-81.153 81.553v-3.99l-9.181-23.15-.397-.4h-5.192l-.397.4-9.181 23.15v3.99l.4.4h3.59l.4-.4 1.996-5.188.8-.4h9.979l.797.4 1.996 5.188.4.4h3.59l.4-.4zm-8.384-10.776l-.397.397h-6.786l-.4-.397 3.593-9.581h.4l3.59 9.581zm22.303-16.765l-.4.4-5.188 18.36h-.401l-3.99-18.36-.4-.4h-3.991l-.4.4v3.99l5.989 23.151.397.4h5.191l.397-.4 5.188-19.16h.4l5.188 19.16.401.4h5.188l.4-.4 5.989-23.15v-3.99l-.401-.4h-3.99l-.4.4-3.99 18.36h-.401l-5.188-18.36-.4-.4h-5.188zm43.666 27.541v-3.99l-9.181-23.15-.397-.4h-5.192l-.397.4-9.181 23.15v3.99l.4.4h3.59l.4-.4 1.996-5.188.8-.4h9.976l.8.4 1.996 5.188.4.4h3.59l.4-.4zM213.31 85.17l-.4.397h-6.786l-.4-.397 3.593-9.581h.4l3.593 9.581zm34.324-8.384c0-5.588-3.99-8.38-9.578-8.38h-13.172l-.4.4v27.14l.4.4h4.791l.397-.4v-10.38l.4-.397h3.991l.8.397 7.981 10.38.8.4h2.393l.4-.4v-3.99l-5.188-6.787v-.4c3.193-.797 5.985-3.593 5.985-7.984zm-5.585 0c0 2.796-1.598 3.593-3.993 3.593h-7.584l-.4-.4v-6.386l.4-.4h7.584c2.395 0 3.993.8 3.993 3.593zm31.453 5.589c0-8.782-3.593-13.97-13.572-13.97h-8.781l-.401.4v27.141l.401.4h8.781c9.979 0 13.572-5.19 13.572-13.971zm-5.588 0c0 6.388-1.999 9.181-7.584 9.181h-3.593l-.4-.4V73.592l.4-.4h3.593c5.585 0 7.584 2.796 7.584 9.182zm13.552-16.507a5.606 5.606 0 015.629 5.63 5.606 5.606 0 01-5.629 5.626 5.603 5.603 0 01-5.626-5.626 5.604 5.604 0 015.626-5.63zm0 10.474c2.657 0 4.848-2.187 4.848-4.844 0-2.66-2.191-4.848-4.848-4.848s-4.848 2.188-4.848 4.848c0 2.657 2.191 4.844 4.848 4.844zm2.815-2.5v.625l-.158.154h-.154l-.312-.154-1.564-2.188-.315-.157h-1.563l-.155.157v2.188l-.157.154h-.624l-.158-.154v-5.942l.158-.154h3.126c1.094 0 2.033.624 2.033 1.875 0 .937-.627 1.564-1.409 1.718v.158l1.252 1.72zm-1.876-4.692h-2.19l-.155.157v1.876l.155.157h2.19c.782 0 1.094-.47 1.094-1.094 0-.627-.312-1.096-1.094-1.096z" fill="#fff"/></svg>