<svg width="140" height="48" fill="none" xmlns="http://www.w3.org/2000/svg"><path fill-rule="evenodd" clip-rule="evenodd" d="M45.445 15.017L18.486 41.974h-.724L.075 24.287v23.629h23.63c13.05 0 23.629-10.579 23.629-23.629 0-3.29-.673-6.424-1.888-9.27z" fill="#fff"/><path fill-rule="evenodd" clip-rule="evenodd" d="M18.486 30.818L41.055 8.249C36.739 3.582 30.563.659 23.705.659H.074v23.628h11.158l6.53 6.53h.723zm46.192-10.931c0-3.474-1.421-5.527-5.369-5.527h-3.473l-.158.158v10.737l.158.158h3.473c3.948 0 5.369-2.053 5.369-5.526zm-2.21 0c0 2.526-.79 3.631-3 3.631h-1.422l-.158-.158v-6.947l.158-.158h1.421c2.21 0 3 1.105 3 3.632zm11.052 5.368v-1.579l-.158-.158h-5.21l-.159-.158v-2.526l.158-.158h4.895l.158-.158V18.94l-.158-.157h-4.895l-.157-.158v-2.21l.157-.159h5.21l.159-.158v-1.579l-.158-.158H65.94l-.158.158v10.737l.158.158h7.42l.159-.158zm10.201-3c0-2.21-1.737-3.158-3.947-3.473-2.212-.316-2.844-.632-2.844-1.58 0-.63.475-1.105 1.896-1.105 1.737 0 2.21.474 2.21 1.421l.159.158h1.895l.157-.158c0-1.894-1.263-3.315-4.263-3.315-3.001 0-4.264 1.42-4.264 3 0 2.21 1.737 3 3.948 3.315 2.211.316 2.843.632 2.843 1.737 0 .948-.79 1.421-2.212 1.421-1.894 0-2.527-.631-2.527-1.736l-.156-.158H74.72l-.158.157c0 2.053 1.421 3.632 4.579 3.632 3.317 0 4.58-1.579 4.58-3.316zm3.632 3V14.518l-.158-.158H85.3l-.158.158v10.737l.158.158h1.895l.158-.158zm11.463 0v-5.684l-.158-.158h-4.895l-.158.158v1.579l.158.158h2.684l.158.158c0 1.263-.79 2.21-2.526 2.21-2.053 0-3.158-1.579-3.158-3.79 0-2.21 1.105-3.789 3.158-3.789 1.737 0 2.21.79 2.526 1.421l.158.158h1.895l.158-.158c-.316-1.579-1.58-3.315-4.737-3.315-3.316 0-5.368 2.368-5.368 5.684 0 3.316 2.052 5.684 5.21 5.684 1.737 0 2.526-.79 2.842-1.105h.158l.158.79.158.157h1.421l.158-.158zm1.484-10.737v10.737l.158.158h1.895l.158-.158v-7.263h.157l4.265 7.263.316.158h2.21l.158-.158V14.518l-.158-.158h-1.895l-.157.158v7.264h-.158l-4.265-7.264-.316-.158h-2.21l-.158.158zm-35.305-2.854V5.98l-.158-.158h-4.895l-.158.158v1.578l.158.158h2.684l.158.158c0 1.263-.79 2.21-2.526 2.21-2.053 0-3.158-1.578-3.158-3.789 0-2.21 1.105-3.79 3.158-3.79 1.736 0 2.21.79 2.526 1.422l.158.158h1.895l.157-.158C64.68 2.347 63.416.61 60.259.61c-3.316 0-5.37 2.368-5.37 5.685 0 3.316 2.054 5.684 5.212 5.684 1.737 0 2.526-.789 2.842-1.105h.158l.158.79.157.158h1.422l.157-.158zm9.757-5.369c0 2.21-1.105 3.79-3.157 3.79-2.053 0-3.158-1.58-3.158-3.79s1.105-3.79 3.157-3.79c2.053 0 3.158 1.58 3.158 3.79zm2.212 0c0-3.317-2.054-5.685-5.37-5.685-3.315 0-5.368 2.368-5.368 5.685 0 3.316 2.053 5.684 5.368 5.684 3.316 0 5.37-2.368 5.37-5.684zm9.632 0c0 2.21-1.106 3.79-3.158 3.79-2.053 0-3.158-1.58-3.158-3.79s1.105-3.79 3.158-3.79c2.052 0 3.158 1.58 3.158 3.79zm2.21 0c0-3.317-2.052-5.685-5.368-5.685-3.316 0-5.369 2.368-5.369 5.685 0 3.316 2.053 5.684 5.369 5.684s5.368-2.368 5.368-5.684zm10.36 0c0-3.475-1.423-5.527-5.37-5.527h-3.474l-.158.158v10.738l.158.158h3.474c3.947 0 5.37-2.053 5.37-5.527zm-2.212 0c0 2.527-.79 3.632-3 3.632h-1.421l-.158-.158V2.82l.158-.158h1.42c2.211 0 3 1.107 3 3.633zM64.898 38.51v-1.576l-3.627-9.145-.157-.158h-2.05l-.157.158-3.627 9.145v1.576l.158.158h1.419l.158-.158.788-2.05.316-.158h3.94l.316.158.789 2.05.157.158h1.42l.157-.158zm-3.31-4.256l-.159.157h-2.68l-.158-.157 1.419-3.785h.157l1.42 3.785zm8.807-6.623l-.156.158-2.05 7.253h-.158l-1.577-7.253-.158-.158H64.72l-.158.158v1.576l2.365 9.145.157.158h2.05l.157-.158 2.05-7.568h.158l2.05 7.568.158.158h2.05l.157-.158 2.366-9.145V27.79l-.158-.158h-1.578l-.156.158-1.578 7.253h-.157l-2.05-7.253-.158-.158h-2.05zm17.25 10.88v-1.577l-3.627-9.145-.157-.158h-2.05l-.157.158-3.627 9.145v1.576l.157.158h1.42l.157-.158.789-2.05.316-.158h3.94l.316.158.789 2.05.157.158h1.419l.158-.158zm-3.31-4.257l-.159.157h-2.68l-.158-.157 1.419-3.785h.157l1.42 3.785zm13.558-3.312c0-2.207-1.576-3.311-3.783-3.311h-5.204l-.158.158V38.51l.157.158h1.893l.158-.158v-4.099l.157-.157h1.577l.314.157 3.155 4.1.315.157h.947l.156-.158v-1.576l-2.049-2.68v-.158c1.26-.316 2.365-1.42 2.365-3.154zm-2.207 0c0 1.104-.631 1.42-1.576 1.42h-2.996l-.158-.159v-2.522l.157-.158h2.997c.945 0 1.576.316 1.576 1.419zm12.425 2.208c0-3.469-1.42-5.52-5.361-5.52h-3.47l-.157.159V38.51l.157.158h3.47c3.941 0 5.361-2.05 5.361-5.518zm-2.208 0c0 2.522-.789 3.626-2.997 3.626h-1.418l-.158-.158v-6.937l.158-.158h1.418c2.208 0 2.997 1.104 2.997 3.627zm5.353-6.521c1.236 0 2.224.989 2.224 2.223a2.215 2.215 0 01-2.224 2.223 2.215 2.215 0 01-2.223-2.223c0-1.234.989-2.223 2.223-2.223zm0 4.137c1.05 0 1.915-.864 1.915-1.914 0-1.05-.865-1.914-1.915-1.914a1.925 1.925 0 00-1.915 1.914c0 1.05.866 1.914 1.915 1.914zm1.112-.988v.248l-.062.06h-.062l-.122-.06-.618-.864-.124-.064h-.618l-.061.064v.864l-.062.06h-.247l-.062-.06v-2.347l.062-.061h1.236c.432 0 .802.246.802.74a.67.67 0 01-.556.678v.062l.494.68zm-.74-1.852h-.866l-.061.062v.74l.061.062h.866c.308 0 .432-.184.432-.432 0-.247-.124-.432-.432-.432zM60.229 40.844l.101.1 1.313 4.645h.1l1.01-4.644.1-.101h1.011l.1.1v1.01l-1.513 5.856-.101.101h-1.314l-.1-.1-1.313-4.846h-.101l-1.313 4.845-.1.101h-1.313l-.101-.1-1.515-5.857v-1.01l.101-.1h1.01l.102.1 1.01 4.645h.1l1.313-4.644.1-.101h1.313zm6.071 7.068h-1.212l-.101-.101v-6.866l.1-.1H66.3l.101.1v6.866l-.1.1zm1.645-7.068h1.414l.202.1 2.725 4.645h.102v-4.644l.1-.101H73.7l.101.1v6.866l-.101.101h-1.413l-.203-.1-2.725-4.646h-.102v4.645l-.1.101h-1.212l-.101-.1v-6.866l.101-.101zm7.416 0h1.414l.202.1 2.726 4.645h.1v-4.644l.102-.101h1.211l.101.1v6.866l-.1.101h-1.414l-.202-.1-2.726-4.646h-.101v4.645l-.101.101H75.36l-.1-.1v-6.866l.1-.101zm12.162 7.068h-4.746l-.1-.101v-6.866l.1-.1h4.746l.101.1v1.01l-.101.1h-3.332l-.101.102v1.413l.1.101h3.13l.102.101v1.01l-.101.1h-3.13l-.101.102v1.615l.1.101h3.333l.101.101v1.01l-.101.1zm4.794-5.857h-1.919l-.101.101v1.616l.101.1h1.919c.606 0 1.01-.201 1.01-.909 0-.706-.404-.908-1.01-.908zm.908 2.928v.101l1.314 1.717v1.01l-.101.1h-.607l-.202-.1-2.02-2.626-.2-.1h-1.01l-.102.1v2.625l-.101.101h-1.211l-.102-.1v-6.866l.102-.101h3.332c1.413 0 2.423.706 2.423 2.12 0 1.11-.707 1.817-1.515 2.02z" fill="#fff"/></svg>