<svg width="176" height="128" fill="none" xmlns="http://www.w3.org/2000/svg"><path fill="#000" d="M0 0h176v128H0z"/><path fill-rule="evenodd" clip-rule="evenodd" d="M95.552 54.222h5.353v20.195h5.469V54.222h5.352v-4.84H95.552v4.84z" fill="#fff"/><mask id="a" maskUnits="userSpaceOnUse" x="45" y="49" width="87" height="30"><path d="M45 49v29.164h87V49H45z" fill="#fff"/></mask><g mask="url(#a)" fill-rule="evenodd" clip-rule="evenodd" fill="#fff"><path d="M85.259 66.682c0 2.018-1.186 3.276-3.059 3.276-1.912 0-3.058-1.258-3.058-3.277v-17.3h-5.47v17.377c0 4.952 3.44 8.04 8.527 8.04 5.086 0 8.525-3.087 8.525-8.04V49.38H85.26v17.301h-.001zm40.622-7.126l-3.135-1.181c-1.721-.649-2.027-1.753-2.027-2.478 0-1.371.994-2.4 2.753-2.4 1.721 0 2.867 1.142 2.867 2.934v.686h5.124v-.572c0-4.65-3.211-7.545-7.991-7.545-5.01 0-7.916 3.43-7.916 7.24 0 3.659 1.913 5.832 5.546 7.202l3.517 1.334c1.567.61 2.179 1.448 2.179 2.706 0 1.752-1.146 2.78-3.212 2.78-2.064 0-3.326-.952-3.326-2.97v-.916h-5.162v.877c0 4.65 3.593 7.545 8.488 7.545 5.353 0 8.413-3.239 8.413-7.85s-2.984-6.21-6.118-7.392zm-76.143.144l-2.375-2.368-2.376 2.368 2.375 2.367 2.377-2.367h-.001zm5.32.564l1.808 1.803 2.375-2.367-2.42-2.412a2.496 2.496 0 00-2.72-.54 2.495 2.495 0 00-.808.54l-8.306 8.276 2.375 2.368 7.696-7.668zM54.49 70.3l-2.376-2.368-1.81 1.803-1.808-1.803-2.379 2.368 2.421 2.413a2.494 2.494 0 002.72.54c.302-.126.577-.309.809-.54L54.49 70.3l.001.001zm.566 4.17l-1.809-1.803-2.376 2.369 2.42 2.412a2.495 2.495 0 002.72.538 2.51 2.51 0 00.81-.538l2.42-2.412-2.375-2.369-1.81 1.803z"/><path d="M59.809 69.737l-1.81-1.804-2.374 2.367 2.421 2.414a2.485 2.485 0 001.765.729 2.505 2.505 0 001.764-.729l2.42-2.413-2.375-2.368-1.811 1.804zm.567-4.172l2.377 2.368 2.375-2.367-2.376-2.369-2.375 2.367h-.001zm-5.318-.563l-1.81-1.803-2.374 2.367 2.42 2.412a2.492 2.492 0 001.764.728 2.505 2.505 0 001.764-.728l8.306-8.277-2.376-2.368L55.058 65v.001zm3.169-20.45l-3.167-3.16-3.17 3.157 3.17 3.16 3.168-3.157"/><path d="M51.105 51.74h2.272v4.481a3.314 3.314 0 013.36 0V51.74h2.274l1.488 1.484 3.168-3.157-3.168-3.158-1.488 1.484h-7.906l-1.488-1.484-3.168 3.157 3.168 3.158 1.488-1.484z"/></g></svg>