<svg width="140" height="48" fill="none" xmlns="http://www.w3.org/2000/svg"><path fill-rule="evenodd" clip-rule="evenodd" d="M58.548 44.355H56.95l-.1.1v1.597l.1.1h1.598c.699 0 .998-.3.998-.899s-.3-.898-.998-.898zm0-2.795H56.95l-.1.1v1.398l.1.1h1.598c.6 0 .798-.4.798-.8 0-.5-.199-.798-.798-.798zm.398 5.79h-3.393l-.1-.1v-6.788l.1-.1h3.194c.998 0 1.996.5 1.996 1.797 0 .7-.299 1.297-.998 1.497v.1c.8.2 1.198.798 1.198 1.697 0 1.398-.998 1.896-1.996 1.896zm7.766 0h-4.69l-.101-.1v-6.788l.1-.1h4.691l.1.1v.998l-.1.1H63.42l-.1.1v1.398l.1.1h3.094l.1.1v.997l-.1.1H63.42l-.1.1v1.597l.1.1h3.293l.1.1v.998l-.1.1zm3.863.1c-1.996 0-2.895-.999-2.895-2.296l.1-.1h1.197l.101.1c0 .698.4 1.098 1.597 1.098.898 0 1.397-.3 1.397-.899 0-.699-.4-.898-1.796-1.098-1.398-.2-2.496-.699-2.496-2.096 0-.998.799-1.896 2.695-1.896 1.897 0 2.696.898 2.696 2.096l-.101.1h-1.198l-.1-.1c0-.6-.299-.899-1.396-.899-.899 0-1.198.3-1.198.7 0 .599.399.798 1.796.998 1.398.199 2.496.798 2.496 2.195 0 1.098-.8 2.096-2.895 2.096zm8.993-5.89h-1.996l-.1.1v5.59l-.1.1h-1.197l-.101-.1v-5.59l-.099-.1H73.98l-.1-.1v-.998l.1-.1h5.589l.1.1v.999l-.1.1zm3.822 5.79h-1.197l-.1-.1v-6.788l.1-.1h1.198l.1.1v6.788l-.1.1zm1.628-6.988h1.397l.2.1 2.694 4.59h.1v-4.59l.1-.1h1.197l.101.1v6.788l-.1.1h-1.398l-.199-.1-2.695-4.592h-.1v4.592l-.1.1h-1.197l-.1-.1v-6.788l.1-.1zm13.185 4.892l.1-.1H99.5l.1.1c-.2 1.396-1.298 2.195-2.894 2.195-2.196 0-3.395-1.496-3.395-3.594 0-2.096 1.2-3.592 3.395-3.592 1.596 0 2.694.799 2.894 2.096l-.1.1h-1.198l-.1-.1c-.199-.6-.698-.899-1.496-.899-1.398 0-1.996.998-1.996 2.395 0 1.399.598 2.397 1.996 2.397.797 0 1.297-.3 1.497-.998zm6.977 2.096h-4.491l-.1-.1v-6.788l.1-.1h1.197l.1.1v5.59l.099.1h3.095l.099.1v.998l-.099.1zm3.623-5.19h-.1l-.898 2.394.099.1h1.698l.099-.1-.898-2.395zm2.895 5.19h-.899l-.099-.1-.5-1.297-.2-.102h-2.494l-.2.102-.499 1.297-.1.1h-.899l-.099-.1v-.998l2.295-5.79.1-.1h1.298l.1.1 2.295 5.79v.998l-.099.1zm3.393.1c-1.996 0-2.895-.999-2.895-2.296l.1-.1h1.198l.1.1c0 .698.399 1.098 1.597 1.098.898 0 1.397-.3 1.397-.899 0-.699-.399-.898-1.796-1.098-1.398-.2-2.496-.699-2.496-2.096 0-.998.799-1.896 2.695-1.896 1.897 0 2.696.898 2.696 2.096l-.1.1h-1.199l-.099-.1c0-.6-.299-.899-1.397-.899-.899 0-1.198.3-1.198.7 0 .599.399.798 1.796.998 1.398.199 2.496.798 2.496 2.195 0 1.098-.799 2.096-2.895 2.096zm6.498 0c-1.997 0-2.895-.999-2.895-2.296l.1-.1h1.197l.101.1c0 .698.399 1.098 1.596 1.098.899 0 1.397-.3 1.397-.899 0-.699-.399-.898-1.795-1.098-1.399-.2-2.496-.699-2.496-2.096 0-.998.798-1.896 2.695-1.896 1.897 0 2.695.898 2.695 2.096l-.099.1h-1.199l-.1-.1c0-.6-.299-.899-1.397-.899-.898 0-1.197.3-1.197.7 0 .599.398.798 1.795.998 1.399.199 2.496.798 2.496 2.195 0 1.098-.798 2.096-2.894 2.096zM45.734 14.832L19.086 41.48h-.716L.884 23.996v23.357h23.359c12.9 0 23.359-10.458 23.359-23.357 0-3.254-.666-6.35-1.867-9.164z" fill="#fff"/><path fill-rule="evenodd" clip-rule="evenodd" d="M19.085 30.45l22.31-22.31C37.128 3.528 31.023.638 24.243.638H.884v23.358h11.03l6.456 6.456h.715zm45.662-10.804c0-3.434-1.404-5.464-5.307-5.464h-3.434l-.156.156v10.615l.156.156h3.434c3.903 0 5.307-2.03 5.307-5.463zm-2.184 0c0 2.497-.782 3.59-2.966 3.59H58.19l-.156-.157v-6.867l.156-.157h1.406c2.184 0 2.966 1.093 2.966 3.59zm10.925 5.307v-1.561l-.155-.156h-5.152l-.156-.157v-2.497l.156-.156h4.84l.156-.156v-1.561l-.156-.156h-4.84l-.156-.157v-2.184l.156-.157h5.152l.155-.156v-1.56l-.155-.157h-7.336l-.157.156v10.615l.157.156h7.336l.155-.156zm10.084-2.966c0-2.185-1.717-3.122-3.902-3.434-2.185-.312-2.81-.624-2.81-1.561 0-.624.468-1.093 1.874-1.093 1.717 0 2.184.469 2.184 1.406l.157.155h1.873l.156-.155c0-1.874-1.249-3.28-4.215-3.28-2.965 0-4.214 1.406-4.214 2.967 0 2.186 1.717 2.966 3.903 3.278 2.184.312 2.81.625 2.81 1.716 0 .937-.781 1.406-2.187 1.406-1.873 0-2.497-.624-2.497-1.717l-.156-.156h-1.873l-.157.156c0 2.03 1.406 3.59 4.527 3.59 3.279 0 4.527-1.56 4.527-3.279zm3.59 2.966V14.339l-.156-.157h-1.872l-.156.156v10.615l.156.156h1.872l.156-.156zm11.333 0v-5.62l-.156-.155h-4.84l-.155.155v1.562l.155.155h2.654l.156.156c0 1.25-.78 2.186-2.497 2.186-2.03 0-3.123-1.56-3.123-3.746s1.093-3.747 3.123-3.747c1.717 0 2.186.78 2.497 1.406l.157.155h1.873l.156-.155c-.313-1.562-1.562-3.28-4.683-3.28-3.279 0-5.307 2.343-5.307 5.62 0 3.278 2.028 5.62 5.15 5.62 1.718 0 2.498-.78 2.81-1.093h.157l.156.78.155.157h1.406l.156-.156zm1.467-10.614v10.614l.156.156h1.874l.156-.156v-7.18h.155l4.215 7.18.312.156h2.186l.156-.156V14.339l-.156-.157h-1.874l-.156.156v7.18h-.156l-4.214-7.18-.313-.156h-2.185l-.156.156zM65.06 11.517v-5.62l-.156-.156h-4.84l-.154.156v1.56l.155.157h2.654l.156.156c0 1.25-.78 2.186-2.498 2.186-2.03 0-3.12-1.562-3.12-3.746 0-2.186 1.09-3.747 3.12-3.747 1.717 0 2.186.78 2.498 1.406l.156.155h1.873l.157-.155C64.748 2.307 63.5.589 60.377.589 57.1.59 55.07 2.932 55.07 6.21s2.03 5.62 5.151 5.62c1.717 0 2.498-.781 2.81-1.093h.156l.157.78.156.157h1.404l.157-.156zm9.647-5.307c0 2.184-1.093 3.746-3.122 3.746-2.028 0-3.121-1.562-3.121-3.746 0-2.186 1.093-3.747 3.12-3.747 2.03 0 3.123 1.56 3.123 3.747zm2.186 0c0-3.28-2.03-5.62-5.308-5.62s-5.307 2.34-5.307 5.62c0 3.277 2.03 5.62 5.307 5.62 3.279 0 5.308-2.343 5.308-5.62zm9.521 0c0 2.184-1.093 3.746-3.12 3.746-2.03 0-3.123-1.562-3.123-3.746 0-2.186 1.092-3.747 3.122-3.747 2.028 0 3.121 1.56 3.121 3.747zm2.185 0c0-3.28-2.028-5.62-5.306-5.62-3.279 0-5.308 2.34-5.308 5.62 0 3.277 2.03 5.62 5.308 5.62S88.6 9.486 88.6 6.21zm10.241 0c0-3.436-1.405-5.464-5.308-5.464h-3.434l-.156.156v10.615l.156.156h3.434c3.903 0 5.308-2.03 5.308-5.463zm-2.186 0c0 2.497-.78 3.59-2.966 3.59h-1.404l-.157-.157V2.774l.157-.155h1.404c2.186 0 2.966 1.093 2.966 3.59zM64.965 38.056v-1.558l-3.585-9.04-.155-.157h-2.027l-.155.157-3.585 9.04v1.558l.156.156h1.402l.156-.156.78-2.026.312-.156h3.896l.312.156.779 2.026.156.156h1.402l.156-.156zm-3.274-4.208l-.155.155h-2.65l-.156-.155 1.403-3.742h.156l1.402 3.742zm8.71-6.547l-.157.157-2.026 7.169h-.156l-1.558-7.17-.157-.156H64.79l-.156.157v1.558l2.338 9.04.155.156h2.027l.156-.156 2.025-7.482h.157l2.026 7.482.156.156H75.7l.156-.156 2.338-9.04v-1.558l-.156-.157H76.48l-.156.157-1.558 7.169h-.157l-2.026-7.17-.156-.156H70.4zm17.05 10.755v-1.558l-3.585-9.04-.155-.157h-2.027l-.155.157-3.585 9.04v1.558l.156.156h1.402l.156-.156.78-2.026.312-.156h3.895l.313.156.779 2.026.156.156h1.402l.156-.156zm-3.272-4.208l-.157.155h-2.65l-.156-.155 1.403-3.742h.157l1.403 3.742zm13.403-3.274c0-2.182-1.558-3.273-3.74-3.273h-5.144l-.156.157v10.598l.156.156h1.87l.156-.156v-4.053l.156-.155h1.558l.313.155 3.116 4.053.313.156h.934l.156-.156v-1.558l-2.025-2.65v-.157c1.246-.311 2.337-1.403 2.337-3.117zm-2.181 0c0 1.092-.624 1.403-1.56 1.403h-2.96l-.157-.156v-2.494l.156-.156h2.962c.935 0 1.559.312 1.559 1.403zm12.282 2.182c0-3.429-1.403-5.455-5.3-5.455h-3.429l-.156.157v10.598l.156.156h3.429c3.897 0 5.3-2.027 5.3-5.456zm-2.182 0c0 2.495-.781 3.585-2.962 3.585h-1.403l-.156-.156v-6.858l.156-.156h1.403c2.181 0 2.962 1.091 2.962 3.585zm5.292-6.446a2.19 2.19 0 012.198 2.199c0 1.22-.977 2.197-2.198 2.197a2.188 2.188 0 01-2.197-2.197c0-1.221.976-2.198 2.197-2.198zm0 4.09a1.903 1.903 0 001.893-1.891 1.903 1.903 0 00-1.893-1.893 1.902 1.902 0 00-1.893 1.893c0 1.037.855 1.891 1.893 1.891zm1.099-.976v.244l-.062.06h-.06l-.122-.06-.61-.854-.124-.062h-.61l-.06.062v.854l-.062.06h-.244l-.061-.06v-2.32l.061-.06h1.221c.427 0 .794.244.794.732 0 .366-.245.61-.55.67v.062l.489.672zm-.733-1.832h-.855l-.06.061v.733l.06.061h.855c.306 0 .427-.183.427-.427 0-.245-.121-.428-.427-.428z" fill="#fff"/></svg>