<svg width="176" height="128" fill="none" xmlns="http://www.w3.org/2000/svg"><path fill="#000" d="M0 0h176v128H0z"/><path fill-rule="evenodd" clip-rule="evenodd" d="M52.238 44.721a19.279 19.279 0 10-.005 38.558 19.279 19.279 0 00.005-38.558zm11.956 23.561a1.195 1.195 0 00-.908-.544s-.544-.027-1.448-.027h-.49c-.815 0-2.118.054-3.775.21a42.248 42.248 0 01-.492 5.535 46.345 46.345 0 014.104 1.804c2.72-3.428 3.132-5.713 3.194-6.322a1.276 1.276 0 00-.185-.656zm-16.871-3.44c.185 0 .288.258.345.465 0 0 .05.236.136.674.487 2.622.739 5.282.751 7.949a26.897 26.897 0 01-.879 7.179 17.701 17.701 0 01-8.939-5.666c1.244-2.868 3.131-5.316 4.625-6.978.823-.906 1.69-1.77 2.6-2.587.164-.14.307-.26.432-.363.16-.134.288-.24.385-.328.171-.155.272-.231.272-.231a.468.468 0 01.272-.115zm-6.747-4.816a.044.044 0 000-.02c-.045-.095-.09-.188-.136-.28l-.136-.28-.06-.122a38.852 38.852 0 00-.304-.593l-.025-.047a53.933 53.933 0 00-1.559-2.793c-.2-.31-.301-.476-.301-.476-.188-.272-.346-.308-.392-.308-.133 0-.272.109-.408.313 0 0-.114.169-.297.47-.082.14-.165.28-.248.417v.002a43.62 43.62 0 00-.554.942l-.15.272-.016.028-.06.11-.027.05a49.59 49.59 0 00-.599 1.123 17.72 17.72 0 002.552 15.49c1.227-2.58 3.058-5.147 5.457-7.642a53.746 53.746 0 00-2.737-6.657zm15.522 1.914v.002l.036.364c.133 1.458.198 2.93.198 4.41 0 4.175-.546 10.105-3.142 14.67l-.187.313c-.256.019-.498.019-.77.019a17.647 17.647 0 01-3.322-.332 28.24 28.24 0 00.904-7.456 45.488 45.488 0 00-.92-8.899 1.875 1.875 0 00-.925-1.295 8.67 8.67 0 01.495-.304 50.164 50.164 0 013.65-2.095c.306-.155.613-.31.92-.46l.18-.081c.304-.143.567-.26.796-.363.16-.071.302-.135.43-.195.316-.147.49-.21.49-.21a.903.903 0 01.335-.073.672.672 0 01.745.65v.161a.849.849 0 00.01.055.718.718 0 01.015.195v.209l-.002.03a.333.333 0 00.002.085l.009.06c.007.049.015.1.015.152l.038.388zm.754 12.792a24.532 24.532 0 01-2.34 6.82 17.6 17.6 0 008.755-3.713 46.982 46.982 0 00-2.677-1.455 38.766 38.766 0 00-3.738-1.652zm-12.78-9.763a58.328 58.328 0 00-1.863-4.486l.005-.005-.05-.11c-.09-.195-.18-.392-.274-.587a48.625 48.625 0 012.636-2.043c1.05-.753 1.739-1.175 1.739-1.175a.587.587 0 01.416-.122.677.677 0 01.64.522l.015.044c.004.014.01.029.017.044a.228.228 0 01.024.089l.05.128v.027c.222.67.562 1.893.919 3.487.027.125.057.264.084.398a.024.024 0 010 .013c.025.104.048.218.07.33l.014.067a.024.024 0 000 .014l.057.272a44.462 44.462 0 00-4.499 3.093z" fill="#fff"/><path d="M77.953 60.385l1.736-2.062c1.202.987 2.462 1.618 3.988 1.618 1.202 0 1.926-.476 1.926-1.256v-.038c0-.743-.457-1.127-2.69-1.695-2.688-.688-4.426-1.428-4.426-4.08v-.039c0-2.418 1.942-4.018 4.676-4.018a7.733 7.733 0 014.962 1.698l-1.53 2.206c-1.183-.816-2.347-1.311-3.473-1.311s-1.716.514-1.716 1.159v.038c0 .878.57 1.161 2.88 1.754 2.72.702 4.236 1.673 4.236 3.996v.039c0 2.65-2.021 4.135-4.897 4.135a8.51 8.51 0 01-5.672-2.144zm11.518-3.104v-.046c0-2.916 2.081-5.313 5.057-5.313 3.414 0 4.978 2.644 4.978 5.539 0 .228-.016.497-.035.761h-7.116c.272 1.317 1.202 2.002 2.497 2.002.977 0 1.678-.304 2.484-1.047l1.656 1.464c-.952 1.18-2.326 1.904-4.178 1.904-3.071.01-5.343-2.141-5.343-5.264zm7.215-.862c-.172-1.298-.936-2.177-2.158-2.177-1.221 0-1.983.857-2.214 2.177h4.372zm4.178-4.301h2.9v2.056c.596-1.409 1.545-2.323 3.264-2.244v3.025h-.152c-1.929 0-3.112 1.164-3.112 3.602v3.77h-2.9v-10.21zm7.176-.001h3.069l2.293 6.84 2.307-6.84h3.017L114.7 62.404h-2.634l-4.026-10.285zm11.779-3.694h3.055v2.571h-3.055v-2.57zm.076 3.694h2.9v10.21h-2.9v-10.21zm3.95 5.163v-.046a5.256 5.256 0 011.555-3.79 5.253 5.253 0 013.807-1.514c1.929 0 3.131.644 4.081 1.714l-1.777 1.904c-.65-.683-1.3-1.121-2.328-1.121-1.45 0-2.481 1.273-2.481 2.78v.027c0 1.562 1.012 2.819 2.595 2.819.974 0 1.632-.42 2.348-1.088l1.694 1.724c-.99 1.088-2.135 1.866-4.178 1.866a5.218 5.218 0 01-5.316-5.274zm10.117.001v-.046c0-2.916 2.084-5.313 5.057-5.313 3.417 0 4.981 2.644 4.981 5.539 0 .228-.019.497-.038.761h-7.119c.285 1.317 1.202 2.002 2.5 2.002.976 0 1.678-.304 2.483-1.047l1.657 1.464c-.952 1.18-2.329 1.904-4.178 1.904-3.072.01-5.343-2.141-5.343-5.264zm7.211-.862c-.168-1.298-.933-2.177-2.154-2.177-1.221 0-1.986.857-2.212 2.177h4.366zM78.37 65.33h2.695l6.227 8.186V65.33h2.886v13.292h-2.486l-6.436-8.45v8.45H78.37V65.33zm13.707 11.355l1.728-2.07c1.197.99 2.448 1.616 3.969 1.616 1.197 0 1.918-.476 1.918-1.254v-.038c0-.74-.455-1.121-2.677-1.69-2.677-.683-4.404-1.425-4.404-4.064v-.038c0-2.41 1.936-4.004 4.651-4.004a7.683 7.683 0 014.935 1.689l-1.518 2.203c-1.178-.816-2.334-1.31-3.455-1.31-1.12 0-1.697.51-1.697 1.158v.049c0 .873.568 1.156 2.867 1.746 2.685.702 4.206 1.66 4.206 3.967v.038c0 2.638-2.013 4.118-4.88 4.118a8.45 8.45 0 01-5.643-2.116zM103.26 65.33h3.148l2.753 9.002 2.992-9.04h2.508l2.979 9.04 2.753-9.002h3.058l-4.562 13.395h-2.544l-2.992-8.705-2.992 8.705h-2.544L103.26 65.33z" fill="#fff"/></svg>