<svg width="45" height="45" fill="none" xmlns="http://www.w3.org/2000/svg"><path d="M44.11 39.003c-.438 1.111-1.447 2.676-2.878 3.778-.827.636-1.813 1.245-3.168 1.646-1.445.428-3.224.573-5.44.573H12.376c-2.214 0-3.994-.145-5.439-.573-1.355-.401-2.341-1.01-3.168-1.646-1.431-1.102-2.44-2.666-2.878-3.778C.009 36.765 0 34.224 0 32.625v-20.25c0-1.6.009-4.14.89-6.378.437-1.111 1.447-2.676 2.878-3.778C4.595 1.583 5.581.974 6.936.573 8.381.145 10.161 0 12.375 0h20.25c2.215 0 3.994.145 5.439.573 1.355.401 2.341 1.01 3.168 1.646 1.431 1.102 2.44 2.667 2.878 3.778.881 2.238.89 4.778.89 6.378v20.25c0 1.6-.009 4.14-.89 6.378zM25.764 25.865c-.676-.712-1.862-1.169-3.262-1.169s-2.586.457-3.261 1.17a2.07 2.07 0 00-.598 1.295c-.114 1.051-.05 1.957.074 3.404.117 1.38.34 3.218.63 5.091.207 1.334.376 2.053.529 2.568.248.835 1.175 1.565 2.626 1.565 1.45 0 2.378-.73 2.627-1.565.153-.515.32-1.234.528-2.567.29-1.874.513-3.713.63-5.092.124-1.447.188-2.353.074-3.404a2.07 2.07 0 00-.598-1.296zm-6.941-6.344a3.683 3.683 0 107.365 0 3.683 3.683 0 00-7.365 0zM22.46 4.987C13.847 5.013 6.79 12 6.682 20.613 6.596 27.59 11.05 33.557 17.27 35.745a.212.212 0 00.28-.23 89.529 89.529 0 01-.23-1.622.544.544 0 00-.32-.429c-4.915-2.147-8.347-7.077-8.292-12.787.072-7.494 6.191-13.604 13.685-13.664 7.661-.062 13.914 6.152 13.914 13.799 0 5.653-3.418 10.522-8.295 12.653a.544.544 0 00-.32.429c-.07.535-.147 1.079-.228 1.62a.212.212 0 00.28.23c6.16-2.166 10.587-8.041 10.587-14.932 0-8.741-7.123-15.85-15.87-15.825zm-.286 7.26c4.883-.189 8.915 3.728 8.915 8.57a8.553 8.553 0 01-2.71 6.25.656.656 0 00-.207.515c.033.59.021 1.162-.018 1.808a.209.209 0 00.325.185 10.598 10.598 0 004.635-8.758c0-5.985-4.985-10.827-11.02-10.593-5.61.217-10.11 4.842-10.181 10.455a10.597 10.597 0 004.635 8.896.208.208 0 00.324-.185 15.175 15.175 0 01-.018-1.808.656.656 0 00-.206-.514 8.553 8.553 0 01-2.708-6.481c.118-4.494 3.742-8.166 8.234-8.34z" fill="#fff"/></svg>