<svg width="176" height="128" fill="none" xmlns="http://www.w3.org/2000/svg"><path fill="#000" d="M0 0h176v128H0z"/><g clip-path="url(#clip0)" fill="#fff"><path d="M65.733 57.489l-6.123 15.98h-3.928L49.56 57.49h3.696l4.39 12.147 4.332-12.147h3.755zm55.451 0v15.98h-3.408v-2.064c-1.04 1.651-2.715 2.477-4.852 2.477-3.523 0-6.007-2.418-6.007-6.604v-9.789h3.408v9.494c0 2.417 1.386 3.715 3.523 3.715 2.253 0 3.986-1.356 3.986-4.6V57.49h3.35zm9.762-.295v3.774c-2.253-.177-4.852.885-4.852 4.482v8.02h-3.408V57.488h3.408v2.713c.982-2.182 2.888-3.008 4.852-3.008zm-25.589 3.597V57.49h-3.87v-4.482l-3.408 3.48v12.029c0 4.128 2.08 5.602 7.278 5.012v-3.125c-2.541.118-3.87.177-3.87-1.887V60.85l3.87-.059zm46.152 1.121c0-1.18 1.04-1.71 2.31-1.71 1.213 0 2.253.53 2.831 1.592l2.31-2.36c-1.213-1.473-3.003-2.358-5.141-2.358-3.176 0-5.718 1.887-5.718 4.895 0 5.72 8.433 4.127 8.433 6.958 0 1.297-1.155 1.769-2.657 1.769-1.328 0-2.368-.53-3.003-1.415l-2.369 2.417c1.213 1.356 3.062 2.182 5.372 2.182 3.408 0 6.123-1.71 6.123-4.953-.058-5.897-8.491-4.128-8.491-7.017zM96.52 63.68v9.79h-3.408v-9.436c0-2.417-1.386-3.715-3.523-3.715-2.253 0-3.986 1.357-3.986 4.6v8.55h-3.408V57.49h3.408v2.064c1.04-1.651 2.715-2.477 4.852-2.477 3.523 0 6.065 2.418 6.065 6.605zm47.191 5.072c-.751 1.12-2.137 2.005-4.043 2.005-2.484 0-4.506-1.297-5.025-3.774h12.476c.058-.472.116-.944.116-1.415 0-4.6-3.177-8.433-7.856-8.433-4.91 0-8.26 3.656-8.26 8.433 0 4.776 3.35 8.432 8.549 8.432 2.715 0 4.91-1.061 6.354-2.83l-2.311-2.418zm-4.39-8.55c2.022 0 3.986 1.179 4.506 3.95h-9.184c.462-2.417 2.137-3.95 4.678-3.95zm-62.209 8.55c-.751 1.12-2.137 2.005-4.043 2.005-2.484 0-4.506-1.297-5.026-3.774H80.52c.058-.472.115-.944.115-1.415 0-4.6-3.177-8.433-7.855-8.433-4.91 0-8.26 3.656-8.26 8.433 0 4.776 3.35 8.432 8.549 8.432 2.714 0 4.91-1.061 6.353-2.83l-2.31-2.418zm-4.332-8.55c2.021 0 3.985 1.179 4.505 3.95h-9.184c.404-2.417 2.137-3.95 4.679-3.95zm-49.906 6.309l6.873 7.076v-4.305l-4.736-4.894-2.137-2.123-2.08 2.123L16 69.282v4.305l6.874-7.076zm.577-4.835l2.08 2.122 4.216-4.304v-4.305l-6.296 6.487zM16 55.19v4.304l4.217 4.304 2.137-2.122L16 55.189z"/><path d="M42.917 73.882c3.87 0 8.087-2.359 8.087-7.548 0-3.715-2.426-7.489-7.798-7.489H39.74V53.48h6.47L49.616 50H36.332v12.501h6.7c2.658 0 4.333 1.533 4.333 3.892s-1.733 3.951-4.39 3.951c-1.849 0-3.177-.59-4.044-1.828l-2.599 2.653c1.444 1.71 3.812 2.713 6.585 2.713zm-8.202-23.705l-3.408 3.479V73.41h3.408V50.177z"/></g><defs><clipPath id="clip0"><path fill="#fff" transform="translate(16 50)" d="M0 0h144v24H0z"/></clipPath></defs></svg>