<svg width="176" height="128" fill="none" xmlns="http://www.w3.org/2000/svg"><path fill="#000" d="M0 0h176v128H0z"/><g clip-path="url(#clip0)" fill="#fff"><path d="M44.938 53.167c-.475-.338-1.158-.682-1.704-.136-.338.338-1.43 1.703-1.637 2.112-.339.546.065 1.157.409 1.43 1.703 1.43 6.813 5.044 12.944 12.604.273.339 1.092.612 1.294-.202.065-.272.41-1.905.546-2.86.202-1.293-.339-1.976-.612-2.314-.546-.552-6.676-7.091-11.24-10.634m-5.656-6.949c-1.638.82-5.11 3.068-5.317 3.204-.82.476-1.502 1.229-.202 1.977 2.315 1.293 4.837 2.996 5.52 3.27 1.227.61 1.566.065 2.45-1.092 1.021-1.294 1.977-2.386 2.932-3.68.273-.338 1.157-1.228.338-1.84-.41-.272-2.86-1.566-3.68-1.839-.474-.136-1.222-.41-2.04 0M29.608 77.83c-2.178-1.294-1.905-3.614-1.228-4.498.611-.82 10.7-14.58 10.902-14.919.748-1.092 1.567-.819 2.042-.475 1.228.819 4.771 3.881 5.857 5.11.748.818 0 1.904-.338 2.93-.612 1.835-5.858 11.24-8.173 14.783 0 0-1.157 2.041-2.931.884-.682-.41-5.929-3.679-6.13-3.816m-5.045-27.931c-1.294.682-3.134 1.703-4.089 2.521-.955.612-.338 1.43.682 1.84 3.544 1.496 11.176 5.857 12.742 6.807.612.41 1.365.748 2.178-.066.339-.338 2.113-2.587 2.523-3.133.682-.884.273-1.637-.137-1.976-3.199-2.314-8.314-4.973-11.584-6.266-.612-.208-1.43-.208-2.315.273M81.05 71.29c0 .338-.201.475-.682.475h-2.587c-.683 0-1.021-.273-1.229-.884l-1.365-3.816h-8.38l-1.364 3.816c-.202.611-.546.884-1.229.884h-2.249c-.475 0-.682-.136-.682-.475 0-.136.065-.273.136-.41l7.086-18.532c.202-.545.546-.884 1.158-.884h2.997c.546 0 .884.339 1.157.955l7.097 18.527a.753.753 0 01.136.344zm-9.946-15.945h-.137L67.9 63.861h6.202l-2.997-8.516zm14.035 9.4V58.07c0-.611-.272-.884-.884-.884h-2.113c-.545 0-.819.273-.819.884v7.697c0 3.27 1.158 6.266 5.383 6.266 2.042 0 3.543-.682 4.7-2.45h.137v1.228c0 .611.273.884.819.884h2.042c.546 0 .819-.273.819-.884V58.14c0-.611-.273-.884-.82-.884h-2.112c-.546 0-.819.273-.819.884v5.655c0 3.068-1.294 5.11-3.614 5.11-2.036 0-2.719-1.502-2.719-4.16zm21.324-6.267c.137-.474 0-.682-.546-.884-1.092-.475-2.451-.682-3.543-.682-3.133 0-5.584 1.365-5.584 4.29 0 2.25 1.293 3.478 3.406 4.362 2.315.884 3.27 1.365 3.27 2.314 0 1.158-1.157 1.501-2.315 1.501-1.976 0-2.86-.955-3.406-.955-.41 0-.612.202-.683.683l-.136 1.364c-.066.41.066.748.546 1.021.955.475 2.451.748 3.816.748 2.997 0 5.994-1.228 5.994-4.564 0-2.041-.955-3.34-3.406-4.361-1.977-.819-3.271-1.294-3.271-2.315 0-.747.819-1.228 1.977-1.228 1.637 0 2.451.683 2.997.683.338 0 .546-.137.611-.546l.273-1.43zm16.694 12.266c0 5.18-2.795 7.495-8.177 7.495-1.502 0-3.27-.339-4.428-.819-.819-.338-.955-.546-.819-1.228l.202-1.365c.066-.41.273-.611.683-.611.682 0 1.774 1.02 4.427 1.02 2.932 0 4.428-1.5 4.428-4.563v-1.02h-.066c-1.021 1.637-2.659 2.177-4.564 2.177-4.225 0-6.404-3.406-6.404-7.494 0-3.68 2.113-7.424 6.339-7.424 2.041 0 3.614.682 4.7 2.112h.136v-.818c0-.612.273-.885.885-.885h1.976c.546 0 .819.273.819.885v12.538h-.137zm-3.816-6.266c0-2.795-1.501-4.564-3.614-4.564-2.314 0-3.477 2.178-3.477 4.498 0 2.386 1.157 4.498 3.407 4.498 2.391-.076 3.684-1.981 3.684-4.432zm6.475 7.287h2.113c.611 0 .884-.273.884-.884v-5.656c0-2.794.956-5.043 3.341-5.043.748 0 1.158.136 1.502.136.475 0 .747-.202.747-.748v-1.703c0-.546-.202-.748-.474-.819a5.896 5.896 0 00-1.294-.136c-1.704 0-2.795.748-3.745 2.385h-.137v-1.091c0-.612-.273-.885-.884-.885h-2.042c-.546 0-.819.273-.819.885v12.74c-.011.546.262.819.808.819zm11.65-21.802c1.228 0 2.178 1.02 2.178 2.178a2.15 2.15 0 01-2.178 2.178c-1.157 0-2.178-1.02-2.178-2.178 0-1.157.955-2.178 2.178-2.178zm-1.905 8.177c0-.611.273-.884.819-.884h2.112c.546 0 .819.273.819.884v12.74c0 .612-.273.885-.819.885h-2.112c-.546 0-.819-.273-.819-.884V58.14zm16.694 11.72c-1.021 1.567-2.659 2.314-4.635 2.314-4.362 0-6.474-3.679-6.474-7.833 0-3.679 2.178-7.424 6.267-7.424 2.113 0 3.614.683 4.7 2.113h.066v-8.183c0-.611.273-.955.884-.955h2.113c.546 0 .819.338.819.955v20.028c0 .612-.273.885-.819.885H153.2c-.612 0-.885-.273-.885-.885v-1.02h-.06v.005zm-.071-5.317c0-2.795-1.43-4.634-3.614-4.634-2.315 0-3.477 2.178-3.477 4.498 0 2.385 1.157 4.634 3.406 4.634 2.326 0 3.685-1.976 3.685-4.498z"/></g><defs><clipPath id="clip0"><path fill="#fff" transform="translate(20 46)" d="M0 0h136v36H0z"/></clipPath></defs></svg>