<svg width="176" height="128" fill="none" xmlns="http://www.w3.org/2000/svg"><path fill="#000" d="M0 0h176v128H0z"/><path d="M33.627 63.86l16.75-16.51 16.75 16.51-16.75 16.509-16.75-16.51zM50.377 46L32.228 63.888l18.12 17.859 18.149-17.888L50.377 46z" fill="#fff"/><path d="M45.982 53.453l4.395-4.331 14.98 14.766-4.394 4.33-14.98-14.765zm9.702 19.969l4.395-4.331-9.674-9.535-4.423 4.303 9.702 9.563zm-5.307 5.203l4.394-4.331-4.394-4.331-4.395 4.33 4.395 4.332zm-6.164-14.766l5.28-5.203-4.395-4.331-9.702 9.563 9.673 9.534 4.395-4.331-5.25-5.232zm35.27 4.079h.513l1.827 4.218h-.685l-.428-1.04h-2.026l-.428 1.04h-.685l1.912-4.219zm1.027 2.671l-.799-1.94-.799 1.94h1.598zm4.223 1.547h-.542v-.422a.848.848 0 01-.342.366 1.35 1.35 0 01-.6.14c-.142 0-.285-.027-.4-.056-.113-.028-.227-.112-.342-.197a1.012 1.012 0 01-.228-.337 1.296 1.296 0 01-.085-.478v-1.828h.542v1.66c0 .14.028.252.057.337a.612.612 0 00.142.225c.058.056.143.112.2.112a1.04 1.04 0 00.57-.028.674.674 0 00.258-.169c.085-.084.114-.168.171-.281a1.68 1.68 0 00.057-.422v-1.434h.542v2.812zm2.34-2.109c-.057-.084-.142-.14-.228-.197a.616.616 0 00-.343-.084.686.686 0 00-.342.084c-.086.056-.143.14-.143.225 0 .084.029.14.086.197a.462.462 0 00.2.112c.085.028.142.057.228.085a.638.638 0 00.228.028c.114.028.228.056.343.112.114.029.2.085.257.17a.43.43 0 01.17.224 1 1 0 01.058.338c0 .168-.029.28-.114.393a.8.8 0 01-.257.282c-.114.084-.228.112-.371.168a2.236 2.236 0 01-.428.057c-.228 0-.457-.028-.628-.113a1.249 1.249 0 01-.485-.394l.4-.337c.085.084.2.169.285.225.114.056.228.112.4.112.056 0 .142 0 .199-.028a.499.499 0 00.343-.169.396.396 0 00.056-.168.253.253 0 00-.085-.197c-.057-.056-.114-.084-.171-.113a1.98 1.98 0 00-.229-.084c-.085-.028-.142-.028-.2-.056l-.342-.085a.893.893 0 01-.285-.14.762.762 0 01-.2-.225.593.593 0 01-.085-.338c0-.14.028-.281.085-.394a.8.8 0 01.257-.28c.114-.085.228-.113.342-.17.143-.028.257-.056.4-.056.2 0 .37.028.542.113.171.084.314.197.428.365l-.37.338zm2.797-.253h-.77v1.49c0 .085.028.141.056.197.029.056.057.113.114.14a.544.544 0 00.229.057c.057 0 .142 0 .2-.028a.533.533 0 00.2-.056v.478a1.337 1.337 0 01-.258.084c-.114.028-.17.028-.228.028-.2 0-.37-.028-.485-.084a.671.671 0 01-.257-.225.56.56 0 01-.086-.31c0-.112-.028-.224-.028-.337v-1.462h-.628v-.422h.628v-.788h.542v.788h.77v.45zm.627-.45h.543v.422c.028-.085.085-.141.142-.197.057-.056.114-.113.2-.169a.709.709 0 01.257-.113c.086-.028.171-.028.257-.028.085 0 .17 0 .228.028l-.029.591c-.057 0-.085-.028-.142-.028h-.143a.824.824 0 00-.6.225c-.142.14-.199.366-.199.675v1.406h-.514v-2.812zm2.198.337c.142-.14.342-.253.542-.31.2-.055.4-.112.6-.112.199 0 .399.028.541.085.143.056.286.112.371.197.086.084.171.197.229.309.057.113.057.225.057.366v1.714c0 .085 0 .169.028.225h-.485c0-.14-.029-.281-.029-.422-.114.17-.256.31-.428.394-.17.085-.342.113-.57.113-.143 0-.257-.028-.371-.057a.683.683 0 01-.314-.168 1.857 1.857 0 01-.228-.254.77.77 0 01-.086-.365c0-.169.028-.338.114-.45.086-.113.2-.225.343-.31.142-.084.314-.14.513-.168.2-.028.4-.056.6-.056h.399V70.3c0-.084-.029-.14-.029-.225a.452.452 0 00-.114-.197.511.511 0 00-.2-.14.89.89 0 00-.313-.057c-.114 0-.2 0-.286.028-.085.028-.142.057-.2.085-.056.028-.114.056-.17.112a.593.593 0 00-.143.113l-.371-.338zm1.54 1.125c-.142 0-.256 0-.399.028-.143.028-.257.028-.37.085a.594.594 0 00-.286.169c-.057.084-.114.168-.114.28 0 .17.057.282.17.338.115.085.258.113.457.113a.723.723 0 00.371-.085.622.622 0 00.257-.197c.057-.084.114-.168.143-.253.028-.084.028-.197.028-.28v-.17h-.256v-.028zm2.169-3.15h-.542v4.5h.542v-4.5zm.742.675a.36.36 0 01.114-.281.369.369 0 01.286-.112c.114 0 .2.028.285.112a.358.358 0 01.114.281.359.359 0 01-.114.281.37.37 0 01-.285.113.369.369 0 01-.286-.112.359.359 0 01-.114-.282zm.114 1.013h.542v2.812h-.542v-2.812zm1.37.337c.143-.14.342-.253.542-.31.2-.055.4-.112.6-.112.2 0 .399.028.542.085.142.056.285.112.371.197.085.084.171.197.228.309.057.113.057.225.057.366v1.714c0 .085 0 .169.028.225h-.485c0-.14-.028-.281-.028-.422-.114.17-.257.31-.428.394-.172.085-.343.113-.571.113-.143 0-.257-.028-.37-.057a.683.683 0 01-.315-.168c-.085-.085-.171-.17-.228-.254a.77.77 0 01-.086-.365c0-.169.029-.338.114-.45.086-.113.2-.225.343-.31.142-.084.314-.14.513-.168.2-.028.4-.056.6-.056h.399V70.3c0-.084-.028-.14-.028-.225a.456.456 0 00-.114-.197c-.058-.056-.115-.112-.2-.14a.872.872 0 00-.314-.057c-.114 0-.2 0-.285.028-.086.028-.143.057-.2.085-.057.028-.114.056-.171.112a.593.593 0 00-.143.113l-.371-.338zm1.541 1.125c-.143 0-.257 0-.4.028-.142.028-.256.028-.37.085a.594.594 0 00-.286.169c-.057.084-.114.168-.114.28 0 .17.057.282.171.338.114.085.257.113.457.113a.723.723 0 00.37-.085.618.618 0 00.257-.197c.058-.084.115-.168.143-.253.029-.084.029-.197.029-.28v-.17h-.257v-.028zm1.598-1.462h.542v.422a.843.843 0 01.343-.366c.171-.084.37-.14.599-.14.142 0 .257.027.399.056.114.028.229.112.343.197.085.084.171.196.228.337.057.14.086.31.086.478v1.8h-.543v-1.66c0-.14-.028-.252-.057-.337a.604.604 0 00-.142-.225c-.057-.056-.143-.112-.2-.112-.086-.028-.171-.028-.257-.028a1.04 1.04 0 00-.314.056.682.682 0 00-.257.169.59.59 0 00-.171.28 1.705 1.705 0 00-.057.423v1.462h-.542v-2.812zm5.307 1.94c.115.17.229.282.4.338.171.084.342.112.514.112.085 0 .199-.028.285-.056.086-.028.2-.084.285-.14a.756.756 0 00.2-.225.562.562 0 00.086-.31.481.481 0 00-.143-.365 1.336 1.336 0 00-.399-.226 5.458 5.458 0 00-.514-.168 4.066 4.066 0 01-.514-.225 1.325 1.325 0 01-.399-.394c-.114-.169-.171-.366-.171-.647 0-.112.028-.253.085-.394.057-.14.143-.253.257-.393a1.05 1.05 0 01.457-.282c.171-.084.399-.112.656-.112.228 0 .456.028.656.084.2.056.4.197.571.394l-.457.422a1.003 1.003 0 00-.314-.281 1.192 1.192 0 00-.456-.113c-.171 0-.286.028-.4.056a.414.414 0 00-.256.17.594.594 0 00-.143.224c-.029.085-.029.14-.029.197 0 .169.057.31.172.422.114.084.228.169.399.225.143.056.314.112.514.169.171.056.342.112.513.197.143.084.286.196.4.337.114.14.142.338.142.59 0 .198-.028.394-.114.535-.085.169-.171.31-.314.422a1.446 1.446 0 01-.456.253 1.866 1.866 0 01-.571.084c-.285 0-.542-.056-.77-.14a1.27 1.27 0 01-.571-.45l.399-.31zm3.482-.337a.74.74 0 00.085.337.62.62 0 00.2.253.69.69 0 00.314.17c.114.027.228.056.371.056.171 0 .314-.029.428-.113.114-.084.228-.169.342-.31l.4.31c-.314.394-.713.59-1.256.59-.228 0-.428-.027-.599-.112-.171-.084-.342-.169-.456-.31-.115-.14-.229-.28-.286-.477a1.817 1.817 0 01-.114-.591c0-.197.029-.394.114-.59.086-.17.171-.338.314-.479.143-.14.285-.225.457-.31.171-.084.371-.112.599-.112.257 0 .456.057.656.141.171.084.314.197.428.337.114.141.2.31.257.479.057.168.086.365.086.534v.197h-2.34zm1.712-.422c0-.113-.029-.225-.057-.338a.546.546 0 00-.143-.253.416.416 0 00-.257-.168 1.423 1.423 0 00-.371-.057.805.805 0 00-.371.085 1.032 1.032 0 00-.285.197.653.653 0 00-.171.253.971.971 0 00-.057.281h1.712zm3.281-.45a1.088 1.088 0 00-.313-.225.843.843 0 00-.4-.084.918.918 0 00-.399.084c-.115.056-.2.14-.286.225a.677.677 0 00-.171.31 1.598 1.598 0 00-.057.365c0 .14.028.253.057.366.057.112.114.225.2.309.085.084.171.169.285.197a.799.799 0 00.371.084.927.927 0 00.4-.084c.114-.056.199-.14.313-.225l.4.394c-.143.168-.314.253-.485.337-.2.056-.371.113-.599.113-.229 0-.428-.028-.6-.113-.171-.084-.342-.169-.485-.31a1.629 1.629 0 01-.314-.45c-.085-.168-.114-.365-.114-.59 0-.225.029-.422.114-.59.086-.17.172-.338.314-.479a1.64 1.64 0 01.457-.309c.171-.084.399-.113.599-.113.2 0 .4.029.599.113.2.084.371.197.485.337l-.371.338zm3.453 2.081h-.542v-.422a.85.85 0 01-.342.366c-.172.084-.371.14-.571.14a1.67 1.67 0 01-.4-.056c-.114-.028-.228-.112-.342-.197a1.004 1.004 0 01-.228-.337 1.298 1.298 0 01-.086-.478v-1.828h.542v1.66c0 .14.029.252.057.337a.618.618 0 00.143.225c.057.056.143.112.2.112a1.044 1.044 0 00.571-.028.672.672 0 00.256-.169.584.584 0 00.172-.281 1.7 1.7 0 00.057-.422v-1.434h.542v2.812h-.029zm.828-2.812h.542v.422c.028-.085.086-.141.143-.197.057-.056.114-.113.199-.169a.714.714 0 01.257-.113c.086-.028.171-.028.257-.028s.171 0 .228.028l-.028.591c-.057 0-.086-.028-.143-.028h-.143a.825.825 0 00-.599.225c-.143.14-.2.366-.2.675v1.406h-.542v-2.812h.029zm2.083-1.013c0-.112.028-.197.114-.281a.37.37 0 01.285-.112c.114 0 .2.028.286.112a.36.36 0 01.114.281.36.36 0 01-.114.281.371.371 0 01-.286.113.37.37 0 01-.285-.112.357.357 0 01-.114-.282zm.114 1.013h.542v2.812h-.542v-2.812zm2.996.45h-.77v1.49c0 .085.028.141.057.197.028.056.057.113.114.14a.545.545 0 00.228.057c.057 0 .143 0 .2-.028a.535.535 0 00.2-.056v.478a1.345 1.345 0 01-.257.084c-.114.028-.171.028-.228.028-.2 0-.371-.028-.485-.084a.665.665 0 01-.257-.225.562.562 0 01-.086-.31c0-.112-.028-.224-.028-.337v-1.462h-.628v-.422h.628v-.788h.542v.788h.77v.45zm.514-1.463c0-.112.028-.197.114-.281a.37.37 0 01.285-.112c.114 0 .2.028.286.112a.36.36 0 01.114.281.36.36 0 01-.114.281.371.371 0 01-.286.113.37.37 0 01-.285-.112.357.357 0 01-.114-.282zm.114 1.013h.542v2.812h-.542v-2.812zm1.798 1.603a.74.74 0 00.085.337c.057.113.114.197.229.253a.68.68 0 00.314.17c.114.027.228.056.37.056.172 0 .314-.029.429-.113.114-.084.228-.169.342-.31l.399.31c-.313.394-.713.59-1.255.59-.228 0-.428-.027-.599-.112-.172-.084-.343-.169-.457-.31-.114-.14-.228-.28-.285-.477a1.817 1.817 0 01-.114-.591c0-.197.028-.394.114-.59.085-.17.171-.338.314-.479.142-.14.285-.225.456-.31.171-.084.371-.112.599-.112.257 0 .457.057.657.141.199.084.314.197.428.337.114.141.2.31.257.479.057.168.085.365.085.534v.197h-2.368zm1.712-.422c0-.113-.029-.225-.057-.338a.546.546 0 00-.143-.253.416.416 0 00-.257-.168 1.423 1.423 0 00-.371-.057.805.805 0 00-.371.085 1.032 1.032 0 00-.285.197.653.653 0 00-.171.253.971.971 0 00-.057.281h1.712zm2.768-.478c-.057-.084-.143-.14-.228-.197a.618.618 0 00-.343-.084.683.683 0 00-.342.084c-.086.056-.143.14-.143.225 0 .084.029.14.086.197a.462.462 0 00.199.112c.086.028.143.057.229.085a.716.716 0 00.228.028c.114.028.228.056.342.112.114.029.2.085.257.17.086.055.143.14.171.224.029.085.057.197.057.338 0 .168-.028.28-.114.393a.799.799 0 01-.256.282c-.115.084-.229.112-.371.168a2.245 2.245 0 01-.428.057c-.229 0-.457-.028-.628-.113a1.246 1.246 0 01-.485-.394l.399-.337c.086.084.2.169.285.225.115.056.229.112.4.112.057 0 .143 0 .2-.028a.532.532 0 00.199-.056c.058-.028.086-.056.143-.113a.39.39 0 00.057-.168.253.253 0 00-.085-.197c-.057-.056-.115-.084-.172-.113a1.945 1.945 0 00-.228-.084c-.085-.028-.143-.028-.2-.056l-.342-.085a.891.891 0 01-.285-.14.745.745 0 01-.2-.225.594.594 0 01-.086-.338c0-.14.029-.281.086-.394a.802.802 0 01.257-.28c.114-.085.228-.113.342-.17.143-.028.257-.056.4-.056.199 0 .371.028.542.113.171.084.314.197.428.365l-.371.338zm6.706 2.109h-.771l-.514-.562c-.171.225-.37.365-.57.506a1.52 1.52 0 01-.742.169c-.228 0-.457-.028-.628-.113a1.13 1.13 0 01-.428-.281 1.179 1.179 0 01-.342-.844c0-.14.028-.281.085-.394a2.06 2.06 0 01.2-.337c.086-.112.2-.197.314-.281a1.54 1.54 0 01.371-.197 1.724 1.724 0 01-.343-.45 1.071 1.071 0 01-.142-.534c0-.17.028-.31.085-.422a.884.884 0 01.257-.31 1.54 1.54 0 01.371-.197c.143-.056.285-.056.428-.056.143 0 .285.028.428.056.143.028.257.113.343.17a.636.636 0 01.228.309.929.929 0 01.085.421.77.77 0 01-.085.366 1.86 1.86 0 01-.2.31 1.105 1.105 0 01-.285.224c-.114.057-.2.141-.314.197l.856.872.542-.872h.656l-.827 1.266.942.984zm-2.683-1.997a49.82 49.82 0 01-.257.17.756.756 0 00-.228.196c-.057.056-.114.14-.171.225a.81.81 0 00-.057.281c0 .113.028.197.057.281.057.085.114.17.171.225l.257.17c.086.027.2.056.285.056.114 0 .2-.029.286-.057.085-.028.171-.084.256-.112.086-.056.143-.113.229-.169.057-.056.114-.14.171-.197l-.999-1.069zm.799-1.322a.464.464 0 00-.142-.337c-.086-.084-.229-.112-.371-.112-.143 0-.286.028-.4.14-.114.084-.171.197-.171.366 0 .084 0 .14.028.197.029.056.057.112.115.197a.732.732 0 00.142.168c.057.056.086.113.143.14.086-.027.143-.084.228-.14.086-.056.143-.112.228-.169.086-.056.115-.112.172-.196.028-.085.028-.17.028-.253zm-58.041 5.597h-.57v4.22h.57v-4.22zm.942 1.379h.542v.421c.057-.14.2-.28.343-.365.17-.085.37-.14.57-.14.143 0 .257.027.4.055.114.028.228.113.342.197.086.085.171.197.229.338.057.14.085.31.085.478v1.8h-.514v-1.66c0-.14-.028-.253-.056-.337a.611.611 0 00-.143-.225c-.057-.056-.143-.112-.2-.112-.086-.029-.171-.029-.257-.029a1.04 1.04 0 00-.314.057.675.675 0 00-.257.168.582.582 0 00-.17.282 1.68 1.68 0 00-.058.421v1.463h-.542v-2.813zm2.911 0h.627l.856 2.165.8-2.165h.599l-1.142 2.812h-.57l-1.17-2.813zm3.681 1.603a.74.74 0 00.085.337.614.614 0 00.2.253c.086.085.2.14.314.169.114.028.228.056.371.056.171 0 .314-.028.428-.112.114-.085.228-.169.342-.31l.4.31c-.314.394-.713.562-1.256.562-.228 0-.428-.028-.599-.112-.171-.085-.342-.169-.457-.31-.114-.14-.228-.28-.285-.478a1.815 1.815 0 01-.114-.59c0-.197.029-.394.114-.591.086-.169.171-.337.314-.478.143-.14.285-.225.457-.31.17-.084.37-.112.599-.112.257 0 .456.056.656.14.171.085.314.197.428.338.114.14.2.31.257.478.057.169.086.366.086.535v.197h-2.34v.028zm1.712-.422c0-.113-.029-.225-.057-.338a.542.542 0 00-.143-.253.416.416 0 00-.257-.169c-.114-.028-.228-.056-.37-.056a.8.8 0 00-.372.085c-.114.056-.2.112-.285.196a.664.664 0 00-.171.254.988.988 0 00-.057.28h1.712zm2.739-.478a.767.767 0 00-.228-.197.615.615 0 00-.343-.085.768.768 0 00-.342.085c-.086.056-.143.14-.143.225 0 .084.029.14.086.197a.46.46 0 00.2.112c.085.028.142.056.228.085a.722.722 0 00.228.028c.114.028.229.056.343.112.114.028.2.084.257.169.085.056.142.14.17.225.03.084.058.197.058.337 0 .17-.029.282-.114.394a.803.803 0 01-.257.281c-.114.085-.228.113-.371.17a2.228 2.228 0 01-.428.055c-.228 0-.457-.028-.628-.112a1.251 1.251 0 01-.485-.394l.4-.337c.085.084.2.168.285.225a.833.833 0 00.4.112c.056 0 .142 0 .2-.028.056-.028.142-.028.199-.056a.485.485 0 00.142-.113c.029-.056.058-.084.058-.168a.254.254 0 00-.086-.197.581.581 0 00-.171-.113 1.974 1.974 0 00-.229-.084c-.085-.028-.142-.028-.2-.056l-.342-.085a.896.896 0 01-.285-.14c-.086-.057-.143-.141-.2-.225a.593.593 0 01-.085-.338c0-.14.028-.281.085-.394a.803.803 0 01.257-.281c.114-.084.228-.112.342-.169.143-.028.257-.056.4-.056.2 0 .37.028.542.112.171.085.314.197.428.366l-.37.338zm2.797-.253h-.77v1.49c0 .085.028.14.056.197.029.056.057.112.114.14a.544.544 0 00.229.057c.057 0 .142 0 .2-.028a.536.536 0 00.2-.056v.478a1.34 1.34 0 01-.258.084c-.114.028-.17.028-.228.028-.2 0-.37-.028-.485-.084a.67.67 0 01-.257-.225.561.561 0 01-.085-.31c0-.112-.029-.225-.029-.337v-1.463h-.628v-.421h.628v-.788h.542v.787h.77v.45zm.627-.45h.514v.45c0-.029.029-.085.086-.141.057-.056.114-.113.2-.169.085-.056.17-.084.285-.14.114-.029.228-.057.342-.057.2 0 .4.056.542.14a.939.939 0 01.343.395.895.895 0 01.4-.394c.17-.085.342-.14.513-.14.228 0 .4.027.542.112.143.084.257.168.343.281a.98.98 0 01.17.394c.03.14.058.31.058.45v1.631h-.542V77.05c0-.112 0-.197-.029-.31a1.287 1.287 0 00-.086-.252.382.382 0 00-.2-.17c-.085-.055-.199-.055-.313-.055-.257 0-.457.084-.57.224a1.058 1.058 0 00-.172.62v1.546h-.542v-1.462c0-.141 0-.254-.029-.366-.028-.112-.028-.197-.085-.281-.029-.085-.115-.14-.172-.197-.085-.056-.17-.056-.313-.056-.086 0-.2.028-.286.056a.443.443 0 00-.228.169 2.47 2.47 0 00-.171.28 1.68 1.68 0 00-.057.423v1.462h-.543v-2.868zm5.536 1.603a.74.74 0 00.086.337c.057.113.114.197.228.253.086.085.2.14.314.169.114.028.228.056.371.056.171 0 .314-.028.428-.112.114-.085.228-.169.342-.31l.4.31c-.314.394-.713.562-1.256.562-.228 0-.428-.028-.599-.112-.171-.085-.342-.169-.456-.31-.115-.14-.229-.28-.286-.478a1.815 1.815 0 01-.114-.59c0-.197.029-.394.114-.591.086-.169.171-.337.314-.478.143-.14.285-.225.457-.31.171-.084.371-.112.599-.112.257 0 .457.056.656.14.171.085.314.197.428.338.114.14.2.31.257.478.057.169.086.366.086.535v.197h-2.369v.028zm1.712-.422a1.37 1.37 0 00-.057-.338.538.538 0 00-.142-.253.417.417 0 00-.257-.169c-.114-.028-.228-.056-.371-.056a.799.799 0 00-.371.085c-.114.056-.2.112-.285.196a.664.664 0 00-.172.254.988.988 0 00-.057.28h1.712zm1.256-1.181h.542v.421c.057-.14.2-.28.343-.365.171-.085.371-.14.599-.14.143 0 .257.027.399.055.114.028.229.113.343.197.085.085.171.197.228.338.057.14.086.31.086.478v1.8h-.543v-1.66c0-.14-.028-.253-.057-.337a.603.603 0 00-.142-.225c-.057-.056-.143-.112-.2-.112-.086-.029-.171-.029-.257-.029-.114 0-.228.029-.314.057a.683.683 0 00-.257.168.59.59 0 00-.171.282 1.705 1.705 0 00-.057.421v1.463h-.542v-2.813zm4.908.45h-.77v1.49c0 .085.028.14.057.197.028.056.057.112.114.14a.541.541 0 00.228.057c.057 0 .143 0 .2-.028a.536.536 0 00.2-.056v.478a1.344 1.344 0 01-.257.084c-.114.028-.171.028-.229.028a1.16 1.16 0 01-.485-.084.668.668 0 01-.256-.225.553.553 0 01-.086-.31c0-.112-.029-.225-.029-.337v-1.463h-.627v-.421h.627v-.788h.543v.787h.77v.45zm2.254.253a.76.76 0 00-.228-.197.616.616 0 00-.342-.085.686.686 0 00-.343.085c-.085.056-.143.14-.143.225 0 .084.029.14.086.197a.46.46 0 00.2.112c.085.028.142.056.228.085a.639.639 0 00.228.028c.115.028.229.056.343.112.114.028.2.084.257.169a.44.44 0 01.171.225c.028.084.057.197.057.337 0 .17-.029.282-.114.394a.803.803 0 01-.257.281c-.114.085-.228.113-.371.17-.143.027-.285.055-.428.055-.228 0-.457-.028-.628-.112a1.255 1.255 0 01-.485-.394l.4-.337c.085.084.199.168.285.225a.831.831 0 00.399.112c.057 0 .143 0 .2-.028.057-.028.143-.028.2-.056a.503.503 0 00.143-.113c.028-.056.057-.084.057-.168a.254.254 0 00-.086-.197.581.581 0 00-.171-.113c-.057-.028-.143-.056-.228-.084-.086-.028-.143-.028-.2-.056l-.343-.085c-.114-.028-.199-.084-.285-.14a.755.755 0 01-.2-.225.594.594 0 01-.085-.338c0-.14.028-.281.085-.394a.803.803 0 01.257-.281c.114-.084.228-.112.343-.169.142-.028.256-.056.399-.056.2 0 .371.028.542.112.171.085.314.197.428.366l-.371.338zm5.964-1.182a1.446 1.446 0 00-.456-.365 1.297 1.297 0 00-.571-.113 1.71 1.71 0 00-.656.14c-.2.085-.371.226-.514.367a1.26 1.26 0 00-.314.534c-.085.197-.114.422-.114.675 0 .225.029.422.114.619.086.197.171.365.314.534.143.14.314.281.514.366a1.6 1.6 0 001.312 0c.171-.113.343-.225.457-.422l.485.365c-.029.057-.086.113-.171.197-.086.085-.2.169-.314.253-.143.085-.286.141-.485.225-.2.057-.4.085-.657.085a1.97 1.97 0 01-.913-.197 1.563 1.563 0 01-.685-.506 1.82 1.82 0 01-.428-.703 2.567 2.567 0 01-.142-.788c0-.337.057-.619.171-.9a2.01 2.01 0 01.457-.703c.199-.197.428-.366.713-.478.285-.113.571-.169.913-.169.285 0 .571.056.828.169.285.112.485.281.656.506l-.514.31zm.942 1.885c0-.197.028-.394.114-.563.086-.169.2-.337.314-.478.143-.14.285-.253.485-.31.171-.084.371-.112.599-.112.2 0 .4.028.599.113.172.084.343.197.486.31.142.14.256.28.313.477.086.169.115.366.115.563 0 .197-.029.394-.115.59a1.984 1.984 0 01-.313.478 1.436 1.436 0 01-.486.31c-.171.084-.37.112-.599.112-.2 0-.399-.028-.599-.112-.171-.084-.342-.169-.485-.31-.143-.14-.257-.28-.314-.478-.057-.197-.114-.393-.114-.59zm.599 0c0 .14.029.281.057.394.057.112.114.225.2.309.086.084.171.14.285.197a.923.923 0 00.4.084.921.921 0 00.399-.084c.114-.056.229-.113.286-.197.085-.084.142-.197.199-.31.057-.112.057-.253.057-.393s-.028-.281-.057-.394a1.171 1.171 0 00-.199-.31 1.037 1.037 0 00-.286-.196.923.923 0 00-.399-.085.924.924 0 00-.4.085c-.114.056-.228.112-.285.197-.086.084-.143.197-.2.309a1.665 1.665 0 00-.057.394zm3.139-1.406h.514v.45c0-.029.057-.085.085-.141a1.22 1.22 0 01.2-.169c.086-.056.171-.084.285-.14.115-.029.229-.057.343-.057.2 0 .399.056.542.14a.932.932 0 01.342.395.9.9 0 01.4-.394c.171-.085.342-.14.514-.14.228 0 .399.027.542.112.142.084.256.168.342.281a.966.966 0 01.171.394c.029.14.057.31.057.45v1.631h-.542V77.05c0-.112 0-.197-.028-.31 0-.112-.029-.196-.086-.252a.381.381 0 00-.2-.17c-.085-.055-.199-.055-.314-.055-.256 0-.456.084-.57.224a1.059 1.059 0 00-.171.62v1.546h-.543v-1.462c0-.141 0-.254-.028-.366-.029-.112-.029-.197-.086-.281-.028-.085-.114-.14-.171-.197-.086-.056-.171-.056-.314-.056-.085 0-.2.028-.285.056a.447.447 0 00-.229.169 2.454 2.454 0 00-.171.28 1.704 1.704 0 00-.057.423v1.462h-.542v-2.868zm5.136 0h.514v.45c0-.029.029-.085.086-.141.057-.056.114-.113.199-.169.086-.056.172-.084.286-.14.114-.029.228-.057.342-.057.2 0 .4.056.542.14a.94.94 0 01.343.395.892.892 0 01.399-.394c.171-.085.343-.14.514-.14.228 0 .399.027.542.112.143.084.257.168.342.281a.981.981 0 01.172.394c.028.14.057.31.057.45v1.631h-.542V77.05c0-.112 0-.197-.029-.31 0-.112-.028-.196-.086-.252a.383.383 0 00-.199-.17c-.086-.055-.2-.055-.314-.055-.257 0-.457.084-.571.224a1.059 1.059 0 00-.171.62v1.546h-.542v-1.462c0-.141 0-.254-.029-.366a.47.47 0 00-.085-.281c-.029-.085-.115-.14-.172-.197-.085-.056-.171-.056-.314-.056-.085 0-.199.028-.285.056a.444.444 0 00-.228.169 2.454 2.454 0 00-.171.28 1.658 1.658 0 00-.057.423v1.462h-.543v-2.868zm5.023-1.013c0-.112.028-.197.114-.281a.368.368 0 01.285-.113c.114 0 .2.028.285.113a.358.358 0 01.115.281.358.358 0 01-.115.281.368.368 0 01-.285.113.368.368 0 01-.285-.113c-.057-.084-.114-.169-.114-.281zm.142 1.013h.542v2.812h-.542v-2.813zm2.911.703c-.057-.085-.143-.141-.228-.197a.617.617 0 00-.343-.085.766.766 0 00-.342.085c-.086.056-.143.14-.143.225 0 .084.029.14.086.197a.461.461 0 00.199.112c.086.028.143.056.229.085a.716.716 0 00.228.028c.114.028.228.056.342.112.115.028.2.084.257.169a.43.43 0 01.171.225c.029.084.057.197.057.337 0 .17-.028.282-.114.394a.8.8 0 01-.256.281c-.115.085-.229.113-.371.17a2.237 2.237 0 01-.428.055c-.229 0-.457-.028-.628-.112a1.248 1.248 0 01-.485-.394l.399-.337c.086.084.2.168.286.225a.831.831 0 00.399.112c.057 0 .143 0 .2-.028.057-.028.142-.028.199-.056.058-.028.086-.056.143-.113.029-.056.057-.084.057-.168a.253.253 0 00-.085-.197c-.057-.057-.115-.085-.172-.113a1.947 1.947 0 00-.228-.084c-.085-.028-.143-.028-.2-.056l-.342-.085a.89.89 0 01-.285-.14c-.086-.057-.143-.141-.2-.225a.594.594 0 01-.086-.338c0-.14.029-.281.086-.394a.803.803 0 01.257-.281c.114-.084.228-.112.342-.169.143-.028.257-.056.4-.056.199 0 .371.028.542.112.171.085.314.197.428.366l-.371.338zm2.711 0a.763.763 0 00-.229-.197.611.611 0 00-.342-.085.682.682 0 00-.342.085c-.086.056-.143.14-.143.225 0 .084.028.14.085.197a.47.47 0 00.2.112c.086.028.143.056.228.085a.725.725 0 00.229.028c.114.028.228.056.342.112.114.028.2.084.257.169a.43.43 0 01.171.225c.029.084.057.197.057.337 0 .17-.028.282-.114.394a.794.794 0 01-.257.281c-.114.085-.228.113-.371.17a2.217 2.217 0 01-.428.055c-.228 0-.456-.028-.627-.112a1.25 1.25 0 01-.486-.394l.4-.337c.086.084.2.168.285.225a.836.836 0 00.4.112c.057 0 .143 0 .2-.028.057-.028.142-.028.199-.056a.503.503 0 00.143-.113c.029-.056.057-.084.057-.168a.251.251 0 00-.086-.197.581.581 0 00-.171-.113 1.947 1.947 0 00-.228-.084c-.086-.028-.143-.028-.2-.056l-.342-.085a.905.905 0 01-.286-.14.766.766 0 01-.199-.225.594.594 0 01-.086-.338c0-.14.029-.281.086-.394a.794.794 0 01.257-.281c.114-.084.228-.112.342-.169.143-.028.257-.056.399-.056.2 0 .371.028.543.112.171.085.313.197.428.366l-.371.338zm1.027-1.716a.36.36 0 01.114-.281.37.37 0 01.286-.113.37.37 0 01.285.113.357.357 0 01.114.281.357.357 0 01-.114.281.37.37 0 01-.285.113.37.37 0 01-.286-.113c-.057-.084-.114-.169-.114-.281zm.143 1.013h.542v2.812h-.542v-2.813zm1.227 1.406c0-.197.028-.394.114-.563.085-.169.2-.337.314-.478.142-.14.285-.253.485-.31.171-.084.371-.112.599-.112.2 0 .4.028.599.113.172.084.343.197.485.31.143.14.257.28.314.477.086.169.114.366.114.563 0 .197-.028.394-.114.59a2.7 2.7 0 01-.314.478 1.422 1.422 0 01-.485.31c-.171.084-.371.112-.599.112-.2 0-.399-.028-.599-.112-.171-.084-.343-.169-.485-.31-.143-.14-.257-.28-.314-.478a1.444 1.444 0 01-.114-.59zm.57 0c0 .14.029.281.058.394.057.112.114.225.199.309.086.084.171.14.286.197a.918.918 0 00.399.084.926.926 0 00.4-.084c.114-.056.228-.113.285-.197a1.15 1.15 0 00.2-.31c.057-.112.057-.253.057-.393s-.029-.281-.057-.394a1.15 1.15 0 00-.2-.31 1.032 1.032 0 00-.285-.196.927.927 0 00-.4-.085.92.92 0 00-.399.085c-.115.056-.229.112-.286.197-.085.084-.142.197-.199.309a1.613 1.613 0 00-.058.394zm3.139-1.406h.542v.421c.058-.14.2-.28.343-.365.171-.085.371-.14.571-.14.142 0 .256.027.399.055.114.028.228.113.343.197.085.085.171.197.228.338.057.14.085.31.085.478v1.8h-.542v-1.66c0-.14-.028-.253-.057-.337a.593.593 0 00-.143-.225c-.057-.056-.142-.112-.199-.112-.086-.029-.171-.029-.257-.029-.114 0-.228.029-.314.057a.676.676 0 00-.257.168.59.59 0 00-.171.282 1.658 1.658 0 00-.057.421v1.463h-.542v-2.813h.028zM84.049 49.094h2.739l6.506 14.765h-3.71L88.3 60.737h-5.82l-1.255 3.122H77.6l6.449-14.765zm1.284 4.303l-1.827 4.584h3.653l-1.826-4.584zm16.892-.675a2.117 2.117 0 00-1.084-.731 3.738 3.738 0 00-1.313-.254 3.53 3.53 0 00-.741.085c-.257.056-.486.14-.714.253-.228.112-.4.281-.542.478-.143.197-.2.422-.2.703 0 .45.171.788.514 1.013.342.225.77.45 1.284.59.514.17 1.056.338 1.655.507a6.66 6.66 0 011.655.703c.514.31.942.703 1.284 1.237.343.507.514 1.21.514 2.053 0 .816-.143 1.547-.457 2.138a4.415 4.415 0 01-1.255 1.519 5.809 5.809 0 01-1.827.9c-.684.197-1.426.28-2.197.28-.97 0-1.883-.14-2.71-.45-.828-.28-1.599-.759-2.34-1.405l2.34-2.532c.342.45.77.788 1.284 1.041a3.586 3.586 0 001.597.366c.257 0 .543-.029.828-.085.285-.056.514-.169.742-.281a1.48 1.48 0 00.542-.478c.143-.197.2-.422.2-.675 0-.45-.171-.788-.514-1.04a4.355 4.355 0 00-1.312-.648c-.514-.168-1.085-.365-1.684-.534a6.916 6.916 0 01-1.684-.731 4.441 4.441 0 01-1.312-1.21c-.343-.506-.514-1.153-.514-1.968 0-.788.171-1.491.485-2.082a4.58 4.58 0 011.256-1.49 5.811 5.811 0 011.826-.9 7.718 7.718 0 012.14-.31c.856 0 1.655.113 2.454.366a5.331 5.331 0 012.14 1.181l-2.34 2.39zm7.676-3.628h-3.31v14.765h3.31V49.094zm12.556 3.853c-.314-.394-.713-.675-1.198-.9a4.293 4.293 0 00-1.627-.31c-.628 0-1.198.113-1.712.366a3.701 3.701 0 00-1.37.984c-.399.422-.685.929-.913 1.52-.228.59-.314 1.209-.314 1.884 0 .703.114 1.322.314 1.912.228.59.514 1.069.913 1.49.371.423.828.76 1.341.985a4.067 4.067 0 001.656.366c.684 0 1.284-.14 1.797-.422a3.847 3.847 0 001.284-1.153l2.74 2.025a5.718 5.718 0 01-2.397 1.94 7.426 7.426 0 01-2.996.62c-1.17 0-2.255-.17-3.225-.535a7.607 7.607 0 01-2.568-1.547 7.112 7.112 0 01-1.684-2.447c-.399-.956-.599-2.025-.599-3.206s.2-2.25.599-3.206a7.11 7.11 0 011.684-2.447c.713-.675 1.569-1.182 2.568-1.547.999-.366 2.055-.535 3.225-.535.428 0 .856.029 1.312.113a7.24 7.24 0 011.341.366c.457.168.885.393 1.284.675.4.28.771.618 1.113 1.012l-2.568 1.997z" fill="#fff"/></svg>