<svg width="176" height="128" fill="none" xmlns="http://www.w3.org/2000/svg"><path fill="#000" d="M0 0h176v128H0z"/><path fill="#000" d="M61 45h54.653v37.123H61z"/><path fill-rule="evenodd" clip-rule="evenodd" d="M112.63 46.284c2.286 1.505 2.938 3.342 3.023 6.514v22.267c-.279 3.676-2.848 5.676-5.147 6.595-1.097.333-1.558.415-2.754.415-2.02.085-4.499-.664-6.246-2.5-.729-.67-2.205-3.919-2.205-3.919l-8.454-20.44c-.504-1.206-1.58-1.852-2.645-1.898-1.07-.045-2.127.517-2.585 1.73l-2.675 6.425-4.494-10.677c2.212-3.591 4.325-4.512 6.8-5.344a12.28 12.28 0 013.659-.447h.141c1.84.058 3.651.496 5.109 1.28.83.504 3.039 1.838 4.503 5.091l8.912 22.528V53.383l-3.4 8.673-4.228-10.846c.636-2.502 2.574-4.59 4.867-5.592a8.052 8.052 0 012.668-.6 9.154 9.154 0 015.151 1.266z" fill="#fff"/><path fill-rule="evenodd" clip-rule="evenodd" d="M61 74.32V52.129c.272-3.752 2.933-5.756 5.236-6.676 1.002-.33 1.47-.413 2.657-.413 2.02 0 4.592.667 6.246 2.586.742.662 2.204 3.92 2.204 3.92L85.797 71.9c.527 1.15 1.528 1.783 2.541 1.881 1.12.106 2.256-.444 2.784-1.71l2.577-6.432 4.497 10.762c-2.203 3.593-4.313 4.422-6.791 5.26a12.79 12.79 0 01-2.96.45c-2.125.087-4.271-.324-5.957-1.288-.828-.494-3.028-1.749-4.493-5.004l-8.817-22.605v20.607l3.303-8.683L76.7 75.985c-.546 2.42-2.571 4.507-4.865 5.51a7.953 7.953 0 01-2.33.578c-1.91.186-3.852-.279-5.478-1.167-2.3-1.582-2.94-3.335-3.026-6.586z" fill="#fff"/></svg>