<svg width="176" height="128" fill="none" xmlns="http://www.w3.org/2000/svg"><path fill="#000" d="M0 0h176v128H0z"/><path d="M90.169 64.163c1.712.609 2.487.707 4.902.491-1.236.624-.741 1.588-2.721 1.356-1.85-.217-1.27-.882-2.181-1.847zM76 44.943s-.18-1.247-3.335-5.198c4.583 1.631 5.652 2.344 8.399 4.676-2.39-.013-5.065.522-5.065.522zm28.274.107s1.106-4.82 4.978-9.246c-4.536 1.99-6.859 5.883-7.855 8.65 1.552.426 2.877.595 2.877.595zm-14.429 7.756c.14.084.338.147.386.328l-.022.033c.252.961.457 2.03.35 3.095-.023.019-.071.036-.09.012-1.44-1.82-2.851-3.05-4.432-3.833-.036-.016.05-.084.09-.09l.68-.124c1.049-.027 2.118.165 3.038.579zm5.053 0c-.138.084-.337.147-.384.328l.025.033c-.256.961-.46 2.03-.353 3.095.023.019.071.036.09.012 1.44-1.82 2.852-3.05 4.432-3.833.034-.016-.05-.084-.092-.09l-.68-.124c-1.048-.027-2.117.165-3.038.579zM82.54 49.105s5.023 8.12 5.8 14.343c-9.964-1.52-15.16-.111-19.996 5.101-.971-4.86-.475-8.677.107-11.01 2.528 1.556 4.949 3.815 4.949 3.815s-2.495-5.328-4.83-7.856c.832-2.732 2.734-5.11 2.734-5.11s4.743 2.288 7.368 7.486c-.582-5.055-2.177-9.757-2.177-9.757s2 1.499 6.045 2.988z" fill="#fff"/><path d="M68.676 69.92s2.747-3.586 8.232-4.117c9.479-.918 21.059 10.264 31.839-3.751-.584 6.804-7.34 13.825-18.963 10.58-6.235-1.74-8.742-4.504-13.584-4.532-4.575-.023-7.524 1.82-7.524 1.82z" fill="#fff"/><path d="M103.831 47.194c-1.038.259-3.43 2.09-3.43 2.09s-.886 2.1-2.103 6.97c-1.069 4.277-1.81 8.205-1.81 8.205s7.675-.347 11.105-3.778c-1.548-2.545.111-7.966 1.771-10.07-3.319 1.218-6.085 5.866-6.085 5.866s-1.218-5.521.552-9.283zM84.42 42.493s2.463-2.722 7.196-2.917c5.059-.208 6.222.974 6.222.974s-1.88-3.826-3.761-4.085c-2.127-.293-4.074.46-5.51 1.296-1.554.908-2.98 1.881-4.147 4.732zm.016-9.982s3.158-.193 6.141.779c-4.602.907-8.28 4.878-9.642 8.685-.063-3.094-.713-6.871 3.5-9.464zM65.32 76.334h-2.971v7.334h-1.107v-7.334H58.27v-.983h7.05v.983zm4.567 7.334h-1.044v-.664a24.05 24.05 0 00-.378.266 2.637 2.637 0 01-.462.27 3.238 3.238 0 01-.603.215 3.214 3.214 0 01-.799.087 1.992 1.992 0 01-1.43-.56c-.39-.372-.586-.848-.586-1.425 0-.472.1-.855.304-1.148.204-.29.493-.521.87-.688.38-.171.835-.282 1.369-.341.533-.06 1.103-.107 1.714-.135v-.164a1.26 1.26 0 00-.126-.59.89.89 0 00-.36-.368 1.47 1.47 0 00-.537-.175 4.89 4.89 0 00-.653-.044c-.275 0-.584.036-.922.11a6.99 6.99 0 00-1.05.318h-.056v-1.067c.205-.056.5-.12.889-.186.387-.067.768-.1 1.144-.1.44 0 .822.036 1.148.108.325.072.607.197.845.373.236.17.415.392.537.664.123.27.184.609.184 1.01v4.234h.002zm-1.043-1.535v-1.737c-.32.02-.698.044-1.131.084-.435.035-.778.09-1.031.16a1.7 1.7 0 00-.731.4c-.187.182-.28.43-.28.748 0 .358.108.626.324.807.216.179.545.27.988.27.368 0 .706-.072 1.012-.216.305-.144.587-.315.849-.516zm7.322-.263c0 .567-.236 1.036-.707 1.402-.472.364-1.115.547-1.93.547-.462 0-.885-.056-1.272-.167a5.43 5.43 0 01-.969-.36v-1.178h.056c.331.248.7.449 1.105.594.407.15.796.222 1.168.222.462 0 .823-.074 1.083-.224.262-.148.392-.383.392-.704 0-.246-.072-.432-.214-.561-.141-.124-.412-.232-.814-.321a16.985 16.985 0 00-.585-.119 8.212 8.212 0 01-.657-.145c-.546-.144-.936-.358-1.164-.638-.23-.282-.344-.628-.344-1.039 0-.256.053-.498.16-.725.105-.225.267-.428.483-.611a2.3 2.3 0 01.796-.414 3.537 3.537 0 011.08-.155c.374 0 .75.046 1.132.137.381.093.699.202.952.333v1.122h-.056a3.767 3.767 0 00-.978-.5 3.36 3.36 0 00-1.128-.203c-.384 0-.708.073-.973.22-.265.146-.396.365-.396.656 0 .258.08.452.24.582.156.13.41.236.76.318.193.045.41.088.65.134.24.043.44.084.6.122.49.112.865.305 1.129.574.268.28.4.647.4 1.101zm10.414 1.798h-1.05v-3.552c0-.268-.01-.528-.037-.777a1.639 1.639 0 00-.153-.597.854.854 0 00-.368-.366c-.161-.08-.392-.123-.693-.123-.293 0-.588.075-.882.223a5.432 5.432 0 00-.883.561 5.56 5.56 0 01.037.637v3.995h-1.049v-3.553c0-.275-.011-.538-.036-.787a1.652 1.652 0 00-.155-.594.837.837 0 00-.368-.361c-.16-.079-.391-.122-.694-.122-.286 0-.573.073-.862.216-.29.14-.576.32-.864.54v4.66h-1.049v-6.24h1.05v.693a4.71 4.71 0 01.98-.636c.325-.155.674-.23 1.043-.23.424 0 .784.09 1.08.269.296.182.516.425.66.743.425-.357.813-.614 1.164-.771.35-.16.725-.24 1.123-.24.685 0 1.19.208 1.516.623.327.415.489.995.489 1.741v4.048h.001zm6.565 0h-1.049v-.664c-.09.064-.217.152-.375.266a2.67 2.67 0 01-.46.27 3.25 3.25 0 01-.605.215 3.242 3.242 0 01-.8.087c-.562 0-1.039-.186-1.428-.56-.392-.372-.587-.848-.587-1.425 0-.472.102-.855.303-1.148.203-.29.491-.521.869-.688.38-.171.836-.282 1.368-.341.532-.06 1.103-.107 1.714-.135v-.164c0-.236-.04-.433-.124-.59a.912.912 0 00-.36-.368 1.458 1.458 0 00-.536-.175 4.908 4.908 0 00-.654-.044c-.274 0-.584.036-.924.11a7.114 7.114 0 00-1.05.318h-.055v-1.067c.205-.056.5-.12.89-.186.386-.067.766-.1 1.143-.1a5.4 5.4 0 011.148.108c.325.072.609.197.846.373.236.17.415.392.536.664.123.27.187.609.187 1.01v4.234h.003zm-1.049-1.535v-1.737c-.319.018-.696.043-1.13.084-.434.035-.777.09-1.03.16a1.69 1.69 0 00-.732.4c-.186.182-.279.43-.279.748 0 .358.107.626.323.807.216.179.546.27.989.27.368 0 .708-.072 1.012-.216.303-.144.587-.315.847-.516zm7.972 1.535h-1.05v-3.552c0-.286-.019-.556-.05-.808-.034-.25-.095-.448-.184-.59a.864.864 0 00-.401-.348 1.731 1.731 0 00-.682-.117c-.289 0-.587.073-.903.216-.311.14-.611.321-.898.54v4.66h-1.05V77.43h1.05v.692a4.271 4.271 0 011.017-.636 2.64 2.64 0 011.077-.23c.675 0 1.188.203 1.541.61.354.406.53.992.53 1.755v4.047h.003zm2.81-7.284h-1.184v-1.091h1.184v1.091zm-.067 7.284h-1.05v-6.24h1.05v6.24zm6.595 0h-1.046v-.664c-.092.064-.218.152-.376.266a3.187 3.187 0 01-1.066.485 3.208 3.208 0 01-.798.087c-.563 0-1.039-.186-1.429-.56-.393-.372-.589-.848-.589-1.425 0-.472.102-.855.306-1.148.204-.29.491-.521.868-.688.378-.171.836-.282 1.368-.341.533-.06 1.104-.107 1.715-.135v-.164a1.25 1.25 0 00-.125-.59.902.902 0 00-.36-.368 1.47 1.47 0 00-.536-.175 4.923 4.923 0 00-.654-.044c-.276 0-.584.036-.922.11a7.009 7.009 0 00-1.05.318h-.057v-1.067c.206-.056.502-.12.89-.186.387-.067.768-.1 1.145-.1a5.4 5.4 0 011.147.108c.325.072.609.197.847.373.234.17.414.392.536.664.123.27.185.609.185 1.01v4.234h.001zm-1.046-1.535v-1.737c-.32.02-.697.044-1.131.084a5.73 5.73 0 00-1.031.16c-.302.086-.546.22-.731.4-.186.182-.279.43-.279.748 0 .358.108.626.323.807.216.18.545.27.989.27a2.33 2.33 0 001.011-.216c.306-.144.589-.315.849-.516zm7.972 1.535h-1.051v-3.552c0-.286-.016-.556-.048-.808-.035-.25-.096-.448-.185-.59a.87.87 0 00-.402-.348 1.726 1.726 0 00-.682-.117c-.288 0-.586.073-.901.216-.313.14-.611.321-.898.54v4.66h-1.051V77.43h1.051v.692a4.227 4.227 0 011.016-.636c.35-.154.708-.23 1.078-.23.673 0 1.188.203 1.54.61.355.406.531.992.531 1.755v4.047h.002zm-54.92 11.051c-.456.208-.952.389-1.489.545-.54.153-1.06.23-1.563.23a5.608 5.608 0 01-1.782-.268c-.54-.18-1-.447-1.379-.803a3.613 3.613 0 01-.887-1.355c-.209-.544-.312-1.176-.312-1.902 0-1.33.388-2.379 1.164-3.149.776-.768 1.842-1.151 3.197-1.151.474 0 .957.056 1.45.168a7.957 7.957 0 011.595.578v1.315h-.1a8.01 8.01 0 00-.504-.352 4.996 4.996 0 00-.647-.366 4.86 4.86 0 00-.876-.286 4.88 4.88 0 00-1.109-.115c-.93 0-1.667.298-2.209.896-.541.598-.812 1.408-.812 2.427 0 1.076.282 1.915.849 2.512.566.597 1.336.897 2.313.897.356 0 .714-.034 1.07-.106.356-.07.667-.163.935-.274v-2.038h-2.228v-.972h3.324v3.569zm7.036-2.504c0 1.018-.26 1.82-.782 2.41-.522.587-1.22.88-2.094.88-.883 0-1.585-.293-2.104-.88-.52-.59-.78-1.392-.78-2.41 0-1.017.26-1.82.78-2.41.519-.591 1.22-.885 2.104-.885.873 0 1.572.294 2.094.885.523.592.782 1.393.782 2.41zm-1.084 0c0-.807-.158-1.409-.475-1.802-.316-.391-.756-.588-1.317-.588-.57 0-1.013.197-1.328.588-.314.393-.47.995-.47 1.802 0 .781.157 1.374.473 1.779.316.407.758.607 1.325.607.558 0 .996-.199 1.314-.6.32-.401.478-.995.478-1.786zm7.654-3.122l-2.525 6.241h-1.056l-2.509-6.24h1.14L72 94.06l1.916-4.967h1.1zm6.13 3.229h-4.596c0 .383.06.716.174 1.001.115.284.273.52.474.704.194.177.424.312.69.402.266.087.56.134.88.134a3.46 3.46 0 001.28-.255c.431-.171.737-.336.92-.5h.056v1.145a8.702 8.702 0 01-1.084.373c-.368.1-.756.152-1.16.152-1.036 0-1.845-.28-2.424-.842-.583-.561-.874-1.355-.874-2.388 0-1.02.28-1.83.836-2.429.556-.6 1.29-.9 2.199-.9.841 0 1.49.246 1.947.738.456.49.684 1.191.684 2.094v.571h-.002zm-1.02-.804c-.003-.55-.143-.98-.416-1.278-.273-.304-.69-.453-1.249-.453-.562 0-1.009.164-1.343.497-.333.33-.524.744-.568 1.234h3.576zm6.336-1.278h-.055a3.337 3.337 0 00-.456-.082 4.493 4.493 0 00-.523-.026 2.15 2.15 0 00-.938.217c-.3.144-.59.328-.871.557v4.43h-1.05v-6.24h1.05v.921c.416-.336.784-.572 1.105-.71.317-.141.642-.211.974-.211.183 0 .315.004.396.014.083.01.205.027.37.052v1.078h-.002zm6.151 5.094h-1.05V91.78c0-.286-.016-.555-.05-.805-.032-.253-.095-.45-.184-.59a.853.853 0 00-.402-.35c-.174-.076-.402-.115-.683-.115a2.21 2.21 0 00-.898.21 4.512 4.512 0 00-.9.545v4.659h-1.05v-6.24h1.05v.695a4.282 4.282 0 011.016-.64c.351-.152.71-.227 1.08-.227.674 0 1.188.203 1.54.61.354.404.53.99.53 1.752v4.05zm10.812 0h-1.051V91.78c0-.267-.012-.526-.035-.776-.026-.25-.076-.449-.155-.598a.845.845 0 00-.368-.362c-.161-.082-.39-.123-.693-.123a1.96 1.96 0 00-.882.22 5.45 5.45 0 00-.884.562 5.51 5.51 0 01.039.637v3.994h-1.05V91.78a8.21 8.21 0 00-.036-.785 1.615 1.615 0 00-.154-.595.837.837 0 00-.367-.36c-.16-.08-.393-.12-.693-.12a1.98 1.98 0 00-.863.21 5.02 5.02 0 00-.863.545v4.659h-1.05v-6.24h1.05v.695a4.64 4.64 0 01.98-.64 2.424 2.424 0 011.042-.227c.425 0 .786.088 1.081.269.297.178.516.425.662.743.424-.358.812-.616 1.163-.773.348-.16.724-.238 1.122-.238.684 0 1.191.208 1.516.622.326.415.49.995.49 1.74v4.049h-.001zm6.998-3.012h-4.598c0 .383.058.716.173 1.001a1.9 1.9 0 00.475.704c.193.177.422.312.688.402.268.087.561.134.881.134.425 0 .852-.085 1.283-.255.428-.171.737-.336.918-.5h.056v1.145a8.72 8.72 0 01-1.085.373c-.367.1-.755.152-1.161.152-1.036 0-1.841-.28-2.424-.842-.58-.561-.871-1.355-.871-2.388 0-1.02.278-1.83.836-2.429.558-.6 1.288-.9 2.198-.9.841 0 1.49.246 1.946.738.457.49.685 1.191.685 2.094v.571zm-1.021-.804c-.005-.55-.143-.98-.418-1.278-.273-.304-.69-.453-1.247-.453-.562 0-1.01.164-1.344.497-.333.33-.52.744-.566 1.234h3.575zm7.658 3.816h-1.051V91.78a6.36 6.36 0 00-.048-.805c-.035-.253-.096-.45-.185-.59a.842.842 0 00-.402-.35c-.176-.076-.402-.115-.682-.115-.288 0-.585.071-.9.21a4.59 4.59 0 00-.899.545v4.659h-1.05v-6.24h1.05v.695a4.273 4.273 0 011.017-.64 2.664 2.664 0 011.077-.227c.673 0 1.189.203 1.541.61.355.404.531.99.531 1.752v4.05h.001zm4.938-.056a5.533 5.533 0 01-1.268.177c-.637 0-1.122-.171-1.452-.513-.332-.344-.498-.893-.498-1.65v-3.317h-.709v-.882h.708V87.3h1.05v1.794H122v.882h-2.169v2.844c0 .327.008.584.024.767.014.185.068.359.157.518a.748.748 0 00.337.326c.143.068.363.102.657.102.171 0 .349-.025.536-.075.186-.05.32-.091.404-.124H122v.945z" fill="#fff"/></svg>