<svg width="176" height="128" fill="none" xmlns="http://www.w3.org/2000/svg"><path fill="#000" d="M0 0h176v128H0z"/><path d="M19.007 66.91v-7.118H17v-1.946l2.007-.264v-2.427l4.332-.598v3.026h2.872v2.219h-2.872v6.75c0 1.267.36 1.916 1.63 1.916.451 0 1.068-.047 1.382-.11v1.646c-.694.402-2.178.744-3.55.744-2.582 0-3.792-1.117-3.792-3.839h-.002zm28.878-8.198c1.087 0 1.675.19 1.675 3.964l-3.631.209c.048-3.422.574-4.173 1.956-4.173zm-1.92 5.708h7.806c0-5.396-1.888-7.117-5.814-7.117-3.9 0-6.46 2.465-6.46 6.699 0 4.373 2.321 6.792 6.82 6.792 2.417 0 4.37-1.061 4.977-1.87v-1.251c-.909.27-1.843.444-3.518.444-2.364 0-3.583-1.205-3.812-3.708v.011zm-19.24 4.886l1.389-.627V54.69l-1.46-.666v-1.167L32.052 52h.366v7h.145a6.782 6.782 0 014.519-1.699c2.21 0 3.308 1.081 3.308 3.439v7.937l1.404.63v1.183h-7.15v-1.183l1.405-.63v-6.976c0-1.305-.581-1.793-1.76-1.793-.645 0-1.258.115-1.79.326v8.445l1.404.63v1.184h-7.167v-1.188l-.011.001zm95.035-11.323v1.137l1.467.648v8.474l-1.398.617v1.155h7.174v-1.14l-1.398-.616V57.164h-.368l-5.477.83v-.01zm14.875 9.592v-3.379l-1.018.093c-1.014.092-1.845.731-1.845 1.929 0 1.379.798 1.833 1.638 1.833.487 0 .982-.228 1.224-.477l.001.001zm-3.089-8.727l-.924 2.551h-2.264v-3.282c1.223-.36 2.713-.949 5.022-.949 3.512 0 5.622.986 5.622 3.79v7.274l1.395.616v.943c-.429.219-1.398.498-2.457.498-1.371 0-2.601-.416-2.804-1.772h-.129c-.584 1.11-2.142 1.787-3.78 1.787-2.336 0-3.812-1.433-3.812-3.513 0-2.558 1.768-2.974 4.655-3.544l2.515-.416v-1.632c0-1.606-.519-2.404-2.19-2.404-.227 0-.633.028-.892.053h.043zm9.208 9.995l1.394-.6v-8.475l-1.467-.648v-1.124l5.429-.817h.368v1.664h.146c1.184-1.017 2.774-1.649 4.542-1.649 2.222 0 3.325 1.048 3.325 3.344v7.72l1.412.616v1.156h-7.186v-1.14l1.411-.605v-6.84c0-1.27-.584-1.744-1.768-1.744-.649 0-1.266.113-1.801.318v8.213l1.396.613v1.15h-7.17V68.84l-.031.003zm-27.089-14.207l-1.463-.631v-1.14l5.473-.833h.368v15.825l1.394.724v1.079l-5.19.57h-.357v-1.294h-.146c-.551.662-1.671 1.356-3.309 1.356-2.401 0-5.272-1.449-5.272-6.24 0-5.04 2.936-6.858 6.423-6.858.731 0 1.59.154 2.125.524v-3.082h-.046zm0 13.16v-8.461c-.341-.247-.698-.452-1.493-.452-1.369 0-2.417 1.171-2.417 4.7 0 3.09.828 4.438 2.56 4.438.673 0 1.051-.13 1.346-.244l.004.019zm-54.3 6.363c-2.39 0-3.21-.8-3.21-1.664 0-.6.168-1.017.505-1.402h4.628c1.082 0 1.574.308 1.574.955.003 1.295-.755 2.111-3.496 2.111zm.038-15.532c.957 0 1.573.4 1.573 2.897 0 2.496-.617 2.757-1.559 2.757-.94 0-1.546-.208-1.546-2.754 0-2.542.6-2.897 1.553-2.897l-.02-.003zm2.904 8.675h-4.704c-.503 0-.925-.37-.925-.8 0-.34.26-.694.584-.925.714.2 1.297.262 2.173.262 3.391 0 5.71-1.464 5.71-4.192 0-1.217-.535-1.91-1.378-2.62v-.092l2.173.725.293.015v-2.513h-.244l-3.346.632h-.187c-.834-.293-1.996-.601-3.05-.601-3.39 0-5.735 1.598-5.735 4.311 0 1.654.876 2.885 2.185 3.566v.13c-.756.506-2.206 1.545-2.206 2.874 0 .971.674 1.931 2.086 2.22v.133c-1.485.293-3.147.755-3.147 2.373 0 1.665 2.538 2.897 6.676 2.897 5.142 0 7.368-1.88 7.368-4.854 0-2.45-1.428-3.59-4.33-3.59l.004.05zm32.945-9.307v1.14l1.476.648v8.475l-1.395.616v1.156h7.557v-1.14l-1.8-.617v-6.981c.746-.34 1.728-.453 2.903-.453.386 0 .844.046 1.109.112v-3.65c-.147-.047-.434-.068-.649-.068-1.444 0-2.623.883-3.394 2.558h-.13v-2.638h-.373l-5.304.829v.014zm-6.035 9.6v-3.39l-1.005.093c-1.006.092-1.833.74-1.833 1.941 0 1.387.795 1.834 1.638 1.834.487 0 .983-.231 1.223-.478h-.023zM88.12 58.86l-.924 2.557h-2.271v-3.299c1.232-.36 2.725-.949 5.029-.949 3.52 0 5.628.986 5.628 3.79v7.274l1.395.616v.943c-.421.219-1.395.498-2.45.498-1.362 0-2.594-.416-2.789-1.772h-.13c-.584 1.11-2.141 1.787-3.77 1.787-2.33 0-3.795-1.433-3.795-3.513 0-2.558 1.779-2.974 4.664-3.544l2.528-.416V61.2c0-1.606-.51-2.404-2.19-2.404-.219 0-.632.028-.895.053l-.03.01zm-18.07.909l-1.46-.648v-1.124l5.483-.817h.373v8.797c0 1.425.735 1.68 1.841 1.68.81 0 1.135-.14 1.573-.298v-7.592l-1.475-.647v-1.136l5.466-.829h.357v10.694l1.46.724v1.085l-5.32.555h-.384l-.004-1.665h-.147c-.84.987-2.226 1.71-4.006 1.71-2.644 0-3.775-1.787-3.775-3.96v-6.531l.018.002zM125.329 52c1.298 0 2.344.997 2.344 2.228 0 1.23-1.049 2.228-2.345 2.228-1.298 0-2.353-.986-2.353-2.219 0-1.232 1.055-2.218 2.353-2.218l.001-.019zm31.875 17.313l2.796.007-2.796-.007z" fill="#fff"/></svg>