<svg width="140" height="48" fill="none" xmlns="http://www.w3.org/2000/svg"><path fill-rule="evenodd" clip-rule="evenodd" d="M45.6 15.34L19.095 41.845h-.713L.992 24.455v23.232h23.232c12.832 0 23.233-10.402 23.233-23.233 0-3.234-.663-6.315-1.858-9.114z" fill="#fff"/><path fill-rule="evenodd" clip-rule="evenodd" d="M19.094 30.876l22.19-22.19c-4.245-4.59-10.316-7.463-17.06-7.463H.99v23.232h10.97l6.423 6.42h.71zM64.51 20.128c0-3.415-1.397-5.433-5.279-5.433h-3.415l-.155.155v10.557l.155.155h3.415c3.882 0 5.279-2.018 5.279-5.434zm-2.174 0c0 2.484-.776 3.57-2.95 3.57H57.99l-.155-.154v-6.83l.155-.156h1.397c2.174 0 2.95 1.087 2.95 3.57zm10.868 5.28v-1.553l-.155-.156h-5.124l-.155-.155V21.06l.155-.155h4.814l.155-.156v-1.552l-.155-.155h-4.814l-.155-.155v-2.174l.155-.155h5.124l.155-.155V14.85l-.155-.155h-7.297l-.155.155v10.557l.155.155h7.297l.155-.155zm10.03-2.95c0-2.174-1.709-3.106-3.882-3.416-2.174-.31-2.794-.62-2.794-1.554 0-.62.465-1.085 1.862-1.085 1.708 0 2.174.465 2.174 1.397l.155.155h1.863l.155-.155c0-1.864-1.242-3.26-4.192-3.26-2.949 0-4.19 1.397-4.19 2.948 0 2.175 1.706 2.95 3.88 3.26 2.174.312 2.795.622 2.795 1.71 0 .93-.777 1.397-2.174 1.397-1.863 0-2.484-.621-2.484-1.708l-.156-.155h-1.862l-.156.155c0 2.018 1.398 3.57 4.503 3.57 3.26 0 4.503-1.552 4.503-3.26zm3.57 2.95V14.85l-.155-.155h-1.863l-.156.155v10.557l.156.155h1.863l.155-.155zm11.271 0v-5.59l-.155-.155h-4.813l-.155.155v1.552l.155.155h2.64l.155.157c0 1.242-.777 2.173-2.484 2.173-2.018 0-3.105-1.553-3.105-3.727 0-2.173 1.087-3.725 3.105-3.725 1.707 0 2.174.775 2.484 1.397l.155.155h1.863l.155-.155c-.31-1.553-1.553-3.26-4.657-3.26-3.261 0-5.279 2.328-5.279 5.588 0 3.26 2.018 5.59 5.123 5.59 1.708 0 2.485-.776 2.795-1.087h.155l.155.776.155.155h1.398l.155-.155zm1.459-10.558v10.557l.155.155h1.863l.157-.155v-7.142h.155l4.192 7.142.31.155h2.173l.155-.155V14.85l-.155-.155h-1.863l-.155.155v7.142h-.155l-4.192-7.142-.31-.155h-2.175l-.155.155zm-34.713-2.807V6.455l-.155-.156h-4.813l-.155.156v1.552l.155.155h2.64l.155.155c0 1.243-.777 2.173-2.484 2.173-2.018 0-3.105-1.552-3.105-3.725 0-2.174 1.087-3.727 3.105-3.727 1.707 0 2.174.777 2.484 1.398l.155.155h1.863l.155-.155c-.31-1.553-1.553-3.26-4.657-3.26-3.26 0-5.279 2.328-5.279 5.589 0 3.26 2.019 5.589 5.123 5.589 1.708 0 2.485-.777 2.795-1.087h.155l.155.777.155.155h1.398l.155-.155zm9.595-5.278c0 2.173-1.086 3.725-3.105 3.725-2.018 0-3.105-1.552-3.105-3.725 0-2.174 1.087-3.727 3.105-3.727 2.019 0 3.105 1.553 3.105 3.727zm2.174 0c0-3.26-2.019-5.59-5.279-5.59s-5.279 2.33-5.279 5.59 2.019 5.589 5.28 5.589c3.26 0 5.278-2.329 5.278-5.59zm9.47 0c0 2.173-1.087 3.725-3.105 3.725S79.85 8.938 79.85 6.765c0-2.174 1.087-3.727 3.105-3.727S86.06 4.59 86.06 6.765zm2.173 0c0-3.26-2.017-5.59-5.278-5.59-3.261 0-5.278 2.33-5.278 5.59s2.017 5.589 5.278 5.589c3.26 0 5.278-2.329 5.278-5.59zm10.185 0c0-3.416-1.397-5.434-5.28-5.434h-3.415l-.155.155v10.558l.155.155h3.416c3.882 0 5.279-2.019 5.279-5.434zm-2.174 0c0 2.485-.775 3.57-2.949 3.57h-1.398l-.155-.155V3.35l.155-.156h1.398c2.174 0 2.949 1.087 2.949 3.57zM64.726 38.44v-1.551l-3.565-8.99-.155-.156H58.99l-.154.155-3.566 8.991v1.55l.155.156h1.395l.155-.155.775-2.015.31-.156h3.876l.31.156.774 2.015.155.155h1.396l.155-.155zm-3.255-4.186l-.155.155H58.68l-.155-.155 1.394-3.72h.155l1.396 3.72zm8.66-6.51l-.154.154-2.016 7.131h-.154l-1.55-7.13-.156-.156h-1.55l-.155.155v1.551l2.325 8.99.155.156h2.015l.155-.155 2.016-7.441h.155l2.015 7.44.155.156h2.015l.155-.155 2.326-8.991v-1.55l-.155-.156h-1.55l-.156.155-1.55 7.131h-.154l-2.016-7.13-.155-.156h-2.015zm16.96 10.696v-1.551l-3.565-8.99-.156-.156h-2.015l-.155.155-3.565 8.991v1.55l.155.156h1.395l.155-.155.775-2.015.31-.156H84.3l.31.156.776 2.015.155.155h1.395l.156-.155zm-3.256-4.186l-.155.155h-2.635l-.155-.155 1.396-3.72h.155l1.394 3.72zm13.332-3.255c0-2.17-1.55-3.256-3.72-3.256h-5.116l-.155.155V38.44l.155.155h1.86l.156-.155v-4.031l.154-.155h1.55l.31.155 3.101 4.03.31.156h.93l.156-.155v-1.551l-2.016-2.635v-.155c1.24-.31 2.325-1.396 2.325-3.1zm-2.17 0c0 1.085-.62 1.395-1.55 1.395h-2.946l-.154-.155v-2.481l.154-.155h2.947c.929 0 1.549.31 1.549 1.395zm12.217 2.17c0-3.411-1.396-5.426-5.272-5.426h-3.41l-.155.155V38.44l.155.155h3.41c3.876 0 5.272-2.016 5.272-5.425zm-2.171 0c0 2.48-.776 3.565-2.946 3.565h-1.395l-.155-.155v-6.821l.155-.155h1.395c2.17 0 2.946 1.085 2.946 3.567zm5.264-6.412c1.214 0 2.186.973 2.186 2.186a2.178 2.178 0 01-2.186 2.186 2.178 2.178 0 01-2.186-2.186c0-1.213.972-2.186 2.186-2.186zm0 4.068c1.032 0 1.882-.85 1.882-1.882s-.85-1.882-1.882-1.882a1.89 1.89 0 00-1.882 1.882 1.89 1.89 0 001.882 1.882zm1.093-.971v.242l-.061.06h-.061l-.121-.06-.607-.849-.121-.061h-.607l-.062.061v.85l-.06.06h-.243l-.061-.06V27.79l.061-.06h1.214c.426 0 .79.242.79.727a.66.66 0 01-.548.667v.062l.487.668zm-.729-1.822h-.849l-.062.06v.73l.062.06h.849c.304 0 .426-.181.426-.425 0-.242-.122-.425-.426-.425zM58.547 41.826c-1.29 0-1.985.993-1.985 2.382 0 1.39.694 2.383 1.985 2.383 1.292 0 1.986-.993 1.986-2.383 0-1.39-.694-2.382-1.986-2.382zm0 5.957c-2.084 0-3.376-1.49-3.376-3.575 0-2.084 1.291-3.574 3.376-3.574s3.375 1.49 3.375 3.574c0 2.085-1.29 3.575-3.375 3.575zm9.006-5.858h-3.076l-.1.1v1.489l.1.098h2.878l.099.1v.992l-.099.1h-2.879l-.1.1v2.68l-.099.098h-1.191l-.099-.098v-6.75l.099-.1h4.468l.1.1v.991l-.1.1zm8.935 0h-1.985l-.1.1v5.559l-.1.098h-1.19l-.099-.098v-5.56l-.1-.1H70.93l-.1-.099v-.992l.1-.1h5.56l.1.1v.992l-.1.1zm6.431 5.758h-1.191l-.1-.1v-2.779l-.099-.1h-2.68l-.1.1v2.78l-.098.099h-1.192l-.1-.1v-6.75l.1-.1h1.192l.098.1v2.58l.1.1h2.68l.099-.1v-2.58l.1-.1h1.191l.1.1v6.75l-.1.1zm6.301 0h-4.667l-.1-.1v-6.75l.1-.1h4.666l.1.1v.993l-.1.1h-3.276l-.099.098v1.39l.099.099h3.078l.099.1v.992l-.099.1h-3.078l-.099.099v1.588l.099.1h3.276l.1.1v.991l-.1.1zm6.948-2.582v2.483l-.1.098h-1.191l-.099-.098V45.1l-1.985-3.276v-.992l.099-.1h.695l.198.1 1.59 2.68h.197l1.59-2.68.197-.1h.696l.098.1v.992L96.168 45.1zm7.569 2.582h-4.666l-.1-.1v-6.75l.1-.1h4.666l.099.1v.993l-.099.1h-3.277l-.098.098v1.39l.098.099h3.079l.098.1v.992l-.098.1h-3.079l-.098.099v1.588l.098.1h3.277l.099.1v.991l-.099.1zm3.856-5.163h-.1l-.894 2.383.1.099h1.687l.1-.099-.893-2.383zm2.878 5.162h-.893l-.099-.098-.497-1.291-.198-.1h-2.483l-.198.1-.496 1.29-.099.1h-.894l-.1-.1v-.992l2.285-5.758.098-.1h1.291l.1.1 2.283 5.758v.993l-.1.098zm4.275-5.757h-1.887l-.098.1v1.587l.098.1h1.887c.596 0 .993-.198.993-.894 0-.695-.397-.893-.993-.893zm.894 2.879v.1l1.291 1.687v.993l-.1.098h-.596l-.199-.098-1.985-2.582-.198-.099h-.994l-.098.099v2.582l-.1.098h-1.191l-.1-.098v-6.75l.1-.1h3.276c1.39 0 2.383.695 2.383 2.084 0 1.092-.695 1.787-1.489 1.986z" fill="#fff"/></svg>