<svg width="176" height="128" fill="none" xmlns="http://www.w3.org/2000/svg"><path fill="#000" d="M0 0h176v128H0z"/><path fill="#000" d="M63 36h50.785v55.403H63z"/><path d="M76.213 78.832l-8.204-9.719h-3.481v15.209h3.395v-9.7l8.176 9.7h3.5V69.113h-3.386v9.719zm32.525-9.719l-2.219 9.738-2.391-9.738h-3.244l-2.4 9.623-2.18-9.623h-3.539l3.917 15.209h3.491l2.305-9.623 2.343 9.623h3.424v-.134l3.964-15.075h-3.471zM64.167 88.991a2.429 2.429 0 01.695-1.733 2.378 2.378 0 011.715-.706 2.532 2.532 0 011.802.64l-.522.584a1.885 1.885 0 00-1.308-.507 1.57 1.57 0 00-1.102.515 1.604 1.604 0 00-.416 1.15 1.572 1.572 0 00.952 1.592c.203.085.422.126.641.12.401.004.793-.12 1.12-.354v-.88h-1.195v-.68h2.03v1.914a2.925 2.925 0 01-1.897.736 2.309 2.309 0 01-1.74-.674 2.34 2.34 0 01-.689-1.746m4.781.029a2.436 2.436 0 01.71-1.743 2.38 2.38 0 011.737-.696 2.342 2.342 0 011.733.683 2.379 2.379 0 01.704 1.737 2.42 2.42 0 01-.713 1.737 2.39 2.39 0 01-1.734.693 2.354 2.354 0 01-1.73-.687 2.406 2.406 0 01-.707-1.733v.01zm4.022-.01a1.628 1.628 0 00-.961-1.549 1.59 1.59 0 00-.624-.134 1.565 1.565 0 00-1.141.492 1.602 1.602 0 00-.433 1.172 1.615 1.615 0 001.584 1.684 1.57 1.57 0 001.477-1.033c.075-.202.108-.416.098-.631zm.804-2.363h.911l1.404 3.625 1.395-3.625h.89l-1.944 4.744h-.71l-1.945-4.744zm5.15 0h3.472v.746h-2.646v1.224h2.343v.736h-2.343v1.263h2.675v.746h-3.5v-4.715zm4.297 0h2.078c.494-.024.977.148 1.347.478a1.401 1.401 0 01.389 1.014c.011.331-.094.656-.297.917-.203.26-.49.44-.813.508l1.261 1.789h-.948l-1.166-1.636h-1.034v1.646h-.817v-4.716zm2.02 2.334c.589 0 .95-.306.95-.784 0-.508-.361-.785-.95-.785h-1.203v1.578l1.204-.01zm2.524-2.334h.75l2.504 3.261v-3.261h.806v4.715h-.683l-2.58-3.357v3.357h-.797v-4.715zm4.895 0h.873l1.423 2.228 1.423-2.228h.872v4.715h-.815v-3.376l-1.48 2.219h-.029l-1.46-2.21v3.367h-.807v-4.715zm5.379 0h3.462v.746H98.94v1.224h2.343v.736H98.94v1.263h2.675v.746h-3.49v-4.715zm4.297 0h.759l2.504 3.261v-3.261h.806v4.715h-.683l-2.58-3.357v3.357h-.806v-4.715zm6.203.774h-1.481v-.774h3.785v.774h-1.479v3.941h-.825v-3.94zM80.538 82.21l1.992-2.411a7 7 0 004.573 1.913c1.384 0 2.21-.546 2.21-1.454v-.048c0-.86-.523-1.3-3.083-1.913-3.092-.794-5.084-1.655-5.084-4.725v-.144c0-2.802 2.238-4.658 5.368-4.658a8.81 8.81 0 015.691 1.97l-1.745 2.554a7.22 7.22 0 00-3.994-1.52c-1.29 0-1.963.592-1.963 1.348v.048c0 1.014.655 1.34 3.301 2.028 3.111.813 4.867 1.913 4.867 4.639 0 3.07-2.325 4.782-5.635 4.782a9.704 9.704 0 01-6.498-2.41zm17.606-37.476c.505 2.548.769 5.14.786 7.738a23.789 23.789 0 01-.948 7.05 8.73 8.73 0 01-2.988 4.342c2.732-.086 5.17-1.798 6.906-4.83 2.247-3.98 2.731-8.972 2.845-12.627.075-4.16-.227-5.136-.351-5.538-.123-.401-.285-.564-.645-.564-.692 0-3.623 1.339-6.364 3.31a1.586 1.586 0 01.759 1.12z" fill="#fff"/><path d="M90.689 64.38a7.273 7.273 0 003.921-1.636 7.365 7.365 0 002.357-3.558c.639-2.174.958-4.43.95-6.696a33.318 33.318 0 00-.655-7.222c0-.258-.152-.67-.475-.736-.322-.067-.606.277-.806.44-.2.162-4.961 4.361-7.028 9.565a12.385 12.385 0 00-1.12 5.5 5.644 5.644 0 00.664 3.271 2.537 2.537 0 002.192 1.072zm7.188-22.516c-.53-2.477-1.043-4.17-1.052-4.18-.115-.306-.276-.536-.504-.574a.809.809 0 00-.692.22c-.332.249-2.703 2.133-3.481 2.784a35.66 35.66 0 011.955 4.782 45.734 45.734 0 013.774-3.032zm13.726 6.253a1.37 1.37 0 00-.115-.766c-.151-.22-.351-.325-.825-.382a46.356 46.356 0 00-4.97.258c-.03 1.62-.17 3.238-.417 4.84a36.21 36.21 0 013.443 1.502c2.352-2.994 2.836-4.907 2.884-5.453zm2.181 10.38c0-.402-.199-.718-.844-1.148a39.038 39.038 0 00-7.863-4.18 21.333 21.333 0 01-2.238 6.36 11.448 11.448 0 01-3.91 4.2c4.601-.316 8.472-1.033 11.26-2.391 3.187-1.55 3.615-2.325 3.595-2.841zm-10.168 5.98c-.885.065-1.766.186-2.637.363-.91.165-1.835.232-2.76.201H94.52a17.871 17.871 0 00-4.742.498c-.086 0-.19 0-.17.143.018.144.122.077.246.086.122.01 1.27-.086 1.83-.086 1.606.015 3.2.25 4.743.698 1.34.4 2.729.612 4.126.632 1.745 0 3.263-.23 3.794-.861a1.113 1.113 0 00.284-.957c-.009-.516-.331-.727-1.015-.717zm-28.73-5.491c1.726 3.033 4.174 4.783 6.896 4.83a8.72 8.72 0 01-2.998-4.294 23.488 23.488 0 01-.949-7.05c.021-2.599.288-5.19.797-7.738a1.607 1.607 0 01.797-1.129c-2.77-2.075-5.69-3.29-6.365-3.31-.35 0-.522.154-.635.565-.114.412-.436 1.378-.351 5.539.066 3.615.55 8.608 2.808 12.587z" fill="#fff"/><path d="M80.841 44.952c-.189-.163-.493-.507-.796-.44-.303.067-.427.478-.483.736a34.274 34.274 0 00-.646 7.222 23.808 23.808 0 00.892 6.696 7.312 7.312 0 002.375 3.567 7.224 7.224 0 003.951 1.608 3.208 3.208 0 001.092-.201c.17-.073.331-.163.483-.268a4.253 4.253 0 01-.39-.66 6.96 6.96 0 01-.577-2.965 15.28 15.28 0 011.157-5.883c-2.078-5.184-6.867-9.25-7.058-9.412zm7.551 7.873a25.97 25.97 0 014.913-6.781 42.489 42.489 0 00-4.524-9.747c-.123-.182-.218-.297-.398-.297-.18 0-.266.115-.39.297a42.912 42.912 0 00-4.524 9.747 25.986 25.986 0 014.923 6.781zm-3.756-12.673a154.78 154.78 0 00-3.49-2.783.788.788 0 00-.684-.22c-.236 0-.398.267-.511.573 0 0-.513 1.703-1.043 4.18a45.391 45.391 0 013.794 3.052 37.157 37.157 0 011.934-4.802zm-16.58 13.417a37.478 37.478 0 013.452-1.502 34.556 34.556 0 01-.426-4.84 46.314 46.314 0 00-4.96-.258c-.485.057-.675.162-.826.382a1.301 1.301 0 00-.114.766c.047.545.55 2.458 2.874 5.452zm5.89 5.961a21.046 21.046 0 01-2.238-6.361 39.198 39.198 0 00-7.873 4.18c-.636.43-.816.746-.834 1.148-.02.401.398 1.291 3.585 2.87 2.779 1.358 6.64 2.075 11.259 2.39a11.336 11.336 0 01-3.899-4.227zm13.014 5.95a17.883 17.883 0 00-4.743-.497h-3.69c-.913.04-1.828-.014-2.731-.163a20.901 20.901 0 00-2.627-.363c-.693 0-1.016.2-1.139.65a1.092 1.092 0 00.275.957c.57.63 2.087.86 3.842.86a15.29 15.29 0 004.126-.63 17.541 17.541 0 014.743-.7c.568 0 1.707.087 1.83.087s.246 0 .257-.086c.009-.086-.058-.086-.143-.115z" fill="#fff"/></svg>